<svg width="600" height="600" viewBox="0 0 600 600" fill="none" xmlns="http://www.w3.org/2000/svg">
<g clip-path="url(#clip0_1115_2)">
<rect width="600" height="600" fill="white"/>
<rect opacity="0.08" width="600" height="600" fill="#111111"/>
<path d="M555 514C553.577 505.319 542.409 444.385 507.293 426.504C499.903 422.736 492.239 419.624 484.383 416.839C483.617 416.73 459.339 413.509 435.061 410.042C410.4 406.52 395.127 388.966 395.127 388.966L413.931 386.618C413.931 386.618 434.705 388.42 452.77 377.009C445.763 360.465 441.384 348.153 437.442 337.942C424.852 305.237 420.007 277.528 424.879 253.94C434.459 207.476 413.986 107.94 364.718 81.6502C324.702 60.3016 289.449 70.5391 274.778 69.9112C246.996 68.7919 206.898 103.627 188.56 147.634C173.506 183.725 176.517 252.193 179.965 281.35C182.374 301.879 189.052 324.593 171.207 363.331C169.4 365.979 168.223 367.645 168.223 367.645C168.223 367.645 169.017 366.744 170.386 365.133C167.758 370.648 164.556 376.572 160.833 382.796C174.683 396.61 181.471 389.976 190.832 391.314C207.254 393.662 208.458 399.504 208.458 399.504C208.458 399.504 158.671 413.782 130.342 417.085C118.436 420.934 104.066 420.743 92.7347 426.531C57.5906 444.385 46.4233 505.319 45 514H555Z" fill="#D4D5D5"/>
<rect x="45" y="513" width="510" height="87" fill="#D4D5D5"/>
</g>
<defs>
<clipPath id="clip0_1115_2">
<rect width="600" height="600" fill="white"/>
</clipPath>
</defs>
</svg>
