<svg width="40" height="41" viewBox="0 0 40 41" fill="none" xmlns="http://www.w3.org/2000/svg">
<path fill-rule="evenodd" clip-rule="evenodd" d="M9.54067 4.14844C6.25682 4.14844 3.59473 6.81053 3.59473 10.0944V30.9052C3.59473 34.189 6.25682 36.8511 9.54067 36.8511H30.3515C33.6353 36.8511 36.2974 34.189 36.2974 30.9052V10.0944C36.2974 6.81053 33.6353 4.14844 30.3515 4.14844H9.54067ZM11.3312 14.4187C12.7306 14.4187 13.865 13.2843 13.865 11.8849C13.865 10.4856 12.7306 9.35114 11.3312 9.35114C9.93184 9.35114 8.79743 10.4856 8.79743 11.8849C8.79743 13.2843 9.93184 14.4187 11.3312 14.4187ZM13.865 31.6484V16.4457H8.79743V31.6484H13.865ZM20.4528 16.4457H15.892V31.6484H20.4528V22.4774C21.0404 21.5219 22.0539 20.4998 23.4934 20.4998C25.5204 20.4998 26.0271 22.5268 26.0271 23.5404V31.6484H31.0947V23.5404C31.0947 20.8244 29.9093 16.4457 25.5204 16.4457C22.7289 16.4457 21.179 17.4641 20.4528 18.4181V16.4457Z" fill="#DE3423"/>
<path fill-rule="evenodd" clip-rule="evenodd" d="M36.8919 4H3V37H36.8919V4ZM33.3246 8.45922H7.45974V34.3241H33.3246V8.45922Z" fill="#DE3423"/>
</svg>
