<svg width="72" height="72" viewBox="0 0 72 72" fill="none" xmlns="http://www.w3.org/2000/svg">
<path fill-rule="evenodd" clip-rule="evenodd" d="M34.4162 63.1768C34.4165 63.177 34.4168 63.1773 36.0001 61.8167L34.4162 63.1768ZM37.585 63.1754L37.6 63.1579L37.6439 63.1068L37.809 62.9142C37.9521 62.7461 38.1603 62.4999 38.4239 62.1833C38.9509 61.55 39.7011 60.6342 40.6003 59.4951C42.3964 57.2192 44.7949 54.0412 47.1972 50.4391C49.5957 46.8434 52.0237 42.7871 53.8592 38.758C55.6776 34.7657 57 30.6175 57 26.8887C57 15.3522 47.5978 6 36.0001 6C24.402 6 15 15.3522 15 26.8887C15 30.6175 16.3224 34.7657 18.1408 38.758C19.9761 42.7871 22.4043 46.8434 24.8026 50.4391C27.2052 54.0412 29.6037 57.2192 31.3998 59.4951C32.2987 60.6342 33.0489 61.55 33.5762 62.1833C33.8399 62.4999 34.0477 62.7461 34.1911 62.9142L34.356 63.1068L34.3998 63.1579L34.4162 63.1768L36.0001 65L37.585 63.1754ZM36.0001 61.8167L37.585 63.1754C37.5844 63.1759 37.5833 63.1773 36.0001 61.8167ZM29.5365 34.4402H42.4634V21.5821H29.5365V34.4402Z" fill="#DE3423"/>
</svg>
