<svg width="44" height="44" viewBox="0 0 44 44" fill="none" xmlns="http://www.w3.org/2000/svg">
<path d="M16.5002 21.0833C20.044 21.0833 22.9168 18.2105 22.9168 14.6667C22.9168 11.1228 20.044 8.25 16.5002 8.25C12.9563 8.25 10.0835 11.1228 10.0835 14.6667C10.0835 18.2105 12.9563 21.0833 16.5002 21.0833Z" stroke="#DE3423" stroke-width="2.75"/>
<path d="M27.5 21.0833C31.0438 21.0833 33.9167 18.2105 33.9167 14.6667C33.9167 11.1228 31.0438 8.25 27.5 8.25" stroke="#DE3423" stroke-width="2.75"/>
<path d="M16.5001 26.5834C11.8251 26.5834 7.44197 27.8333 3.66675 30.0172V35.75H29.3334V30.0172C25.5582 27.8333 21.1751 26.5834 16.5001 26.5834Z" stroke="#DE3423" stroke-width="2.75"/>
<path d="M33.9167 35.75H40.3334V30.017C38.3474 28.8682 36.1932 27.9778 33.9167 27.3918" stroke="#DE3423" stroke-width="2.75"/>
</svg>
