<?xml version="1.0" encoding="UTF-8"?>
<svg width="32" height="32" id="Layer_2" xmlns="http://www.w3.org/2000/svg" xmlns:xlink="http://www.w3.org/1999/xlink" viewBox="0 0 29.88 29.88">
  <defs>
    <style>
      .cls-1 {
        fill: url(#linear-gradient);
      }
    </style>
    <linearGradient id="linear-gradient" x1="0" y1="14.94" x2="29.88" y2="14.94" gradientUnits="userSpaceOnUse">
      <stop offset="0" stop-color="#fff"/>
      <stop offset="1" stop-color="#fff"/>
    </linearGradient>
  </defs>
  <g id="Layer_1-2" data-name="Layer_1">
    <g id="icson">
      <path class="cls-1" d="M28.01,29.88H1.87c-.02-.05-.03-.14-.07-.15-.78-.32-1.33-.87-1.65-1.65-.01-.04-.1-.04-.15-.07C0,19.3,0,10.58,0,1.87c.05-.02.14-.03.15-.07C.47,1.02,1.02.47,1.8.15c.04-.01.04-.1.07-.15,8.71,0,17.43,0,26.14,0,.02.05.03.14.07.15.78.32,1.33.87,1.65,1.65.01.04.1.04.15.07v26.14c-.05.02-.14.03-.15.07-.32.78-.87,1.33-1.65,1.65-.04.01-.04.1-.07.15ZM16.37,12.84c0-.37,0-.58,0-.79,0-.87-.21-1.07-1.06-1.08-.95,0-1.91,0-2.86,0-.74,0-1,.25-1,.97,0,4.55,0,9.1,0,13.65,0,.73.26.98.99.99.93,0,1.87,0,2.8,0,.93,0,1.13-.2,1.13-1.13,0-2.26-.01-4.51,0-6.77,0-1.01.21-1.96.83-2.8.96-1.3,3.57-1.29,4.14.57.2.66.33,1.37.34,2.05.04,2.37.01,4.74.02,7.12,0,.7.25.95.95.96,1.03.01,2.06,0,3.09,0,.74,0,.98-.25.99-.98,0-1.5.03-3,0-4.49-.05-1.9-.04-3.81-.27-5.7-.24-2.02-1.19-3.72-3.29-4.33-2.5-.72-4.86-.55-6.79,1.75ZM9.24,18.8c0-2.28,0-4.55,0-6.83,0-.72-.27-.99-.98-1-.97-.01-1.94-.01-2.92,0-.73,0-1.01.29-1.01,1.05,0,4.51,0,9.02,0,13.53,0,.74.28,1.02,1.03,1.03.93.01,1.87,0,2.8,0,.82,0,1.08-.26,1.08-1.08,0-2.24,0-4.47,0-6.71ZM9.95,6.45c-.01-1.74-1.42-3.15-3.16-3.15-1.74,0-3.19,1.45-3.17,3.21.01,1.73,1.45,3.15,3.17,3.15,1.76,0,3.18-1.44,3.16-3.21Z"/>
    </g>
  </g>
</svg>