<svg width="40" height="40" xmlns="http://www.w3.org/2000/svg" version="1.0" viewBox="0 0 1024 1024">
<path fill="#DE3423" d="M488 1C339.5 8.2 203.6 78 110.8 194.6c-22.4 28.2-40.6 57-57.8 91.9C23.8 345.8 7.7 404.1 1.9 472c-1.5 17.4-1.5 62.6 0 80C7.7 619.9 23.8 678.2 53 737.5c22.1 44.8 45.8 79.8 79 116.9 76.8 85.8 184.4 144.5 297.5 162.5 105.9 16.8 210.9 1.4 306-44.8 79.7-38.8 146.5-96 197.3-169.1 14.2-20.5 25.6-40 38.2-65.5 29.2-59.3 45.3-117.6 51.1-185.5 2.5-28.6 1.3-74.8-2.6-105-7.6-58-22.8-108.4-48.5-160.5-12.6-25.5-24-45-38.2-65.5-68.2-98-166.3-168.2-281.4-201.4C602.3 5.5 540.4-1.6 488 1zm273.6 722.8c-.3.2-6.2-4.2-13.3-9.8-48.1-38.1-56.9-45-119.8-94.7-8.2-6.5-20.1-15.9-26.4-20.8-6.3-5-12.3-9.8-13.3-10.8-1.7-1.6-1.8-6.2-1.6-109.9l.3-108.2 8.1-6.5c4.5-3.6 14.1-11.3 21.5-17.1 7.3-5.8 21.3-16.8 31-24.5 9.7-7.7 24.5-19.4 32.9-26 8.4-6.6 22.1-17.4 30.4-24 8.4-6.6 20.3-16.1 26.6-21 6.3-5 14.2-11.2 17.5-13.8l6-4.8.3 245.7c.1 135.1 0 245.9-.2 246.2zM425 478.1v109.1l-35.7-.4c-35.1-.4-36-.5-45.8-3.1-35.4-9.5-64.4-36.5-76.1-71.1-7.6-22.1-7.2-50.1.9-71.6 12.6-33.5 40.1-58.7 74.4-68.1 11.5-3.2 17.8-3.6 51.1-3.8l31.2-.1v109.1zm152-.1v109h-37c-32.3 0-37 .2-37 1.5s5.5 36.1 14.5 92.5c3.8 23.4 9.3 57.9 11.6 72.5 1.1 7.1 2.9 18.2 4 24.6 1 6.4 1.9 12.1 1.9 12.8 0 .8-9 1.1-33 1.1h-32.9l-.6-3.3c-.3-1.7-2.8-17.4-5.5-34.7-2.8-17.3-6.2-38.5-7.5-47-1.4-8.5-3.9-24.1-5.5-34.5-1.7-10.5-3.9-24.4-5-31-1.1-6.6-3.5-22-5.5-34.2L436 585V369h141v109z"/>
<path fill="#DE3423" d="M502.5 436.4c-1.6.7-3.9 2.3-5 3.6-1.9 2.1-2 3.8-2.3 36.6-.2 30.8-.1 34.8 1.4 38 3.3 7 12.4 8.2 18 2.3l2.9-3 .3-34.4c.2-29.6.1-34.9-1.3-37.5-2.8-5.3-8.9-7.8-14-5.6z"/>
</svg>