<svg width="32" height="32" viewBox="0 0 32 32" fill="none" xmlns="http://www.w3.org/2000/svg">
<path d="M1.33301 25.2726C22.1558 33.3546 28.0505 18.5714 27.8727 11.2725C29.5641 10.8111 30.6663 9.65985 30.6663 8.47885C29.2695 9.21282 28.5394 9.00422 27.841 8.47885C29.345 7.45453 29.2695 5.99423 29.2695 4.98679C28.5663 5.35541 27.2647 6.26666 25.7774 6.38363C24.783 4.8287 22.2854 3.58999 18.7933 4.98681C15.3013 6.38362 14.6029 10.1085 15.3013 11.9709C10.8314 11.9709 5.52349 7.31485 3.42825 4.98681C0.917192 8.56983 4.09398 12.1239 5.52349 13.3678C4.5705 13.6527 3.42825 13.3678 2.72983 12.6694C2.72983 16.6574 6.2219 18.2566 7.61873 18.9551H4.82507C4.82507 21.7487 8.08433 22.9127 9.71396 23.1455C8.5965 24.263 4.09439 25.2726 1.33301 25.2726Z" fill="white"/>
</svg>
