<svg width="64" height="64" viewBox="0 0 64 64" fill="none" xmlns="http://www.w3.org/2000/svg">
<path fill-rule="evenodd" clip-rule="evenodd" d="M34.617 6.79248V9.45915V17.2098C38.0058 17.7645 41.1615 19.3675 43.621 21.8269C46.3613 24.5672 48.0383 28.1719 48.3869 32.0002H59.3098H61.9765V37.3335H59.3098H48.0026C47.2994 40.2751 45.7949 42.9927 43.621 45.1663C40.5261 48.2615 36.3282 50.0002 31.9514 50.0002C27.5743 50.0002 23.3766 48.2615 20.2816 45.1663C18.1079 42.9927 16.6032 40.2751 15.9 37.3335H4.69109H2.02441V32.0002H4.69109H15.5158C15.8642 28.1719 17.5413 24.5672 20.2816 21.8269C22.7406 19.3679 25.8957 17.765 29.2837 17.2101V9.45915V6.79248H34.617ZM55.0821 39.7559C53.6135 39.7559 52.2053 40.3391 51.1671 41.3775C50.1287 42.4159 49.5455 43.8242 49.5455 45.2924C49.5455 46.7607 50.1287 48.169 51.1671 49.2074C52.2053 50.2458 53.6135 50.829 55.0821 50.829C56.5503 50.829 57.9586 50.2458 58.997 49.2074C60.0354 48.169 60.6186 46.7607 60.6186 45.2924C60.6186 43.8242 60.0354 42.4159 58.997 41.3775C57.9586 40.3391 56.5503 39.7559 55.0821 39.7559ZM8.82032 39.7559C7.35194 39.7559 5.9437 40.3391 4.90538 41.3775C3.86709 42.4159 3.28376 43.8242 3.28376 45.2924C3.28376 46.7607 3.86709 48.169 4.90538 49.2074C5.9437 50.2458 7.35194 50.829 8.82032 50.829C10.2887 50.829 11.697 50.2458 12.7352 49.2074C13.7736 48.169 14.3569 46.7607 14.3569 45.2924C14.3569 43.8242 13.7736 42.4159 12.7352 41.3775C11.697 40.3391 10.2887 39.7559 8.82032 39.7559ZM26.5687 26.4639H23.902V31.7972H26.5687H37.333H39.9997V26.4639H37.333H26.5687Z" fill="#DE3423"/>
</svg>
