<svg width="64" height="64" viewBox="0 0 64 64" fill="none" xmlns="http://www.w3.org/2000/svg">
<path d="M55.785 48.1433C56.0389 48.0205 56.2664 47.8477 56.4543 47.6349C56.6423 47.4222 56.7869 47.1737 56.88 46.9037C56.973 46.6338 57.0126 46.3478 56.9965 46.0622C56.9804 45.7767 56.9088 45.4972 56.786 45.2399C56.786 45.2399 53.9749 39.4763 52.761 37.4179C52.7127 37.3419 52.6465 37.2794 52.5684 37.2361C52.4903 37.1928 52.4027 37.1701 52.3138 37.1701C52.2248 37.1701 52.1373 37.1928 52.0591 37.2361C51.981 37.2794 51.9148 37.3419 51.8665 37.4179C50.5249 39.2813 46.3934 43.9182 38.3222 41.4697C28.888 38.6313 28.7815 25.1974 28.7815 24.6341C28.7786 24.4199 28.818 24.2072 28.8972 24.0088C28.9765 23.8103 29.094 23.63 29.2429 23.4785C29.3918 23.327 29.569 23.2074 29.7641 23.1268C29.9592 23.0461 30.1682 23.0061 30.3787 23.009C30.8023 23.009 31.2086 23.1802 31.5081 23.485C31.8076 23.7897 31.9759 24.2031 31.9759 24.6341C31.9759 24.7424 32.0824 36.2045 39.2379 38.3496C46.3934 40.4947 49.3323 35.6845 50.0138 34.1678C50.0568 34.092 50.0794 34.0061 50.0794 33.9186C50.0794 33.8311 50.0568 33.7452 50.0138 33.6694C42.2407 20.0839 32.3166 6 24.4371 6C18.8149 6 10.6797 8.49177 7.29363 12.9553C7.062 13.2851 6.96179 13.692 7.01315 14.0941C7.06452 14.4961 7.26366 14.8634 7.57048 15.122C7.73457 15.2552 7.92314 15.3536 8.12514 15.4116C8.32713 15.4696 8.53848 15.486 8.74677 15.4598C8.95506 15.4335 9.1561 15.3652 9.3381 15.2588C9.52009 15.1525 9.67937 15.0102 9.80658 14.8403C10.1304 14.4561 10.479 14.0942 10.8501 13.757C10.931 13.7094 11.0228 13.6844 11.1163 13.6844C11.2098 13.6844 11.3016 13.7094 11.3825 13.757C11.4721 13.7852 11.5518 13.839 11.6122 13.912C11.6726 13.985 11.7111 14.074 11.7232 14.1687C13.1075 21.8606 16.7491 40.1697 21.0084 45.8682C22.2311 47.4773 23.7147 48.8622 25.3954 49.9634C25.4956 50.0286 25.5725 50.125 25.6147 50.2381C25.6569 50.3513 25.6621 50.4753 25.6296 50.5918L24.0963 55.1203C23.9128 55.6662 23.9499 56.264 24.1995 56.782C24.4491 57.3001 24.8908 57.6961 25.4273 57.8829C25.9639 58.0696 26.5514 58.0319 27.0606 57.7779C27.5698 57.524 27.959 57.0746 28.1426 56.5287L29.4843 52.4985C29.5282 52.3646 29.6218 52.2534 29.7451 52.1886C29.8684 52.1239 30.0117 52.1107 30.1444 52.1518C32.3267 52.8017 34.6134 53.0078 36.874 52.7585C36.9626 52.75 37.0519 52.7642 37.1337 52.7999C37.2155 52.8355 37.2872 52.8914 37.3423 52.9626C37.3974 53.0337 37.4341 53.1177 37.449 53.207C37.4639 53.2962 37.4566 53.3879 37.4277 53.4735L36.874 55.1203C36.6905 55.6662 36.7276 56.264 36.9772 56.782C37.2268 57.3001 37.6685 57.6961 38.205 57.8829C38.7416 58.0696 39.3291 58.0319 39.8383 57.7779C40.3475 57.524 40.7367 57.0746 40.9203 56.5287C42.2833 52.4118 42.6027 51.4585 42.7092 51.1551C42.7505 51.0176 42.8419 50.9013 42.9647 50.8301C44.4792 50.0017 45.8703 48.9584 47.0962 47.7316C48.3088 46.5144 49.4267 45.2032 50.4397 43.8098C50.4903 43.733 50.561 43.6721 50.6437 43.6338C50.7265 43.5956 50.818 43.5815 50.9082 43.5931C50.9977 43.596 51.0848 43.6238 51.1599 43.6734C51.235 43.7231 51.2952 43.7927 51.3341 43.8748C52.3564 45.8899 52.9526 47.1033 52.9526 47.125C53.1966 47.6411 53.6315 48.038 54.1623 48.2288C54.6931 48.4197 55.2765 48.3889 55.785 48.1433ZM22.925 11.1785C23.3462 11.1785 23.758 11.3056 24.1082 11.5437C24.4584 11.7818 24.7314 12.1202 24.8925 12.5161C25.0537 12.912 25.0959 13.3477 25.0137 13.768C24.9316 14.1883 24.7287 14.5744 24.4309 14.8774C24.1331 15.1804 23.7536 15.3868 23.3405 15.4704C22.9274 15.554 22.4992 15.5111 22.1101 15.3471C21.7209 15.1831 21.3883 14.9054 21.1543 14.5491C20.9203 14.1928 20.7954 13.7738 20.7954 13.3453C20.7954 12.7706 21.0198 12.2195 21.4192 11.8132C21.8185 11.4068 22.3602 11.1785 22.925 11.1785Z" fill="#DE3423"/>
</svg>
