<?xml version="1.0" encoding="UTF-8"?>
<svg width="32" height="32" id="Layer_2" xmlns="http://www.w3.org/2000/svg" xmlns:xlink="http://www.w3.org/1999/xlink" viewBox="0 0 34.81 26.31">
  <defs>
    <style>
      .cls-1 {
        fill: url(#linear-gradient);
      }
    </style>
    <linearGradient id="linear-gradient" x1="0" y1="13.16" x2="34.81" y2="13.16" gradientUnits="userSpaceOnUse">
      <stop offset="0" stop-color="#fff"/>
      <stop offset="1" stop-color="#fff"/>
    </linearGradient>
  </defs>
  <g id="Layer_1-2" data-name="Layer_1">
    <g id="icson">
      <path class="cls-1" d="M26.04,26.31h-.27c-.6-.99-1.21-1.97-1.81-2.96,1.02-.5,1.97-.96,2.92-1.42-.44-.64-.86-.55-1.4-.33-5.4,2.23-10.82,2.22-16.21-.02-.57-.24-.94-.22-1.33.36.96.46,1.9.91,2.91,1.4-.61,1-1.21,1.98-1.81,2.97h-.27c-.2-.09-.39-.2-.59-.27-2.67-.9-5.16-2.16-7.47-3.77-.42-.29-.58-.62-.59-1.11,0-.67-.08-1.34-.12-2.01,0-.18,0-.36,0-.54.03-.29.07-.58.08-.87C.25,12.61,1.83,7.91,4.47,3.53c.58-.95,1.26-1.63,2.34-1.93C8.64,1.09,10.46.53,12.28,0c.09,0,.18,0,.27,0,.23.48.48.95.67,1.45.14.37.33.39.71.38,1.85-.09,3.7-.14,5.55-.16.64,0,1.44.35,1.87.07C21.83,1.44,21.98.6,22.27,0c.09,0,.18,0,.27,0,.08.04.15.09.24.11,2.15.38,4.22,1.01,6.21,1.91.25.11.52.29.67.51,2.29,3.43,3.96,7.13,4.62,11.22.27,1.65.36,3.34.53,5.01v.4c-.04.65-.12,1.29-.12,1.94,0,.54-.15.93-.64,1.21-1.28.73-2.51,1.57-3.83,2.23-1.35.67-2.78,1.18-4.18,1.77ZM26.31,14.47c0-1.67-1.03-3.09-2.5-3.41-1.62-.35-3.18.69-3.64,2.42-.49,1.84.5,3.82,2.16,4.32,2.01.61,3.98-1.03,3.99-3.33ZM11.58,17.94c1.69.03,3.03-1.35,3.18-3.27.13-1.68-.97-3.27-2.51-3.61-1.51-.33-2.96.54-3.53,2.11-.82,2.25.67,4.73,2.85,4.77Z"/>
    </g>
  </g>
</svg>