<svg width="40" height="40" viewBox="0 0 40 40" fill="none" xmlns="http://www.w3.org/2000/svg">
<path fill-rule="evenodd" clip-rule="evenodd" d="M7.27863 3.71143H5.62914V5.36091V24.924L1.79297 38.3506H37.5068L33.2651 23.5052H32.0209H8.92811V7.0104H19.6498V3.71143H7.27863ZM15.526 34.6393H22.9487V32.165H15.526V34.6393Z" fill="#DE3423"/>
<path fill-rule="evenodd" clip-rule="evenodd" d="M26.1475 17.1105C27.0156 18.087 27.8798 18.8968 28.5256 19.4619C29.1184 19.9806 29.7412 20.4554 30.3712 20.9278C31.0011 20.4554 31.624 19.9806 32.2168 19.4619C32.8626 18.8968 33.7267 18.087 34.5949 17.1105C36.2729 15.2227 38.2062 12.4474 38.2062 9.48447C38.2062 5.15729 34.6984 1.64941 30.3712 1.64941C26.0439 1.64941 22.5361 5.15729 22.5361 9.48447C22.5361 12.4474 24.4695 15.2227 26.1475 17.1105ZM28.7217 7.83498V11.134H32.0207V7.83498H28.7217Z" fill="#DE3423"/>
</svg>
