<svg width="65" height="64" viewBox="0 0 65 64" fill="none" xmlns="http://www.w3.org/2000/svg">
<path fill-rule="evenodd" clip-rule="evenodd" d="M12.1467 5.93848H9.50751V8.57765V39.8785L3.36963 61.3612H60.5117L53.725 37.6086H51.7343H14.7859V11.2168H31.9405V5.93848H12.1467ZM25.3426 55.423H37.2188V51.4643H25.3426V55.423Z" fill="#DE3423"/>
<path fill-rule="evenodd" clip-rule="evenodd" d="M42.3368 27.3774C43.7258 28.9398 45.1085 30.2354 46.1417 31.1396C47.0902 31.9696 48.0868 32.7292 49.0947 33.485C50.1026 32.7292 51.0991 31.9696 52.0477 31.1396C53.0809 30.2354 54.4636 28.9398 55.8526 27.3774C58.5374 24.3569 61.6308 19.9164 61.6308 15.1757C61.6308 8.25225 56.0183 2.63965 49.0947 2.63965C42.1711 2.63965 36.5586 8.25225 36.5586 15.1757C36.5586 19.9164 39.652 24.3569 42.3368 27.3774ZM46.4555 12.5366V17.8149H51.7339V12.5366H46.4555Z" fill="#DE3423"/>
</svg>
