<svg width="72" height="72" viewBox="0 0 72 72" fill="none" xmlns="http://www.w3.org/2000/svg">
<path fill-rule="evenodd" clip-rule="evenodd" d="M27 12C27 16.9705 22.9705 21 18 21C13.0295 21 9 16.9705 9 12C9 7.02945 13.0295 3 18 3C22.9705 3 27 7.02945 27 12ZM63 12C63 16.9705 58.9707 21 54 21C49.0293 21 45 16.9705 45 12C45 7.02945 49.0293 3 54 3C58.9707 3 63 7.02945 63 12ZM36 54C40.9707 54 45 49.9707 45 45C45 40.0293 40.9707 36 36 36C31.0293 36 27 40.0293 27 45C27 49.9707 31.0293 54 36 54ZM18 24C12.9759 24 8.23482 25.349 4.07013 27.7349L3 28.348V36H25.9375C27.772 33.9504 30.2235 32.4645 33 31.8345V28.348L31.9299 27.7349C27.7652 25.349 23.0241 24 18 24ZM46.0626 36C44.2281 33.9504 41.7765 32.4645 39 31.8345V28.348L40.0701 27.7349C44.2347 25.349 48.9759 24 54 24C59.0241 24 63.7653 25.349 67.9299 27.7349L69 28.348V36H46.0626ZM22.0701 60.735C26.2348 58.3491 30.9759 57 36 57C41.0241 57 45.7653 58.3491 49.9299 60.735L51 61.3479V69H21V61.3479L22.0701 60.735Z" fill="#DE3423"/>
</svg>
