<svg width="40" height="40" viewBox="0 0 40 40" fill="none" xmlns="http://www.w3.org/2000/svg">
<path fill-rule="evenodd" clip-rule="evenodd" d="M10.0003 31.1803C12.6541 33.5555 16.1586 34.9998 20.0003 34.9998C23.8422 34.9998 27.3465 33.5555 30.0003 31.1803V27.2453C26.9695 25.8055 23.579 24.9998 20.0003 24.9998C16.4217 24.9998 13.0312 25.8055 10.0003 27.2453V31.1803ZM20.0003 1.6665C9.87511 1.6665 1.66699 9.87462 1.66699 19.9998C1.66699 30.125 9.87511 38.3332 20.0003 38.3332C30.1255 38.3332 38.3337 30.125 38.3337 19.9998C38.3337 9.87462 30.1255 1.6665 20.0003 1.6665ZM25.8337 15.8332C25.8337 19.0548 23.222 21.6665 20.0003 21.6665C16.7787 21.6665 14.167 19.0548 14.167 15.8332C14.167 12.6115 16.7787 9.99984 20.0003 9.99984C23.222 9.99984 25.8337 12.6115 25.8337 15.8332Z" fill="#DE3423"/>
</svg>
