<svg width="40" height="41" viewBox="0 0 40 41" fill="none" xmlns="http://www.w3.org/2000/svg">
<path d="M19.994 2.63967C15.643 2.63556 11.4328 4.18099 8.11784 6.99899C4.80283 9.81701 2.59968 13.7234 1.90316 18.0182C1.20666 22.313 2.06231 26.7155 4.31681 30.4367C6.57131 34.158 10.0773 36.9548 14.2065 38.326C15.1204 38.4852 15.4102 37.9487 15.4102 37.4647C15.4102 37.0267 15.4197 35.8135 15.4102 34.2803C10.3153 35.3853 9.2629 31.8682 9.2629 31.8682C8.927 30.7617 8.2064 29.8118 7.23133 29.1902C5.56913 28.0535 7.35551 28.0757 7.35551 28.0757C7.93586 28.1553 8.49031 28.3667 8.97653 28.6933C9.46273 29.02 9.86783 29.4537 10.1609 29.9608C10.4087 30.4125 10.7437 30.8105 11.1464 31.132C11.5491 31.4533 12.0116 31.6917 12.507 31.8333C13.0024 31.9748 13.5209 32.0167 14.0327 31.9567C14.5444 31.8965 15.0391 31.7355 15.4882 31.4828C15.5726 30.5573 15.9848 29.6923 16.6504 29.0438C12.5857 28.5788 8.31079 27.009 8.31079 19.9908C8.28499 18.1715 8.96061 16.412 10.1975 15.0775C9.63701 13.4989 9.70081 11.7657 10.3758 10.2326C10.3758 10.2326 11.9154 9.74062 15.4102 12.1113C18.4117 11.2877 21.5795 11.2877 24.5808 12.1113C28.0837 9.74221 29.6105 10.2326 29.6105 10.2326C30.2857 11.7655 30.3507 13.4983 29.792 15.0775C31.0292 16.4128 31.7038 18.1738 31.6755 19.994C31.6755 27.0313 27.3942 28.5773 23.3152 29.0278C23.7533 29.468 24.0918 29.9972 24.308 30.5795C24.5242 31.1618 24.6128 31.7837 24.5682 32.4032V37.4725C24.5682 37.9613 24.8643 38.5027 25.7942 38.326C29.9243 36.9545 33.431 34.1567 35.6855 30.434C37.9398 26.7115 38.7947 22.3075 38.0965 18.012C37.3983 13.7163 35.1928 9.80976 31.8755 6.99277C28.5582 4.17579 24.346 2.63252 19.994 2.63967Z" fill="#DE3423"/>
</svg>
