<svg width="32" height="32" viewBox="0 0 32 32" fill="none" xmlns="http://www.w3.org/2000/svg">
<path fill-rule="evenodd" clip-rule="evenodd" d="M1.56244 10.2566C1.43271 11.9192 1.3335 13.8989 1.3335 15.9997C1.3335 18.1758 1.43995 20.2218 1.5765 21.9202C1.7713 24.3429 3.61774 26.1938 5.99956 26.3594C8.39159 26.5257 11.7402 26.6663 16.0002 26.6663C20.2602 26.6663 23.6087 26.5257 26.0007 26.3594C28.3826 26.1938 30.2291 24.3429 30.4238 21.9202C30.5604 20.2218 30.6668 18.1758 30.6668 15.9997C30.6668 13.8989 30.5676 11.9192 30.4379 10.2566C30.2422 7.74814 28.2894 5.81918 25.8239 5.64415C23.4552 5.47598 20.2191 5.33301 16.0002 5.33301C11.7812 5.33301 8.54515 5.47598 6.17638 5.64415C3.71092 5.81918 1.75819 7.74814 1.56244 10.2566ZM20.6668 15.9997L13.3335 11.9997V19.9997L20.6668 15.9997Z" fill="white"/>
</svg>
