<svg width="33" height="33" viewBox="0 0 33 33" fill="none" xmlns="http://www.w3.org/2000/svg">
<path fill-rule="evenodd" clip-rule="evenodd" d="M15.1663 16.2502C15.1663 24.3503 21.7329 30.9168 29.833 30.9168V25.2502C24.8625 25.2502 20.833 21.2207 20.833 16.2502C20.833 11.2796 24.8625 7.25016 29.833 7.25016V1.5835C21.7329 1.5835 15.1663 8.14999 15.1663 16.2502ZM22.833 16.2502C22.833 12.3842 25.967 9.25016 29.833 9.25016V23.2502C25.967 23.2502 22.833 20.1162 22.833 16.2502ZM1.83301 2.91683V10.2502C1.83301 12.9855 3.66349 15.2934 6.16634 16.0156V29.5836H9.49967V16.0156C12.0025 15.2934 13.833 12.9856 13.833 10.2502V2.91683H11.1663V8.91683H9.16634V2.91683H6.49967V8.91683H4.49967V2.91683H1.83301Z" fill="white"/>
</svg>
