<svg width="239" height="134" viewBox="0 0 239 134" fill="none" xmlns="http://www.w3.org/2000/svg">
<path d="M42.0498 55.7273H47.5612L52.868 65.75H53.0953L58.4021 55.7273H63.9134L55.4248 70.7728V79H50.5384V70.7728L42.0498 55.7273Z" fill="#111111"/>
<path d="M70.7401 79.3409C68.975 79.3409 67.4485 78.9659 66.1606 78.2159C64.8803 77.4584 63.8917 76.4053 63.1947 75.0568C62.4977 73.7008 62.1492 72.1288 62.1492 70.3409C62.1492 68.5379 62.4977 66.9621 63.1947 65.6137C63.8917 64.2576 64.8803 63.2046 66.1606 62.4546C67.4485 61.697 68.975 61.3182 70.7401 61.3182C72.5053 61.3182 74.028 61.697 75.3083 62.4546C76.5962 63.2046 77.5886 64.2576 78.2856 65.6137C78.9826 66.9621 79.3311 68.5379 79.3311 70.3409C79.3311 72.1288 78.9826 73.7008 78.2856 75.0568C77.5886 76.4053 76.5962 77.4584 75.3083 78.2159C74.028 78.9659 72.5053 79.3409 70.7401 79.3409ZM70.7629 75.5909C71.5659 75.5909 72.2364 75.3637 72.7742 74.9091C73.3121 74.447 73.7174 73.8182 73.9901 73.0228C74.2704 72.2273 74.4106 71.322 74.4106 70.3068C74.4106 69.2917 74.2704 68.3864 73.9901 67.5909C73.7174 66.7955 73.3121 66.1667 72.7742 65.7046C72.2364 65.2424 71.5659 65.0114 70.7629 65.0114C69.9523 65.0114 69.2704 65.2424 68.7174 65.7046C68.172 66.1667 67.7591 66.7955 67.4788 67.5909C67.2061 68.3864 67.0697 69.2917 67.0697 70.3068C67.0697 71.322 67.2061 72.2273 67.4788 73.0228C67.7591 73.8182 68.172 74.447 68.7174 74.9091C69.2704 75.3637 69.9523 75.5909 70.7629 75.5909Z" fill="#111111"/>
<path d="M93.672 71.5682V61.5455H98.5129V79H93.8651V75.8296H93.6833C93.2894 76.8523 92.6341 77.6743 91.7174 78.2955C90.8083 78.9167 89.6985 79.2273 88.3879 79.2273C87.2212 79.2273 86.1947 78.9621 85.3083 78.4318C84.422 77.9015 83.7288 77.1477 83.2288 76.1705C82.7364 75.1932 82.4864 74.0227 82.4788 72.6591V61.5455H87.3197V71.7955C87.3273 72.8258 87.6038 73.6402 88.1492 74.2387C88.6947 74.8371 89.4258 75.1364 90.3424 75.1364C90.9258 75.1364 91.4712 75.0038 91.9788 74.7387C92.4864 74.4659 92.8954 74.0644 93.2061 73.5341C93.5242 73.0038 93.6795 72.3485 93.672 71.5682Z" fill="#111111"/>
<path d="M102.385 79V61.5455H107.078V64.5909H107.26C107.578 63.5076 108.112 62.6894 108.862 62.1364C109.612 61.5758 110.476 61.2955 111.453 61.2955C111.696 61.2955 111.957 61.3106 112.237 61.3409C112.518 61.3712 112.764 61.4129 112.976 61.4659V65.7614C112.749 65.6932 112.434 65.6326 112.033 65.5796C111.631 65.5265 111.264 65.5 110.93 65.5C110.218 65.5 109.582 65.6553 109.021 65.9659C108.468 66.269 108.029 66.6932 107.703 67.2387C107.385 67.7841 107.226 68.4129 107.226 69.125V79H102.385Z" fill="#111111"/>
<path d="M122.976 79V55.7273H127.896V74.9432H137.874V79H122.976Z" fill="#111111"/>
<path d="M148.928 79.3409C147.162 79.3409 145.636 78.9659 144.348 78.2159C143.068 77.4584 142.079 76.4053 141.382 75.0568C140.685 73.7008 140.337 72.1288 140.337 70.3409C140.337 68.5379 140.685 66.9621 141.382 65.6137C142.079 64.2576 143.068 63.2046 144.348 62.4546C145.636 61.697 147.162 61.3182 148.928 61.3182C150.693 61.3182 152.216 61.697 153.496 62.4546C154.784 63.2046 155.776 64.2576 156.473 65.6137C157.17 66.9621 157.519 68.5379 157.519 70.3409C157.519 72.1288 157.17 73.7008 156.473 75.0568C155.776 76.4053 154.784 77.4584 153.496 78.2159C152.216 78.9659 150.693 79.3409 148.928 79.3409ZM148.95 75.5909C149.753 75.5909 150.424 75.3637 150.962 74.9091C151.5 74.447 151.905 73.8182 152.178 73.0228C152.458 72.2273 152.598 71.322 152.598 70.3068C152.598 69.2917 152.458 68.3864 152.178 67.5909C151.905 66.7955 151.5 66.1667 150.962 65.7046C150.424 65.2424 149.753 65.0114 148.95 65.0114C148.14 65.0114 147.458 65.2424 146.905 65.7046C146.359 66.1667 145.947 66.7955 145.666 67.5909C145.394 68.3864 145.257 69.2917 145.257 70.3068C145.257 71.322 145.394 72.2273 145.666 73.0228C145.947 73.8182 146.359 74.447 146.905 74.9091C147.458 75.3637 148.14 75.5909 148.95 75.5909Z" fill="#111111"/>
<path d="M168.53 85.9091C166.962 85.9091 165.617 85.6932 164.496 85.2614C163.382 84.8371 162.496 84.2576 161.837 83.5228C161.178 82.7879 160.75 81.9621 160.553 81.0455L165.03 80.4432C165.166 80.7917 165.382 81.1174 165.678 81.4205C165.973 81.7235 166.363 81.9659 166.848 82.1478C167.341 82.3371 167.939 82.4318 168.644 82.4318C169.697 82.4318 170.564 82.1743 171.246 81.6591C171.935 81.1515 172.28 80.2993 172.28 79.1023V75.9091H172.075C171.863 76.394 171.545 76.8523 171.121 77.2841C170.697 77.7159 170.151 78.0682 169.484 78.3409C168.818 78.6137 168.022 78.75 167.098 78.75C165.788 78.75 164.594 78.447 163.519 77.8409C162.45 77.2273 161.598 76.2917 160.962 75.0341C160.333 73.769 160.019 72.1705 160.019 70.2387C160.019 68.2614 160.341 66.6099 160.984 65.2841C161.628 63.9584 162.484 62.9659 163.553 62.3068C164.628 61.6478 165.806 61.3182 167.087 61.3182C168.064 61.3182 168.882 61.4849 169.541 61.8182C170.2 62.144 170.731 62.5531 171.132 63.0455C171.541 63.5303 171.856 64.0076 172.075 64.4773H172.257V61.5455H177.064V79.1705C177.064 80.6553 176.7 81.8978 175.973 82.8978C175.246 83.8978 174.238 84.6478 172.95 85.1478C171.67 85.6553 170.197 85.9091 168.53 85.9091ZM168.632 75.1137C169.412 75.1137 170.072 74.9205 170.609 74.5341C171.155 74.1402 171.572 73.5796 171.859 72.8523C172.155 72.1174 172.303 71.2387 172.303 70.2159C172.303 69.1932 172.159 68.3068 171.871 67.5568C171.583 66.7993 171.166 66.2121 170.621 65.7955C170.075 65.3788 169.412 65.1705 168.632 65.1705C167.837 65.1705 167.166 65.3864 166.621 65.8182C166.075 66.2424 165.662 66.8334 165.382 67.5909C165.102 68.3485 164.962 69.2235 164.962 70.2159C164.962 71.2235 165.102 72.0947 165.382 72.8296C165.67 73.5568 166.083 74.1212 166.621 74.5228C167.166 74.9167 167.837 75.1137 168.632 75.1137Z" fill="#111111"/>
<path d="M188.803 79.3409C187.037 79.3409 185.511 78.9659 184.223 78.2159C182.943 77.4584 181.954 76.4053 181.257 75.0568C180.56 73.7008 180.212 72.1288 180.212 70.3409C180.212 68.5379 180.56 66.9621 181.257 65.6137C181.954 64.2576 182.943 63.2046 184.223 62.4546C185.511 61.697 187.037 61.3182 188.803 61.3182C190.568 61.3182 192.091 61.697 193.371 62.4546C194.659 63.2046 195.651 64.2576 196.348 65.6137C197.045 66.9621 197.394 68.5379 197.394 70.3409C197.394 72.1288 197.045 73.7008 196.348 75.0568C195.651 76.4053 194.659 77.4584 193.371 78.2159C192.091 78.9659 190.568 79.3409 188.803 79.3409ZM188.825 75.5909C189.628 75.5909 190.299 75.3637 190.837 74.9091C191.375 74.447 191.78 73.8182 192.053 73.0228C192.333 72.2273 192.473 71.322 192.473 70.3068C192.473 69.2917 192.333 68.3864 192.053 67.5909C191.78 66.7955 191.375 66.1667 190.837 65.7046C190.299 65.2424 189.628 65.0114 188.825 65.0114C188.015 65.0114 187.333 65.2424 186.78 65.7046C186.234 66.1667 185.822 66.7955 185.541 67.5909C185.269 68.3864 185.132 69.2917 185.132 70.3068C185.132 71.322 185.269 72.2273 185.541 73.0228C185.822 73.8182 186.234 74.447 186.78 74.9091C187.333 75.3637 188.015 75.5909 188.825 75.5909Z" fill="#111111"/>
</svg>
