<svg width="203" height="44" viewBox="0 0 203 44" fill="none" xmlns="http://www.w3.org/2000/svg">
<path fill-rule="evenodd" clip-rule="evenodd" d="M0.152546 13.1177V0C0.152546 0 1.06815 1.65537 5.69354 2.69725C8.71896 3.37926 13.472 4.57826 17.3819 5.56455L17.382 5.56459L17.3822 5.56463C19.4498 6.0862 21.2815 6.54827 22.4973 6.84295C25.1385 7.4836 26.7016 8.08365 27.3157 9.14591C27.3157 9.14591 26.8298 13.1177 6.75101 16.1386C4.92264 15.6535 4.02496 15.369 3.51152 15.2063L3.51149 15.2062L3.51145 15.2062L3.51137 15.2062C3.38605 15.1665 3.28363 15.134 3.19615 15.1077C1.62383 14.634 0.152546 14.1604 0.152546 13.1177ZM24.3547 39.7692C22.0252 39.2894 4.59474 34.6829 3.01051 34.2039C-1.15996 32.9589 4.97174 31.9281 11.9683 30.7519L11.9684 30.7518C18.1702 29.7092 25.0516 28.5523 26.0398 27.0308C27.1098 27.6088 27.6178 28.3299 27.6178 29.4058V41.785C27.6178 41.785 26.6857 40.249 24.3547 39.7692ZM0.116211 19.1336V32.4653C0.116211 31.7328 3.03998 31.2416 7.68964 30.4604C10.6769 29.9585 14.3765 29.337 18.4708 28.4548C22.3903 27.6104 27.7423 25.699 27.7423 23.2437C27.7423 20.7868 27.7058 9.86217 27.7058 9.86217C27.7058 13.5704 15.2678 15.9759 10.6317 16.6775C9.61033 16.8321 8.52856 16.9697 7.46258 17.1052L7.4623 17.1053C3.6904 17.585 0.116211 18.0396 0.116211 19.1336ZM169.685 3.22584V8.73822C171.002 8.73822 172.307 8.80074 173.616 8.88523L173.318 10.9616H169.689V18.7488C169.689 20.1599 169.689 21.7328 170.266 23.0521C170.57 23.813 171.053 24.4163 171.555 25.0436L171.556 25.0437L171.556 25.044C171.662 25.1771 171.77 25.3112 171.877 25.4482L170.149 26.8557C168.81 25.4996 167.744 24.026 167.498 22.0782C167.231 19.982 167.262 17.8385 167.294 15.7031V15.7019C167.309 14.6294 167.325 13.5591 167.303 12.4977C167.286 12.3415 167.28 12.1843 167.284 12.0273V11.8803C167.284 11.5385 167.247 11.1931 166.987 11.0277C166.262 10.9404 165.532 10.9315 164.794 10.9224L164.794 10.9224C164.6 10.92 164.405 10.9176 164.21 10.9138V8.9367C164.464 8.88825 164.83 8.90167 165.222 8.91606C166.02 8.94532 166.926 8.97857 167.215 8.50304C167.325 7.67434 167.309 6.82834 167.293 5.98274V5.98258C167.278 5.17453 167.262 4.36684 167.358 3.57494C168.112 3.4059 168.906 3.31403 169.685 3.22584ZM183.558 8.45895C185.342 8.62796 187.026 9.24908 188.048 10.7999C189.479 12.9019 189.546 15.6335 189.605 18.0878L189.61 18.2931C185.706 18.5981 181.804 18.9252 177.9 19.2963C177.917 19.41 177.934 19.525 177.951 19.6409C178.141 20.9181 178.347 22.3035 179.227 23.2873C180.187 24.3604 181.657 24.5882 183.025 24.5993C184.801 24.6397 186.401 24.0591 187.975 23.2947L188.89 25.2167C186.233 26.704 183.11 27.1258 180.154 26.3963C179.284 26.1712 178.48 25.7429 177.808 25.1469C177.137 24.5508 176.616 23.8039 176.289 22.9676C175.37 20.6487 175.3 17.8998 175.528 15.445C175.767 13.4311 176.311 11.3548 177.885 9.95464C179.367 8.63901 181.65 8.27151 183.558 8.45895ZM64.0648 12.4612L64.0643 12.4623L63.9072 12.8211L63.7728 12.7784C62.2906 12.3078 60.6795 11.7963 59.1274 12.178C58.6431 12.2868 58.1984 12.5274 57.8429 12.8731C57.4874 13.2188 57.2347 13.6562 57.1121 14.1367C56.6723 16.0208 56.6138 17.9736 56.9394 19.8807C57.1196 20.9133 57.4579 21.8725 58.4801 22.3355C60.0879 23.0926 62.1623 22.4835 63.7994 22.0027L63.9178 21.968C64.4598 23.1783 64.9794 24.3959 65.4774 25.6209C62.8959 26.748 60.0228 27.0247 57.274 26.411C55.6636 26.0963 54.2354 25.1754 53.2846 23.8386C52.093 22.0709 51.8139 19.7337 51.7881 17.6536C51.7622 15.5736 51.972 13.1371 53.0674 11.2666C53.5181 10.5177 54.1215 9.87169 54.8379 9.37036C55.5543 8.86896 56.3679 8.52344 57.226 8.35603C60.003 7.71434 62.9145 8.00894 65.5067 9.19394C65.0195 10.2797 64.5417 11.3715 64.0648 12.4612ZM48.8352 9.46587C48.5691 10.1686 48.2989 10.8713 48.0288 11.574C47.8511 12.0363 47.6734 12.4985 47.4968 12.9607C45.6583 12.3176 43.4265 11.623 41.5034 12.189C40.5402 12.5565 40.099 13.7545 41.0403 14.4528C41.903 14.9749 42.8441 15.3558 43.8273 15.581L44.2502 15.7023C44.878 15.8664 45.4925 16.0778 46.0887 16.3343C47.611 16.9517 48.8757 18.0468 49.3319 19.6711C49.681 21.2735 49.5232 23.0374 48.5595 24.4118C47.7028 25.6576 46.2322 26.2971 44.787 26.5617C41.5883 27.0544 38.3153 26.5407 35.4219 25.0917C35.6589 24.4325 35.9006 23.7756 36.1423 23.1185C36.3318 22.6033 36.5214 22.0879 36.7089 21.5711C38.6355 22.3061 40.8711 23.1183 42.9594 22.9015C43.8127 22.7802 44.7979 22.3833 44.6986 21.3506C44.6803 20.6157 44.0959 20.3253 43.5258 20.0423C42.8289 19.7296 42.0855 19.5028 41.3397 19.2753C40.0001 18.8666 38.6529 18.4557 37.5544 17.5397C35.6204 15.9852 35.2822 12.9755 36.5213 10.8918C37.378 9.42177 39.0472 8.46259 40.713 8.21275C43.4833 7.77413 46.3217 8.20693 48.8352 9.45118V9.46587ZM139.189 8.70517C139.875 8.86365 140.521 9.16181 141.086 9.58103C141.652 10.0003 142.125 10.5315 142.476 11.1417C143.637 13.1096 143.748 15.7512 143.843 18.0073L143.855 18.2894C139.933 18.5932 136.011 18.9276 132.088 19.2927L132.125 19.5205C132.125 19.5776 132.137 19.6326 132.149 19.6885C132.154 19.7083 132.158 19.7282 132.162 19.7484L132.195 19.9762V20.0901L132.236 20.318C132.49 21.7879 132.882 23.2212 134.35 24.0113C136.924 25.1909 139.829 24.4559 142.259 23.2763C142.29 23.4561 142.387 23.6845 142.491 23.9287C142.713 24.4532 142.967 25.0507 142.671 25.3967C140.42 26.7785 137.376 26.9659 134.828 26.4992C133.835 26.3224 132.907 25.8862 132.137 25.235C131.367 24.5838 130.783 23.7407 130.445 22.7912C129.426 19.7145 129.331 16.4073 130.17 13.2768C130.629 11.5238 131.64 9.96933 133.328 9.16083C135.174 8.35555 137.237 8.18997 139.189 8.69048V8.70517ZM77.4345 8.22371C78.3391 8.35517 79.2067 8.67258 79.9825 9.15578C80.7585 9.63898 81.4262 10.2776 81.9426 11.0314C82.8765 12.4572 83.1046 14.1477 83.1155 15.8088C83.1194 16.5214 83.1149 17.2306 83.1105 17.9375V17.9378C83.0942 20.5486 83.078 23.1285 83.4833 25.7311C82.2561 26.0209 81.0396 26.3311 79.82 26.642L79.8199 26.642L79.6737 26.6793L79.5999 26.4527C79.3526 25.6946 79.1061 24.939 78.8684 24.1803C77.8611 25.3012 76.8759 26.2861 75.3165 26.547C73.3053 26.8851 70.6761 26.7344 69.0657 25.3563C67.4551 23.9782 67.2273 21.8026 67.5621 19.8439C67.8303 18.4401 68.8566 17.4515 70.0989 16.8451C72.1943 15.8664 74.3077 15.6634 76.5032 15.4527L76.5033 15.4526C77.0857 15.3967 77.6739 15.3403 78.2691 15.2686C78.1783 15.0144 78.1064 14.762 78.0366 14.517L78.0365 14.5168C77.7783 13.6109 77.5489 12.8061 76.504 12.3838C74.5256 11.6401 72.1572 12.421 70.1823 13.0721C70.0396 13.1192 69.8989 13.1656 69.7606 13.2106C69.5303 12.613 69.2944 12.0181 69.0585 11.4231C68.8201 10.8219 68.5817 10.2206 68.3491 9.61655C71.165 8.23901 74.3333 7.7482 77.4345 8.20905V8.22371ZM105.802 8.2421C106.825 8.40412 107.794 8.80685 108.63 9.41706C109.466 10.0273 110.146 10.8275 110.612 11.7517C111.349 13.1732 111.356 14.8039 111.362 16.3773V16.3795C111.363 16.5625 111.363 16.7449 111.365 16.926C111.279 19.8783 111.386 22.8332 111.685 25.7716C110.431 26.0693 109.177 26.389 107.928 26.7087C107.658 25.8585 107.396 25.001 107.14 24.1362C106.144 25.2681 105.203 26.2714 103.64 26.5433C101.335 26.9439 98.1025 26.7124 96.6318 24.6066C95.1867 22.4348 95.2091 18.6936 97.687 17.2347C99.7633 15.9505 102.467 15.6902 104.955 15.4507C105.507 15.3975 106.049 15.3454 106.57 15.2833C106.465 15.0224 106.382 14.7562 106.3 14.4948C106.026 13.622 105.768 12.8017 104.784 12.4058C102.743 11.6379 100.304 12.467 98.2982 13.1488L98.0402 13.2363C97.5499 12.0432 97.0734 10.8403 96.61 9.62754C99.4598 8.22819 102.672 7.73936 105.809 8.22742L105.802 8.2421ZM126.996 9.46217L126.08 11.3695C124.176 10.8072 122.301 10.4911 120.326 10.9469C119.772 11.1103 119.268 11.4104 118.859 11.8194C118.452 12.2284 118.153 12.7333 117.992 13.2878C117.318 15.4928 117.322 17.9586 117.624 20.2408C117.841 21.7108 118.26 23.2432 119.697 23.9782C121.826 24.9153 123.97 24.4082 126.091 23.7761L126.985 25.7422C125.603 26.264 124.231 26.716 122.731 26.7197C120.525 26.7711 118.352 26.389 116.848 24.6544C115.2 22.7361 114.984 20.0791 114.939 17.672C114.972 15.3605 115.145 12.7329 116.609 10.8256C117.738 9.3299 119.448 8.66842 121.264 8.48835C123.264 8.20535 125.146 8.69782 126.996 9.4475V9.46217ZM92.0649 1.98371V21.7034C92.0786 23.2531 92.2172 24.7992 92.4806 26.3265H87.8259C87.3852 24.7058 87.1628 23.0337 87.1637 21.3543C87.149 15.1069 87.149 8.85949 87.1637 2.61212C88.8036 2.42836 90.4289 2.21154 92.0577 1.96899L92.0649 1.98371ZM159.427 9.63858C161.048 11.0534 161.32 13.1555 161.445 15.1767V15.4523C161.482 17.5719 161.475 19.6939 161.469 21.8155V21.8176V21.8177C161.465 23.3188 161.46 24.8196 161.471 26.3191H158.982V16.1763C158.982 14.8019 158.956 13.1408 158.247 11.9207C157.537 10.7007 155.937 10.4508 154.684 10.5353C152.235 10.6345 150.021 12.9828 150.172 15.445V26.3118H147.756V16.18C147.793 13.8172 147.58 11.4573 147.124 9.13882L149.209 8.62796C149.437 9.4475 149.661 10.2707 149.874 11.0939C150.753 10.1311 151.576 9.2564 152.863 8.83009C154.933 8.16496 157.691 8.19066 159.419 9.62389L159.427 9.63858ZM201.098 8.40748L201.366 11.0535C201.19 11.088 201.013 11.1202 200.837 11.1523C199.775 11.3457 198.721 11.5377 197.851 12.2405C196.788 13.1224 195.968 14.3793 196.012 15.8052V26.3191H193.541V14.3535C193.51 12.5994 193.313 10.8522 192.953 9.13512L195.02 8.6096C195.306 9.57489 195.567 10.5463 195.803 11.5238C195.882 11.4212 195.96 11.3182 196.039 11.2153L196.039 11.2151C196.577 10.5074 197.107 9.80933 197.887 9.34095C198.769 8.82063 199.72 8.64564 200.704 8.46454C200.832 8.44099 200.961 8.41732 201.09 8.39279L201.098 8.40748ZM105.618 18.6182L105.617 18.6182C104.21 18.7639 102.674 18.9229 101.478 19.583C101.222 19.7265 101.007 19.9318 100.852 20.18C100.696 20.4282 100.605 20.7115 100.587 21.0039C100.569 21.2963 100.625 21.5886 100.749 21.8539C100.873 22.1193 101.062 22.3493 101.298 22.5229C102.813 23.3388 104.975 22.9602 105.909 21.4462C106.372 20.8139 106.402 20.0331 106.432 19.2648V19.2646C106.441 19.0148 106.451 18.7662 106.475 18.5246C106.198 18.5581 105.91 18.5878 105.618 18.6182ZM78.1629 18.5246C77.9183 18.5532 77.6661 18.5794 77.4091 18.6061C75.9819 18.7543 74.4098 18.9176 73.1914 19.5903C72.0883 20.1526 72.0553 22.115 73.2284 22.6111C74.6587 23.2212 76.4713 22.9529 77.4603 21.685C78.0547 20.9748 78.0869 20.16 78.1206 19.3044C78.1307 19.0487 78.1409 18.7895 78.1664 18.5283L78.1629 18.5246ZM133.173 12.2772C132.376 13.4495 132.217 14.8497 132.125 16.2462L132.103 16.5806C132.103 16.7389 132.09 16.8973 132.077 17.0543C132.072 17.1159 132.067 17.1773 132.063 17.2383C133.826 17.0991 135.585 16.9247 137.345 16.7502L137.345 16.7502C138.698 16.616 140.051 16.4819 141.406 16.3637C141.399 16.2976 141.393 16.231 141.387 16.164L141.376 16.0486C141.208 14.2847 141.02 12.3004 139.42 11.2188C137.571 10.0759 134.427 10.3552 133.177 12.2919L133.173 12.2772ZM179.753 11.4136C178.099 12.7674 177.991 14.9894 177.894 16.9687L177.881 17.2347C179.789 17.0819 181.7 16.8935 183.607 16.7054C184.82 16.5858 186.031 16.4664 187.239 16.3564C187.219 16.2059 187.2 16.052 187.181 15.8955C186.977 14.2409 186.738 12.3077 185.323 11.2702C183.805 10.2487 181.223 10.3185 179.757 11.4283L179.753 11.4136ZM37.5356 41.5335V37.4911H41.5801V36.9617H37.5356V33.2245H42.1978V32.7135H36.8921V41.5335H37.5356ZM46.1103 41.6144C46.5209 41.6219 46.9289 41.5456 47.309 41.3901C47.6516 41.2481 47.9563 41.0277 48.1987 40.7471C48.4498 40.4522 48.6385 40.1096 48.7539 39.7401C49.0089 38.8791 49.0089 37.9624 48.7539 37.1014C48.6385 36.7308 48.4498 36.387 48.1987 36.091C47.9554 35.8101 47.651 35.5889 47.309 35.444C46.5401 35.1402 45.6843 35.1402 44.9151 35.444C44.5725 35.5897 44.267 35.8109 44.0217 36.091C43.7692 36.3862 43.5804 36.7302 43.4665 37.1014C43.2115 37.9624 43.2115 38.8791 43.4665 39.7401C43.5804 40.1102 43.7692 40.453 44.0217 40.7471C44.2661 41.0271 44.572 41.2472 44.9151 41.3901C45.2941 41.5453 45.7006 41.6216 46.1103 41.6144ZM46.1103 41.1476C45.7767 41.1531 45.4459 41.088 45.1395 40.9566C44.8675 40.8321 44.629 40.6441 44.4446 40.4089C44.2541 40.1515 44.1152 39.8594 44.0363 39.549C43.8452 38.8102 43.8452 38.035 44.0363 37.2962C44.1175 36.9841 44.2587 36.6909 44.452 36.4327C44.6362 36.1962 44.8746 36.0072 45.1469 35.8815C45.455 35.753 45.7856 35.6867 46.1195 35.6867C46.4532 35.6867 46.784 35.753 47.0921 35.8815C47.3644 36.0072 47.6025 36.1962 47.787 36.4327C47.9801 36.6909 48.1213 36.9841 48.2024 37.2962C48.3838 38.0362 48.3838 38.8091 48.2024 39.549C48.1213 39.86 47.9801 40.1521 47.787 40.4089C47.6022 40.6441 47.3641 40.8321 47.0921 40.9566C46.7834 41.0957 46.4486 41.1672 46.1103 41.166V41.1476ZM51.0999 41.5335V37.4911C51.2422 37.0188 51.4944 36.587 51.8352 36.2304C51.9893 36.0838 52.1709 35.9696 52.37 35.8944C52.5691 35.8193 52.7809 35.7848 52.9935 35.7931C53.1091 35.7917 53.225 35.8003 53.3389 35.819C53.425 35.8307 53.5096 35.8491 53.5928 35.8741L53.7618 35.9291C53.7957 35.9441 53.8318 35.9527 53.8688 35.955C53.8981 35.9581 53.9279 35.9495 53.9511 35.9309C53.9747 35.9122 53.9899 35.8852 53.9939 35.8557L54.0742 35.444C53.9331 35.3677 53.7822 35.3097 53.6261 35.2713C53.456 35.2302 53.2821 35.2104 53.1074 35.2125C52.6586 35.1995 52.2203 35.351 51.8757 35.6388C51.5162 35.9624 51.241 36.3687 51.0741 36.8223L51.0264 35.5103C51.0299 35.483 51.027 35.4555 51.0173 35.4296C51.0081 35.4038 50.9926 35.3806 50.9722 35.3619C50.9524 35.343 50.928 35.3295 50.9019 35.322C50.875 35.3146 50.8471 35.3137 50.8202 35.3192H50.5077V41.5335H51.0999ZM60.2519 41.6144C60.6616 41.6219 61.0681 41.5456 61.4471 41.3901C61.79 41.2472 62.0958 41.0271 62.3405 40.7471C62.5901 40.4519 62.7781 40.1093 62.892 39.7401C63.1467 38.8791 63.1467 37.9624 62.892 37.1014C62.7775 36.731 62.5901 36.3873 62.3405 36.091C62.0947 35.8109 61.7894 35.5897 61.4471 35.444C61.0681 35.2873 60.6616 35.2096 60.2519 35.2162C59.841 35.2102 59.4328 35.2876 59.0529 35.444C58.7115 35.5917 58.4062 35.8124 58.1595 36.091C57.9084 36.387 57.7199 36.7308 57.6043 37.1014C57.3492 37.9624 57.3492 38.8791 57.6043 39.7401C57.7199 40.1096 57.9084 40.4522 58.1595 40.7471C58.4056 41.0254 58.7112 41.2452 59.0529 41.3901C59.4333 41.5453 59.841 41.6216 60.2519 41.6144ZM60.2519 41.1476C59.9179 41.154 59.5871 41.0888 59.281 40.9566C59.0078 40.8341 58.7689 40.6459 58.5861 40.4089C58.3899 40.1532 58.2475 39.8609 58.1672 39.549C57.9807 38.8097 57.9807 38.0356 58.1672 37.2962C58.2475 36.9832 58.3899 36.6897 58.5861 36.4327C58.7694 36.1948 59.0078 36.0057 59.281 35.8815C59.5883 35.7527 59.9185 35.6867 60.2519 35.6867C60.585 35.6867 60.9152 35.7527 61.2227 35.8815C61.4956 36.0057 61.7343 36.1948 61.9176 36.4327C62.1104 36.6909 62.2519 36.9841 62.3328 37.2962C62.5141 38.0362 62.5141 38.8091 62.3328 39.549C62.2519 39.86 62.1104 40.1521 61.9176 40.4089C61.7346 40.6459 61.4956 40.8341 61.2227 40.9566C60.9178 41.0951 60.5864 41.1666 60.2519 41.166V41.1476ZM65.2414 43.72V40.6846C65.448 40.9746 65.7217 41.2105 66.039 41.3717C66.3836 41.5341 66.7614 41.6133 67.1422 41.6032C67.5438 41.6104 67.9415 41.5249 68.3041 41.3534C68.6344 41.1924 68.9236 40.9586 69.1499 40.6699C69.3869 40.3641 69.5642 40.0161 69.6721 39.6446C69.7926 39.2317 69.8523 38.8031 69.8488 38.373C69.8488 37.3146 69.6391 36.5357 69.2128 35.9954C68.9979 35.7323 68.7239 35.5232 68.4134 35.3855C68.1036 35.2475 67.7647 35.1846 67.4253 35.2015C66.9887 35.1958 66.5589 35.3103 66.1825 35.5323C65.8052 35.7624 65.4775 36.0663 65.219 36.4252L65.1605 35.4623C65.1614 35.4394 65.1568 35.4164 65.1473 35.3952C65.1376 35.3743 65.1235 35.3556 65.1051 35.3413C65.0653 35.3175 65.0191 35.3057 64.9729 35.308H64.6492V43.7384L65.2414 43.72ZM67.0211 41.1476C66.6782 41.1542 66.3388 41.0788 66.0321 40.927C65.7059 40.7488 65.4334 40.4878 65.2414 40.1702V36.9104C65.473 36.5534 65.7756 36.2482 66.1314 36.0138C66.4656 35.7995 66.8555 35.687 67.2526 35.6904C67.5321 35.6744 67.8118 35.7254 68.0674 35.8391C68.3233 35.9529 68.5483 36.1262 68.7233 36.3446C69.0641 36.7807 69.2346 37.4604 69.2346 38.3839C69.238 38.7623 69.1909 39.139 69.0946 39.5048C69.0116 39.8204 68.8699 40.1171 68.6757 40.3796C68.4941 40.6212 68.2571 40.8151 67.9845 40.9454C67.6841 41.0908 67.3545 41.1663 67.0211 41.166V41.1476ZM73.7166 41.6144C73.9501 41.6147 74.1831 41.5912 74.4115 41.5444C74.6332 41.5025 74.8513 41.4411 75.0624 41.3608C75.2552 41.2882 75.4403 41.1958 75.6139 41.0851C75.7634 40.9824 75.8971 40.8584 76.011 40.7176L75.846 40.519C75.8316 40.4992 75.813 40.4829 75.7912 40.4723C75.7694 40.4611 75.745 40.4559 75.7209 40.4568C75.6463 40.472 75.5774 40.5076 75.5224 40.5595C75.4053 40.6453 75.2822 40.7227 75.1545 40.791C74.9698 40.8866 74.7767 40.964 74.5773 41.0226C74.3128 41.0963 74.0388 41.131 73.7642 41.1256C73.438 41.1293 73.1144 41.0682 72.8123 40.9454C72.5271 40.8275 72.2749 40.6421 72.0766 40.4051C71.8655 40.1406 71.708 39.8374 71.6133 39.5123C71.5 39.1118 71.4452 38.6972 71.4518 38.2812V38.1636H75.9521C75.9765 38.1661 76.0009 38.163 76.023 38.1538C76.0454 38.1449 76.0652 38.1306 76.081 38.1122C76.1142 38.0571 76.1286 37.9923 76.1214 37.9283C76.1274 37.5324 76.0652 37.1382 75.9375 36.7635C75.8265 36.4476 75.6529 36.1572 75.4265 35.9108C75.2096 35.6807 74.9448 35.5014 74.6507 35.3852C74.3406 35.2615 74.0098 35.199 73.6761 35.2015C73.2696 35.1947 72.8662 35.2736 72.4921 35.4331C72.1561 35.58 71.8563 35.798 71.6133 36.0726C71.3663 36.3583 71.1789 36.6906 71.0619 37.0501C70.9307 37.4469 70.8659 37.8632 70.8708 38.2812C70.8642 38.7592 70.9327 39.2351 71.073 39.6922C71.1944 40.0746 71.3921 40.4284 71.6537 40.7322C71.8999 41.0134 72.2069 41.2346 72.5512 41.3792C72.9201 41.5347 73.3166 41.6147 73.7166 41.6144ZM75.5846 37.796H71.4847C71.5166 37.4936 71.5935 37.1975 71.7126 36.9178C71.819 36.6665 71.9713 36.4372 72.1613 36.2416C72.3486 36.0528 72.5747 35.9065 72.8232 35.8115C73.0983 35.7079 73.3901 35.6569 73.6839 35.6609C73.9495 35.6569 74.2135 35.7068 74.4597 35.8078C74.6875 35.9033 74.8923 36.0476 75.0587 36.2304C75.2334 36.424 75.3663 36.6519 75.4483 36.8994C75.5436 37.1886 75.5895 37.4916 75.5846 37.796ZM78.3165 41.5335V36.8736C78.5707 36.5273 78.8892 36.233 79.2544 36.0063C79.5961 35.7983 79.9898 35.6887 80.3903 35.6904C80.6192 35.6724 80.8493 35.7079 81.0619 35.7949C81.2748 35.8815 81.4642 36.0169 81.6145 36.1899C81.9031 36.5867 82.0451 37.0713 82.0156 37.5608V41.5335H82.6112V37.5608C82.6158 37.2314 82.5713 36.9032 82.4789 36.587C82.4 36.3188 82.2689 36.0689 82.0928 35.852C81.9189 35.6454 81.6965 35.485 81.4455 35.3852C81.1583 35.2701 80.8507 35.2139 80.5415 35.2199C80.0996 35.2142 79.6653 35.3284 79.2837 35.5507C78.9004 35.7725 78.5636 36.0657 78.2907 36.4143L78.2359 35.4773C78.2339 35.4546 78.2273 35.4325 78.2173 35.4124C78.2066 35.3923 78.1917 35.3746 78.1745 35.3602C78.157 35.3459 78.1372 35.3352 78.1154 35.3286C78.0936 35.3223 78.0706 35.3203 78.048 35.3229H77.7209V41.5335H78.3165ZM88.4245 41.6328C88.7386 41.6391 89.0516 41.588 89.3471 41.4819C89.6005 41.3929 89.834 41.2558 90.0351 41.0776C90.2179 40.9084 90.3616 40.7015 90.458 40.4714C90.5576 40.2318 90.6078 39.9742 90.6049 39.7143C90.6124 39.4928 90.5608 39.273 90.454 39.0785C90.3556 38.9043 90.2213 38.7528 90.061 38.6338C89.8911 38.509 89.7058 38.4077 89.5092 38.3325C89.3032 38.2516 89.0901 38.1782 88.8732 38.1085L88.2406 37.9099C88.0478 37.8494 87.8618 37.7693 87.6857 37.6712C87.5336 37.5883 87.3999 37.4756 87.292 37.3404C87.1882 37.2004 87.1351 37.0294 87.1411 36.8553C87.1417 36.6969 87.179 36.5405 87.2516 36.3997C87.3276 36.2579 87.4312 36.1328 87.5569 36.0321C87.6992 35.9171 87.8607 35.8287 88.0346 35.7711C88.2325 35.7042 88.4402 35.6718 88.6488 35.6755C89.0227 35.6643 89.3928 35.7515 89.7227 35.9291C89.8214 35.9808 89.9169 36.0387 90.0093 36.1019C90.0592 36.1437 90.1206 36.1707 90.1855 36.179C90.2147 36.1799 90.2431 36.1724 90.2681 36.1572C90.2928 36.1423 90.3126 36.1205 90.3252 36.0947L90.454 35.8887C90.2211 35.6692 89.9459 35.4994 89.645 35.3889C89.3219 35.2738 88.9805 35.2176 88.6376 35.2236C88.3458 35.2196 88.0564 35.267 87.7806 35.3634C87.5442 35.4443 87.325 35.5691 87.134 35.7309C86.9607 35.8792 86.8209 36.062 86.7222 36.2674C86.6276 36.4674 86.5788 36.6857 86.5785 36.9066C86.5713 37.1318 86.6236 37.3548 86.7294 37.5536C86.8281 37.7254 86.9624 37.8746 87.1228 37.9908C87.2935 38.1156 87.4805 38.2169 87.6779 38.2921C87.8842 38.373 88.0974 38.4427 88.314 38.5127L88.9501 38.711C89.1443 38.7706 89.3299 38.8518 89.5052 38.9537C89.6607 39.0472 89.795 39.1726 89.8989 39.3212C90.0033 39.4747 90.0564 39.6575 90.0498 39.8431C90.0486 40.0256 90.0139 40.206 89.9471 40.3759C89.8736 40.538 89.7657 40.6823 89.6303 40.7985C89.4872 40.931 89.3164 41.0314 89.1305 41.0926C88.9082 41.1697 88.6741 41.207 88.4391 41.2027C88.2001 41.2088 87.9617 41.1752 87.7333 41.1035C87.568 41.0472 87.4097 40.9744 87.2585 40.8866C87.1512 40.8223 87.0485 40.7511 86.9501 40.6734C86.8961 40.6195 86.8267 40.5836 86.7515 40.5707C86.7142 40.5692 86.6772 40.5784 86.6448 40.5965C86.617 40.6174 86.5931 40.6438 86.5748 40.6734L86.4316 40.8828C86.6827 41.1106 86.9698 41.2954 87.2809 41.4305C87.6435 41.5774 88.0334 41.6463 88.4245 41.6328ZM94.6423 41.6328C95.0525 41.6403 95.4608 41.5639 95.8407 41.4084C96.1829 41.2653 96.4873 41.0452 96.7306 40.7655C96.9817 40.4706 97.1707 40.128 97.2855 39.7585C97.536 38.8966 97.536 37.9817 97.2855 37.1198C97.1707 36.7491 96.9817 36.4054 96.7306 36.1093C96.4865 35.8293 96.1826 35.6084 95.8407 35.4623C95.0717 35.1585 94.2159 35.1585 93.447 35.4623C93.1042 35.6081 92.7989 35.8293 92.5536 36.1093C92.3 36.4043 92.11 36.7483 91.9947 37.1198C91.7448 37.9817 91.7448 38.8966 91.9947 39.7585C92.11 40.1288 92.3 40.4717 92.5536 40.7655C92.7983 41.0455 93.1039 41.2656 93.447 41.4084C93.8274 41.5573 94.2343 41.6273 94.6423 41.6144V41.6328ZM94.6423 41.166C94.3086 41.1723 93.9775 41.1072 93.6714 40.9749C93.3994 40.8504 93.161 40.6625 92.9765 40.4272C92.7866 40.1633 92.6494 39.8649 92.5719 39.549C92.3855 38.8097 92.3855 38.0356 92.5719 37.2962C92.6566 36.9847 92.7983 36.6917 92.9914 36.4327C93.1756 36.1962 93.4137 36.0072 93.6863 35.8815C93.9907 35.7438 94.3229 35.6772 94.6572 35.6867C94.9923 35.6781 95.3251 35.7447 95.6309 35.8815C95.9029 36.006 96.1405 36.1954 96.3224 36.4327C96.5175 36.69 96.6586 36.9835 96.7381 37.2962C96.9246 38.0356 96.9246 38.8097 96.7381 39.549C96.6586 39.8606 96.5175 40.1529 96.3224 40.4089C96.1399 40.6447 95.9023 40.8326 95.6309 40.9566C95.3205 41.0969 94.9834 41.1683 94.6423 41.166ZM100.952 41.6512C101.392 41.6569 101.827 41.5453 102.21 41.3275C102.594 41.106 102.932 40.8128 103.206 40.464L103.265 41.3901C103.265 41.4968 103.327 41.5519 103.445 41.5519H103.776V35.3192H103.176V39.99C102.92 40.3351 102.6 40.6272 102.231 40.8498C101.888 41.0533 101.498 41.1597 101.099 41.1585C100.872 41.1758 100.643 41.1402 100.432 41.0538C100.221 40.9678 100.032 40.8338 99.8817 40.6625C99.5937 40.2657 99.4519 39.7811 99.4812 39.2917V35.3192H98.8816V39.2917C98.877 39.621 98.9214 39.9492 99.0141 40.2657C99.0907 40.5345 99.2224 40.7847 99.4003 41.0005C99.5724 41.2085 99.7931 41.37 100.043 41.471C100.332 41.5837 100.641 41.6388 100.952 41.6328V41.6512ZM106.394 41.5519V37.4911C106.536 37.0188 106.788 36.587 107.129 36.2304C107.283 36.0838 107.465 35.9696 107.664 35.8944C107.863 35.8193 108.075 35.7848 108.287 35.7931C108.403 35.7914 108.519 35.8 108.633 35.819C108.719 35.8307 108.804 35.8491 108.887 35.8741L109.056 35.9291C109.089 35.9438 109.126 35.9524 109.162 35.955C109.177 35.957 109.192 35.9558 109.206 35.9521C109.221 35.9481 109.234 35.9412 109.246 35.932C109.258 35.9228 109.268 35.9111 109.275 35.8982C109.282 35.885 109.286 35.8706 109.287 35.8557L109.368 35.444C109.227 35.3677 109.076 35.3097 108.92 35.2713C108.75 35.2302 108.576 35.2104 108.401 35.2125C107.95 35.2036 107.512 35.3605 107.169 35.6534C106.81 35.9771 106.535 36.3833 106.368 36.8369L106.32 35.5249C106.324 35.4976 106.32 35.4701 106.312 35.4443C106.302 35.4184 106.287 35.3952 106.266 35.3766C106.246 35.3579 106.222 35.3441 106.195 35.3367C106.169 35.3292 106.141 35.3284 106.114 35.3338H105.809V41.5335L106.394 41.5519ZM112.975 41.6328C113.201 41.6337 113.427 41.6116 113.648 41.5665C113.854 41.5269 114.055 41.4652 114.248 41.3829C114.421 41.308 114.587 41.2145 114.74 41.1035C114.879 40.9982 115.002 40.8745 115.108 40.7359L114.946 40.5377C114.932 40.5176 114.913 40.5015 114.891 40.4906C114.87 40.4794 114.845 40.4743 114.821 40.4751C114.75 40.4898 114.685 40.5271 114.637 40.5816C114.539 40.6674 114.435 40.7445 114.325 40.8131C114.166 40.9066 113.999 40.9841 113.825 41.0446C113.587 41.1195 113.339 41.1554 113.089 41.1514C112.784 41.1548 112.482 41.092 112.203 40.9675C111.937 40.8481 111.703 40.6682 111.519 40.4419C111.321 40.1882 111.174 39.8988 111.085 39.5895C110.98 39.2102 110.929 38.818 110.934 38.4243C110.929 38.0408 110.979 37.6586 111.082 37.2888C111.171 36.9758 111.32 36.6825 111.519 36.4252C111.705 36.1908 111.945 36.0043 112.218 35.8815C112.518 35.7487 112.843 35.6836 113.171 35.6904C113.394 35.6844 113.617 35.7128 113.832 35.7748C113.989 35.821 114.14 35.8824 114.284 35.9587C114.386 36.0129 114.483 36.0743 114.575 36.1423C114.623 36.1871 114.683 36.2163 114.748 36.2269C114.775 36.2284 114.802 36.2206 114.825 36.2049L114.884 36.1532L115.042 35.9403C114.802 35.7154 114.523 35.5372 114.218 35.4147C113.875 35.2802 113.509 35.2142 113.141 35.2199C112.729 35.2136 112.321 35.2936 111.942 35.4552C111.604 35.6061 111.304 35.8307 111.064 36.113C110.814 36.4106 110.627 36.7554 110.516 37.1273C110.386 37.5473 110.323 37.9848 110.328 38.4243C110.322 38.8825 110.388 39.339 110.523 39.7768C110.64 40.1429 110.827 40.4823 111.074 40.7764C111.303 41.0467 111.591 41.2604 111.916 41.4013C112.251 41.545 112.611 41.6176 112.975 41.6144V41.6328ZM118.833 41.6328C119.067 41.6334 119.301 41.6099 119.531 41.5628C119.753 41.5209 119.971 41.4595 120.182 41.3792C120.374 41.3066 120.557 41.2142 120.73 41.1035C120.881 41.0028 121.015 40.8785 121.127 40.7359L120.965 40.5377C120.951 40.5176 120.933 40.5015 120.911 40.4906C120.889 40.4794 120.865 40.4743 120.84 40.4751C120.766 40.4903 120.697 40.5259 120.642 40.5779C120.525 40.6642 120.402 40.7417 120.274 40.8094C120.09 40.9064 119.897 40.9838 119.697 41.0409C119.433 41.1149 119.159 41.1497 118.885 41.1439C118.559 41.1474 118.237 41.0862 117.935 40.9637C117.65 40.8458 117.398 40.6605 117.2 40.4235C116.986 40.1607 116.829 39.8569 116.737 39.5307C116.621 39.1307 116.567 38.7156 116.575 38.2995V38.1819H121.068C121.092 38.1842 121.116 38.1808 121.139 38.1719C121.161 38.163 121.181 38.1486 121.197 38.1306C121.229 38.0746 121.243 38.0106 121.237 37.9467C121.243 37.5507 121.181 37.1565 121.054 36.7818C120.942 36.4657 120.767 36.1756 120.539 35.9291C120.323 35.6985 120.057 35.5189 119.763 35.4035C119.455 35.2796 119.124 35.2173 118.792 35.2199C118.386 35.213 117.983 35.2919 117.608 35.4514C117.271 35.5972 116.969 35.8155 116.726 36.091C116.48 36.3767 116.294 36.7092 116.178 37.0684C116.047 37.4652 115.982 37.8815 115.987 38.2995C115.979 38.7775 116.047 39.2541 116.189 39.7105C116.309 40.0927 116.506 40.4464 116.766 40.7506C117.014 41.0317 117.321 41.2529 117.667 41.3975C118.037 41.5473 118.434 41.621 118.833 41.6144V41.6328ZM120.686 37.8144H116.601C116.634 37.5123 116.711 37.2165 116.829 36.9362C116.936 36.6846 117.09 36.4553 117.281 36.2599C117.467 36.0714 117.692 35.9248 117.939 35.8299C118.215 35.7263 118.509 35.6752 118.803 35.6792C119.069 35.6755 119.333 35.7254 119.579 35.8261C119.807 35.9225 120.011 36.0666 120.178 36.2488C120.345 36.445 120.47 36.6725 120.546 36.9178C120.642 37.2067 120.689 37.5097 120.686 37.8144ZM123.058 41.6474C123.136 41.6477 123.213 41.6328 123.286 41.6032C123.355 41.5751 123.418 41.5327 123.47 41.4782C123.521 41.4259 123.564 41.3651 123.595 41.2983C123.626 41.2263 123.642 41.1488 123.642 41.0705C123.641 40.9933 123.625 40.917 123.595 40.8461C123.564 40.7784 123.521 40.7161 123.47 40.6625C123.417 40.6094 123.354 40.5669 123.286 40.5377C123.214 40.5053 123.136 40.4889 123.058 40.4898C122.979 40.4886 122.901 40.505 122.829 40.5377C122.762 40.5681 122.701 40.6103 122.65 40.6625C122.597 40.7153 122.556 40.7778 122.528 40.8461C122.499 40.9173 122.483 40.9936 122.484 41.0705C122.483 41.1462 122.497 41.2214 122.525 41.2914C122.554 41.3617 122.596 41.4257 122.65 41.4793C122.703 41.533 122.767 41.5754 122.836 41.6044C122.907 41.6334 122.982 41.648 123.058 41.6474ZM128.665 41.5519V37.4911H132.71V36.9617H128.665V33.2245H133.323V32.7135H128.022V41.5335L128.665 41.5519ZM137.243 41.6328C137.653 41.6403 138.059 41.5639 138.438 41.4084C138.782 41.2656 139.087 41.0455 139.332 40.7655C139.58 40.4691 139.767 40.1271 139.883 39.7585C140.138 38.8975 140.138 37.9808 139.883 37.1198C139.768 36.75 139.58 36.4065 139.332 36.1093C139.086 35.8293 138.781 35.6081 138.438 35.4623C138.06 35.3057 137.653 35.2282 137.243 35.2345C136.832 35.2285 136.424 35.306 136.045 35.4623C135.702 35.6081 135.396 35.8293 135.151 36.1093C134.898 36.4045 134.71 36.7485 134.596 37.1198C134.341 37.9808 134.341 38.8975 134.596 39.7585C134.71 40.1286 134.898 40.4714 135.151 40.7655C135.395 41.0455 135.701 41.2656 136.045 41.4084C136.426 41.5573 136.834 41.6273 137.243 41.6144V41.6328ZM137.243 41.166C136.909 41.172 136.577 41.1069 136.269 40.9749C135.998 40.8513 135.76 40.6631 135.578 40.4272C135.382 40.1716 135.239 39.8792 135.158 39.5674C134.972 38.828 134.972 38.054 135.158 37.3146C135.239 37.0016 135.382 36.7081 135.578 36.451C135.759 36.2137 135.997 36.0247 136.269 35.8999C136.575 35.763 136.908 35.6965 137.243 35.7051C137.577 35.6956 137.909 35.7622 138.214 35.8999C138.487 36.0241 138.726 36.2132 138.909 36.451C139.102 36.7092 139.244 37.0024 139.324 37.3146C139.506 38.0545 139.506 38.8274 139.324 39.5674C139.244 39.8784 139.102 40.1704 138.909 40.4272C138.725 40.6636 138.487 40.8516 138.214 40.9749C137.908 41.1072 137.577 41.1723 137.243 41.166ZM142.229 37.4911C142.371 37.0188 142.624 36.587 142.964 36.2304C143.119 36.0835 143.301 35.9687 143.501 35.8936C143.7 35.8187 143.913 35.7845 144.126 35.7931C144.241 35.7914 144.355 35.8 144.468 35.819C144.554 35.8307 144.639 35.8491 144.722 35.8741C144.766 35.8858 144.805 35.899 144.84 35.9108L144.84 35.9108C144.859 35.9176 144.878 35.9238 144.895 35.9291C144.929 35.9443 144.964 35.9532 145.001 35.955C145.016 35.9564 145.031 35.955 145.044 35.9509C145.05 35.9494 145.055 35.9475 145.059 35.9454C145.068 35.9414 145.076 35.9365 145.083 35.9306C145.094 35.9214 145.103 35.9099 145.11 35.897C145.117 35.8844 145.121 35.87 145.123 35.8557L145.208 35.444C145.064 35.3682 144.912 35.3103 144.755 35.2713C144.586 35.2302 144.411 35.2104 144.237 35.2125C143.788 35.1995 143.35 35.351 143.005 35.6388C142.647 35.9627 142.373 36.369 142.207 36.8223L142.156 35.5103C142.16 35.4827 142.158 35.4546 142.148 35.4285C142.139 35.4024 142.124 35.3786 142.103 35.3596C142.083 35.341 142.058 35.3272 142.031 35.3203C142.005 35.3132 141.977 35.3129 141.949 35.3192H141.637V41.5335H142.229V37.4911ZM151.403 41.6144C151.634 41.6142 151.865 41.5907 152.091 41.5444C152.313 41.5025 152.531 41.4411 152.741 41.3608C152.934 41.2882 153.119 41.1958 153.293 41.0851C153.442 40.9824 153.576 40.8584 153.69 40.7176L153.525 40.519C153.511 40.4992 153.492 40.4829 153.47 40.4723C153.448 40.4611 153.424 40.4559 153.4 40.4568C153.325 40.472 153.256 40.5076 153.201 40.5595C153.084 40.6453 152.961 40.7227 152.833 40.791C152.648 40.8871 152.453 40.9646 152.253 41.0226C151.988 41.0969 151.714 41.1316 151.44 41.1256C151.115 41.129 150.792 41.0679 150.491 40.9454C150.206 40.8275 149.954 40.6421 149.756 40.4051C149.543 40.1415 149.386 39.8379 149.292 39.5123C149.179 39.1118 149.125 38.6972 149.131 38.2812V38.1636H153.624C153.648 38.1661 153.672 38.163 153.695 38.1538C153.717 38.1449 153.737 38.1306 153.753 38.1122C153.785 38.0562 153.799 37.9923 153.793 37.9283C153.799 37.5324 153.737 37.1382 153.609 36.7635C153.498 36.4476 153.325 36.1572 153.098 35.9108C152.881 35.6807 152.616 35.5014 152.322 35.3852C152.013 35.2615 151.682 35.199 151.348 35.2015C150.941 35.1947 150.538 35.2736 150.164 35.4331C149.828 35.58 149.528 35.798 149.285 36.0726C149.038 36.3583 148.85 36.6906 148.734 37.0501C148.602 37.4469 148.538 37.8632 148.542 38.2812C148.536 38.7592 148.604 39.2351 148.745 39.6922C148.866 40.0746 149.064 40.4284 149.326 40.7322C149.571 41.0134 149.878 41.2346 150.223 41.3792C150.596 41.5367 150.997 41.6167 151.403 41.6144ZM153.245 37.796H149.164C149.195 37.4936 149.273 37.1975 149.392 36.9178C149.498 36.6665 149.65 36.4372 149.84 36.2416C150.027 36.0537 150.252 35.9073 150.499 35.8115C150.775 35.7082 151.068 35.6572 151.363 35.6609C151.629 35.6572 151.892 35.7071 152.138 35.8078C152.367 35.9033 152.571 36.0476 152.738 36.2304C152.905 36.4258 153.03 36.6536 153.105 36.8994C153.202 37.1884 153.249 37.4913 153.245 37.796ZM157.356 41.6144C157.793 41.6205 158.223 41.506 158.599 41.2836C158.978 41.0535 159.307 40.75 159.566 40.3905L159.625 41.3717C159.626 41.3947 159.631 41.417 159.641 41.4377C159.644 41.4438 159.647 41.4497 159.651 41.4554C159.659 41.4689 159.67 41.4812 159.682 41.4919C159.699 41.5071 159.719 41.5186 159.741 41.5258C159.763 41.533 159.786 41.5355 159.809 41.5335H160.139V32.4415H159.54V36.1165C159.329 35.8304 159.054 35.5966 158.738 35.4331C158.394 35.2701 158.016 35.1906 157.635 35.2015C157.234 35.1921 156.836 35.2779 156.473 35.4514C156.143 35.6135 155.853 35.8468 155.624 36.1348C155.385 36.4401 155.207 36.7881 155.098 37.1602C154.978 37.572 154.919 37.9992 154.922 38.4281C154.922 39.4865 155.135 40.2803 155.562 40.8094C155.776 41.0759 156.05 41.2877 156.362 41.4277C156.674 41.5674 157.014 41.6314 157.356 41.6144ZM157.525 41.133C157.246 41.1494 156.967 41.0989 156.711 40.9855C156.455 40.8725 156.23 40.7001 156.055 40.4823C155.714 40.0462 155.542 39.3651 155.539 38.4393C155.536 38.0608 155.584 37.6836 155.683 37.3183C155.764 37.0022 155.907 36.7052 156.102 36.4436C156.283 36.2043 156.519 36.0115 156.79 35.8815C157.261 35.6411 157.805 35.5866 158.314 35.7292C158.823 35.8712 159.259 36.2 159.537 36.6496V39.9274C159.3 40.2792 158.996 40.5813 158.643 40.8168C158.308 41.0269 157.92 41.1365 157.525 41.133ZM164.144 41.6328C164.584 41.6391 165.019 41.5275 165.401 41.3092C165.786 41.0868 166.125 40.7939 166.401 40.4456L166.456 41.3717C166.456 41.4782 166.519 41.5335 166.637 41.5335H166.967V35.3192H166.368V39.99C166.114 40.3363 165.792 40.6286 165.423 40.8498C165.082 41.0538 164.692 41.1606 164.294 41.1585C164.067 41.1766 163.838 41.141 163.625 41.0547C163.414 40.9686 163.225 40.8343 163.074 40.6625C162.787 40.2648 162.646 39.7811 162.673 39.2917V35.3192H162.066V39.2917C162.061 39.621 162.106 39.9492 162.199 40.2657C162.271 40.5325 162.396 40.7824 162.566 41.0005C162.739 41.2073 162.96 41.3688 163.21 41.471C163.506 41.5863 163.822 41.6414 164.14 41.6328H164.144ZM171.207 41.6328C171.433 41.6334 171.658 41.611 171.88 41.5665C172.084 41.5264 172.284 41.4647 172.476 41.3829C172.65 41.3097 172.816 41.2159 172.968 41.1035C173.108 40.999 173.231 40.8754 173.336 40.7359L173.174 40.5377C173.16 40.5179 173.141 40.5018 173.12 40.4909C173.098 40.48 173.073 40.4746 173.049 40.4751C172.978 40.4889 172.913 40.5265 172.865 40.5816C172.767 40.6662 172.663 40.7437 172.553 40.8131C172.394 40.9066 172.227 40.9841 172.053 41.0446C171.815 41.1192 171.567 41.1551 171.317 41.1514C171.011 41.1548 170.707 41.092 170.428 40.9675C170.163 40.8478 169.93 40.6679 169.748 40.4419C169.549 40.1882 169.402 39.8988 169.313 39.5895C169.11 38.8361 169.11 38.0422 169.313 37.2888C169.402 36.9761 169.549 36.6828 169.748 36.4252C169.935 36.1908 170.175 36.0043 170.449 35.8815C170.749 35.7478 171.074 35.6824 171.402 35.6904C171.624 35.6844 171.846 35.7128 172.06 35.7748C172.217 35.8201 172.368 35.8818 172.512 35.9587C172.614 36.0121 172.711 36.0735 172.803 36.1423C172.851 36.1862 172.911 36.2155 172.976 36.2269C173.003 36.2284 173.03 36.2206 173.053 36.2049L173.116 36.1532L173.27 35.9403C173.031 35.7157 172.753 35.5375 172.45 35.4147C172.106 35.2802 171.738 35.2142 171.369 35.2199C170.959 35.2133 170.551 35.2934 170.174 35.4552C169.834 35.6049 169.532 35.8299 169.291 36.113C169.043 36.4117 168.858 36.7563 168.744 37.1273C168.486 37.9917 168.486 38.9124 168.744 39.7768C168.859 40.1426 169.046 40.482 169.291 40.7764C169.521 41.0467 169.811 41.2604 170.137 41.4013C170.474 41.5462 170.837 41.6187 171.204 41.6144L171.207 41.6328ZM175.993 41.6329C176.226 41.6347 176.458 41.6114 176.685 41.5628C176.892 41.5175 177.092 41.4472 177.281 41.3534C177.468 41.2587 177.644 41.1454 177.807 41.0154C177.986 40.8742 178.156 40.7233 178.319 40.5632L178.407 41.3571C178.416 41.4104 178.445 41.4581 178.488 41.4908C178.531 41.5238 178.584 41.539 178.638 41.5335H178.873V37.4911C178.878 37.1743 178.836 36.8584 178.748 36.554C178.68 36.2855 178.554 36.035 178.381 35.819C178.214 35.6193 178 35.4629 177.759 35.3634C177.481 35.2518 177.184 35.1981 176.884 35.2053C176.464 35.197 176.047 35.2822 175.664 35.4552C175.282 35.6382 174.936 35.887 174.642 36.1899L174.748 36.3738C174.765 36.4086 174.792 36.4372 174.825 36.457C174.859 36.4766 174.897 36.486 174.936 36.484C175.024 36.4717 175.105 36.4272 175.164 36.3592C175.28 36.2591 175.403 36.167 175.531 36.0835C175.699 35.9725 175.879 35.8812 176.068 35.8115C176.312 35.7203 176.572 35.6767 176.833 35.683C177.04 35.6695 177.248 35.7045 177.44 35.7857C177.631 35.8666 177.801 35.9914 177.936 36.1498C178.204 36.538 178.334 37.0053 178.304 37.4764V38.1268C177.697 38.1354 177.092 38.1945 176.495 38.3033C176.067 38.377 175.652 38.5119 175.263 38.7038C174.983 38.8363 174.742 39.0375 174.56 39.2879C174.413 39.5048 174.335 39.761 174.336 40.023C174.327 40.2755 174.375 40.5265 174.476 40.758C174.56 40.9491 174.685 41.1187 174.844 41.2541C174.999 41.3869 175.181 41.4859 175.377 41.5444C175.576 41.6051 175.784 41.6349 175.993 41.6329ZM176.138 41.2027C175.979 41.2039 175.82 41.1804 175.667 41.133C175.523 41.0903 175.388 41.0177 175.274 40.9198C175.159 40.8177 175.066 40.6923 175.002 40.5523C174.929 40.3805 174.894 40.1948 174.899 40.0083C174.896 39.7955 174.967 39.5883 175.097 39.4205C175.26 39.2222 175.47 39.0682 175.708 38.972C176.045 38.8295 176.4 38.7308 176.763 38.678C177.269 38.5982 177.78 38.5526 178.293 38.542V40.159C178.145 40.3096 177.998 40.4493 177.847 40.5779C177.701 40.7075 177.539 40.8197 177.366 40.9124C177.188 41.0082 176.999 41.0822 176.804 41.133C176.589 41.1826 176.369 41.2062 176.149 41.2027H176.138ZM182.459 41.6328C182.717 41.6322 182.972 41.5786 183.208 41.4747C183.438 41.3786 183.643 41.2346 183.812 41.0521L183.65 40.791C183.639 40.7735 183.625 40.7589 183.608 40.748C183.59 40.7371 183.571 40.7305 183.551 40.7288C183.505 40.7365 183.464 40.76 183.433 40.7948L183.238 40.9382C183.149 40.9947 183.053 41.0426 182.955 41.0814C182.717 41.1672 182.457 41.1672 182.22 41.0814C182.117 41.0446 182.024 40.9855 181.947 40.9087C181.866 40.8211 181.804 40.717 181.767 40.6037C181.72 40.4617 181.698 40.3125 181.701 40.1627V35.955H183.657V35.5103H181.701V33.1361H181.421C181.401 33.135 181.381 33.1384 181.362 33.1459C181.343 33.1536 181.325 33.1654 181.311 33.1803C181.284 33.2067 181.267 33.2417 181.264 33.2796L181.113 35.5065L180.05 35.58V35.8115C180.049 35.8316 180.053 35.8514 180.06 35.8698C180.068 35.8881 180.079 35.9048 180.094 35.9182C180.127 35.9443 180.167 35.9573 180.208 35.955H181.102V40.2032C181.088 40.3985 181.113 40.5948 181.176 40.7804C181.24 40.966 181.339 41.137 181.47 41.2836C181.603 41.4056 181.759 41.4994 181.93 41.5594C182.101 41.6193 182.282 41.6443 182.462 41.6328H182.459ZM185.687 33.7168C185.758 33.7165 185.828 33.7016 185.893 33.6726C186.025 33.6167 186.131 33.5131 186.19 33.3823C186.223 33.3177 186.24 33.2457 186.239 33.1728C186.239 33.0991 186.223 33.0262 186.19 32.9597C186.163 32.8923 186.121 32.8311 186.069 32.7798C186.017 32.731 185.957 32.6914 185.893 32.6622C185.826 32.6332 185.754 32.6183 185.681 32.6183C185.609 32.6183 185.536 32.6332 185.47 32.6622C185.405 32.6914 185.345 32.731 185.293 32.7798C185.244 32.8323 185.204 32.8934 185.176 32.9597C185.146 33.0271 185.131 33.0997 185.131 33.1728C185.131 33.2451 185.146 33.3169 185.176 33.3823C185.205 33.4463 185.245 33.5045 185.293 33.555C185.344 33.6049 185.405 33.6448 185.47 33.6726C185.541 33.7042 185.617 33.7191 185.694 33.7168H185.687ZM185.974 41.5335V35.3192H185.382V41.5335H185.974ZM190.55 41.6145C190.959 41.6208 191.364 41.5445 191.743 41.3901C192.084 41.2461 192.389 41.026 192.633 40.7471C192.884 40.4528 193.071 40.1102 193.184 39.7401C193.439 38.8791 193.439 37.9624 193.184 37.1014C193.072 36.7305 192.884 36.3865 192.633 36.091C192.388 35.8118 192.084 35.5906 191.743 35.444C191.363 35.2876 190.955 35.2102 190.544 35.2162C190.134 35.2096 189.728 35.2873 189.349 35.444C189.006 35.5906 188.7 35.8115 188.452 36.091C188.201 36.387 188.012 36.7308 187.897 37.1014C187.641 37.9624 187.641 38.8791 187.897 39.7401C188.012 40.1096 188.201 40.4522 188.452 40.7471C188.698 41.0263 189.005 41.2463 189.349 41.3901C189.73 41.5464 190.139 41.623 190.55 41.6145ZM190.544 41.1476C190.211 41.154 189.88 41.0888 189.573 40.9566C189.3 40.8341 189.062 40.6459 188.878 40.4089C188.685 40.1515 188.543 39.8597 188.459 39.549C188.273 38.8097 188.273 38.0356 188.459 37.2962C188.544 36.9847 188.686 36.6917 188.878 36.4327C189.062 36.1948 189.3 36.0057 189.573 35.8815C189.881 35.7527 190.211 35.6867 190.544 35.6867C190.877 35.6867 191.207 35.7527 191.515 35.8815C191.788 36.0057 192.027 36.1948 192.21 36.4327C192.404 36.69 192.546 36.9835 192.625 37.2962C192.812 38.0356 192.812 38.8097 192.625 39.549C192.546 39.8606 192.404 40.1529 192.21 40.4089C192.027 40.6459 191.788 40.8341 191.515 40.9566C191.213 41.0937 190.886 41.1651 190.555 41.166L190.544 41.1476ZM195.545 41.5335V36.8736C195.799 36.5316 196.118 36.2422 196.482 36.0209C196.825 35.8129 197.218 35.7033 197.618 35.7051C197.847 35.687 198.077 35.7229 198.29 35.8095C198.503 35.8964 198.692 36.0319 198.843 36.2049C199.131 36.6016 199.273 37.0859 199.244 37.5757V41.5335H199.839V37.5608C199.844 37.2314 199.799 36.9032 199.707 36.587C199.634 36.3202 199.509 36.0706 199.339 35.852C199.165 35.6462 198.943 35.4859 198.692 35.3852C198.405 35.2701 198.097 35.2139 197.788 35.2199C197.345 35.2145 196.909 35.3289 196.526 35.5507C196.145 35.7736 195.81 36.0666 195.537 36.4143L195.482 35.4773C195.481 35.4546 195.474 35.4325 195.463 35.4124C195.453 35.3923 195.438 35.3746 195.421 35.3602C195.404 35.3459 195.383 35.3352 195.362 35.3286C195.34 35.3223 195.317 35.3203 195.295 35.3229H194.968V41.5335H195.545ZM201.931 41.6291C202.009 41.6296 202.085 41.6147 202.156 41.5849C202.226 41.5576 202.289 41.5149 202.34 41.4598C202.394 41.407 202.438 41.3436 202.467 41.2736C202.497 41.2033 202.512 41.1281 202.512 41.0521C202.51 40.8989 202.449 40.7523 202.34 40.6441C202.287 40.5902 202.225 40.5477 202.156 40.519C202.085 40.4878 202.007 40.4714 201.93 40.4714C201.852 40.4714 201.775 40.4878 201.704 40.519C201.636 40.5486 201.575 40.591 201.523 40.6441C201.471 40.6969 201.43 40.7595 201.402 40.8277C201.373 40.8989 201.358 40.9752 201.358 41.0521C201.357 41.1278 201.371 41.203 201.4 41.273C201.428 41.3433 201.47 41.4073 201.524 41.4609C201.577 41.5146 201.641 41.5571 201.711 41.586C201.78 41.615 201.856 41.6296 201.931 41.6291Z" fill="white"/>
</svg>
