<?xml version="1.0" encoding="UTF-8"?>
<svg id="Capa_2" data-name="Capa 2" xmlns="http://www.w3.org/2000/svg" viewBox="0 0 912.1 304.03">
  <defs>
    <style>
      .cls-1, .cls-2 {
        fill: #fff;
      }

      .cls-2 {
        fill-rule: evenodd;
      }
    </style>
  </defs>
  <g id="Layer_1" data-name="Layer 1">
    <g>
      <path class="cls-2" d="M354.69,139.87h85.42c-5.84-20.86-21.1-32.34-44.13-32.34-18.55,0-36.05,12.85-41.29,32.34Zm124.92,29.62h-125.36c1.79,22.22,18.4,36.42,43.98,35.51,15.86,0,29.77-6.65,37.25-19.5h39.34c-13.16,34.46-40.69,53.96-75.4,53.96-23.34,0-42.64-8.01-58.79-24.33-14.66-15.57-23.34-37.18-23.34-58.04,0-22.06,7.48-41.56,21.99-57.13,15.86-16.78,36.5-26.15,57.9-26.15,26.63,0,51.31,13.6,67.92,35.82,9.72,14.21,14.51,30.98,14.51,51.84v8.01Z"/>
      <path class="cls-2" d="M580.88,111.01c-25.43,0-44.73,20.25-44.73,47.3s20.2,45.94,42.78,45.79c28.12,0,47.42-20.4,47.42-46.55s-20.04-46.55-45.48-46.55Zm-46.08-83.43v63.33c14.06-11.49,29.47-16.02,48.47-15.57,20.64,0,39.49,6.65,54,20.86,17.5,15.57,26.78,38.54,26.78,61.51,0,24.94-10.47,48.36-29.32,64.69-14.06,11.48-31.27,18.14-51.31,18.14-18.4,0-34.11-5.29-48.62-16.77v12.85h-35.9V27.58h35.9Z"/>
      <path class="cls-2" d="M723.75,78.97h-34.71V236.6h34.71V78.97Zm0-51.39h-34.71V62.64h34.71V27.58Z"/>
      <path class="cls-2" d="M829.36,110.4c-24.68,0-44.73,19.5-44.73,45.19,0,27.81,20.65,47.3,45.33,47.3,22.74,0,43.38-20.86,43.38-45.19,0-27.06-21.24-47.31-43.98-47.31Zm82.73,126.2h-34.86v-19.5c-8.68,16.32-24.54,22.97-48.62,22.97-45.93,0-80.63-35.52-80.63-82.82,0-22.22,7.48-42.47,21.99-58.04,15.86-16.77,34.56-24.33,57.9-24.33s38.9,7.41,49.52,22.97v-18.89h34.71V236.6Z"/>
      <polygon class="cls-1" points="397.94 0 302.02 0 198.78 104.21 95.61 0 0 0 150.57 152.62 1.34 304.03 96.06 304.03 198.52 200.98 300.69 304.03 396.59 304.03 246.6 152.52 397.94 0"/>
    </g>
  </g>
</svg>