<?xml version="1.0" encoding="UTF-8"?>
<svg id="Layer_2" xmlns="http://www.w3.org/2000/svg" xmlns:xlink="http://www.w3.org/1999/xlink" viewBox="0 0 27.32 29.29">
  <defs>
    <style>
      .cls-1 {
        fill: url(#linear-gradient);
      }
    </style>
    <linearGradient id="linear-gradient" x1="0" y1="14.65" x2="27.32" y2="14.65" gradientUnits="userSpaceOnUse">
      <stop offset="0" stop-color="#fff"/>
      <stop offset="1" stop-color="#fff"/>
    </linearGradient>
  </defs>
  <g id="Layer_1-2" data-name="Layer_1">
    <g id="icson">
      <path class="cls-1" d="M7.84,21.9c-.31,1.78.84,3.54,2.67,4.03,1.68.45,3.4.48,5.12.31,1.04-.1,2.06-.33,3.11-.5.03.7.07,1.44.08,2.18,0,.1-.16.24-.27.29-1.13.49-2.31.77-3.52.92-2.93.38-5.8.08-8.61-.78-2.45-.75-4-2.48-4.96-4.8-.75-1.82-1.08-3.74-1.25-5.69C-.04,15-.01,12.13.02,9.26c.02-1.6.33-3.14,1.06-4.58C2.14,2.6,3.76,1.26,6.07.76,9.15.09,12.26-.08,15.39.03c1.86.07,3.7.29,5.53.64,3.38.65,5.22,2.82,6.04,5.99.23.87.32,1.79.34,2.69.05,2.35-.15,4.69-.36,7.03-.18,1.96-1.21,3.26-2.77,4.26-1.57,1.01-3.29,1.52-5.13,1.74-2.23.27-4.47.42-6.71.2-1.44-.14-2.87-.42-4.3-.64-.07-.01-.13-.03-.2-.04ZM4.95,17.69h3.02c0-.16,0-.3,0-.44,0-2.22,0-4.44,0-6.66,0-.27.01-.54.05-.8.13-1.01.82-1.74,1.74-1.87.88-.12,1.72.39,2.1,1.33.15.39.26.83.27,1.25.04,1.3.02,2.6.02,3.9,0,.14,0,.27,0,.42h3.04c0-.15,0-.28,0-.4,0-1.3,0-2.6,0-3.91,0-.64.17-1.24.55-1.77.93-1.28,2.74-1.1,3.35.35.18.42.25.92.26,1.39.03,2.25.01,4.51.01,6.76v.42h3.02c0-.1.02-.18.02-.26.01-2.14.04-4.28.02-6.42,0-.83-.06-1.68-.2-2.5-.31-1.85-1.67-3.18-3.47-3.49-1.94-.34-3.54.39-4.53,2.05-.14.23-.27.46-.41.69-.04.07-.1.14-.17.23-.22-.36-.42-.69-.61-1.02-1.5-2.65-5.23-2.56-6.96-.56-.82.95-1.11,2.09-1.12,3.29-.04,2.59-.02,5.18-.03,7.77,0,.07.01.13.02.21Z"/>
    </g>
  </g>
</svg>