<svg width="621" height="172" viewBox="0 0 621 172" fill="none" xmlns="http://www.w3.org/2000/svg">
<path d="M334.338 124.481V161.952C329.818 165.329 324.75 167.901 319.359 169.554C313.826 171.189 308.083 171.995 302.316 171.944C295.333 172.05 288.391 170.857 281.842 168.426C276.03 166.223 270.724 162.861 266.246 158.541C261.904 154.302 258.498 149.195 256.251 143.552C253.868 137.499 252.676 131.041 252.741 124.535C252.665 117.987 253.81 111.482 256.117 105.356C260.371 93.9338 269.354 84.9198 280.744 80.6435C287.125 78.251 293.896 77.0758 300.708 77.1784C304.229 77.1589 307.744 77.4555 311.212 78.0648C314.305 78.6256 317.345 79.4524 320.296 80.5361C322.969 81.5352 325.529 82.8137 327.934 84.3503C330.211 85.8334 332.354 87.5142 334.338 89.3734L329.408 97.19C328.772 98.3346 327.681 99.1548 326.406 99.4463C324.999 99.6911 323.552 99.3623 322.387 98.533L318.26 96.0887C316.765 95.2391 315.195 94.5288 313.57 93.9666C311.673 93.332 309.728 92.8471 307.755 92.5161C305.295 92.0921 302.802 91.8943 300.306 91.9252C296.076 91.8669 291.877 92.6522 287.952 94.2352C284.353 95.7005 281.129 97.9589 278.52 100.843C275.833 103.831 273.79 107.343 272.517 111.158C271.051 115.481 270.335 120.023 270.4 124.588C270.319 129.414 271.09 134.215 272.678 138.771C274.04 142.708 276.213 146.314 279.056 149.354C281.828 152.218 285.195 154.437 288.917 155.855C296.009 158.424 303.7 158.835 311.025 157.037C313.735 156.304 316.372 155.324 318.903 154.109V137.428H307.246C306.26 137.51 305.286 137.168 304.567 136.488C303.951 135.891 303.611 135.063 303.629 134.205V124.481H334.338ZM362.395 116.611C364.148 113.042 366.631 109.884 369.684 107.343C372.513 105.091 376.04 103.903 379.652 103.986C382.232 103.849 384.787 104.546 386.941 105.974L385.923 117.819C385.791 118.445 385.474 119.016 385.012 119.458C384.534 119.793 383.96 119.963 383.377 119.941C382.423 119.909 381.474 119.801 380.537 119.619C379.315 119.407 378.078 119.3 376.839 119.297C375.252 119.269 373.674 119.523 372.176 120.049C370.826 120.559 369.581 121.315 368.505 122.278C367.377 123.289 366.41 124.467 365.637 125.77C364.738 127.264 363.958 128.827 363.306 130.444V170.924H347.737V105.195H356.982C358.181 105.077 359.384 105.381 360.385 106.054C361.154 106.917 361.607 108.015 361.671 109.17L362.395 116.611ZM442.814 119.297C441.805 116.305 440.18 113.559 438.044 111.238C435.911 108.908 433.295 107.074 430.38 105.866C427.108 104.562 423.61 103.923 420.089 103.986C410.007 103.763 400.233 107.482 392.837 114.354L395.945 119.404C396.421 120.201 397.049 120.895 397.794 121.446C398.611 122.036 399.601 122.338 400.608 122.305C401.83 122.322 403.034 122.007 404.091 121.392L407.575 119.377C408.981 118.564 410.461 117.89 411.997 117.363C414.059 116.716 416.214 116.417 418.374 116.476C421.389 116.296 424.33 117.455 426.414 119.646C428.51 122.452 429.51 125.929 429.227 129.423V133.291C424.741 133.352 420.265 133.72 415.829 134.393C412.364 134.91 408.948 135.718 405.619 136.81C403.016 137.623 400.537 138.789 398.25 140.275C396.418 141.433 394.765 142.853 393.346 144.492C392.161 145.873 391.251 147.469 390.666 149.193C390.117 150.792 389.837 152.471 389.835 154.162C389.776 156.817 390.25 159.457 391.229 161.925C392.108 164.059 393.465 165.962 395.195 167.485C396.965 169.026 399.037 170.179 401.278 170.87C403.763 171.621 406.346 171.992 408.942 171.971C411.1 171.991 413.255 171.793 415.373 171.38C417.215 170.973 419.011 170.379 420.733 169.608C422.456 168.821 424.098 167.867 425.636 166.76C427.337 165.539 428.965 164.221 430.514 162.812L431.907 167.566C432.197 168.67 432.884 169.626 433.836 170.252C434.906 170.76 436.085 170.991 437.267 170.924H444.448V129.558C444.478 126.07 443.926 122.602 442.814 119.297ZM429.013 153.921C427.026 156.099 424.678 157.917 422.072 159.293C419.442 160.529 416.562 161.136 413.658 161.066C411.385 161.175 409.138 160.544 407.254 159.266C404.515 156.715 403.985 152.568 405.994 149.408C407.026 148.015 408.415 146.929 410.014 146.265C412.398 145.203 414.912 144.462 417.49 144.063C421.299 143.397 425.149 142.993 429.013 142.854V153.921ZM500.401 75.7279V110.406C498.368 108.452 496.01 106.87 493.434 105.732C490.452 104.508 487.248 103.923 484.028 104.013C479.995 103.986 476.012 104.906 472.398 106.699C468.951 108.431 465.924 110.897 463.528 113.924C460.973 117.118 459.037 120.762 457.82 124.669C456.47 129.071 455.801 133.655 455.837 138.261C455.77 143.1 456.365 147.927 457.606 152.604C458.608 156.35 460.298 159.875 462.59 163C466.673 168.604 473.219 171.87 480.142 171.756C484.297 171.891 488.419 170.967 492.12 169.07C495.568 167.177 498.653 164.685 501.232 161.71L502.571 168.05C502.992 169.866 504.685 171.093 506.537 170.924H516.184V75.701L500.401 75.7279ZM500.481 151.449C498.658 153.771 496.435 155.745 493.916 157.278C491.358 158.712 488.458 159.418 485.528 159.32C483.622 159.352 481.731 158.977 479.981 158.218C478.257 157.421 476.79 156.156 475.747 154.565C474.456 152.566 473.547 150.344 473.068 148.011C472.402 144.805 472.096 141.535 472.157 138.261C472.098 134.925 472.458 131.595 473.228 128.349C473.808 125.863 474.874 123.516 476.364 121.446C477.666 119.685 479.39 118.281 481.375 117.363C483.404 116.447 485.608 115.989 487.833 116.02C490.168 116.008 492.483 116.465 494.639 117.363C496.924 118.418 498.925 120.002 500.481 121.983V151.449ZM547.832 75.7279V170.924H532.048V75.7279H547.832ZM611.77 153.894C610.701 153.922 609.658 154.228 608.742 154.78C607.777 155.371 606.491 156.043 605.098 156.768C603.54 157.567 601.917 158.232 600.247 158.756C598.099 159.387 595.867 159.686 593.629 159.642C591.245 159.681 588.874 159.28 586.634 158.46C584.603 157.689 582.771 156.467 581.275 154.888C579.639 153.13 578.38 151.055 577.577 148.79C576.553 145.975 575.948 143.025 575.782 140.033L616.352 140.007C617.485 140.153 618.609 139.682 619.3 138.771C619.945 137.246 620.211 135.587 620.077 133.936C620.148 129.622 619.422 125.333 617.933 121.284C616.64 117.784 614.622 114.599 612.011 111.937C609.467 109.368 606.394 107.388 603.007 106.135C599.347 104.773 595.469 104.1 591.565 104.147C587.024 104.121 582.526 105.036 578.354 106.833C574.614 108.443 571.247 110.812 568.466 113.79C565.719 116.777 563.596 120.284 562.222 124.105C560.756 128.16 560.021 132.444 560.051 136.756C559.953 141.943 560.797 147.104 562.544 151.987C564.04 156.091 566.366 159.84 569.377 163C572.265 165.953 575.757 168.245 579.613 169.715C583.676 171.27 587.994 172.044 592.342 171.998C594.718 171.996 597.091 171.826 599.443 171.488C601.908 171.139 604.331 170.545 606.679 169.715C609.069 168.873 611.353 167.755 613.485 166.384C615.695 164.979 617.675 163.24 619.354 161.227L614.718 155.371C614.077 154.378 612.948 153.812 611.77 153.894ZM581.06 119.404C583.961 116.706 587.828 115.301 591.779 115.509C593.893 115.47 595.992 115.872 597.943 116.691C599.63 117.422 601.125 118.534 602.311 119.941C603.51 121.332 604.421 122.949 604.99 124.696C605.575 126.574 605.873 128.53 605.875 130.498H576.049C576.471 126.352 578.231 122.457 581.06 119.404Z" fill="white"/>
<path d="M219.807 10.8044C205.786 -3.2611 183.162 -3.64144 168.678 9.94492C167.981 10.588 167.583 11.4933 167.579 12.4429C167.559 13.3968 167.927 14.3177 168.597 14.9948L173.233 19.6418C174.469 20.8751 176.42 21.0124 177.816 19.964C181.451 17.2144 185.884 15.7332 190.437 15.7469C202.085 15.7467 211.527 25.2111 211.527 36.8863C211.527 42.4865 209.31 47.8579 205.363 51.8214C176.235 81.1806 137.137 -0.853265 48.6799 41.3455C42.6666 44.1454 40.0562 51.3013 42.8494 57.3289C42.9934 57.6395 43.1505 57.944 43.3204 58.2412L58.4876 84.5383C61.7806 90.2314 69.0187 92.2275 74.7535 89.0241L75.1287 88.8092L74.834 89.0241L81.56 85.2366C89.0629 80.5787 96.1544 75.2856 102.757 69.4154C104.098 68.1611 106.158 68.0922 107.58 69.2543C109.06 70.4632 109.282 72.6459 108.076 74.1293C107.928 74.3115 107.762 74.478 107.58 74.6264C100.691 80.8458 93.2758 86.4539 85.4188 91.3878L85.1777 91.5221L78.4516 95.2827C75.6164 96.8933 72.4117 97.7357 69.153 97.7271C62.2801 97.7441 55.9185 94.09 52.4582 88.1376L38.0949 63.3179C10.5474 82.8191 -6.17415 120.398 2.80295 167.942C3.12437 169.6 4.57521 170.795 6.2598 170.789H22.5793C24.3882 170.859 25.9487 169.528 26.1702 167.727C27.8803 154.576 39.9026 145.304 53.0225 147.019C63.7971 148.427 72.2772 156.927 73.6816 167.727C73.8953 169.456 75.3473 170.762 77.0849 170.789H93.0025C94.7662 170.791 96.2572 169.48 96.4861 167.727C98.1376 154.583 110.106 145.27 123.219 146.926C134.064 148.295 142.605 156.856 143.971 167.727C144.187 169.476 145.67 170.789 147.428 170.789H163.158C165.061 170.789 166.612 169.259 166.641 167.351C167.016 145.11 172.992 119.565 190.062 106.779C248.989 62.5121 233.474 24.5574 219.807 10.8044ZM159.594 77.7692V77.7424L148.339 72.0747C148.324 68.1583 151.48 64.9716 155.387 64.9571C159.294 64.9426 162.473 68.1057 162.488 72.0221C162.496 74.2916 161.42 76.4281 159.594 77.7692Z" fill="url(#paint0_linear_82_16)"/>
<defs>
<linearGradient id="paint0_linear_82_16" x1="0.365082" y1="0" x2="163.434" y2="221.57" gradientUnits="userSpaceOnUse">
<stop stop-color="#209BC4"/>
<stop offset="1" stop-color="#4DC9C0"/>
</linearGradient>
</defs>
</svg>
