<?xml version="1.0" encoding="utf-8"?>
<!-- Generator: Adobe Illustrator 26.1.0, SVG Export Plug-In . SVG Version: 6.00 Build 0)  -->
<svg version="1.1" id="Layer_1" xmlns="http://www.w3.org/2000/svg" xmlns:xlink="http://www.w3.org/1999/xlink" x="0px" y="0px"
	 viewBox="0 0 1125 2436" style="enable-background:new 0 0 1125 2436;" xml:space="preserve">
<style type="text/css">
	
		.st0{clip-path:url(#SVGID_00000046318171302032542210000001590668685418536838_);fill:url(#SVGID_00000030471976244342668960000015295792961599961482_);}
	.st1{clip-path:url(#SVGID_00000046318171302032542210000001590668685418536838_);fill:#0D8AB2;enable-background:new    ;}
	.st2{clip-path:url(#SVGID_00000046318171302032542210000001590668685418536838_);}
	.st3{fill:#FFFFFF;}
	.st4{fill:none;stroke:#FFFFFF;stroke-width:9.6419;stroke-miterlimit:10;}
	.st5{opacity:0.9517;fill:none;stroke:#FFFFFF;stroke-width:9.2646;stroke-miterlimit:10;}
	.st6{opacity:0.9033;fill:none;stroke:#FFFFFF;stroke-width:8.8873;stroke-miterlimit:10;}
	.st7{opacity:0.855;fill:none;stroke:#FFFFFF;stroke-width:8.51;stroke-miterlimit:10;}
	.st8{opacity:0.8067;fill:none;stroke:#FFFFFF;stroke-width:8.1327;stroke-miterlimit:10;}
	.st9{opacity:0.7583;fill:none;stroke:#FFFFFF;stroke-width:7.7554;stroke-miterlimit:10;}
	.st10{opacity:0.71;fill:none;stroke:#FFFFFF;stroke-width:7.3781;stroke-miterlimit:10;}
	.st11{opacity:0.6617;fill:none;stroke:#FFFFFF;stroke-width:7.0008;stroke-miterlimit:10;}
	.st12{opacity:0.6133;fill:none;stroke:#FFFFFF;stroke-width:6.6235;stroke-miterlimit:10;}
	.st13{opacity:0.565;fill:none;stroke:#FFFFFF;stroke-width:6.2462;stroke-miterlimit:10;}
	.st14{opacity:0.5167;fill:none;stroke:#FFFFFF;stroke-width:5.8689;stroke-miterlimit:10;}
	.st15{opacity:0.4683;fill:none;stroke:#FFFFFF;stroke-width:5.4916;stroke-miterlimit:10;}
	.st16{opacity:0.42;fill:none;stroke:#FFFFFF;stroke-width:5.1143;stroke-miterlimit:10;}
	.st17{opacity:0.3717;fill:none;stroke:#FFFFFF;stroke-width:4.737;stroke-miterlimit:10;}
	.st18{opacity:0.3233;fill:none;stroke:#FFFFFF;stroke-width:4.3597;stroke-miterlimit:10;}
	.st19{opacity:0.275;fill:none;stroke:#FFFFFF;stroke-width:3.9824;stroke-miterlimit:10;}
	.st20{opacity:0.2267;fill:none;stroke:#FFFFFF;stroke-width:3.6051;stroke-miterlimit:10;}
	.st21{opacity:0.1783;fill:none;stroke:#FFFFFF;stroke-width:3.2278;stroke-miterlimit:10;}
	.st22{opacity:0.13;fill:none;stroke:#FFFFFF;stroke-width:2.8504;stroke-miterlimit:10;}
	.st23{clip-path:url(#SVGID_00000046318171302032542210000001590668685418536838_);fill:#DE3423;}
	.st24{clip-path:url(#SVGID_00000046318171302032542210000001590668685418536838_);fill:#A02B22;}
	.st25{clip-path:url(#SVGID_00000046318171302032542210000001590668685418536838_);fill:#A02B22;enable-background:new    ;}
	
		.st26{clip-path:url(#SVGID_00000046318171302032542210000001590668685418536838_);fill:url(#SVGID_00000048471122814227998190000000787215434638210971_);}
	
		.st27{clip-path:url(#SVGID_00000046318171302032542210000001590668685418536838_);fill:none;stroke:#012D98;stroke-width:11.5401;stroke-miterlimit:10;}
	.st28{clip-path:url(#SVGID_00000046318171302032542210000001590668685418536838_);fill:none;}
	.st29{clip-path:url(#SVGID_00000046318171302032542210000001590668685418536838_);fill:#9ADCEC;}
	.st30{clip-path:url(#SVGID_00000046318171302032542210000001590668685418536838_);fill:#FFFFFF;}
</style>
<g>
	<defs>
		<rect id="SVGID_1_" x="-26.97" y="-32.29" width="1215.12" height="2509.15"/>
	</defs>
	<clipPath id="SVGID_00000087394351831090792720000007151303063307127733_">
		<use xlink:href="#SVGID_1_"  style="overflow:visible;"/>
	</clipPath>
	
		<linearGradient id="SVGID_00000063622860492166057460000000943323983693616788_" gradientUnits="userSpaceOnUse" x1="284.2186" y1="-13.5279" x2="685.1528" y2="1198.5751">
		<stop  offset="0" style="stop-color:#0D8AB2"/>
		<stop  offset="0.3662" style="stop-color:#39BAD8"/>
		<stop  offset="1" style="stop-color:#9ADCEC"/>
	</linearGradient>
	
		<rect x="-749.25" y="-32.29" style="clip-path:url(#SVGID_00000087394351831090792720000007151303063307127733_);fill:url(#SVGID_00000063622860492166057460000000943323983693616788_);" width="2579.37" height="1586.71"/>
	
		<path style="clip-path:url(#SVGID_00000087394351831090792720000007151303063307127733_);fill:#0D8AB2;enable-background:new    ;" d="
		M-749.25,1299.91c0,0,71.37-19.41,73.09-19.41c1.23,0,36.44,8.2,56.32,12.86c8.44,1.98,15.54,7.64,19.35,15.43l6.55,13.39
		c0,0,11.99,9.71,30.26,12.56s55.39,0,55.39,0l17.54-12.73c6.72-4.87,15.95-4.28,21.99,1.41l19.28,18.17h51.39
		c0,0,39.97-18.84,42.25-18.84s70.23,10.28,70.23,10.28s31.98-4,33.69-4.57c1.71-0.57,39.4-30.26,49.11-29.12
		c6.17,0.73,19.24,3.29,27.96,5.07c5.56,1.13,10.73,3.69,15,7.43c8.98,7.87,24.35,21.19,25.56,21.19c1.71,0,41.11-0.57,45.11-0.57
		c4,0,116.88,16.89,116.88,16.89l-28.95,218.93h-748"/>
	<g style="clip-path:url(#SVGID_00000087394351831090792720000007151303063307127733_);">
		<circle class="st3" cx="783.84" cy="946.8" r="75.23"/>
		<g>
			<circle class="st4" cx="783.84" cy="946.8" r="96.68"/>
			<circle class="st5" cx="783.84" cy="946.8" r="122.17"/>
			<circle class="st6" cx="783.84" cy="946.8" r="147.66"/>
			<circle class="st7" cx="783.84" cy="946.8" r="173.15"/>
			<circle class="st8" cx="783.84" cy="946.8" r="198.64"/>
			<circle class="st9" cx="783.84" cy="946.8" r="224.13"/>
			<circle class="st10" cx="783.84" cy="946.8" r="249.61"/>
			<circle class="st11" cx="783.84" cy="946.8" r="275.1"/>
			<circle class="st12" cx="783.84" cy="946.8" r="300.59"/>
			<circle class="st13" cx="783.84" cy="946.8" r="326.08"/>
			<circle class="st14" cx="783.84" cy="946.8" r="351.57"/>
			<circle class="st15" cx="783.84" cy="946.8" r="377.06"/>
			<circle class="st16" cx="783.84" cy="946.8" r="402.55"/>
			<circle class="st17" cx="783.84" cy="946.8" r="428.03"/>
			<circle class="st18" cx="783.84" cy="946.8" r="453.52"/>
			<circle class="st19" cx="783.84" cy="946.8" r="479.01"/>
			<circle class="st20" cx="783.84" cy="946.8" r="504.5"/>
			<circle class="st21" cx="783.84" cy="946.8" r="529.99"/>
			<circle class="st22" cx="783.84" cy="946.8" r="555.48"/>
		</g>
	</g>
	<path style="clip-path:url(#SVGID_00000087394351831090792720000007151303063307127733_);fill:#DE3423;" d="M1830.12,1289.04
		v279.16H-640.22l119.83-46.23l45.5-24.9l46.3-26.28c0,0,47.72-8.99,50.49-8.99c2.76,0,132.59-5.76,132.59-5.76l23.19-12.78
		l32.51-30.61c4.45-4.19,11.57-3.44,15.05,1.58l6.75,9.75l38.29-62.3h18.7c0,0,151.35-142.39,154.03-142.39
		c2.66,0,34.72,25.21,34.72,25.21l48.07-37.09c0,0,24.04-20.76,29.38-20.76c5.34,0,48.07,35.6,48.07,35.6s28.49-34.12,33.83-35.6
		c5.34-1.48,10.68,0,10.68,0l7.37-5.66c2.49-1.91,5.94-1.91,8.42,0l30.51,23.46c0,0,28.5-2.96,32.06-5.94
		c3.56-2.96,52.52-29.67,52.52-29.67l47.19,56.37l58.77-2.96l16.91-31.15l146.9-45.98l67.66,50.43l27.36-26.75
		c8.24-8.05,20.51-10.37,31.11-5.86l27.9,11.85l34.72-17.8c0,0,54.31,29.67,56.97,28.19c2.06-1.14,61.71-43.3,89.41-62.87
		c8.12-5.74,19.12-5.12,26.55,1.49c18.24,16.23,50.05,44.45,53.21,46.55c4.45,2.96,37.4,23.74,37.4,23.74s23.15-5.94,27.6-1.49
		c4.45,4.45,23.15,31.15,32.05,29.67c8.9-1.49,46.36-21.73,59.66-19.29c11.32,2.08,69.53,58.5,69.53,58.5l104.89-30.8l38.72,26.08
		l52.56-4.61l33.04,9.33l22.29-9.96c2.91-2.22,6.68-2.98,10.22-2.06l54.33,13.99l154.45,35.84L1830.12,1289.04z"/>
	<path style="clip-path:url(#SVGID_00000087394351831090792720000007151303063307127733_);fill:#A02B22;" d="M1738.37,1314.03
		l-71-18.08l-124.18-36.12l-20.29,6.45l-38.11-9.99l-53.94,17.06l-41.03-34.12l-122.68,31.52c-18.87-16.72-62.38-43-65.12-45.28
		c-3.56-2.96-50.75,17.8-59.65,19.29c-8.9,1.48-27.6-25.21-32.05-29.67c-4.46-4.45-40.83,25.81-40.83,25.81s-19.72-45.1-24.17-48.06
		S979.44,1135,979.44,1135s-100.61,71.2-103.28,72.68c-2.67,1.49-39.66-45.84-39.66-45.84l-52.05,35.46l-45.4-19.29l-52.24,69.58
		l-56.38-79.95l-125.97,27.39l-17.06,34.35l-20.79,15.39l-43.37,23.73l-46.1-95.36c0,0-62.07,39.22-65.63,42.18
		c-3.56,2.97-24.9-1.15-24.9-1.15l-23.13-25.14c-3.36-3.66-9.08-3.81-12.65-0.35l-21.05,20.49c0,0-5.34-1.49-10.69,0
		c-5.34,1.49-36.41,83.72-36.41,83.72s-28.36-98.77-33.7-98.77c-5.35,0-41.17,35.82-41.17,35.82l-48.08,37.09
		c0,0-32.05-25.22-34.72-25.22c-2.66,0-154.03,142.4-154.03,142.4l-11.72,4.22l-27.24,57.02l-20.25-9.84
		c-3.11-4.49-9.48-5.16-13.46-1.42l-33.4,31.45l-60.5,3.36l-30.65,1.8l-88.76,6.49c-5.92,1.02-11.62,3.03-16.86,5.96l-55.06,47.03
		l-126.62,37.94l321.99,0.07l1.38,33.97h1511.7h52.61h555.99v-305.51L1738.37,1314.03z"/>
	<path style="clip-path:url(#SVGID_00000087394351831090792720000007151303063307127733_);fill:#DE3423;" d="M1769.26,1343.29
		l-39.65-14.51l-118.95,14.51l-63.63-35.71l-45.18,9.22l-86.68-18.44l-96.7,9.31c0,0-119.3-29.67-122.86-29.67
		c-2.5,0-30.86-13.15-47.56-20.99c-7.83-3.68-16.71-4.41-25.03-2.06l-50.27,14.15l-97.05-28.18c0,0-57.87,22.25-61.43,22.25
		c-3.56,0-27.6-4.45-27.6-4.45s-47.19,0-49.86,0c-2.67,0-73.01-17.8-76.57-17.8c-3.56,0-140.67,66.75-140.67,66.75l-116.19,56.37
		l-46.74-75.65l-75.68,19.28l-54.31,48.95l-62.32-35.6c0,0-32.05,4.45-38.28,7.42c-6.23,2.97-75.68,115.7-75.68,115.7l-110.4,74.16
		l-59.65-28.18l-106.23,78.16h1444.39h511.66v-247.45L1769.26,1343.29z"/>
	
		<path style="clip-path:url(#SVGID_00000087394351831090792720000007151303063307127733_);fill:#A02B22;enable-background:new    ;" d="
		M1766.96,1346.77l-40.11-12.91l-113.42,17.52h-29.97l-40.11-37.35l-79.76,22.59l-21.21-16.6l-35.5-13.83l-88.41,12.54
		c0,0-119.3-29.67-122.86-29.67s-59.97-32.6-59.97-32.6l-83.45,38.96l-75.61-51.64c0,0-58.75,30.44-62.31,30.44
		c-3.56,0-27.6-4.45-27.6-4.45s-45.97,18.04-48.64,18.04s-74.13-43.11-77.69-43.11c-3.56,0-140.77,74.02-140.77,74.02l-116.19,56.37
		l-70.85-63.99l-51.57,7.63l-69.23,78.13l-44.78-61.19c-1.62-2.22-4.34-3.35-7.05-2.95c-9.02,1.34-29.07,4.5-33.86,6.78
		c-6.23,2.97-75.68,115.7-75.68,115.7l-110.4,74.16l-54.39-32.62c-3.25-1.95-7.35-1.8-10.45,0.38l-101.02,71.15h1444.36h511.66
		v-239.49L1766.96,1346.77z"/>
	
		<linearGradient id="SVGID_00000101071458082576953060000012018556516383769784_" gradientUnits="userSpaceOnUse" x1="373.7704" y1="1648.0551" x2="555.4554" y2="2767.4695">
		<stop  offset="0" style="stop-color:#39BAD8"/>
		<stop  offset="1" style="stop-color:#0D8AB2"/>
	</linearGradient>
	
		<rect x="-1002.84" y="1568.27" style="clip-path:url(#SVGID_00000087394351831090792720000007151303063307127733_);fill:url(#SVGID_00000101071458082576953060000012018556516383769784_);" width="2832.96" height="650.88"/>
	
		<rect x="-520.39" y="788.02" style="clip-path:url(#SVGID_00000087394351831090792720000007151303063307127733_);fill:none;" width="1795.05" height="1009.72"/>
	
		<rect x="-78.54" y="1735.48" style="clip-path:url(#SVGID_00000087394351831090792720000007151303063307127733_);fill:#0D8AB2;enable-background:new    ;" width="88.2" height="12.6"/>
	
		<rect x="90.67" y="1705.54" style="clip-path:url(#SVGID_00000087394351831090792720000007151303063307127733_);fill:#0D8AB2;enable-background:new    ;" width="114.73" height="12.93"/>
	
		<rect x="156.6" y="1782.2" style="clip-path:url(#SVGID_00000087394351831090792720000007151303063307127733_);fill:#0D8AB2;enable-background:new    ;" width="137.86" height="24.6"/>
	
		<rect x="-167.98" y="1794.5" style="clip-path:url(#SVGID_00000087394351831090792720000007151303063307127733_);fill:#0D8AB2;enable-background:new    ;" width="295.04" height="30.81"/>
	
		<rect x="-196.11" y="1917.56" style="clip-path:url(#SVGID_00000087394351831090792720000007151303063307127733_);fill:#0D8AB2;enable-background:new    ;" width="246.55" height="42.86"/>
	
		<rect x="-149.96" y="2046.13" style="clip-path:url(#SVGID_00000087394351831090792720000007151303063307127733_);fill:#0D8AB2;enable-background:new    ;" width="339.65" height="55.61"/>
	
		<rect x="336.69" y="2101.74" style="clip-path:url(#SVGID_00000087394351831090792720000007151303063307127733_);fill:#0D8AB2;enable-background:new    ;" width="387.12" height="81.23"/>
	
		<rect x="-1012.76" y="2181.76" style="clip-path:url(#SVGID_00000087394351831090792720000007151303063307127733_);fill:#0D8AB2;enable-background:new    ;" width="2842.88" height="598.8"/>
	
		<rect x="110.02" y="1940.43" style="clip-path:url(#SVGID_00000087394351831090792720000007151303063307127733_);fill:#0D8AB2;enable-background:new    ;" width="396.11" height="54.47"/>
	
		<rect x="274.89" y="1825.31" style="clip-path:url(#SVGID_00000087394351831090792720000007151303063307127733_);fill:#0D8AB2;enable-background:new    ;" width="182.55" height="30.89"/>
	
		<rect x="540.44" y="1871.48" style="clip-path:url(#SVGID_00000087394351831090792720000007151303063307127733_);fill:#0D8AB2;enable-background:new    ;" width="182.55" height="37.27"/>
	
		<rect x="622.31" y="1973.01" style="clip-path:url(#SVGID_00000087394351831090792720000007151303063307127733_);fill:#0D8AB2;enable-background:new    ;" width="196.59" height="55.23"/>
	
		<rect x="294.46" y="1766.53" style="clip-path:url(#SVGID_00000087394351831090792720000007151303063307127733_);fill:#0D8AB2;enable-background:new    ;" width="162.98" height="15.68"/>
	
		<rect x="425.4" y="1702.8" style="clip-path:url(#SVGID_00000087394351831090792720000007151303063307127733_);fill:#0D8AB2;enable-background:new    ;" width="124.25" height="15.68"/>
	
		<rect x="533.06" y="1662.75" style="clip-path:url(#SVGID_00000087394351831090792720000007151303063307127733_);fill:#0D8AB2;enable-background:new    ;" width="71.12" height="10.7"/>
	
		<rect x="549.65" y="1718.48" style="clip-path:url(#SVGID_00000087394351831090792720000007151303063307127733_);fill:#0D8AB2;enable-background:new    ;" width="120.41" height="25"/>
	
		<rect x="767.66" y="1774.57" style="clip-path:url(#SVGID_00000087394351831090792720000007151303063307127733_);fill:#0D8AB2;enable-background:new    ;" width="172.05" height="27.46"/>
	
		<rect x="487.53" y="1788.3" style="clip-path:url(#SVGID_00000087394351831090792720000007151303063307127733_);fill:#0D8AB2;enable-background:new    ;" width="223.5" height="27.46"/>
	
		<rect x="887.46" y="1741.02" style="clip-path:url(#SVGID_00000087394351831090792720000007151303063307127733_);fill:#0D8AB2;enable-background:new    ;" width="144.58" height="15.26"/>
	
		<rect x="988.81" y="1685.69" style="clip-path:url(#SVGID_00000087394351831090792720000007151303063307127733_);fill:#0D8AB2;enable-background:new    ;" width="128.17" height="17.52"/>
	
		<rect x="1056.74" y="1778.73" style="clip-path:url(#SVGID_00000087394351831090792720000007151303063307127733_);fill:#0D8AB2;enable-background:new    ;" width="120.49" height="15.26"/>
	
		<rect x="1115.07" y="1857.68" style="clip-path:url(#SVGID_00000087394351831090792720000007151303063307127733_);fill:#0D8AB2;enable-background:new    ;" width="144.76" height="27.6"/>
	
		<rect x="723.01" y="1653.34" style="clip-path:url(#SVGID_00000087394351831090792720000007151303063307127733_);fill:#0D8AB2;enable-background:new    ;" width="95.98" height="11.3"/>
	
		<rect x="935.67" y="1641.86" style="clip-path:url(#SVGID_00000087394351831090792720000007151303063307127733_);fill:#0D8AB2;enable-background:new    ;" width="71.16" height="13.72"/>
	
		<rect x="-74.66" y="1668.1" style="clip-path:url(#SVGID_00000087394351831090792720000007151303063307127733_);fill:#9ADCEC;" width="110.46" height="11.28"/>
	
		<rect x="29.58" y="1599.64" style="clip-path:url(#SVGID_00000087394351831090792720000007151303063307127733_);fill:#9ADCEC;" width="57.09" height="7.98"/>
	
		<rect x="80.3" y="1633.14" style="clip-path:url(#SVGID_00000087394351831090792720000007151303063307127733_);fill:#9ADCEC;" width="53.71" height="7.98"/>
	
		<rect x="106.35" y="1584.33" style="clip-path:url(#SVGID_00000087394351831090792720000007151303063307127733_);fill:#9ADCEC;" width="62.71" height="6.69"/>
	
		<rect x="189.11" y="1575.43" style="clip-path:url(#SVGID_00000087394351831090792720000007151303063307127733_);fill:#9ADCEC;" width="30.51" height="4.63"/>
	
		<rect x="219.61" y="1571.3" style="clip-path:url(#SVGID_00000087394351831090792720000007151303063307127733_);fill:#9ADCEC;" width="29.43" height="4.13"/>
	
		<rect x="254.67" y="1591.75" style="clip-path:url(#SVGID_00000087394351831090792720000007151303063307127733_);fill:#9ADCEC;" width="33.73" height="4.6"/>
	
		<rect x="351.26" y="1580.52" style="clip-path:url(#SVGID_00000087394351831090792720000007151303063307127733_);fill:#9ADCEC;" width="18" height="4.6"/>
	
		<rect x="216.39" y="1618.76" style="clip-path:url(#SVGID_00000087394351831090792720000007151303063307127733_);fill:#9ADCEC;" width="40.27" height="8.73"/>
	
		<rect x="316.49" y="1635.1" style="clip-path:url(#SVGID_00000087394351831090792720000007151303063307127733_);fill:#9ADCEC;" width="67.78" height="12.27"/>
	
		<rect x="444.92" y="1605.49" style="clip-path:url(#SVGID_00000087394351831090792720000007151303063307127733_);fill:#9ADCEC;" width="67.78" height="7.5"/>
	
		<rect x="538.97" y="1581.98" style="clip-path:url(#SVGID_00000087394351831090792720000007151303063307127733_);fill:#9ADCEC;" width="51.72" height="6.13"/>
	
		<rect x="586" y="1594.27" style="clip-path:url(#SVGID_00000087394351831090792720000007151303063307127733_);fill:#9ADCEC;" width="51.72" height="6.13"/>
	
		<rect x="939.82" y="1579.75" style="clip-path:url(#SVGID_00000087394351831090792720000007151303063307127733_);fill:#9ADCEC;" width="25.1" height="6.62"/>
	
		<rect x="972.37" y="1592.54" style="clip-path:url(#SVGID_00000087394351831090792720000007151303063307127733_);fill:#9ADCEC;" width="32.33" height="6.62"/>
	
		<rect x="902.9" y="1605.49" style="clip-path:url(#SVGID_00000087394351831090792720000007151303063307127733_);fill:#9ADCEC;" width="23.01" height="9.86"/>
	
		<rect x="779.65" y="1590.92" style="clip-path:url(#SVGID_00000087394351831090792720000007151303063307127733_);fill:#9ADCEC;" width="23.01" height="6.38"/>
	
		<rect x="737.84" y="1597.3" style="clip-path:url(#SVGID_00000087394351831090792720000007151303063307127733_);fill:#9ADCEC;" width="23.01" height="9.86"/>
	<polygon style="clip-path:url(#SVGID_00000087394351831090792720000007151303063307127733_);fill:#FFFFFF;" points="
		299.91,1751.99 305.86,1593.27 375.7,1751.99 	"/>
	<polygon style="clip-path:url(#SVGID_00000087394351831090792720000007151303063307127733_);fill:#FFFFFF;" points="607.31,1628 
		610.02,1524.96 658.57,1628 	"/>
	<polygon style="clip-path:url(#SVGID_00000087394351831090792720000007151303063307127733_);fill:#FFFFFF;" points="834.53,1709.6 
		838.15,1572.63 903.8,1709.6 	"/>
</g>
</svg>
