<?xml version="1.0" encoding="UTF-8"?>
<svg id="Layer_2" xmlns="http://www.w3.org/2000/svg" viewBox="0 0 583 310.63">
  <defs>
    <style>
      .cls-1 {
        fill: #fff;
      }
    </style>
  </defs>
  <g id="Layer_1-2" data-name="Layer_1">
    <g id="Tekst">
      <g>
        <g>
          <path class="cls-1" d="M16.79,185.74c1.33,2.74,3.17,4.93,5.5,6.55,2.33,1.63,5.09,2.79,8.27,3.5,3.18.71,6.59,1.06,10.22,1.06,2.07,0,4.33-.3,6.77-.89,2.44-.59,4.72-1.54,6.83-2.83,2.11-1.29,3.87-2.96,5.28-5,1.41-2.04,2.11-4.5,2.11-7.39,0-2.22-.5-4.15-1.5-5.78-1-1.63-2.3-3-3.89-4.11-1.59-1.11-3.35-2.02-5.28-2.72-1.93-.7-3.81-1.28-5.67-1.72l-17.66-4.33c-2.3-.59-4.54-1.33-6.72-2.22-2.18-.89-4.09-2.07-5.72-3.55-1.63-1.48-2.94-3.29-3.94-5.44-1-2.15-1.5-4.78-1.5-7.89,0-1.92.37-4.18,1.11-6.77.74-2.59,2.13-5.03,4.16-7.33,2.04-2.29,4.83-4.24,8.39-5.83,3.55-1.59,8.11-2.39,13.66-2.39,3.92,0,7.66.52,11.22,1.56,3.55,1.04,6.66,2.59,9.33,4.66,2.67,2.07,4.79,4.65,6.39,7.72,1.59,3.07,2.39,6.65,2.39,10.72h-7.55c-.15-3.04-.83-5.68-2.05-7.94-1.22-2.26-2.82-4.15-4.78-5.66-1.96-1.52-4.22-2.67-6.77-3.44-2.55-.78-5.24-1.17-8.05-1.17-2.59,0-5.09.28-7.5.83-2.41.55-4.52,1.44-6.33,2.67-1.81,1.22-3.28,2.83-4.39,4.83s-1.67,4.48-1.67,7.44c0,1.85.31,3.46.94,4.83.63,1.37,1.5,2.54,2.61,3.5,1.11.96,2.39,1.74,3.83,2.33,1.44.59,2.98,1.07,4.61,1.44l19.33,4.78c2.81.74,5.46,1.65,7.94,2.72,2.48,1.07,4.67,2.41,6.55,4,1.89,1.59,3.37,3.54,4.44,5.83,1.07,2.3,1.61,5.07,1.61,8.33,0,.89-.09,2.07-.28,3.55-.19,1.48-.63,3.05-1.33,4.72-.71,1.67-1.7,3.35-3,5.05-1.3,1.71-3.07,3.24-5.33,4.61-2.26,1.37-5.05,2.48-8.39,3.33-3.33.85-7.33,1.28-12,1.28s-9-.54-13-1.61c-4-1.07-7.4-2.72-10.22-4.94-2.81-2.22-4.98-5.07-6.5-8.55-1.52-3.48-2.17-7.66-1.94-12.55h7.55c-.07,4.07.56,7.48,1.89,10.22Z"/>
          <path class="cls-1" d="M115.08,152.19c-2.59-2.44-6.22-3.67-10.88-3.67-3.33,0-6.26.71-8.77,2.11-2.52,1.41-4.61,3.26-6.28,5.55-1.67,2.3-2.93,4.91-3.78,7.83-.85,2.93-1.28,5.91-1.28,8.94s.42,6.02,1.28,8.94c.85,2.93,2.11,5.54,3.78,7.83,1.67,2.3,3.76,4.15,6.28,5.55,2.52,1.41,5.44,2.11,8.77,2.11,2.15,0,4.18-.41,6.11-1.22,1.92-.81,3.63-1.94,5.11-3.39,1.48-1.44,2.7-3.17,3.67-5.16.96-2,1.55-4.18,1.78-6.55h7c-.96,6.96-3.52,12.38-7.66,16.27-4.15,3.89-9.48,5.83-15.99,5.83-4.37,0-8.24-.8-11.61-2.39-3.37-1.59-6.2-3.76-8.5-6.5-2.3-2.74-4.04-5.94-5.22-9.61-1.19-3.67-1.78-7.57-1.78-11.72s.59-8.05,1.78-11.72c1.18-3.67,2.92-6.87,5.22-9.61,2.29-2.74,5.13-4.92,8.5-6.55,3.37-1.63,7.24-2.44,11.61-2.44,6.14,0,11.35,1.63,15.6,4.89,4.26,3.26,6.79,8.18,7.61,14.77h-7c-.96-4.29-2.74-7.66-5.33-10.11Z"/>
          <path class="cls-1" d="M139.07,153.19c1.18-2.44,2.79-4.44,4.83-6,2.04-1.55,4.42-2.7,7.16-3.44,2.74-.74,5.78-1.11,9.11-1.11,2.52,0,5.03.24,7.55.72,2.52.48,4.78,1.39,6.78,2.72s3.63,3.2,4.89,5.61c1.26,2.41,1.89,5.54,1.89,9.39v30.43c0,2.82,1.37,4.22,4.11,4.22.81,0,1.55-.15,2.22-.44v5.89c-.82.15-1.54.26-2.17.33-.63.08-1.43.11-2.39.11-1.78,0-3.2-.24-4.28-.72-1.07-.48-1.91-1.17-2.5-2.05-.59-.89-.98-1.94-1.17-3.17-.19-1.22-.28-2.57-.28-4.05h-.22c-1.26,1.85-2.54,3.5-3.83,4.94-1.3,1.44-2.74,2.65-4.33,3.61-1.59.96-3.41,1.7-5.44,2.22-2.04.52-4.46.78-7.28.78-2.67,0-5.16-.32-7.5-.94-2.33-.63-4.37-1.63-6.11-3-1.74-1.37-3.11-3.11-4.11-5.22-1-2.11-1.5-4.61-1.5-7.5,0-4,.89-7.12,2.67-9.38,1.78-2.26,4.13-3.98,7.05-5.16,2.92-1.18,6.22-2.02,9.88-2.5,3.67-.48,7.39-.94,11.16-1.39,1.48-.15,2.78-.33,3.89-.56,1.11-.22,2.04-.61,2.78-1.17.74-.56,1.31-1.31,1.72-2.28.41-.96.61-2.22.61-3.78,0-2.37-.39-4.31-1.17-5.83-.78-1.52-1.85-2.72-3.22-3.61-1.37-.89-2.96-1.5-4.78-1.83-1.82-.33-3.76-.5-5.83-.5-4.44,0-8.07,1.06-10.88,3.17-2.81,2.11-4.29,5.5-4.44,10.16h-7c.22-3.33.92-6.22,2.11-8.66ZM174.06,170.3c-.44.82-1.3,1.41-2.55,1.78-1.26.37-2.37.63-3.33.78-2.96.52-6.02.98-9.16,1.39-3.15.41-6.02,1.02-8.61,1.83-2.59.82-4.72,1.98-6.39,3.5-1.67,1.52-2.5,3.68-2.5,6.5,0,1.78.35,3.35,1.05,4.72.7,1.37,1.65,2.55,2.83,3.55,1.18,1,2.55,1.76,4.11,2.28,1.56.52,3.15.78,4.78.78,2.67,0,5.22-.41,7.66-1.22,2.44-.81,4.57-2,6.39-3.55,1.81-1.56,3.26-3.44,4.33-5.67,1.07-2.22,1.61-4.74,1.61-7.55v-9.11h-.22Z"/>
          <path class="cls-1" d="M202.38,122.32v79.3h-7v-79.3h7Z"/>
          <path class="cls-1" d="M217.26,153.19c1.18-2.44,2.79-4.44,4.83-6,2.04-1.55,4.42-2.7,7.16-3.44,2.74-.74,5.78-1.11,9.11-1.11,2.52,0,5.03.24,7.55.72,2.52.48,4.78,1.39,6.78,2.72s3.63,3.2,4.89,5.61c1.26,2.41,1.89,5.54,1.89,9.39v30.43c0,2.82,1.37,4.22,4.11,4.22.81,0,1.55-.15,2.22-.44v5.89c-.82.15-1.54.26-2.17.33-.63.08-1.43.11-2.39.11-1.78,0-3.2-.24-4.28-.72-1.07-.48-1.91-1.17-2.5-2.05-.59-.89-.98-1.94-1.17-3.17-.19-1.22-.28-2.57-.28-4.05h-.22c-1.26,1.85-2.54,3.5-3.83,4.94-1.3,1.44-2.74,2.65-4.33,3.61-1.59.96-3.41,1.7-5.44,2.22-2.04.52-4.46.78-7.28.78-2.67,0-5.16-.32-7.5-.94-2.33-.63-4.37-1.63-6.11-3-1.74-1.37-3.11-3.11-4.11-5.22-1-2.11-1.5-4.61-1.5-7.5,0-4,.89-7.12,2.67-9.38,1.78-2.26,4.13-3.98,7.05-5.16,2.92-1.18,6.22-2.02,9.88-2.5,3.67-.48,7.39-.94,11.16-1.39,1.48-.15,2.78-.33,3.89-.56,1.11-.22,2.04-.61,2.78-1.17.74-.56,1.31-1.31,1.72-2.28.41-.96.61-2.22.61-3.78,0-2.37-.39-4.31-1.17-5.83-.78-1.52-1.85-2.72-3.22-3.61-1.37-.89-2.96-1.5-4.78-1.83-1.82-.33-3.76-.5-5.83-.5-4.44,0-8.07,1.06-10.88,3.17-2.81,2.11-4.29,5.5-4.44,10.16h-7c.22-3.33.92-6.22,2.11-8.66ZM252.25,170.3c-.44.82-1.3,1.41-2.55,1.78-1.26.37-2.37.63-3.33.78-2.96.52-6.02.98-9.16,1.39-3.15.41-6.02,1.02-8.61,1.83-2.59.82-4.72,1.98-6.39,3.5-1.67,1.52-2.5,3.68-2.5,6.5,0,1.78.35,3.35,1.05,4.72.7,1.37,1.65,2.55,2.83,3.55,1.18,1,2.55,1.76,4.11,2.28,1.56.52,3.15.78,4.78.78,2.67,0,5.22-.41,7.66-1.22,2.44-.81,4.57-2,6.39-3.55,1.81-1.56,3.26-3.44,4.33-5.67,1.07-2.22,1.61-4.74,1.61-7.55v-9.11h-.22Z"/>
          <path class="cls-1" d="M330.66,122.32c5.11,0,9.87.82,14.27,2.44,4.4,1.63,8.22,4.07,11.44,7.33,3.22,3.26,5.74,7.33,7.55,12.22,1.81,4.89,2.72,10.63,2.72,17.22,0,5.78-.74,11.11-2.22,15.99-1.48,4.89-3.72,9.11-6.72,12.66-3,3.55-6.74,6.35-11.22,8.38-4.48,2.04-9.76,3.05-15.83,3.05h-34.21v-79.3h34.21ZM329.44,186.96c2.52,0,4.96-.41,7.33-1.22,2.37-.81,4.48-2.17,6.33-4.05,1.85-1.89,3.33-4.35,4.44-7.39,1.11-3.04,1.67-6.74,1.67-11.11,0-4-.39-7.61-1.17-10.83s-2.05-5.98-3.83-8.27c-1.78-2.29-4.13-4.05-7.05-5.28-2.93-1.22-6.54-1.83-10.83-1.83h-12.44v49.98h15.55Z"/>
          <path class="cls-1" d="M376.42,161.86c.22-3.7,1.15-6.78,2.78-9.22,1.63-2.44,3.7-4.4,6.22-5.89,2.52-1.48,5.35-2.54,8.5-3.17,3.15-.63,6.31-.94,9.5-.94,2.89,0,5.81.21,8.77.61,2.96.41,5.66,1.2,8.11,2.39,2.44,1.19,4.44,2.83,6,4.94s2.33,4.91,2.33,8.39v29.88c0,2.59.15,5.07.44,7.44.29,2.37.81,4.15,1.55,5.33h-15.99c-.3-.89-.54-1.79-.72-2.72-.19-.93-.32-1.87-.39-2.83-2.52,2.59-5.48,4.41-8.89,5.44-3.41,1.04-6.89,1.56-10.44,1.56-2.74,0-5.29-.33-7.66-1-2.37-.67-4.44-1.7-6.22-3.11-1.78-1.41-3.17-3.18-4.17-5.33-1-2.15-1.5-4.7-1.5-7.66,0-3.26.57-5.94,1.72-8.05,1.15-2.11,2.63-3.79,4.44-5.05,1.81-1.26,3.89-2.2,6.22-2.83,2.33-.63,4.68-1.13,7.05-1.5,2.37-.37,4.7-.67,7-.89,2.29-.22,4.33-.56,6.11-1s3.18-1.09,4.22-1.94c1.04-.85,1.52-2.09,1.44-3.72,0-1.7-.28-3.05-.83-4.05-.55-1-1.3-1.78-2.22-2.33-.93-.55-2-.92-3.22-1.11-1.22-.18-2.54-.28-3.94-.28-3.11,0-5.55.67-7.33,2-1.78,1.33-2.82,3.55-3.11,6.66h-15.77ZM412.85,173.52c-.67.59-1.5,1.05-2.5,1.39-1,.33-2.07.61-3.22.83-1.15.22-2.35.41-3.61.56-1.26.15-2.52.33-3.78.56-1.19.22-2.35.52-3.5.89-1.15.37-2.15.87-3,1.5-.85.63-1.54,1.43-2.05,2.39-.52.96-.78,2.19-.78,3.67s.26,2.59.78,3.55c.52.96,1.22,1.72,2.11,2.28.89.56,1.92.94,3.11,1.17,1.18.22,2.41.33,3.67.33,3.11,0,5.52-.52,7.22-1.56,1.7-1.04,2.96-2.28,3.78-3.72.81-1.44,1.31-2.9,1.5-4.39.18-1.48.28-2.67.28-3.55v-5.89Z"/>
          <path class="cls-1" d="M462.05,218.72c-3.04,2-7.26,3-12.66,3-1.63,0-3.24-.06-4.83-.17-1.59-.11-3.2-.24-4.83-.39v-13c1.48.15,3,.29,4.55.44,1.55.15,3.11.18,4.67.11,2.07-.22,3.61-1.04,4.61-2.44,1-1.41,1.5-2.96,1.5-4.67,0-1.26-.22-2.44-.67-3.55l-20.1-53.87h16.77l13,39.32h.22l12.55-39.32h16.33l-23.99,64.53c-1.7,4.67-4.07,8-7.11,10Z"/>
          <path class="cls-1" d="M511.75,187.35c.7,1.22,1.61,2.22,2.72,3s2.39,1.35,3.83,1.72c1.44.37,2.94.56,4.5.56,1.11,0,2.28-.13,3.5-.39,1.22-.26,2.33-.67,3.33-1.22,1-.56,1.83-1.29,2.5-2.22.67-.92,1-2.09,1-3.5,0-2.37-1.57-4.15-4.72-5.33-3.15-1.18-7.54-2.37-13.16-3.55-2.3-.52-4.54-1.13-6.72-1.83-2.18-.7-4.13-1.63-5.83-2.78-1.7-1.15-3.07-2.59-4.11-4.33-1.04-1.74-1.55-3.87-1.55-6.39,0-3.7.72-6.74,2.17-9.11,1.44-2.37,3.35-4.24,5.72-5.61,2.37-1.37,5.03-2.33,8-2.89,2.96-.55,6-.83,9.11-.83s6.13.3,9.05.89c2.92.59,5.53,1.59,7.83,3,2.29,1.41,4.2,3.28,5.72,5.61,1.52,2.33,2.42,5.28,2.72,8.83h-14.99c-.22-3.04-1.37-5.09-3.44-6.16-2.07-1.07-4.52-1.61-7.33-1.61-.89,0-1.85.06-2.89.17-1.04.11-1.98.35-2.83.72-.85.37-1.57.91-2.17,1.61-.59.7-.89,1.65-.89,2.83,0,1.41.52,2.55,1.55,3.44,1.04.89,2.39,1.61,4.05,2.17,1.67.56,3.57,1.06,5.72,1.5,2.15.44,4.33.93,6.55,1.44,2.29.52,4.53,1.15,6.72,1.89,2.18.74,4.13,1.72,5.83,2.94,1.7,1.22,3.07,2.74,4.11,4.55,1.04,1.81,1.55,4.05,1.55,6.72,0,3.78-.76,6.94-2.28,9.5-1.52,2.55-3.5,4.61-5.94,6.16-2.44,1.55-5.24,2.65-8.39,3.28-3.15.63-6.35.94-9.61.94s-6.59-.33-9.77-1c-3.18-.67-6.02-1.78-8.5-3.33-2.48-1.55-4.52-3.61-6.11-6.16-1.59-2.55-2.46-5.76-2.61-9.61h14.99c0,1.7.35,3.17,1.06,4.39Z"/>
        </g>
        <g>
          <path class="cls-1" d="M5.58,243.2c.73-.08,1.35-.25,1.88-.54.53-.28.98-.71,1.33-1.28s.61-1.38.76-2.42h1.66v22.75h-2.05v-16.9H3.15v-1.46c.89-.02,1.7-.07,2.42-.15Z"/>
          <path class="cls-1" d="M23.29,259.31c.83.78,1.91,1.17,3.23,1.17s2.42-.34,3.23-1.01c.81-.67,1.45-1.52,1.9-2.54s.76-2.12.91-3.3c.15-1.18.23-2.29.23-3.33h-.07c-.54,1.13-1.36,2.04-2.45,2.73-1.09.69-2.29,1.04-3.59,1.04-1.13,0-2.16-.19-3.09-.57-.93-.38-1.72-.9-2.37-1.58-.65-.67-1.15-1.47-1.51-2.41s-.54-1.95-.54-3.06.19-2.13.57-3.07c.38-.94.91-1.75,1.59-2.44s1.5-1.22,2.44-1.61c.94-.39,1.98-.58,3.1-.58,1.39,0,2.58.21,3.58.63,1,.42,1.82,1.12,2.47,2.08.65.96,1.13,2.22,1.45,3.75.31,1.54.47,3.41.47,5.62,0,.46-.03,1.05-.08,1.79-.05.74-.18,1.52-.37,2.36-.2.83-.47,1.68-.83,2.54s-.83,1.62-1.43,2.31-1.34,1.24-2.23,1.67c-.89.43-1.95.65-3.19.65-2.04,0-3.65-.48-4.84-1.45-1.19-.96-1.91-2.45-2.14-4.47h2.05c.17,1.26.68,2.28,1.51,3.06ZM29.11,251.88c.7-.31,1.3-.74,1.79-1.28.49-.54.86-1.17,1.11-1.9.25-.73.37-1.51.37-2.36s-.11-1.59-.33-2.29-.56-1.32-1.02-1.85c-.47-.53-1.06-.95-1.77-1.25-.71-.3-1.57-.46-2.57-.46-.8,0-1.54.16-2.21.47s-1.25.74-1.74,1.27c-.49.53-.86,1.15-1.12,1.87s-.39,1.46-.39,2.24c0,.82.12,1.6.37,2.34.25.74.61,1.38,1.07,1.92.47.54,1.04.97,1.72,1.28.68.31,1.46.47,2.32.47s1.68-.16,2.39-.47Z"/>
          <path class="cls-1" d="M49.41,251.83h24.05v1.89h-24.05v-1.89Z"/>
          <path class="cls-1" d="M87.9,261.71c.02-1.13.22-2.12.58-2.99.37-.87.86-1.65,1.46-2.34.61-.69,1.29-1.33,2.05-1.9s1.54-1.13,2.34-1.66c.8-.53,1.6-1.07,2.39-1.62s1.5-1.14,2.13-1.77c.63-.63,1.1-1.27,1.41-1.93.31-.66.47-1.45.47-2.36,0-.74-.14-1.39-.41-1.97-.27-.57-.64-1.06-1.1-1.46-.47-.4-1.01-.7-1.63-.91-.62-.21-1.27-.31-1.97-.31-.93,0-1.73.17-2.39.52s-1.2.81-1.61,1.4c-.41.58-.71,1.26-.89,2.02-.18.76-.27,1.56-.24,2.41h-2.05c-.02-1.17.11-2.25.41-3.23.29-.99.74-1.84,1.35-2.55.61-.71,1.37-1.27,2.29-1.67s2-.6,3.23-.6c1,0,1.92.14,2.78.41.86.27,1.6.67,2.24,1.2.64.53,1.14,1.2,1.5,2s.54,1.73.54,2.79c0,.95-.16,1.82-.47,2.6-.31.78-.74,1.5-1.27,2.15-.53.65-1.14,1.25-1.82,1.8-.68.55-1.4,1.07-2.16,1.54-.54.37-1.18.77-1.92,1.22-.74.44-1.45.94-2.13,1.48-.68.54-1.28,1.13-1.8,1.77-.52.64-.84,1.34-.97,2.1h12.64v1.89h-14.99Z"/>
          <path class="cls-1" d="M105.97,261.71c.02-1.13.22-2.12.58-2.99.37-.87.86-1.65,1.46-2.34.61-.69,1.29-1.33,2.05-1.9s1.54-1.13,2.34-1.66c.8-.53,1.6-1.07,2.39-1.62s1.5-1.14,2.13-1.77c.63-.63,1.1-1.27,1.41-1.93.31-.66.47-1.45.47-2.36,0-.74-.14-1.39-.41-1.97-.27-.57-.64-1.06-1.1-1.46-.47-.4-1.01-.7-1.63-.91-.62-.21-1.27-.31-1.97-.31-.93,0-1.73.17-2.39.52s-1.2.81-1.61,1.4c-.41.58-.71,1.26-.89,2.02-.18.76-.27,1.56-.24,2.41h-2.05c-.02-1.17.11-2.25.41-3.23.29-.99.74-1.84,1.35-2.55.61-.71,1.37-1.27,2.29-1.67s2-.6,3.23-.6c1,0,1.92.14,2.78.41.86.27,1.6.67,2.24,1.2.64.53,1.14,1.2,1.5,2s.54,1.73.54,2.79c0,.95-.16,1.82-.47,2.6-.31.78-.74,1.5-1.27,2.15-.53.65-1.14,1.25-1.82,1.8-.68.55-1.4,1.07-2.16,1.54-.54.37-1.18.77-1.92,1.22-.74.44-1.45.94-2.13,1.48-.68.54-1.28,1.13-1.8,1.77-.52.64-.84,1.34-.97,2.1h12.64v1.89h-14.99Z"/>
          <path class="cls-1" d="M143.51,238.5l9.1,23.21h-2.37l-2.83-7.22h-10.56l-2.79,7.22h-2.34l9.33-23.21h2.47ZM146.67,252.61l-4.49-11.9-4.65,11.9h9.13Z"/>
          <path class="cls-1" d="M166.04,261.71v-3.02h-.06c-.54,1.13-1.33,1.99-2.36,2.58s-2.17.89-3.43.89c-1.06,0-1.97-.15-2.71-.44-.75-.29-1.35-.71-1.82-1.25-.47-.54-.81-1.2-1.02-1.98-.22-.78-.33-1.67-.33-2.67v-10.89h2.05v10.92c.04,1.52.4,2.67,1.06,3.45.66.78,1.8,1.17,3.43,1.17.89,0,1.65-.19,2.28-.57.63-.38,1.15-.88,1.56-1.51.41-.63.71-1.35.91-2.16s.29-1.64.29-2.49v-8.81h2.05v16.77h-1.89Z"/>
          <path class="cls-1" d="M185.56,263.69c-.27,1-.7,1.84-1.28,2.54-.58.69-1.35,1.22-2.29,1.59-.94.37-2.1.55-3.46.55-.84,0-1.67-.1-2.47-.29-.8-.2-1.52-.5-2.16-.91-.64-.41-1.17-.94-1.59-1.58-.42-.64-.67-1.4-.73-2.29h2.05c.11.63.32,1.15.63,1.58.31.42.69.76,1.14,1.02s.94.45,1.48.57c.54.12,1.09.18,1.66.18,1.91,0,3.28-.54,4.13-1.62.84-1.08,1.27-2.64,1.27-4.68v-2.28h-.07c-.48,1.04-1.18,1.88-2.1,2.5-.92.63-2,.94-3.23.94-1.34,0-2.49-.22-3.45-.67-.95-.44-1.74-1.06-2.36-1.84-.62-.78-1.07-1.7-1.35-2.75-.28-1.05-.42-2.17-.42-3.37s.17-2.24.5-3.27c.33-1.03.82-1.93,1.46-2.7.64-.77,1.43-1.38,2.37-1.82.94-.44,2.02-.67,3.23-.67.63,0,1.22.09,1.77.26.55.17,1.06.42,1.51.73.46.31.86.68,1.22,1.09.36.41.63.85.83,1.3h.07v-2.89h2.05v15.41c0,1.24-.14,2.35-.41,3.35ZM180.86,259.23c.67-.38,1.24-.88,1.69-1.5.46-.62.8-1.33,1.02-2.13.23-.8.34-1.62.34-2.47s-.1-1.65-.29-2.47c-.19-.82-.51-1.57-.94-2.24s-.99-1.21-1.67-1.62c-.68-.41-1.51-.62-2.49-.62s-1.81.2-2.5.6c-.69.4-1.27.93-1.72,1.58-.46.65-.79,1.39-.99,2.23s-.31,1.68-.31,2.55.11,1.67.33,2.47c.22.8.55,1.51,1.01,2.13.46.62,1.03,1.12,1.72,1.5.69.38,1.52.57,2.47.57.89,0,1.67-.19,2.34-.57Z"/>
          <path class="cls-1" d="M201.57,261.71v-3.02h-.06c-.54,1.13-1.33,1.99-2.36,2.58s-2.17.89-3.43.89c-1.06,0-1.97-.15-2.71-.44-.75-.29-1.35-.71-1.82-1.25-.47-.54-.81-1.2-1.02-1.98-.22-.78-.33-1.67-.33-2.67v-10.89h2.05v10.92c.04,1.52.4,2.67,1.06,3.45.66.78,1.8,1.17,3.43,1.17.89,0,1.65-.19,2.28-.57.63-.38,1.15-.88,1.56-1.51.41-.63.71-1.35.91-2.16s.29-1.64.29-2.49v-8.81h2.05v16.77h-1.89Z"/>
          <path class="cls-1" d="M216.98,248.21c-.24-.47-.56-.85-.96-1.15s-.86-.53-1.38-.67c-.52-.14-1.07-.21-1.66-.21-.46,0-.92.05-1.38.15s-.89.26-1.28.49c-.39.23-.7.53-.94.89s-.36.82-.36,1.37c0,.46.11.84.34,1.15.23.31.51.58.86.8.35.22.73.4,1.14.54.41.14.79.25,1.14.34l2.73.62c.58.09,1.16.24,1.74.47s1.08.53,1.53.89c.44.37.81.82,1.09,1.37.28.54.42,1.18.42,1.92,0,.91-.21,1.69-.62,2.32-.41.64-.94,1.16-1.58,1.56-.64.4-1.36.69-2.16.86-.8.17-1.59.26-2.37.26-1.97,0-3.57-.47-4.79-1.4-1.22-.93-1.92-2.43-2.1-4.49h2.05c.09,1.39.59,2.43,1.51,3.14.92.71,2.06,1.06,3.43,1.06.5,0,1.01-.05,1.54-.16s1.02-.29,1.48-.55.83-.59,1.12-.99c.29-.4.44-.89.44-1.48,0-.5-.1-.92-.31-1.25-.21-.34-.48-.62-.83-.85-.35-.23-.74-.42-1.19-.57-.44-.15-.89-.28-1.35-.39l-2.63-.58c-.67-.17-1.29-.37-1.85-.6s-1.06-.51-1.48-.84c-.42-.34-.75-.75-.99-1.24s-.36-1.09-.36-1.8c0-.85.19-1.57.57-2.18.38-.61.87-1.09,1.48-1.46.61-.37,1.28-.64,2.03-.81.75-.17,1.49-.26,2.23-.26.84,0,1.63.11,2.36.33.73.22,1.37.55,1.92,1.01s.99,1.02,1.32,1.69.51,1.46.55,2.37h-2.05c-.02-.63-.15-1.18-.39-1.64Z"/>
          <path class="cls-1" d="M229.62,244.94v1.72h-3.41v11.31c0,.67.09,1.2.28,1.58.18.38.64.59,1.38.63.59,0,1.17-.03,1.76-.1v1.72c-.3,0-.61.01-.91.03-.3.02-.61.03-.91.03-1.37,0-2.32-.26-2.86-.8-.54-.53-.8-1.51-.78-2.94v-11.47h-2.93v-1.72h2.93v-5.04h2.05v5.04h3.41Z"/>
          <path class="cls-1" d="M236.51,261.71c0,.48-.06.95-.18,1.41-.12.47-.3.9-.54,1.3-.24.4-.54.75-.89,1.06s-.78.52-1.25.65v-1.4c.26-.09.49-.25.68-.49.19-.24.36-.5.49-.8.13-.29.22-.6.28-.91.05-.31.07-.59.05-.83h-1.37v-3.45h2.73v3.45Z"/>
          <path class="cls-1" d="M253.25,238.5v21.32h13v1.89h-15.21v-23.21h2.21Z"/>
          <path class="cls-1" d="M268.53,247.54c.35-.71.82-1.3,1.41-1.75.6-.46,1.29-.79,2.1-1.01.8-.22,1.69-.33,2.67-.33.74,0,1.47.07,2.21.21.74.14,1.4.41,1.98.8s1.06.94,1.43,1.64c.37.7.55,1.62.55,2.75v8.91c0,.82.4,1.24,1.2,1.24.24,0,.46-.04.65-.13v1.72c-.24.04-.45.08-.63.1-.18.02-.42.03-.7.03-.52,0-.94-.07-1.25-.21-.31-.14-.56-.34-.73-.6-.17-.26-.29-.57-.34-.93s-.08-.75-.08-1.19h-.07c-.37.54-.74,1.02-1.12,1.45-.38.42-.8.78-1.27,1.06-.47.28-1,.5-1.59.65-.6.15-1.31.23-2.13.23-.78,0-1.51-.09-2.19-.28s-1.28-.48-1.79-.88c-.51-.4-.91-.91-1.2-1.53-.29-.62-.44-1.35-.44-2.19,0-1.17.26-2.08.78-2.75.52-.66,1.21-1.16,2.06-1.51.86-.35,1.82-.59,2.89-.73,1.07-.14,2.16-.28,3.27-.41.43-.04.81-.1,1.14-.16.33-.06.6-.18.81-.34.22-.16.38-.38.5-.67.12-.28.18-.65.18-1.1,0-.69-.11-1.26-.34-1.71s-.54-.8-.94-1.06c-.4-.26-.87-.44-1.4-.54s-1.1-.15-1.71-.15c-1.3,0-2.36.31-3.19.93-.82.62-1.26,1.61-1.3,2.97h-2.05c.07-.98.27-1.82.62-2.54ZM278.77,252.54c-.13.24-.38.41-.75.52-.37.11-.69.18-.97.23-.87.15-1.76.29-2.68.41-.92.12-1.76.3-2.52.54-.76.24-1.38.58-1.87,1.02s-.73,1.08-.73,1.9c0,.52.1.98.31,1.38.21.4.48.75.83,1.04.35.29.75.51,1.2.67.46.15.92.23,1.4.23.78,0,1.53-.12,2.24-.36s1.34-.58,1.87-1.04c.53-.46.95-1.01,1.27-1.66.31-.65.47-1.39.47-2.21v-2.67h-.07Z"/>
          <path class="cls-1" d="M296.68,261.71v-3.02h-.06c-.54,1.13-1.33,1.99-2.36,2.58s-2.17.89-3.43.89c-1.06,0-1.97-.15-2.71-.44-.75-.29-1.35-.71-1.82-1.25-.47-.54-.81-1.2-1.02-1.98-.22-.78-.33-1.67-.33-2.67v-10.89h2.05v10.92c.04,1.52.4,2.67,1.06,3.45.66.78,1.8,1.17,3.43,1.17.89,0,1.65-.19,2.28-.57.63-.38,1.15-.88,1.56-1.51.41-.63.71-1.35.91-2.16s.29-1.64.29-2.49v-8.81h2.05v16.77h-1.89Z"/>
          <path class="cls-1" d="M312.09,248.21c-.24-.47-.56-.85-.96-1.15s-.86-.53-1.38-.67c-.52-.14-1.07-.21-1.66-.21-.46,0-.92.05-1.38.15s-.89.26-1.28.49c-.39.23-.7.53-.94.89s-.36.82-.36,1.37c0,.46.11.84.34,1.15.23.31.51.58.86.8.35.22.73.4,1.14.54.41.14.79.25,1.14.34l2.73.62c.58.09,1.16.24,1.74.47s1.08.53,1.53.89c.44.37.81.82,1.09,1.37.28.54.42,1.18.42,1.92,0,.91-.21,1.69-.62,2.32-.41.64-.94,1.16-1.58,1.56-.64.4-1.36.69-2.16.86-.8.17-1.59.26-2.37.26-1.97,0-3.57-.47-4.79-1.4-1.22-.93-1.92-2.43-2.1-4.49h2.05c.09,1.39.59,2.43,1.51,3.14.92.71,2.06,1.06,3.43,1.06.5,0,1.01-.05,1.54-.16s1.02-.29,1.48-.55.83-.59,1.12-.99c.29-.4.44-.89.44-1.48,0-.5-.1-.92-.31-1.25-.21-.34-.48-.62-.83-.85-.35-.23-.74-.42-1.19-.57-.44-.15-.89-.28-1.35-.39l-2.63-.58c-.67-.17-1.29-.37-1.85-.6s-1.06-.51-1.48-.84c-.42-.34-.75-.75-.99-1.24s-.36-1.09-.36-1.8c0-.85.19-1.57.57-2.18.38-.61.87-1.09,1.48-1.46.61-.37,1.28-.64,2.03-.81.75-.17,1.49-.26,2.23-.26.84,0,1.63.11,2.36.33.73.22,1.37.55,1.92,1.01s.99,1.02,1.32,1.69.51,1.46.55,2.37h-2.05c-.02-.63-.15-1.18-.39-1.64Z"/>
          <path class="cls-1" d="M318.49,247.54c.35-.71.82-1.3,1.41-1.75.6-.46,1.29-.79,2.1-1.01.8-.22,1.69-.33,2.67-.33.74,0,1.47.07,2.21.21.74.14,1.4.41,1.98.8s1.06.94,1.43,1.64c.37.7.55,1.62.55,2.75v8.91c0,.82.4,1.24,1.2,1.24.24,0,.46-.04.65-.13v1.72c-.24.04-.45.08-.63.1-.18.02-.42.03-.7.03-.52,0-.94-.07-1.25-.21-.31-.14-.56-.34-.73-.6-.17-.26-.29-.57-.34-.93s-.08-.75-.08-1.19h-.07c-.37.54-.74,1.02-1.12,1.45-.38.42-.8.78-1.27,1.06-.47.28-1,.5-1.59.65-.6.15-1.31.23-2.13.23-.78,0-1.51-.09-2.19-.28s-1.28-.48-1.79-.88c-.51-.4-.91-.91-1.2-1.53-.29-.62-.44-1.35-.44-2.19,0-1.17.26-2.08.78-2.75.52-.66,1.21-1.16,2.06-1.51.86-.35,1.82-.59,2.89-.73,1.07-.14,2.16-.28,3.27-.41.43-.04.81-.1,1.14-.16.33-.06.6-.18.81-.34.22-.16.38-.38.5-.67.12-.28.18-.65.18-1.1,0-.69-.11-1.26-.34-1.71s-.54-.8-.94-1.06c-.4-.26-.87-.44-1.4-.54s-1.1-.15-1.71-.15c-1.3,0-2.36.31-3.19.93-.82.62-1.26,1.61-1.3,2.97h-2.05c.07-.98.27-1.82.62-2.54ZM328.73,252.54c-.13.24-.38.41-.75.52-.37.11-.69.18-.97.23-.87.15-1.76.29-2.68.41-.92.12-1.76.3-2.52.54-.76.24-1.38.58-1.87,1.02s-.73,1.08-.73,1.9c0,.52.1.98.31,1.38.21.4.48.75.83,1.04.35.29.75.51,1.2.67.46.15.92.23,1.4.23.78,0,1.53-.12,2.24-.36s1.34-.58,1.87-1.04c.53-.46.95-1.01,1.27-1.66.31-.65.47-1.39.47-2.21v-2.67h-.07Z"/>
          <path class="cls-1" d="M336.95,244.94v2.89h.06c.39-1.02,1.08-1.84,2.08-2.45,1-.62,2.09-.93,3.28-.93s2.15.15,2.94.46c.79.3,1.42.73,1.9,1.28s.81,1.23,1.01,2.03c.2.8.29,1.7.29,2.7v10.79h-2.05v-10.47c0-.71-.07-1.38-.2-2-.13-.62-.36-1.15-.68-1.61s-.76-.81-1.32-1.07c-.55-.26-1.24-.39-2.06-.39s-1.55.15-2.19.44c-.64.29-1.18.69-1.62,1.2-.44.51-.79,1.12-1.04,1.82-.25.71-.38,1.47-.41,2.29v9.78h-2.05v-16.77h2.05Z"/>
          <path class="cls-1" d="M354.41,244.94v2.89h.06c.39-1.02,1.08-1.84,2.08-2.45,1-.62,2.09-.93,3.28-.93s2.15.15,2.94.46c.79.3,1.42.73,1.9,1.28s.81,1.23,1.01,2.03c.2.8.29,1.7.29,2.7v10.79h-2.05v-10.47c0-.71-.07-1.38-.2-2-.13-.62-.36-1.15-.68-1.61s-.76-.81-1.32-1.07c-.55-.26-1.24-.39-2.06-.39s-1.55.15-2.19.44c-.64.29-1.18.69-1.62,1.2-.44.51-.79,1.12-1.04,1.82-.25.71-.38,1.47-.41,2.29v9.78h-2.05v-16.77h2.05Z"/>
          <path class="cls-1" d="M371.36,256.17c.21.79.54,1.5.99,2.13.46.63,1.03,1.15,1.72,1.56.69.41,1.53.62,2.5.62,1.5,0,2.67-.39,3.51-1.17.85-.78,1.43-1.82,1.76-3.12h2.05c-.43,1.91-1.23,3.38-2.39,4.42s-2.8,1.56-4.92,1.56c-1.32,0-2.46-.23-3.43-.7-.96-.47-1.75-1.1-2.36-1.92-.61-.81-1.06-1.75-1.35-2.83-.29-1.07-.44-2.21-.44-3.4,0-1.11.15-2.19.44-3.25.29-1.06.74-2.01,1.35-2.84.61-.83,1.39-1.51,2.36-2.02.96-.51,2.11-.76,3.43-.76s2.49.27,3.45.81c.95.54,1.73,1.25,2.32,2.13.6.88,1.02,1.89,1.28,3.02.26,1.14.37,2.29.33,3.46h-12.9c0,.74.1,1.5.31,2.29ZM381.5,249.91c-.25-.71-.6-1.35-1.06-1.9s-1.01-1-1.66-1.33-1.39-.5-2.21-.5-1.59.17-2.24.5c-.65.34-1.2.78-1.66,1.33s-.82,1.19-1.09,1.92c-.27.73-.45,1.47-.54,2.23h10.86c-.02-.78-.16-1.53-.41-2.24Z"/>
          <path class="cls-1" d="M397.74,257.06c.39.8.93,1.44,1.61,1.92s1.49.82,2.42,1.02c.93.21,1.93.31,2.99.31.61,0,1.27-.09,1.98-.26.71-.17,1.38-.45,2-.83s1.13-.87,1.54-1.46c.41-.6.62-1.32.62-2.16,0-.65-.15-1.21-.44-1.69-.29-.48-.67-.88-1.14-1.2s-.98-.59-1.54-.8c-.56-.21-1.12-.37-1.66-.5l-5.17-1.27c-.67-.17-1.33-.39-1.97-.65-.64-.26-1.2-.61-1.67-1.04-.48-.43-.86-.96-1.15-1.59-.29-.63-.44-1.4-.44-2.31,0-.56.11-1.22.33-1.98.22-.76.62-1.47,1.22-2.14.6-.67,1.41-1.24,2.45-1.71,1.04-.47,2.37-.7,4-.7,1.15,0,2.24.15,3.28.46,1.04.3,1.95.76,2.73,1.37.78.61,1.4,1.36,1.87,2.26s.7,1.95.7,3.14h-2.21c-.04-.89-.24-1.66-.6-2.32-.36-.66-.82-1.21-1.4-1.66-.57-.44-1.24-.78-1.98-1.01-.75-.23-1.53-.34-2.36-.34-.76,0-1.49.08-2.19.24-.71.16-1.32.42-1.85.78-.53.36-.96.83-1.28,1.41-.33.59-.49,1.31-.49,2.18,0,.54.09,1.01.28,1.41.18.4.44.74.76,1.02.33.28.7.51,1.12.68.42.17.87.31,1.35.42l5.66,1.4c.82.22,1.6.48,2.32.8.73.31,1.37.7,1.92,1.17s.99,1.04,1.3,1.71c.31.67.47,1.49.47,2.44,0,.26-.03.61-.08,1.04-.05.43-.18.89-.39,1.38-.21.49-.5.98-.88,1.48-.38.5-.9.95-1.56,1.35-.66.4-1.48.73-2.45.97-.98.25-2.15.37-3.51.37s-2.63-.16-3.8-.47c-1.17-.31-2.17-.8-2.99-1.45-.82-.65-1.46-1.48-1.9-2.5-.44-1.02-.63-2.24-.57-3.67h2.21c-.02,1.19.16,2.19.55,2.99Z"/>
          <path class="cls-1" d="M416.72,244.94l4.29,14.37h.07l4.1-14.37h2.31l4.1,14.37h.07l4.29-14.37h2.18l-5.4,16.77h-2.24l-4.13-14.11h-.06l-4.1,14.11h-2.24l-5.4-16.77h2.18Z"/>
          <path class="cls-1" d="M442.4,238.5v3.28h-2.05v-3.28h2.05ZM442.4,244.94v16.77h-2.05v-16.77h2.05Z"/>
          <path class="cls-1" d="M453,244.94v1.72h-3.41v11.31c0,.67.09,1.2.28,1.58.18.38.64.59,1.38.63.59,0,1.17-.03,1.76-.1v1.72c-.3,0-.61.01-.91.03-.3.02-.61.03-.91.03-1.37,0-2.32-.26-2.86-.8-.54-.53-.8-1.51-.78-2.94v-11.47h-2.93v-1.72h2.93v-5.04h2.05v5.04h3.41Z"/>
          <path class="cls-1" d="M468.5,259.99v1.72h-14.01v-1.66l10.96-13.39h-10.21v-1.72h12.81v1.46l-11.08,13.59h11.54Z"/>
          <path class="cls-1" d="M472.52,256.17c.21.79.54,1.5.99,2.13.46.63,1.03,1.15,1.72,1.56.69.41,1.53.62,2.5.62,1.5,0,2.67-.39,3.51-1.17.85-.78,1.43-1.82,1.76-3.12h2.05c-.43,1.91-1.23,3.38-2.39,4.42s-2.8,1.56-4.92,1.56c-1.32,0-2.46-.23-3.43-.7-.96-.47-1.75-1.1-2.36-1.92-.61-.81-1.06-1.75-1.35-2.83-.29-1.07-.44-2.21-.44-3.4,0-1.11.15-2.19.44-3.25.29-1.06.74-2.01,1.35-2.84.61-.83,1.39-1.51,2.36-2.02.96-.51,2.11-.76,3.43-.76s2.49.27,3.45.81c.95.54,1.73,1.25,2.32,2.13.6.88,1.02,1.89,1.28,3.02.26,1.14.37,2.29.33,3.46h-12.9c0,.74.1,1.5.31,2.29ZM482.66,249.91c-.25-.71-.6-1.35-1.06-1.9s-1.01-1-1.66-1.33-1.39-.5-2.21-.5-1.59.17-2.24.5c-.65.34-1.2.78-1.66,1.33s-.82,1.19-1.09,1.92c-.27.73-.45,1.47-.54,2.23h10.86c-.02-.78-.16-1.53-.41-2.24Z"/>
          <path class="cls-1" d="M489.76,244.94v3.93h.06c.52-1.37,1.33-2.42,2.42-3.15,1.09-.74,2.4-1.07,3.92-1.01v2.05c-.93-.04-1.78.08-2.54.37-.76.29-1.41.71-1.97,1.25s-.98,1.19-1.28,1.93c-.3.75-.46,1.57-.46,2.45v8.94h-2.05v-16.77h1.89Z"/>
          <path class="cls-1" d="M500.2,238.5v23.21h-2.05v-23.21h2.05Z"/>
          <path class="cls-1" d="M504.55,247.54c.35-.71.82-1.3,1.41-1.75.6-.46,1.29-.79,2.1-1.01.8-.22,1.69-.33,2.67-.33.74,0,1.47.07,2.21.21.74.14,1.4.41,1.98.8s1.06.94,1.43,1.64c.37.7.55,1.62.55,2.75v8.91c0,.82.4,1.24,1.2,1.24.24,0,.46-.04.65-.13v1.72c-.24.04-.45.08-.63.1-.18.02-.42.03-.7.03-.52,0-.94-.07-1.25-.21-.31-.14-.56-.34-.73-.6-.17-.26-.29-.57-.34-.93s-.08-.75-.08-1.19h-.07c-.37.54-.74,1.02-1.12,1.45-.38.42-.8.78-1.27,1.06-.47.28-1,.5-1.59.65-.6.15-1.31.23-2.13.23-.78,0-1.51-.09-2.19-.28s-1.28-.48-1.79-.88c-.51-.4-.91-.91-1.2-1.53-.29-.62-.44-1.35-.44-2.19,0-1.17.26-2.08.78-2.75.52-.66,1.21-1.16,2.06-1.51.86-.35,1.82-.59,2.89-.73,1.07-.14,2.16-.28,3.27-.41.43-.04.81-.1,1.14-.16.33-.06.6-.18.81-.34.22-.16.38-.38.5-.67.12-.28.18-.65.18-1.1,0-.69-.11-1.26-.34-1.71s-.54-.8-.94-1.06c-.4-.26-.87-.44-1.4-.54s-1.1-.15-1.71-.15c-1.3,0-2.36.31-3.19.93-.82.62-1.26,1.61-1.3,2.97h-2.05c.07-.98.27-1.82.62-2.54ZM514.79,252.54c-.13.24-.38.41-.75.52-.37.11-.69.18-.97.23-.87.15-1.76.29-2.68.41-.92.12-1.76.3-2.52.54-.76.24-1.38.58-1.87,1.02s-.73,1.08-.73,1.9c0,.52.1.98.31,1.38.21.4.48.75.83,1.04.35.29.75.51,1.2.67.46.15.92.23,1.4.23.78,0,1.53-.12,2.24-.36s1.34-.58,1.87-1.04c.53-.46.95-1.01,1.27-1.66.31-.65.47-1.39.47-2.21v-2.67h-.07Z"/>
          <path class="cls-1" d="M523.01,244.94v2.89h.06c.39-1.02,1.08-1.84,2.08-2.45,1-.62,2.09-.93,3.28-.93s2.15.15,2.94.46c.79.3,1.42.73,1.9,1.28s.81,1.23,1.01,2.03c.2.8.29,1.7.29,2.7v10.79h-2.05v-10.47c0-.71-.07-1.38-.2-2-.13-.62-.36-1.15-.68-1.61s-.76-.81-1.32-1.07c-.55-.26-1.24-.39-2.06-.39s-1.55.15-2.19.44c-.64.29-1.18.69-1.62,1.2-.44.51-.79,1.12-1.04,1.82-.25.71-.38,1.47-.41,2.29v9.78h-2.05v-16.77h2.05Z"/>
          <path class="cls-1" d="M551.33,261.71v-3.19h-.06c-.22.54-.54,1.04-.96,1.5s-.91.84-1.45,1.15c-.54.31-1.12.56-1.74.73-.62.17-1.23.26-1.84.26-1.28,0-2.39-.23-3.33-.7-.94-.47-1.73-1.1-2.36-1.92-.63-.81-1.09-1.75-1.4-2.83-.3-1.07-.46-2.21-.46-3.4s.15-2.32.46-3.4c.3-1.07.77-2.02,1.4-2.83s1.41-1.46,2.36-1.93c.94-.48,2.05-.71,3.33-.71.63,0,1.24.08,1.84.23.6.15,1.15.38,1.67.7.52.31.98.7,1.38,1.15.4.46.71.99.93,1.59h.07v-9.62h2.05v23.21h-1.89ZM540.1,255.91c.21.86.53,1.62.98,2.29.44.67,1.01,1.22,1.71,1.64s1.53.63,2.5.63c1.08,0,2-.21,2.75-.63s1.35-.97,1.82-1.64c.47-.67.8-1.44,1.01-2.29.21-.86.31-1.72.31-2.58s-.1-1.73-.31-2.58c-.21-.86-.54-1.62-1.01-2.29-.47-.67-1.07-1.22-1.82-1.64-.75-.42-1.66-.63-2.75-.63-.97,0-1.81.21-2.5.63-.69.42-1.26.97-1.71,1.64-.44.67-.77,1.44-.98,2.29-.21.86-.31,1.72-.31,2.58s.1,1.73.31,2.58Z"/>
        </g>
        <g>
          <path class="cls-1" d="M7.15,95.18c.07-3.85.74-7.26,2-10.22,1.26-2.96,2.92-5.63,5-8,2.07-2.37,4.41-4.54,7-6.5,2.59-1.96,5.26-3.85,8-5.67,2.74-1.81,5.46-3.67,8.16-5.55,2.7-1.89,5.13-3.91,7.27-6.05s3.76-4.35,4.83-6.61c1.07-2.26,1.61-4.94,1.61-8.05,0-2.52-.46-4.76-1.39-6.72-.93-1.96-2.18-3.63-3.78-5-1.59-1.37-3.44-2.41-5.55-3.11-2.11-.7-4.35-1.05-6.72-1.05-3.18,0-5.91.59-8.16,1.78-2.26,1.18-4.09,2.78-5.5,4.78-1.41,2-2.43,4.29-3.05,6.89-.63,2.59-.91,5.33-.83,8.22h-7c-.08-4,.39-7.68,1.39-11.05,1-3.37,2.54-6.27,4.61-8.72,2.07-2.44,4.68-4.35,7.83-5.72,3.15-1.37,6.83-2.05,11.05-2.05,3.4,0,6.57.46,9.5,1.39,2.92.93,5.48,2.3,7.66,4.11,2.18,1.82,3.89,4.09,5.11,6.83,1.22,2.74,1.83,5.92,1.83,9.55,0,3.26-.54,6.22-1.61,8.89-1.07,2.67-2.52,5.11-4.33,7.33-1.82,2.22-3.89,4.28-6.22,6.16-2.33,1.89-4.79,3.65-7.39,5.28-1.85,1.26-4.04,2.65-6.55,4.17-2.52,1.52-4.94,3.2-7.28,5.05-2.33,1.85-4.39,3.87-6.16,6.05-1.78,2.18-2.89,4.57-3.33,7.16h43.21v6.44H7.15Z"/>
          <path class="cls-1" d="M109.61,20.49c3.52,2.48,6.26,5.65,8.22,9.5,1.96,3.85,3.29,8.15,4,12.88.7,4.74,1.05,9.37,1.05,13.88s-.35,9.26-1.05,13.99c-.71,4.74-2.04,9.03-4,12.88-1.96,3.85-4.7,7-8.22,9.44-3.52,2.44-8.13,3.67-13.83,3.67s-10.22-1.22-13.77-3.67c-3.55-2.44-6.31-5.59-8.27-9.44-1.96-3.85-3.3-8.14-4-12.88-.7-4.74-1.05-9.37-1.05-13.88s.35-9.25,1.05-13.99c.7-4.74,2.04-9.03,4-12.88,1.96-3.85,4.72-7.01,8.27-9.5,3.55-2.48,8.14-3.72,13.77-3.72s10.31,1.24,13.83,3.72ZM85.12,26.1c-2.67,2.3-4.68,5.15-6.05,8.55-1.37,3.41-2.28,7.11-2.72,11.11-.44,4-.67,7.66-.67,11s.22,7.09.67,11.05c.44,3.96,1.35,7.66,2.72,11.11,1.37,3.44,3.39,6.31,6.05,8.61,2.67,2.3,6.22,3.44,10.66,3.44s8-1.15,10.66-3.44c2.67-2.29,4.68-5.16,6.05-8.61,1.37-3.44,2.28-7.14,2.72-11.11.44-3.96.67-7.64.67-11.05s-.22-7-.67-11c-.44-4-1.35-7.7-2.72-11.11-1.37-3.41-3.39-6.26-6.05-8.55-2.67-2.29-6.22-3.44-10.66-3.44s-8,1.15-10.66,3.44Z"/>
          <path class="cls-1" d="M130.66,95.18c.07-3.85.74-7.26,2-10.22,1.26-2.96,2.92-5.63,5-8,2.07-2.37,4.41-4.54,7-6.5,2.59-1.96,5.26-3.85,8-5.67,2.74-1.81,5.46-3.67,8.16-5.55,2.7-1.89,5.13-3.91,7.27-6.05s3.76-4.35,4.83-6.61c1.07-2.26,1.61-4.94,1.61-8.05,0-2.52-.46-4.76-1.39-6.72-.93-1.96-2.18-3.63-3.78-5-1.59-1.37-3.44-2.41-5.55-3.11-2.11-.7-4.35-1.05-6.72-1.05-3.18,0-5.91.59-8.16,1.78-2.26,1.18-4.09,2.78-5.5,4.78-1.41,2-2.43,4.29-3.05,6.89-.63,2.59-.91,5.33-.83,8.22h-7c-.08-4,.39-7.68,1.39-11.05,1-3.37,2.54-6.27,4.61-8.72,2.07-2.44,4.68-4.35,7.83-5.72,3.15-1.37,6.83-2.05,11.05-2.05,3.4,0,6.57.46,9.5,1.39,2.92.93,5.48,2.3,7.66,4.11,2.18,1.82,3.89,4.09,5.11,6.83,1.22,2.74,1.83,5.92,1.83,9.55,0,3.26-.54,6.22-1.61,8.89-1.07,2.67-2.52,5.11-4.33,7.33-1.82,2.22-3.89,4.28-6.22,6.16-2.33,1.89-4.79,3.65-7.39,5.28-1.85,1.26-4.04,2.65-6.55,4.17-2.52,1.52-4.94,3.2-7.28,5.05-2.33,1.85-4.39,3.87-6.16,6.05-1.78,2.18-2.89,4.57-3.33,7.16h43.21v6.44h-51.2Z"/>
          <path class="cls-1" d="M201.02,80.3c1,2.22,2.35,4.13,4.05,5.72,1.7,1.59,3.7,2.82,6,3.67,2.29.85,4.78,1.28,7.44,1.28,3.04,0,5.74-.57,8.11-1.72,2.37-1.15,4.4-2.7,6.11-4.66,1.7-1.96,3-4.22,3.89-6.78s1.33-5.24,1.33-8.05-.5-5.55-1.5-8c-1-2.44-2.37-4.57-4.11-6.39-1.74-1.81-3.83-3.24-6.28-4.28-2.44-1.04-5.11-1.55-8-1.55-3.55,0-6.85.8-9.88,2.39-3.04,1.59-5.52,3.87-7.44,6.83h-6l7.55-40.32h38.87v6.44h-33.99l-5,25.77.22.22c1.92-2.29,4.37-4.07,7.33-5.33,2.96-1.26,6-1.89,9.11-1.89,4,0,7.61.67,10.83,2,3.22,1.33,5.96,3.18,8.22,5.55,2.26,2.37,4,5.2,5.22,8.5,1.22,3.29,1.83,6.91,1.83,10.83s-.71,7.28-2.11,10.5c-1.41,3.22-3.33,6-5.78,8.33s-5.31,4.15-8.61,5.44c-3.29,1.29-6.79,1.94-10.5,1.94s-6.98-.54-10.05-1.61c-3.07-1.07-5.74-2.63-8-4.67-2.26-2.04-4.05-4.53-5.39-7.5-1.33-2.96-2.04-6.29-2.11-10h7c.07,2.67.61,5.11,1.61,7.33Z"/>
        </g>
      </g>
    </g>
  </g>
</svg>