<?xml version="1.0" encoding="UTF-8" standalone="no"?>
<svg
   id="Layer_2"
   viewBox="0 0 583 310.63"
   version="1.1"
   sodipodi:docname="hero.svg"
   inkscape:version="1.1.2 (0a00cf5339, 2022-02-04)"
   xmlns:inkscape="http://www.inkscape.org/namespaces/inkscape"
   xmlns:sodipodi="http://sodipodi.sourceforge.net/DTD/sodipodi-0.dtd"
   xmlns="http://www.w3.org/2000/svg"
   xmlns:svg="http://www.w3.org/2000/svg">
  <sodipodi:namedview
     id="namedview1064"
     pagecolor="#ffffff"
     bordercolor="#666666"
     borderopacity="1.0"
     inkscape:pageshadow="2"
     inkscape:pageopacity="0.0"
     inkscape:pagecheckerboard="0"
     showgrid="false"
     inkscape:zoom="2.3876501"
     inkscape:cx="291.5"
     inkscape:cy="155.17349"
     inkscape:window-width="1920"
     inkscape:window-height="1125"
     inkscape:window-x="0"
     inkscape:window-y="0"
     inkscape:window-maximized="1"
     inkscape:current-layer="g1047" />
  <defs
     id="defs963">
    <style
       id="style961">
      .cls-1 {
        fill: #fff;
      }
    </style>
  </defs>
  <g
     id="Layer_1-2"
     data-name="Layer_1">
    <g
       id="Tekst">
      <g
         id="g1059">
        <g
           id="g983">
          <path
             class="cls-1"
             d="M16.79,185.74c1.33,2.74,3.17,4.93,5.5,6.55,2.33,1.63,5.09,2.79,8.27,3.5,3.18.71,6.59,1.06,10.22,1.06,2.07,0,4.33-.3,6.77-.89,2.44-.59,4.72-1.54,6.83-2.83,2.11-1.29,3.87-2.96,5.28-5,1.41-2.04,2.11-4.5,2.11-7.39,0-2.22-.5-4.15-1.5-5.78-1-1.63-2.3-3-3.89-4.11-1.59-1.11-3.35-2.02-5.28-2.72-1.93-.7-3.81-1.28-5.67-1.72l-17.66-4.33c-2.3-.59-4.54-1.33-6.72-2.22-2.18-.89-4.09-2.07-5.72-3.55-1.63-1.48-2.94-3.29-3.94-5.44-1-2.15-1.5-4.78-1.5-7.89,0-1.92.37-4.18,1.11-6.77.74-2.59,2.13-5.03,4.16-7.33,2.04-2.29,4.83-4.24,8.39-5.83,3.55-1.59,8.11-2.39,13.66-2.39,3.92,0,7.66.52,11.22,1.56,3.55,1.04,6.66,2.59,9.33,4.66,2.67,2.07,4.79,4.65,6.39,7.72,1.59,3.07,2.39,6.65,2.39,10.72h-7.55c-.15-3.04-.83-5.68-2.05-7.94-1.22-2.26-2.82-4.15-4.78-5.66-1.96-1.52-4.22-2.67-6.77-3.44-2.55-.78-5.24-1.17-8.05-1.17-2.59,0-5.09.28-7.5.83-2.41.55-4.52,1.44-6.33,2.67-1.81,1.22-3.28,2.83-4.39,4.83s-1.67,4.48-1.67,7.44c0,1.85.31,3.46.94,4.83.63,1.37,1.5,2.54,2.61,3.5,1.11.96,2.39,1.74,3.83,2.33,1.44.59,2.98,1.07,4.61,1.44l19.33,4.78c2.81.74,5.46,1.65,7.94,2.72,2.48,1.07,4.67,2.41,6.55,4,1.89,1.59,3.37,3.54,4.44,5.83,1.07,2.3,1.61,5.07,1.61,8.33,0,.89-.09,2.07-.28,3.55-.19,1.48-.63,3.05-1.33,4.72-.71,1.67-1.7,3.35-3,5.05-1.3,1.71-3.07,3.24-5.33,4.61-2.26,1.37-5.05,2.48-8.39,3.33-3.33.85-7.33,1.28-12,1.28s-9-.54-13-1.61c-4-1.07-7.4-2.72-10.22-4.94-2.81-2.22-4.98-5.07-6.5-8.55-1.52-3.48-2.17-7.66-1.94-12.55h7.55c-.07,4.07.56,7.48,1.89,10.22Z"
             id="path965" />
          <path
             class="cls-1"
             d="M115.08,152.19c-2.59-2.44-6.22-3.67-10.88-3.67-3.33,0-6.26.71-8.77,2.11-2.52,1.41-4.61,3.26-6.28,5.55-1.67,2.3-2.93,4.91-3.78,7.83-.85,2.93-1.28,5.91-1.28,8.94s.42,6.02,1.28,8.94c.85,2.93,2.11,5.54,3.78,7.83,1.67,2.3,3.76,4.15,6.28,5.55,2.52,1.41,5.44,2.11,8.77,2.11,2.15,0,4.18-.41,6.11-1.22,1.92-.81,3.63-1.94,5.11-3.39,1.48-1.44,2.7-3.17,3.67-5.16.96-2,1.55-4.18,1.78-6.55h7c-.96,6.96-3.52,12.38-7.66,16.27-4.15,3.89-9.48,5.83-15.99,5.83-4.37,0-8.24-.8-11.61-2.39-3.37-1.59-6.2-3.76-8.5-6.5-2.3-2.74-4.04-5.94-5.22-9.61-1.19-3.67-1.78-7.57-1.78-11.72s.59-8.05,1.78-11.72c1.18-3.67,2.92-6.87,5.22-9.61,2.29-2.74,5.13-4.92,8.5-6.55,3.37-1.63,7.24-2.44,11.61-2.44,6.14,0,11.35,1.63,15.6,4.89,4.26,3.26,6.79,8.18,7.61,14.77h-7c-.96-4.29-2.74-7.66-5.33-10.11Z"
             id="path967" />
          <path
             class="cls-1"
             d="M139.07,153.19c1.18-2.44,2.79-4.44,4.83-6,2.04-1.55,4.42-2.7,7.16-3.44,2.74-.74,5.78-1.11,9.11-1.11,2.52,0,5.03.24,7.55.72,2.52.48,4.78,1.39,6.78,2.72s3.63,3.2,4.89,5.61c1.26,2.41,1.89,5.54,1.89,9.39v30.43c0,2.82,1.37,4.22,4.11,4.22.81,0,1.55-.15,2.22-.44v5.89c-.82.15-1.54.26-2.17.33-.63.08-1.43.11-2.39.11-1.78,0-3.2-.24-4.28-.72-1.07-.48-1.91-1.17-2.5-2.05-.59-.89-.98-1.94-1.17-3.17-.19-1.22-.28-2.57-.28-4.05h-.22c-1.26,1.85-2.54,3.5-3.83,4.94-1.3,1.44-2.74,2.65-4.33,3.61-1.59.96-3.41,1.7-5.44,2.22-2.04.52-4.46.78-7.28.78-2.67,0-5.16-.32-7.5-.94-2.33-.63-4.37-1.63-6.11-3-1.74-1.37-3.11-3.11-4.11-5.22-1-2.11-1.5-4.61-1.5-7.5,0-4,.89-7.12,2.67-9.38,1.78-2.26,4.13-3.98,7.05-5.16,2.92-1.18,6.22-2.02,9.88-2.5,3.67-.48,7.39-.94,11.16-1.39,1.48-.15,2.78-.33,3.89-.56,1.11-.22,2.04-.61,2.78-1.17.74-.56,1.31-1.31,1.72-2.28.41-.96.61-2.22.61-3.78,0-2.37-.39-4.31-1.17-5.83-.78-1.52-1.85-2.72-3.22-3.61-1.37-.89-2.96-1.5-4.78-1.83-1.82-.33-3.76-.5-5.83-.5-4.44,0-8.07,1.06-10.88,3.17-2.81,2.11-4.29,5.5-4.44,10.16h-7c.22-3.33.92-6.22,2.11-8.66ZM174.06,170.3c-.44.82-1.3,1.41-2.55,1.78-1.26.37-2.37.63-3.33.78-2.96.52-6.02.98-9.16,1.39-3.15.41-6.02,1.02-8.61,1.83-2.59.82-4.72,1.98-6.39,3.5-1.67,1.52-2.5,3.68-2.5,6.5,0,1.78.35,3.35,1.05,4.72.7,1.37,1.65,2.55,2.83,3.55,1.18,1,2.55,1.76,4.11,2.28,1.56.52,3.15.78,4.78.78,2.67,0,5.22-.41,7.66-1.22,2.44-.81,4.57-2,6.39-3.55,1.81-1.56,3.26-3.44,4.33-5.67,1.07-2.22,1.61-4.74,1.61-7.55v-9.11h-.22Z"
             id="path969" />
          <path
             class="cls-1"
             d="M202.38,122.32v79.3h-7v-79.3h7Z"
             id="path971" />
          <path
             class="cls-1"
             d="M217.26,153.19c1.18-2.44,2.79-4.44,4.83-6,2.04-1.55,4.42-2.7,7.16-3.44,2.74-.74,5.78-1.11,9.11-1.11,2.52,0,5.03.24,7.55.72,2.52.48,4.78,1.39,6.78,2.72s3.63,3.2,4.89,5.61c1.26,2.41,1.89,5.54,1.89,9.39v30.43c0,2.82,1.37,4.22,4.11,4.22.81,0,1.55-.15,2.22-.44v5.89c-.82.15-1.54.26-2.17.33-.63.08-1.43.11-2.39.11-1.78,0-3.2-.24-4.28-.72-1.07-.48-1.91-1.17-2.5-2.05-.59-.89-.98-1.94-1.17-3.17-.19-1.22-.28-2.57-.28-4.05h-.22c-1.26,1.85-2.54,3.5-3.83,4.94-1.3,1.44-2.74,2.65-4.33,3.61-1.59.96-3.41,1.7-5.44,2.22-2.04.52-4.46.78-7.28.78-2.67,0-5.16-.32-7.5-.94-2.33-.63-4.37-1.63-6.11-3-1.74-1.37-3.11-3.11-4.11-5.22-1-2.11-1.5-4.61-1.5-7.5,0-4,.89-7.12,2.67-9.38,1.78-2.26,4.13-3.98,7.05-5.16,2.92-1.18,6.22-2.02,9.88-2.5,3.67-.48,7.39-.94,11.16-1.39,1.48-.15,2.78-.33,3.89-.56,1.11-.22,2.04-.61,2.78-1.17.74-.56,1.31-1.31,1.72-2.28.41-.96.61-2.22.61-3.78,0-2.37-.39-4.31-1.17-5.83-.78-1.52-1.85-2.72-3.22-3.61-1.37-.89-2.96-1.5-4.78-1.83-1.82-.33-3.76-.5-5.83-.5-4.44,0-8.07,1.06-10.88,3.17-2.81,2.11-4.29,5.5-4.44,10.16h-7c.22-3.33.92-6.22,2.11-8.66ZM252.25,170.3c-.44.82-1.3,1.41-2.55,1.78-1.26.37-2.37.63-3.33.78-2.96.52-6.02.98-9.16,1.39-3.15.41-6.02,1.02-8.61,1.83-2.59.82-4.72,1.98-6.39,3.5-1.67,1.52-2.5,3.68-2.5,6.5,0,1.78.35,3.35,1.05,4.72.7,1.37,1.65,2.55,2.83,3.55,1.18,1,2.55,1.76,4.11,2.28,1.56.52,3.15.78,4.78.78,2.67,0,5.22-.41,7.66-1.22,2.44-.81,4.57-2,6.39-3.55,1.81-1.56,3.26-3.44,4.33-5.67,1.07-2.22,1.61-4.74,1.61-7.55v-9.11h-.22Z"
             id="path973" />
          <path
             class="cls-1"
             d="M330.66,122.32c5.11,0,9.87.82,14.27,2.44,4.4,1.63,8.22,4.07,11.44,7.33,3.22,3.26,5.74,7.33,7.55,12.22,1.81,4.89,2.72,10.63,2.72,17.22,0,5.78-.74,11.11-2.22,15.99-1.48,4.89-3.72,9.11-6.72,12.66-3,3.55-6.74,6.35-11.22,8.38-4.48,2.04-9.76,3.05-15.83,3.05h-34.21v-79.3h34.21ZM329.44,186.96c2.52,0,4.96-.41,7.33-1.22,2.37-.81,4.48-2.17,6.33-4.05,1.85-1.89,3.33-4.35,4.44-7.39,1.11-3.04,1.67-6.74,1.67-11.11,0-4-.39-7.61-1.17-10.83s-2.05-5.98-3.83-8.27c-1.78-2.29-4.13-4.05-7.05-5.28-2.93-1.22-6.54-1.83-10.83-1.83h-12.44v49.98h15.55Z"
             id="path975" />
          <path
             class="cls-1"
             d="M376.42,161.86c.22-3.7,1.15-6.78,2.78-9.22,1.63-2.44,3.7-4.4,6.22-5.89,2.52-1.48,5.35-2.54,8.5-3.17,3.15-.63,6.31-.94,9.5-.94,2.89,0,5.81.21,8.77.61,2.96.41,5.66,1.2,8.11,2.39,2.44,1.19,4.44,2.83,6,4.94s2.33,4.91,2.33,8.39v29.88c0,2.59.15,5.07.44,7.44.29,2.37.81,4.15,1.55,5.33h-15.99c-.3-.89-.54-1.79-.72-2.72-.19-.93-.32-1.87-.39-2.83-2.52,2.59-5.48,4.41-8.89,5.44-3.41,1.04-6.89,1.56-10.44,1.56-2.74,0-5.29-.33-7.66-1-2.37-.67-4.44-1.7-6.22-3.11-1.78-1.41-3.17-3.18-4.17-5.33-1-2.15-1.5-4.7-1.5-7.66,0-3.26.57-5.94,1.72-8.05,1.15-2.11,2.63-3.79,4.44-5.05,1.81-1.26,3.89-2.2,6.22-2.83,2.33-.63,4.68-1.13,7.05-1.5,2.37-.37,4.7-.67,7-.89,2.29-.22,4.33-.56,6.11-1s3.18-1.09,4.22-1.94c1.04-.85,1.52-2.09,1.44-3.72,0-1.7-.28-3.05-.83-4.05-.55-1-1.3-1.78-2.22-2.33-.93-.55-2-.92-3.22-1.11-1.22-.18-2.54-.28-3.94-.28-3.11,0-5.55.67-7.33,2-1.78,1.33-2.82,3.55-3.11,6.66h-15.77ZM412.85,173.52c-.67.59-1.5,1.05-2.5,1.39-1,.33-2.07.61-3.22.83-1.15.22-2.35.41-3.61.56-1.26.15-2.52.33-3.78.56-1.19.22-2.35.52-3.5.89-1.15.37-2.15.87-3,1.5-.85.63-1.54,1.43-2.05,2.39-.52.96-.78,2.19-.78,3.67s.26,2.59.78,3.55c.52.96,1.22,1.72,2.11,2.28.89.56,1.92.94,3.11,1.17,1.18.22,2.41.33,3.67.33,3.11,0,5.52-.52,7.22-1.56,1.7-1.04,2.96-2.28,3.78-3.72.81-1.44,1.31-2.9,1.5-4.39.18-1.48.28-2.67.28-3.55v-5.89Z"
             id="path977" />
          <path
             class="cls-1"
             d="M462.05,218.72c-3.04,2-7.26,3-12.66,3-1.63,0-3.24-.06-4.83-.17-1.59-.11-3.2-.24-4.83-.39v-13c1.48.15,3,.29,4.55.44,1.55.15,3.11.18,4.67.11,2.07-.22,3.61-1.04,4.61-2.44,1-1.41,1.5-2.96,1.5-4.67,0-1.26-.22-2.44-.67-3.55l-20.1-53.87h16.77l13,39.32h.22l12.55-39.32h16.33l-23.99,64.53c-1.7,4.67-4.07,8-7.11,10Z"
             id="path979" />
          <path
             class="cls-1"
             d="M511.75,187.35c.7,1.22,1.61,2.22,2.72,3s2.39,1.35,3.83,1.72c1.44.37,2.94.56,4.5.56,1.11,0,2.28-.13,3.5-.39,1.22-.26,2.33-.67,3.33-1.22,1-.56,1.83-1.29,2.5-2.22.67-.92,1-2.09,1-3.5,0-2.37-1.57-4.15-4.72-5.33-3.15-1.18-7.54-2.37-13.16-3.55-2.3-.52-4.54-1.13-6.72-1.83-2.18-.7-4.13-1.63-5.83-2.78-1.7-1.15-3.07-2.59-4.11-4.33-1.04-1.74-1.55-3.87-1.55-6.39,0-3.7.72-6.74,2.17-9.11,1.44-2.37,3.35-4.24,5.72-5.61,2.37-1.37,5.03-2.33,8-2.89,2.96-.55,6-.83,9.11-.83s6.13.3,9.05.89c2.92.59,5.53,1.59,7.83,3,2.29,1.41,4.2,3.28,5.72,5.61,1.52,2.33,2.42,5.28,2.72,8.83h-14.99c-.22-3.04-1.37-5.09-3.44-6.16-2.07-1.07-4.52-1.61-7.33-1.61-.89,0-1.85.06-2.89.17-1.04.11-1.98.35-2.83.72-.85.37-1.57.91-2.17,1.61-.59.7-.89,1.65-.89,2.83,0,1.41.52,2.55,1.55,3.44,1.04.89,2.39,1.61,4.05,2.17,1.67.56,3.57,1.06,5.72,1.5,2.15.44,4.33.93,6.55,1.44,2.29.52,4.53,1.15,6.72,1.89,2.18.74,4.13,1.72,5.83,2.94,1.7,1.22,3.07,2.74,4.11,4.55,1.04,1.81,1.55,4.05,1.55,6.72,0,3.78-.76,6.94-2.28,9.5-1.52,2.55-3.5,4.61-5.94,6.16-2.44,1.55-5.24,2.65-8.39,3.28-3.15.63-6.35.94-9.61.94s-6.59-.33-9.77-1c-3.18-.67-6.02-1.78-8.5-3.33-2.48-1.55-4.52-3.61-6.11-6.16-1.59-2.55-2.46-5.76-2.61-9.61h14.99c0,1.7.35,3.17,1.06,4.39Z"
             id="path981" />
        </g>
        <g
           id="g1047">
          <path
             class="cls-1"
             d="M5.58,243.2c.73-.08,1.35-.25,1.88-.54.53-.28.98-.71,1.33-1.28s.61-1.38.76-2.42h1.66v22.75h-2.05v-16.9H3.15v-1.46c.89-.02,1.7-.07,2.42-.15Z"
             id="path985" />
          <path
             class="cls-1"
             d="m 88.98,243.23 c 0.73,-0.08 1.35,-0.25 1.88,-0.54 0.53,-0.28 0.98,-0.71 1.33,-1.28 0.35,-0.57 0.61,-1.38 0.76,-2.42 h 1.66 v 22.75 h -2.05 v -16.9 h -6.01 v -1.46 c 0.89,-0.02 1.7,-0.07 2.42,-0.15 z"
             id="path985-3"
             style="fill:#ffffff" />
          <path
             class="cls-1"
             d="M23.29,259.31c.83.78,1.91,1.17,3.23,1.17s2.42-.34,3.23-1.01c.81-.67,1.45-1.52,1.9-2.54s.76-2.12.91-3.3c.15-1.18.23-2.29.23-3.33h-.07c-.54,1.13-1.36,2.04-2.45,2.73-1.09.69-2.29,1.04-3.59,1.04-1.13,0-2.16-.19-3.09-.57-.93-.38-1.72-.9-2.37-1.58-.65-.67-1.15-1.47-1.51-2.41s-.54-1.95-.54-3.06.19-2.13.57-3.07c.38-.94.91-1.75,1.59-2.44s1.5-1.22,2.44-1.61c.94-.39,1.98-.58,3.1-.58,1.39,0,2.58.21,3.58.63,1,.42,1.82,1.12,2.47,2.08.65.96,1.13,2.22,1.45,3.75.31,1.54.47,3.41.47,5.62,0,.46-.03,1.05-.08,1.79-.05.74-.18,1.52-.37,2.36-.2.83-.47,1.68-.83,2.54s-.83,1.62-1.43,2.31-1.34,1.24-2.23,1.67c-.89.43-1.95.65-3.19.65-2.04,0-3.65-.48-4.84-1.45-1.19-.96-1.91-2.45-2.14-4.47h2.05c.17,1.26.68,2.28,1.51,3.06ZM29.11,251.88c.7-.31,1.3-.74,1.79-1.28.49-.54.86-1.17,1.11-1.9.25-.73.37-1.51.37-2.36s-.11-1.59-.33-2.29-.56-1.32-1.02-1.85c-.47-.53-1.06-.95-1.77-1.25-.71-.3-1.57-.46-2.57-.46-.8,0-1.54.16-2.21.47s-1.25.74-1.74,1.27c-.49.53-.86,1.15-1.12,1.87s-.39,1.46-.39,2.24c0,.82.12,1.6.37,2.34.25.74.61,1.38,1.07,1.92.47.54,1.04.97,1.72,1.28.68.31,1.46.47,2.32.47s1.68-.16,2.39-.47Z"
             id="path987" />
          <path
             class="cls-1"
             d="m 39.41,251.83 h 24.05 v 1.89 H 39.41 Z"
             id="path989" />
          <path
             class="cls-1"
             d="m 67.9,261.71 c 0.02,-1.13 0.22,-2.12 0.58,-2.99 0.37,-0.87 0.86,-1.65 1.46,-2.34 0.61,-0.69 1.29,-1.33 2.05,-1.9 0.76,-0.57 1.54,-1.13 2.34,-1.66 0.8,-0.53 1.6,-1.07 2.39,-1.62 0.79,-0.55 1.5,-1.14 2.13,-1.77 0.63,-0.63 1.1,-1.27 1.41,-1.93 0.31,-0.66 0.47,-1.45 0.47,-2.36 0,-0.74 -0.14,-1.39 -0.41,-1.97 -0.27,-0.57 -0.64,-1.06 -1.1,-1.46 -0.47,-0.4 -1.01,-0.7 -1.63,-0.91 -0.62,-0.21 -1.27,-0.31 -1.97,-0.31 -0.93,0 -1.73,0.17 -2.39,0.52 -0.66,0.35 -1.2,0.81 -1.61,1.4 -0.41,0.58 -0.71,1.26 -0.89,2.02 -0.18,0.76 -0.27,1.56 -0.24,2.41 h -2.05 c -0.02,-1.17 0.11,-2.25 0.41,-3.23 0.29,-0.99 0.74,-1.84 1.35,-2.55 0.61,-0.71 1.37,-1.27 2.29,-1.67 0.92,-0.4 2,-0.6 3.23,-0.6 1,0 1.92,0.14 2.78,0.41 0.86,0.27 1.6,0.67 2.24,1.2 0.64,0.53 1.14,1.2 1.5,2 0.36,0.8 0.54,1.73 0.54,2.79 0,0.95 -0.16,1.82 -0.47,2.6 -0.31,0.78 -0.74,1.5 -1.27,2.15 -0.53,0.65 -1.14,1.25 -1.82,1.8 -0.68,0.55 -1.4,1.07 -2.16,1.54 -0.54,0.37 -1.18,0.77 -1.92,1.22 -0.74,0.44 -1.45,0.94 -2.13,1.48 -0.68,0.54 -1.28,1.13 -1.8,1.77 -0.52,0.64 -0.84,1.34 -0.97,2.1 h 12.64 v 1.89 H 67.89 Z"
             id="path991" />
          <path
             class="cls-1"
             d="m 123.51,238.5 9.1,23.21 h -2.37 l -2.83,-7.22 h -10.56 l -2.79,7.22 h -2.34 l 9.33,-23.21 h 2.47 z m 3.16,14.11 -4.49,-11.9 -4.65,11.9 h 9.13 z"
             id="path995" />
          <path
             class="cls-1"
             d="m 146.04,261.71 v -3.02 h -0.06 c -0.54,1.13 -1.33,1.99 -2.36,2.58 -1.03,0.59 -2.17,0.89 -3.43,0.89 -1.06,0 -1.97,-0.15 -2.71,-0.44 -0.75,-0.29 -1.35,-0.71 -1.82,-1.25 -0.47,-0.54 -0.81,-1.2 -1.02,-1.98 -0.22,-0.78 -0.33,-1.67 -0.33,-2.67 v -10.89 h 2.05 v 10.92 c 0.04,1.52 0.4,2.67 1.06,3.45 0.66,0.78 1.8,1.17 3.43,1.17 0.89,0 1.65,-0.19 2.28,-0.57 0.63,-0.38 1.15,-0.88 1.56,-1.51 0.41,-0.63 0.71,-1.35 0.91,-2.16 0.2,-0.81 0.29,-1.64 0.29,-2.49 v -8.81 h 2.05 v 16.77 h -1.89 z"
             id="path997" />
          <path
             class="cls-1"
             d="m 165.56,263.69 c -0.27,1 -0.7,1.84 -1.28,2.54 -0.58,0.69 -1.35,1.22 -2.29,1.59 -0.94,0.37 -2.1,0.55 -3.46,0.55 -0.84,0 -1.67,-0.1 -2.47,-0.29 -0.8,-0.2 -1.52,-0.5 -2.16,-0.91 -0.64,-0.41 -1.17,-0.94 -1.59,-1.58 -0.42,-0.64 -0.67,-1.4 -0.73,-2.29 h 2.05 c 0.11,0.63 0.32,1.15 0.63,1.58 0.31,0.42 0.69,0.76 1.14,1.02 0.45,0.26 0.94,0.45 1.48,0.57 0.54,0.12 1.09,0.18 1.66,0.18 1.91,0 3.28,-0.54 4.13,-1.62 0.84,-1.08 1.27,-2.64 1.27,-4.68 v -2.28 h -0.07 c -0.48,1.04 -1.18,1.88 -2.1,2.5 -0.92,0.63 -2,0.94 -3.23,0.94 -1.34,0 -2.49,-0.22 -3.45,-0.67 -0.95,-0.44 -1.74,-1.06 -2.36,-1.84 -0.62,-0.78 -1.07,-1.7 -1.35,-2.75 -0.28,-1.05 -0.42,-2.17 -0.42,-3.37 0,-1.2 0.17,-2.24 0.5,-3.27 0.33,-1.03 0.82,-1.93 1.46,-2.7 0.64,-0.77 1.43,-1.38 2.37,-1.82 0.94,-0.44 2.02,-0.67 3.23,-0.67 0.63,0 1.22,0.09 1.77,0.26 0.55,0.17 1.06,0.42 1.51,0.73 0.46,0.31 0.86,0.68 1.22,1.09 0.36,0.41 0.63,0.85 0.83,1.3 h 0.07 v -2.89 h 2.05 v 15.41 c 0,1.24 -0.14,2.35 -0.41,3.35 z m -4.7,-4.46 c 0.67,-0.38 1.24,-0.88 1.69,-1.5 0.46,-0.62 0.8,-1.33 1.02,-2.13 0.23,-0.8 0.34,-1.62 0.34,-2.47 0,-0.85 -0.1,-1.65 -0.29,-2.47 -0.19,-0.82 -0.51,-1.57 -0.94,-2.24 -0.43,-0.67 -0.99,-1.21 -1.67,-1.62 -0.68,-0.41 -1.51,-0.62 -2.49,-0.62 -0.98,0 -1.81,0.2 -2.5,0.6 -0.69,0.4 -1.27,0.93 -1.72,1.58 -0.46,0.65 -0.79,1.39 -0.99,2.23 -0.2,0.84 -0.31,1.68 -0.31,2.55 0,0.87 0.11,1.67 0.33,2.47 0.22,0.8 0.55,1.51 1.01,2.13 0.46,0.62 1.03,1.12 1.72,1.5 0.69,0.38 1.52,0.57 2.47,0.57 0.89,0 1.67,-0.19 2.34,-0.57 z"
             id="path999" />
          <path
             class="cls-1"
             d="m 181.57,261.71 v -3.02 h -0.06 c -0.54,1.13 -1.33,1.99 -2.36,2.58 -1.03,0.59 -2.17,0.89 -3.43,0.89 -1.06,0 -1.97,-0.15 -2.71,-0.44 -0.75,-0.29 -1.35,-0.71 -1.82,-1.25 -0.47,-0.54 -0.81,-1.2 -1.02,-1.98 -0.22,-0.78 -0.33,-1.67 -0.33,-2.67 v -10.89 h 2.05 v 10.92 c 0.04,1.52 0.4,2.67 1.06,3.45 0.66,0.78 1.8,1.17 3.43,1.17 0.89,0 1.65,-0.19 2.28,-0.57 0.63,-0.38 1.15,-0.88 1.56,-1.51 0.41,-0.63 0.71,-1.35 0.91,-2.16 0.2,-0.81 0.29,-1.64 0.29,-2.49 v -8.81 h 2.05 v 16.77 h -1.89 z"
             id="path1001" />
          <path
             class="cls-1"
             d="m 196.98,248.21 c -0.24,-0.47 -0.56,-0.85 -0.96,-1.15 -0.4,-0.3 -0.86,-0.53 -1.38,-0.67 -0.52,-0.14 -1.07,-0.21 -1.66,-0.21 -0.46,0 -0.92,0.05 -1.38,0.15 -0.46,0.1 -0.89,0.26 -1.28,0.49 -0.39,0.23 -0.7,0.53 -0.94,0.89 -0.24,0.36 -0.36,0.82 -0.36,1.37 0,0.46 0.11,0.84 0.34,1.15 0.23,0.31 0.51,0.58 0.86,0.8 0.35,0.22 0.73,0.4 1.14,0.54 0.41,0.14 0.79,0.25 1.14,0.34 l 2.73,0.62 c 0.58,0.09 1.16,0.24 1.74,0.47 0.58,0.23 1.08,0.53 1.53,0.89 0.44,0.37 0.81,0.82 1.09,1.37 0.28,0.54 0.42,1.18 0.42,1.92 0,0.91 -0.21,1.69 -0.62,2.32 -0.41,0.64 -0.94,1.16 -1.58,1.56 -0.64,0.4 -1.36,0.69 -2.16,0.86 -0.8,0.17 -1.59,0.26 -2.37,0.26 -1.97,0 -3.57,-0.47 -4.79,-1.4 -1.22,-0.93 -1.92,-2.43 -2.1,-4.49 h 2.05 c 0.09,1.39 0.59,2.43 1.51,3.14 0.92,0.71 2.06,1.06 3.43,1.06 0.5,0 1.01,-0.05 1.54,-0.16 0.53,-0.11 1.02,-0.29 1.48,-0.55 0.46,-0.26 0.83,-0.59 1.12,-0.99 0.29,-0.4 0.44,-0.89 0.44,-1.48 0,-0.5 -0.1,-0.92 -0.31,-1.25 -0.21,-0.34 -0.48,-0.62 -0.83,-0.85 -0.35,-0.23 -0.74,-0.42 -1.19,-0.57 -0.44,-0.15 -0.89,-0.28 -1.35,-0.39 l -2.63,-0.58 c -0.67,-0.17 -1.29,-0.37 -1.85,-0.6 -0.56,-0.23 -1.06,-0.51 -1.48,-0.84 -0.42,-0.34 -0.75,-0.75 -0.99,-1.24 -0.24,-0.49 -0.36,-1.09 -0.36,-1.8 0,-0.85 0.19,-1.57 0.57,-2.18 0.38,-0.61 0.87,-1.09 1.48,-1.46 0.61,-0.37 1.28,-0.64 2.03,-0.81 0.75,-0.17 1.49,-0.26 2.23,-0.26 0.84,0 1.63,0.11 2.36,0.33 0.73,0.22 1.37,0.55 1.92,1.01 0.55,0.46 0.99,1.02 1.32,1.69 0.33,0.67 0.51,1.46 0.55,2.37 h -2.05 c -0.02,-0.63 -0.15,-1.18 -0.39,-1.64 z"
             id="path1003" />
          <path
             class="cls-1"
             d="m 209.62,244.94 v 1.72 h -3.41 v 11.31 c 0,0.67 0.09,1.2 0.28,1.58 0.18,0.38 0.64,0.59 1.38,0.63 0.59,0 1.17,-0.03 1.76,-0.1 v 1.72 c -0.3,0 -0.61,0.01 -0.91,0.03 -0.3,0.02 -0.61,0.03 -0.91,0.03 -1.37,0 -2.32,-0.26 -2.86,-0.8 -0.54,-0.53 -0.8,-1.51 -0.78,-2.94 v -11.47 h -2.93 v -1.72 h 2.93 v -5.04 h 2.05 v 5.04 h 3.41 z"
             id="path1005" />
          <path
             class="cls-1"
             d="m 216.51,261.71 c 0,0.48 -0.06,0.95 -0.18,1.41 -0.12,0.47 -0.3,0.9 -0.54,1.3 -0.24,0.4 -0.54,0.75 -0.89,1.06 -0.35,0.31 -0.78,0.52 -1.25,0.65 v -1.4 c 0.26,-0.09 0.49,-0.25 0.68,-0.49 0.19,-0.24 0.36,-0.5 0.49,-0.8 0.13,-0.29 0.22,-0.6 0.28,-0.91 0.05,-0.31 0.07,-0.59 0.05,-0.83 h -1.37 v -3.45 h 2.73 v 3.45 z"
             id="path1007" />
          <path
             class="cls-1"
             d="m 233.25,238.5 v 21.32 h 13 v 1.89 H 231.04 V 238.5 Z"
             id="path1009" />
          <path
             class="cls-1"
             d="m 248.53,247.54 c 0.35,-0.71 0.82,-1.3 1.41,-1.75 0.6,-0.46 1.29,-0.79 2.1,-1.01 0.8,-0.22 1.69,-0.33 2.67,-0.33 0.74,0 1.47,0.07 2.21,0.21 0.74,0.14 1.4,0.41 1.98,0.8 0.58,0.39 1.06,0.94 1.43,1.64 0.37,0.7 0.55,1.62 0.55,2.75 v 8.91 c 0,0.82 0.4,1.24 1.2,1.24 0.24,0 0.46,-0.04 0.65,-0.13 v 1.72 c -0.24,0.04 -0.45,0.08 -0.63,0.1 -0.18,0.02 -0.42,0.03 -0.7,0.03 -0.52,0 -0.94,-0.07 -1.25,-0.21 -0.31,-0.14 -0.56,-0.34 -0.73,-0.6 -0.17,-0.26 -0.29,-0.57 -0.34,-0.93 -0.05,-0.36 -0.08,-0.75 -0.08,-1.19 h -0.07 c -0.37,0.54 -0.74,1.02 -1.12,1.45 -0.38,0.42 -0.8,0.78 -1.27,1.06 -0.47,0.28 -1,0.5 -1.59,0.65 -0.6,0.15 -1.31,0.23 -2.13,0.23 -0.78,0 -1.51,-0.09 -2.19,-0.28 -0.68,-0.19 -1.28,-0.48 -1.79,-0.88 -0.51,-0.4 -0.91,-0.91 -1.2,-1.53 -0.29,-0.62 -0.44,-1.35 -0.44,-2.19 0,-1.17 0.26,-2.08 0.78,-2.75 0.52,-0.66 1.21,-1.16 2.06,-1.51 0.86,-0.35 1.82,-0.59 2.89,-0.73 1.07,-0.14 2.16,-0.28 3.27,-0.41 0.43,-0.04 0.81,-0.1 1.14,-0.16 0.33,-0.06 0.6,-0.18 0.81,-0.34 0.22,-0.16 0.38,-0.38 0.5,-0.67 0.12,-0.28 0.18,-0.65 0.18,-1.1 0,-0.69 -0.11,-1.26 -0.34,-1.71 -0.23,-0.45 -0.54,-0.8 -0.94,-1.06 -0.4,-0.26 -0.87,-0.44 -1.4,-0.54 -0.53,-0.1 -1.1,-0.15 -1.71,-0.15 -1.3,0 -2.36,0.31 -3.19,0.93 -0.82,0.62 -1.26,1.61 -1.3,2.97 h -2.05 c 0.07,-0.98 0.27,-1.82 0.62,-2.54 z m 10.24,5 c -0.13,0.24 -0.38,0.41 -0.75,0.52 -0.37,0.11 -0.69,0.18 -0.97,0.23 -0.87,0.15 -1.76,0.29 -2.68,0.41 -0.92,0.12 -1.76,0.3 -2.52,0.54 -0.76,0.24 -1.38,0.58 -1.87,1.02 -0.49,0.44 -0.73,1.08 -0.73,1.9 0,0.52 0.1,0.98 0.31,1.38 0.21,0.4 0.48,0.75 0.83,1.04 0.35,0.29 0.75,0.51 1.2,0.67 0.46,0.15 0.92,0.23 1.4,0.23 0.78,0 1.53,-0.12 2.24,-0.36 0.71,-0.24 1.34,-0.58 1.87,-1.04 0.53,-0.46 0.95,-1.01 1.27,-1.66 0.31,-0.65 0.47,-1.39 0.47,-2.21 v -2.67 z"
             id="path1011" />
          <path
             class="cls-1"
             d="m 276.68,261.71 v -3.02 h -0.06 c -0.54,1.13 -1.33,1.99 -2.36,2.58 -1.03,0.59 -2.17,0.89 -3.43,0.89 -1.06,0 -1.97,-0.15 -2.71,-0.44 -0.75,-0.29 -1.35,-0.71 -1.82,-1.25 -0.47,-0.54 -0.81,-1.2 -1.02,-1.98 -0.22,-0.78 -0.33,-1.67 -0.33,-2.67 V 244.93 H 267 v 10.92 c 0.04,1.52 0.4,2.67 1.06,3.45 0.66,0.78 1.8,1.17 3.43,1.17 0.89,0 1.65,-0.19 2.28,-0.57 0.63,-0.38 1.15,-0.88 1.56,-1.51 0.41,-0.63 0.71,-1.35 0.91,-2.16 0.2,-0.81 0.29,-1.64 0.29,-2.49 v -8.81 h 2.05 v 16.77 h -1.89 z"
             id="path1013" />
          <path
             class="cls-1"
             d="m 292.09,248.21 c -0.24,-0.47 -0.56,-0.85 -0.96,-1.15 -0.4,-0.3 -0.86,-0.53 -1.38,-0.67 -0.52,-0.14 -1.07,-0.21 -1.66,-0.21 -0.46,0 -0.92,0.05 -1.38,0.15 -0.46,0.1 -0.89,0.26 -1.28,0.49 -0.39,0.23 -0.7,0.53 -0.94,0.89 -0.24,0.36 -0.36,0.82 -0.36,1.37 0,0.46 0.11,0.84 0.34,1.15 0.23,0.31 0.51,0.58 0.86,0.8 0.35,0.22 0.73,0.4 1.14,0.54 0.41,0.14 0.79,0.25 1.14,0.34 l 2.73,0.62 c 0.58,0.09 1.16,0.24 1.74,0.47 0.58,0.23 1.08,0.53 1.53,0.89 0.44,0.37 0.81,0.82 1.09,1.37 0.28,0.54 0.42,1.18 0.42,1.92 0,0.91 -0.21,1.69 -0.62,2.32 -0.41,0.64 -0.94,1.16 -1.58,1.56 -0.64,0.4 -1.36,0.69 -2.16,0.86 -0.8,0.17 -1.59,0.26 -2.37,0.26 -1.97,0 -3.57,-0.47 -4.79,-1.4 -1.22,-0.93 -1.92,-2.43 -2.1,-4.49 h 2.05 c 0.09,1.39 0.59,2.43 1.51,3.14 0.92,0.71 2.06,1.06 3.43,1.06 0.5,0 1.01,-0.05 1.54,-0.16 0.53,-0.11 1.02,-0.29 1.48,-0.55 0.46,-0.26 0.83,-0.59 1.12,-0.99 0.29,-0.4 0.44,-0.89 0.44,-1.48 0,-0.5 -0.1,-0.92 -0.31,-1.25 -0.21,-0.34 -0.48,-0.62 -0.83,-0.85 -0.35,-0.23 -0.74,-0.42 -1.19,-0.57 -0.44,-0.15 -0.89,-0.28 -1.35,-0.39 l -2.63,-0.58 c -0.67,-0.17 -1.29,-0.37 -1.85,-0.6 -0.56,-0.23 -1.06,-0.51 -1.48,-0.84 -0.42,-0.34 -0.75,-0.75 -0.99,-1.24 -0.24,-0.49 -0.36,-1.09 -0.36,-1.8 0,-0.85 0.19,-1.57 0.57,-2.18 0.38,-0.61 0.87,-1.09 1.48,-1.46 0.61,-0.37 1.28,-0.64 2.03,-0.81 0.75,-0.17 1.49,-0.26 2.23,-0.26 0.84,0 1.63,0.11 2.36,0.33 0.73,0.22 1.37,0.55 1.92,1.01 0.55,0.46 0.99,1.02 1.32,1.69 0.33,0.67 0.51,1.46 0.55,2.37 h -2.05 c -0.02,-0.63 -0.15,-1.18 -0.39,-1.64 z"
             id="path1015" />
          <path
             class="cls-1"
             d="m 298.49,247.54 c 0.35,-0.71 0.82,-1.3 1.41,-1.75 0.6,-0.46 1.29,-0.79 2.1,-1.01 0.8,-0.22 1.69,-0.33 2.67,-0.33 0.74,0 1.47,0.07 2.21,0.21 0.74,0.14 1.4,0.41 1.98,0.8 0.58,0.39 1.06,0.94 1.43,1.64 0.37,0.7 0.55,1.62 0.55,2.75 v 8.91 c 0,0.82 0.4,1.24 1.2,1.24 0.24,0 0.46,-0.04 0.65,-0.13 v 1.72 c -0.24,0.04 -0.45,0.08 -0.63,0.1 -0.18,0.02 -0.42,0.03 -0.7,0.03 -0.52,0 -0.94,-0.07 -1.25,-0.21 -0.31,-0.14 -0.56,-0.34 -0.73,-0.6 -0.17,-0.26 -0.29,-0.57 -0.34,-0.93 -0.05,-0.36 -0.08,-0.75 -0.08,-1.19 h -0.07 c -0.37,0.54 -0.74,1.02 -1.12,1.45 -0.38,0.42 -0.8,0.78 -1.27,1.06 -0.47,0.28 -1,0.5 -1.59,0.65 -0.6,0.15 -1.31,0.23 -2.13,0.23 -0.78,0 -1.51,-0.09 -2.19,-0.28 -0.68,-0.19 -1.28,-0.48 -1.79,-0.88 -0.51,-0.4 -0.91,-0.91 -1.2,-1.53 -0.29,-0.62 -0.44,-1.35 -0.44,-2.19 0,-1.17 0.26,-2.08 0.78,-2.75 0.52,-0.66 1.21,-1.16 2.06,-1.51 0.86,-0.35 1.82,-0.59 2.89,-0.73 1.07,-0.14 2.16,-0.28 3.27,-0.41 0.43,-0.04 0.81,-0.1 1.14,-0.16 0.33,-0.06 0.6,-0.18 0.81,-0.34 0.22,-0.16 0.38,-0.38 0.5,-0.67 0.12,-0.28 0.18,-0.65 0.18,-1.1 0,-0.69 -0.11,-1.26 -0.34,-1.71 -0.23,-0.45 -0.54,-0.8 -0.94,-1.06 -0.4,-0.26 -0.87,-0.44 -1.4,-0.54 -0.53,-0.1 -1.1,-0.15 -1.71,-0.15 -1.3,0 -2.36,0.31 -3.19,0.93 -0.82,0.62 -1.26,1.61 -1.3,2.97 h -2.05 c 0.07,-0.98 0.27,-1.82 0.62,-2.54 z m 10.24,5 c -0.13,0.24 -0.38,0.41 -0.75,0.52 -0.37,0.11 -0.69,0.18 -0.97,0.23 -0.87,0.15 -1.76,0.29 -2.68,0.41 -0.92,0.12 -1.76,0.3 -2.52,0.54 -0.76,0.24 -1.38,0.58 -1.87,1.02 -0.49,0.44 -0.73,1.08 -0.73,1.9 0,0.52 0.1,0.98 0.31,1.38 0.21,0.4 0.48,0.75 0.83,1.04 0.35,0.29 0.75,0.51 1.2,0.67 0.46,0.15 0.92,0.23 1.4,0.23 0.78,0 1.53,-0.12 2.24,-0.36 0.71,-0.24 1.34,-0.58 1.87,-1.04 0.53,-0.46 0.95,-1.01 1.27,-1.66 0.31,-0.65 0.47,-1.39 0.47,-2.21 v -2.67 z"
             id="path1017" />
          <path
             class="cls-1"
             d="m 316.95,244.94 v 2.89 h 0.06 c 0.39,-1.02 1.08,-1.84 2.08,-2.45 1,-0.62 2.09,-0.93 3.28,-0.93 1.19,0 2.15,0.15 2.94,0.46 0.79,0.3 1.42,0.73 1.9,1.28 0.48,0.55 0.81,1.23 1.01,2.03 0.2,0.8 0.29,1.7 0.29,2.7 v 10.79 h -2.05 v -10.47 c 0,-0.71 -0.07,-1.38 -0.2,-2 -0.13,-0.62 -0.36,-1.15 -0.68,-1.61 -0.32,-0.46 -0.76,-0.81 -1.32,-1.07 -0.55,-0.26 -1.24,-0.39 -2.06,-0.39 -0.82,0 -1.55,0.15 -2.19,0.44 -0.64,0.29 -1.18,0.69 -1.62,1.2 -0.44,0.51 -0.79,1.12 -1.04,1.82 -0.25,0.71 -0.38,1.47 -0.41,2.29 v 9.78 h -2.05 v -16.77 h 2.05 z"
             id="path1019" />
          <path
             class="cls-1"
             d="m 334.41,244.94 v 2.89 h 0.06 c 0.39,-1.02 1.08,-1.84 2.08,-2.45 1,-0.62 2.09,-0.93 3.28,-0.93 1.19,0 2.15,0.15 2.94,0.46 0.79,0.3 1.42,0.73 1.9,1.28 0.48,0.55 0.81,1.23 1.01,2.03 0.2,0.8 0.29,1.7 0.29,2.7 v 10.79 h -2.05 v -10.47 c 0,-0.71 -0.07,-1.38 -0.2,-2 -0.13,-0.62 -0.36,-1.15 -0.68,-1.61 -0.32,-0.46 -0.76,-0.81 -1.32,-1.07 -0.55,-0.26 -1.24,-0.39 -2.06,-0.39 -0.82,0 -1.55,0.15 -2.19,0.44 -0.64,0.29 -1.18,0.69 -1.62,1.2 -0.44,0.51 -0.79,1.12 -1.04,1.82 -0.25,0.71 -0.38,1.47 -0.41,2.29 v 9.78 h -2.05 v -16.77 h 2.05 z"
             id="path1021" />
          <path
             class="cls-1"
             d="m 351.36,256.17 c 0.21,0.79 0.54,1.5 0.99,2.13 0.46,0.63 1.03,1.15 1.72,1.56 0.69,0.41 1.53,0.62 2.5,0.62 1.5,0 2.67,-0.39 3.51,-1.17 0.85,-0.78 1.43,-1.82 1.76,-3.12 h 2.05 c -0.43,1.91 -1.23,3.38 -2.39,4.42 -1.16,1.04 -2.8,1.56 -4.92,1.56 -1.32,0 -2.46,-0.23 -3.43,-0.7 -0.96,-0.47 -1.75,-1.1 -2.36,-1.92 -0.61,-0.81 -1.06,-1.75 -1.35,-2.83 -0.29,-1.07 -0.44,-2.21 -0.44,-3.4 0,-1.11 0.15,-2.19 0.44,-3.25 0.29,-1.06 0.74,-2.01 1.35,-2.84 0.61,-0.83 1.39,-1.51 2.36,-2.02 0.96,-0.51 2.11,-0.76 3.43,-0.76 1.32,0 2.49,0.27 3.45,0.81 0.95,0.54 1.73,1.25 2.32,2.13 0.6,0.88 1.02,1.89 1.28,3.02 0.26,1.14 0.37,2.29 0.33,3.46 h -12.9 c 0,0.74 0.1,1.5 0.31,2.29 z m 10.14,-6.26 c -0.25,-0.71 -0.6,-1.35 -1.06,-1.9 -0.46,-0.55 -1.01,-1 -1.66,-1.33 -0.65,-0.33 -1.39,-0.5 -2.21,-0.5 -0.82,0 -1.59,0.17 -2.24,0.5 -0.65,0.34 -1.2,0.78 -1.66,1.33 -0.46,0.55 -0.82,1.19 -1.09,1.92 -0.27,0.73 -0.45,1.47 -0.54,2.23 h 10.86 c -0.02,-0.78 -0.16,-1.53 -0.41,-2.24 z"
             id="path1023" />
          <path
             class="cls-1"
             d="m 377.74,257.06 c 0.39,0.8 0.93,1.44 1.61,1.92 0.68,0.48 1.49,0.82 2.42,1.02 0.93,0.21 1.93,0.31 2.99,0.31 0.61,0 1.27,-0.09 1.98,-0.26 0.71,-0.17 1.38,-0.45 2,-0.83 0.62,-0.38 1.13,-0.87 1.54,-1.46 0.41,-0.6 0.62,-1.32 0.62,-2.16 0,-0.65 -0.15,-1.21 -0.44,-1.69 -0.29,-0.48 -0.67,-0.88 -1.14,-1.2 -0.47,-0.32 -0.98,-0.59 -1.54,-0.8 -0.56,-0.21 -1.12,-0.37 -1.66,-0.5 l -5.17,-1.27 c -0.67,-0.17 -1.33,-0.39 -1.97,-0.65 -0.64,-0.26 -1.2,-0.61 -1.67,-1.04 -0.48,-0.43 -0.86,-0.96 -1.15,-1.59 -0.29,-0.63 -0.44,-1.4 -0.44,-2.31 0,-0.56 0.11,-1.22 0.33,-1.98 0.22,-0.76 0.62,-1.47 1.22,-2.14 0.6,-0.67 1.41,-1.24 2.45,-1.71 1.04,-0.47 2.37,-0.7 4,-0.7 1.15,0 2.24,0.15 3.28,0.46 1.04,0.3 1.95,0.76 2.73,1.37 0.78,0.61 1.4,1.36 1.87,2.26 0.47,0.9 0.7,1.95 0.7,3.14 h -2.21 c -0.04,-0.89 -0.24,-1.66 -0.6,-2.32 -0.36,-0.66 -0.82,-1.21 -1.4,-1.66 -0.57,-0.44 -1.24,-0.78 -1.98,-1.01 -0.75,-0.23 -1.53,-0.34 -2.36,-0.34 -0.76,0 -1.49,0.08 -2.19,0.24 -0.71,0.16 -1.32,0.42 -1.85,0.78 -0.53,0.36 -0.96,0.83 -1.28,1.41 -0.33,0.59 -0.49,1.31 -0.49,2.18 0,0.54 0.09,1.01 0.28,1.41 0.18,0.4 0.44,0.74 0.76,1.02 0.33,0.28 0.7,0.51 1.12,0.68 0.42,0.17 0.87,0.31 1.35,0.42 l 5.66,1.4 c 0.82,0.22 1.6,0.48 2.32,0.8 0.73,0.31 1.37,0.7 1.92,1.17 0.55,0.47 0.99,1.04 1.3,1.71 0.31,0.67 0.47,1.49 0.47,2.44 0,0.26 -0.03,0.61 -0.08,1.04 -0.05,0.43 -0.18,0.89 -0.39,1.38 -0.21,0.49 -0.5,0.98 -0.88,1.48 -0.38,0.5 -0.9,0.95 -1.56,1.35 -0.66,0.4 -1.48,0.73 -2.45,0.97 -0.98,0.25 -2.15,0.37 -3.51,0.37 -1.36,0 -2.63,-0.16 -3.8,-0.47 -1.17,-0.31 -2.17,-0.8 -2.99,-1.45 -0.82,-0.65 -1.46,-1.48 -1.9,-2.5 -0.44,-1.02 -0.63,-2.24 -0.57,-3.67 h 2.21 c -0.02,1.19 0.16,2.19 0.55,2.99 z"
             id="path1025" />
          <path
             class="cls-1"
             d="m 396.72,244.94 4.29,14.37 h 0.07 l 4.1,-14.37 h 2.31 l 4.1,14.37 h 0.07 l 4.29,-14.37 h 2.18 l -5.4,16.77 h -2.24 l -4.13,-14.11 h -0.06 l -4.1,14.11 h -2.24 l -5.4,-16.77 h 2.18 z"
             id="path1027" />
          <path
             class="cls-1"
             d="m 422.4,238.5 v 3.28 h -2.05 v -3.28 z m 0,6.44 v 16.77 h -2.05 v -16.77 z"
             id="path1029" />
          <path
             class="cls-1"
             d="m 433,244.94 v 1.72 h -3.41 v 11.31 c 0,0.67 0.09,1.2 0.28,1.58 0.18,0.38 0.64,0.59 1.38,0.63 0.59,0 1.17,-0.03 1.76,-0.1 v 1.72 c -0.3,0 -0.61,0.01 -0.91,0.03 -0.3,0.02 -0.61,0.03 -0.91,0.03 -1.37,0 -2.32,-0.26 -2.86,-0.8 -0.54,-0.53 -0.8,-1.51 -0.78,-2.94 v -11.47 h -2.93 v -1.72 h 2.93 v -5.04 h 2.05 v 5.04 h 3.41 z"
             id="path1031" />
          <path
             class="cls-1"
             d="m 448.5,259.99 v 1.72 h -14.01 v -1.66 l 10.96,-13.39 h -10.21 v -1.72 h 12.81 v 1.46 l -11.08,13.59 h 11.54 z"
             id="path1033" />
          <path
             class="cls-1"
             d="m 452.52,256.17 c 0.21,0.79 0.54,1.5 0.99,2.13 0.46,0.63 1.03,1.15 1.72,1.56 0.69,0.41 1.53,0.62 2.5,0.62 1.5,0 2.67,-0.39 3.51,-1.17 0.85,-0.78 1.43,-1.82 1.76,-3.12 h 2.05 c -0.43,1.91 -1.23,3.38 -2.39,4.42 -1.16,1.04 -2.8,1.56 -4.92,1.56 -1.32,0 -2.46,-0.23 -3.43,-0.7 -0.96,-0.47 -1.75,-1.1 -2.36,-1.92 -0.61,-0.81 -1.06,-1.75 -1.35,-2.83 -0.29,-1.07 -0.44,-2.21 -0.44,-3.4 0,-1.11 0.15,-2.19 0.44,-3.25 0.29,-1.06 0.74,-2.01 1.35,-2.84 0.61,-0.83 1.39,-1.51 2.36,-2.02 0.96,-0.51 2.11,-0.76 3.43,-0.76 1.32,0 2.49,0.27 3.45,0.81 0.95,0.54 1.73,1.25 2.32,2.13 0.6,0.88 1.02,1.89 1.28,3.02 0.26,1.14 0.37,2.29 0.33,3.46 h -12.9 c 0,0.74 0.1,1.5 0.31,2.29 z m 10.14,-6.26 c -0.25,-0.71 -0.6,-1.35 -1.06,-1.9 -0.46,-0.55 -1.01,-1 -1.66,-1.33 -0.65,-0.33 -1.39,-0.5 -2.21,-0.5 -0.82,0 -1.59,0.17 -2.24,0.5 -0.65,0.34 -1.2,0.78 -1.66,1.33 -0.46,0.55 -0.82,1.19 -1.09,1.92 -0.27,0.73 -0.45,1.47 -0.54,2.23 h 10.86 c -0.02,-0.78 -0.16,-1.53 -0.41,-2.24 z"
             id="path1035" />
          <path
             class="cls-1"
             d="m 469.76,244.94 v 3.93 h 0.06 c 0.52,-1.37 1.33,-2.42 2.42,-3.15 1.09,-0.74 2.4,-1.07 3.92,-1.01 v 2.05 c -0.93,-0.04 -1.78,0.08 -2.54,0.37 -0.76,0.29 -1.41,0.71 -1.97,1.25 -0.56,0.54 -0.98,1.19 -1.28,1.93 -0.3,0.75 -0.46,1.57 -0.46,2.45 v 8.94 h -2.05 v -16.77 h 1.89 z"
             id="path1037" />
          <path
             class="cls-1"
             d="m 480.2,238.5 v 23.21 h -2.05 V 238.5 Z"
             id="path1039" />
          <path
             class="cls-1"
             d="m 484.55,247.54 c 0.35,-0.71 0.82,-1.3 1.41,-1.75 0.6,-0.46 1.29,-0.79 2.1,-1.01 0.8,-0.22 1.69,-0.33 2.67,-0.33 0.74,0 1.47,0.07 2.21,0.21 0.74,0.14 1.4,0.41 1.98,0.8 0.58,0.39 1.06,0.94 1.43,1.64 0.37,0.7 0.55,1.62 0.55,2.75 v 8.91 c 0,0.82 0.4,1.24 1.2,1.24 0.24,0 0.46,-0.04 0.65,-0.13 v 1.72 c -0.24,0.04 -0.45,0.08 -0.63,0.1 -0.18,0.02 -0.42,0.03 -0.7,0.03 -0.52,0 -0.94,-0.07 -1.25,-0.21 -0.31,-0.14 -0.56,-0.34 -0.73,-0.6 -0.17,-0.26 -0.29,-0.57 -0.34,-0.93 -0.05,-0.36 -0.08,-0.75 -0.08,-1.19 h -0.07 c -0.37,0.54 -0.74,1.02 -1.12,1.45 -0.38,0.42 -0.8,0.78 -1.27,1.06 -0.47,0.28 -1,0.5 -1.59,0.65 -0.6,0.15 -1.31,0.23 -2.13,0.23 -0.78,0 -1.51,-0.09 -2.19,-0.28 -0.68,-0.19 -1.28,-0.48 -1.79,-0.88 -0.51,-0.4 -0.91,-0.91 -1.2,-1.53 -0.29,-0.62 -0.44,-1.35 -0.44,-2.19 0,-1.17 0.26,-2.08 0.78,-2.75 0.52,-0.66 1.21,-1.16 2.06,-1.51 0.86,-0.35 1.82,-0.59 2.89,-0.73 1.07,-0.14 2.16,-0.28 3.27,-0.41 0.43,-0.04 0.81,-0.1 1.14,-0.16 0.33,-0.06 0.6,-0.18 0.81,-0.34 0.22,-0.16 0.38,-0.38 0.5,-0.67 0.12,-0.28 0.18,-0.65 0.18,-1.1 0,-0.69 -0.11,-1.26 -0.34,-1.71 -0.23,-0.45 -0.54,-0.8 -0.94,-1.06 -0.4,-0.26 -0.87,-0.44 -1.4,-0.54 -0.53,-0.1 -1.1,-0.15 -1.71,-0.15 -1.3,0 -2.36,0.31 -3.19,0.93 -0.82,0.62 -1.26,1.61 -1.3,2.97 h -2.05 c 0.07,-0.98 0.27,-1.82 0.62,-2.54 z m 10.24,5 c -0.13,0.24 -0.38,0.41 -0.75,0.52 -0.37,0.11 -0.69,0.18 -0.97,0.23 -0.87,0.15 -1.76,0.29 -2.68,0.41 -0.92,0.12 -1.76,0.3 -2.52,0.54 -0.76,0.24 -1.38,0.58 -1.87,1.02 -0.49,0.44 -0.73,1.08 -0.73,1.9 0,0.52 0.1,0.98 0.31,1.38 0.21,0.4 0.48,0.75 0.83,1.04 0.35,0.29 0.75,0.51 1.2,0.67 0.46,0.15 0.92,0.23 1.4,0.23 0.78,0 1.53,-0.12 2.24,-0.36 0.71,-0.24 1.34,-0.58 1.87,-1.04 0.53,-0.46 0.95,-1.01 1.27,-1.66 0.31,-0.65 0.47,-1.39 0.47,-2.21 v -2.67 z"
             id="path1041" />
          <path
             class="cls-1"
             d="m 503.01,244.94 v 2.89 h 0.06 c 0.39,-1.02 1.08,-1.84 2.08,-2.45 1,-0.62 2.09,-0.93 3.28,-0.93 1.19,0 2.15,0.15 2.94,0.46 0.79,0.3 1.42,0.73 1.9,1.28 0.48,0.55 0.81,1.23 1.01,2.03 0.2,0.8 0.29,1.7 0.29,2.7 v 10.79 h -2.05 v -10.47 c 0,-0.71 -0.07,-1.38 -0.2,-2 -0.13,-0.62 -0.36,-1.15 -0.68,-1.61 -0.32,-0.46 -0.76,-0.81 -1.32,-1.07 -0.55,-0.26 -1.24,-0.39 -2.06,-0.39 -0.82,0 -1.55,0.15 -2.19,0.44 -0.64,0.29 -1.18,0.69 -1.62,1.2 -0.44,0.51 -0.79,1.12 -1.04,1.82 -0.25,0.71 -0.38,1.47 -0.41,2.29 v 9.78 h -2.05 V 244.93 H 503 Z"
             id="path1043" />
          <path
             class="cls-1"
             d="m 531.33,261.71 v -3.19 h -0.06 c -0.22,0.54 -0.54,1.04 -0.96,1.5 -0.42,0.46 -0.91,0.84 -1.45,1.15 -0.54,0.31 -1.12,0.56 -1.74,0.73 -0.62,0.17 -1.23,0.26 -1.84,0.26 -1.28,0 -2.39,-0.23 -3.33,-0.7 -0.94,-0.47 -1.73,-1.1 -2.36,-1.92 -0.63,-0.81 -1.09,-1.75 -1.4,-2.83 -0.3,-1.07 -0.46,-2.21 -0.46,-3.4 0,-1.19 0.15,-2.32 0.46,-3.4 0.3,-1.07 0.77,-2.02 1.4,-2.83 0.63,-0.81 1.41,-1.46 2.36,-1.93 0.94,-0.48 2.05,-0.71 3.33,-0.71 0.63,0 1.24,0.08 1.84,0.23 0.6,0.15 1.15,0.38 1.67,0.7 0.52,0.31 0.98,0.7 1.38,1.15 0.4,0.46 0.71,0.99 0.93,1.59 h 0.07 v -9.62 h 2.05 v 23.21 h -1.89 z m -11.23,-5.8 c 0.21,0.86 0.53,1.62 0.98,2.29 0.44,0.67 1.01,1.22 1.71,1.64 0.7,0.42 1.53,0.63 2.5,0.63 1.08,0 2,-0.21 2.75,-0.63 0.75,-0.42 1.35,-0.97 1.82,-1.64 0.47,-0.67 0.8,-1.44 1.01,-2.29 0.21,-0.86 0.31,-1.72 0.31,-2.58 0,-0.86 -0.1,-1.73 -0.31,-2.58 -0.21,-0.86 -0.54,-1.62 -1.01,-2.29 -0.47,-0.67 -1.07,-1.22 -1.82,-1.64 -0.75,-0.42 -1.66,-0.63 -2.75,-0.63 -0.97,0 -1.81,0.21 -2.5,0.63 -0.69,0.42 -1.26,0.97 -1.71,1.64 -0.44,0.67 -0.77,1.44 -0.98,2.29 -0.21,0.86 -0.31,1.72 -0.31,2.58 0,0.86 0.1,1.73 0.31,2.58 z"
             id="path1045" />
        </g>
        <g
           id="g1057">
          <path
             class="cls-1"
             d="M7.15,95.18c.07-3.85.74-7.26,2-10.22,1.26-2.96,2.92-5.63,5-8,2.07-2.37,4.41-4.54,7-6.5,2.59-1.96,5.26-3.85,8-5.67,2.74-1.81,5.46-3.67,8.16-5.55,2.7-1.89,5.13-3.91,7.27-6.05s3.76-4.35,4.83-6.61c1.07-2.26,1.61-4.94,1.61-8.05,0-2.52-.46-4.76-1.39-6.72-.93-1.96-2.18-3.63-3.78-5-1.59-1.37-3.44-2.41-5.55-3.11-2.11-.7-4.35-1.05-6.72-1.05-3.18,0-5.91.59-8.16,1.78-2.26,1.18-4.09,2.78-5.5,4.78-1.41,2-2.43,4.29-3.05,6.89-.63,2.59-.91,5.33-.83,8.22h-7c-.08-4,.39-7.68,1.39-11.05,1-3.37,2.54-6.27,4.61-8.72,2.07-2.44,4.68-4.35,7.83-5.72,3.15-1.37,6.83-2.05,11.05-2.05,3.4,0,6.57.46,9.5,1.39,2.92.93,5.48,2.3,7.66,4.11,2.18,1.82,3.89,4.09,5.11,6.83,1.22,2.74,1.83,5.92,1.83,9.55,0,3.26-.54,6.22-1.61,8.89-1.07,2.67-2.52,5.11-4.33,7.33-1.82,2.22-3.89,4.28-6.22,6.16-2.33,1.89-4.79,3.65-7.39,5.28-1.85,1.26-4.04,2.65-6.55,4.17-2.52,1.52-4.94,3.2-7.28,5.05-2.33,1.85-4.39,3.87-6.16,6.05-1.78,2.18-2.89,4.57-3.33,7.16h43.21v6.44H7.15Z"
             id="path1049" />
          <path
             class="cls-1"
             d="M109.61,20.49c3.52,2.48,6.26,5.65,8.22,9.5,1.96,3.85,3.29,8.15,4,12.88.7,4.74,1.05,9.37,1.05,13.88s-.35,9.26-1.05,13.99c-.71,4.74-2.04,9.03-4,12.88-1.96,3.85-4.7,7-8.22,9.44-3.52,2.44-8.13,3.67-13.83,3.67s-10.22-1.22-13.77-3.67c-3.55-2.44-6.31-5.59-8.27-9.44-1.96-3.85-3.3-8.14-4-12.88-.7-4.74-1.05-9.37-1.05-13.88s.35-9.25,1.05-13.99c.7-4.74,2.04-9.03,4-12.88,1.96-3.85,4.72-7.01,8.27-9.5,3.55-2.48,8.14-3.72,13.77-3.72s10.31,1.24,13.83,3.72ZM85.12,26.1c-2.67,2.3-4.68,5.15-6.05,8.55-1.37,3.41-2.28,7.11-2.72,11.11-.44,4-.67,7.66-.67,11s.22,7.09.67,11.05c.44,3.96,1.35,7.66,2.72,11.11,1.37,3.44,3.39,6.31,6.05,8.61,2.67,2.3,6.22,3.44,10.66,3.44s8-1.15,10.66-3.44c2.67-2.29,4.68-5.16,6.05-8.61,1.37-3.44,2.28-7.14,2.72-11.11.44-3.96.67-7.64.67-11.05s-.22-7-.67-11c-.44-4-1.35-7.7-2.72-11.11-1.37-3.41-3.39-6.26-6.05-8.55-2.67-2.29-6.22-3.44-10.66-3.44s-8,1.15-10.66,3.44Z"
             id="path1051" />
          <path
             class="cls-1"
             d="M130.66,95.18c.07-3.85.74-7.26,2-10.22,1.26-2.96,2.92-5.63,5-8,2.07-2.37,4.41-4.54,7-6.5,2.59-1.96,5.26-3.85,8-5.67,2.74-1.81,5.46-3.67,8.16-5.55,2.7-1.89,5.13-3.91,7.27-6.05s3.76-4.35,4.83-6.61c1.07-2.26,1.61-4.94,1.61-8.05,0-2.52-.46-4.76-1.39-6.72-.93-1.96-2.18-3.63-3.78-5-1.59-1.37-3.44-2.41-5.55-3.11-2.11-.7-4.35-1.05-6.72-1.05-3.18,0-5.91.59-8.16,1.78-2.26,1.18-4.09,2.78-5.5,4.78-1.41,2-2.43,4.29-3.05,6.89-.63,2.59-.91,5.33-.83,8.22h-7c-.08-4,.39-7.68,1.39-11.05,1-3.37,2.54-6.27,4.61-8.72,2.07-2.44,4.68-4.35,7.83-5.72,3.15-1.37,6.83-2.05,11.05-2.05,3.4,0,6.57.46,9.5,1.39,2.92.93,5.48,2.3,7.66,4.11,2.18,1.82,3.89,4.09,5.11,6.83,1.22,2.74,1.83,5.92,1.83,9.55,0,3.26-.54,6.22-1.61,8.89-1.07,2.67-2.52,5.11-4.33,7.33-1.82,2.22-3.89,4.28-6.22,6.16-2.33,1.89-4.79,3.65-7.39,5.28-1.85,1.26-4.04,2.65-6.55,4.17-2.52,1.52-4.94,3.2-7.28,5.05-2.33,1.85-4.39,3.87-6.16,6.05-1.78,2.18-2.89,4.57-3.33,7.16h43.21v6.44h-51.2Z"
             id="path1053" />
          <path
             class="cls-1"
             d="M201.02,80.3c1,2.22,2.35,4.13,4.05,5.72,1.7,1.59,3.7,2.82,6,3.67,2.29.85,4.78,1.28,7.44,1.28,3.04,0,5.74-.57,8.11-1.72,2.37-1.15,4.4-2.7,6.11-4.66,1.7-1.96,3-4.22,3.89-6.78s1.33-5.24,1.33-8.05-.5-5.55-1.5-8c-1-2.44-2.37-4.57-4.11-6.39-1.74-1.81-3.83-3.24-6.28-4.28-2.44-1.04-5.11-1.55-8-1.55-3.55,0-6.85.8-9.88,2.39-3.04,1.59-5.52,3.87-7.44,6.83h-6l7.55-40.32h38.87v6.44h-33.99l-5,25.77.22.22c1.92-2.29,4.37-4.07,7.33-5.33,2.96-1.26,6-1.89,9.11-1.89,4,0,7.61.67,10.83,2,3.22,1.33,5.96,3.18,8.22,5.55,2.26,2.37,4,5.2,5.22,8.5,1.22,3.29,1.83,6.91,1.83,10.83s-.71,7.28-2.11,10.5c-1.41,3.22-3.33,6-5.78,8.33s-5.31,4.15-8.61,5.44c-3.29,1.29-6.79,1.94-10.5,1.94s-6.98-.54-10.05-1.61c-3.07-1.07-5.74-2.63-8-4.67-2.26-2.04-4.05-4.53-5.39-7.5-1.33-2.96-2.04-6.29-2.11-10h7c.07,2.67.61,5.11,1.61,7.33Z"
             id="path1055" />
        </g>
      </g>
    </g>
  </g>
</svg>
