<?xml version="1.0" encoding="UTF-8"?>
<svg id="Layer_2" xmlns="http://www.w3.org/2000/svg" xmlns:xlink="http://www.w3.org/1999/xlink" viewBox="0 0 29.74 26.21">
  <defs>
    <style>
      .cls-1 {
        fill: url(#linear-gradient);
      }
    </style>
    <linearGradient id="linear-gradient" x1="0" y1="13.1" x2="29.74" y2="13.1" gradientUnits="userSpaceOnUse">
      <stop offset="0" stop-color="#fff"/>
      <stop offset="1" stop-color="#fff"/>
    </linearGradient>
  </defs>
  <g id="Layer_1-2" data-name="Layer_1">
    <g id="icson">
      <path class="cls-1" d="M8.78,16c-.19.02-.49.05-.79.07-1.87.1-3.65-.18-5.19-1.33-1.19-.89-1.89-2.09-2.09-3.55-.15-1.09-.26-2.18-.36-3.27-.1-1.01-.18-2.02-.25-3.04C.05,4.13,0,3.39,0,2.65c0-.53.11-1.06.35-1.54C.77.25,1.54-.05,2.4.01c1.48.12,2.72.82,3.89,1.66,1.16.83,2.17,1.83,3.12,2.89,1.97,2.19,3.7,4.55,5.12,7.13.11.19.2.39.31.58,0,0,.02.01.04.03.02-.03.05-.06.07-.09,1.08-2.1,2.41-4.02,3.88-5.86,1.15-1.45,2.39-2.81,3.8-4.01,1.05-.89,2.18-1.64,3.5-2.08.6-.2,1.22-.33,1.86-.22.76.13,1.24.59,1.51,1.29.16.42.26.87.25,1.32-.02.88-.07,1.76-.13,2.64-.04.66-.09,1.32-.15,1.98-.06.69-.13,1.37-.2,2.06-.06.6-.13,1.21-.22,1.81-.32,2.06-1.46,3.49-3.36,4.33-.8.35-1.64.52-2.5.59-.75.06-1.49.03-2.23-.07-.03,0-.07,0-.11.02.42.1.85.2,1.27.31,1.05.29,2.05.69,2.92,1.36.67.52,1.19,1.15,1.38,2,.18.79.03,1.54-.31,2.25-.26.54-.6,1.03-1,1.48-.79.87-1.65,1.65-2.68,2.22-1.8.99-3.51.7-4.89-.83-.87-.96-1.45-2.09-1.93-3.28-.22-.54-.4-1.1-.61-1.64-.03-.09-.07-.17-.11-.25-.02,0-.04,0-.06,0-.04.09-.07.17-.11.26-.32.82-.61,1.65-.97,2.45-.44,1-1.02,1.94-1.81,2.71-.6.59-1.3,1.02-2.16,1.14-.7.09-1.36-.04-2-.31-.84-.36-1.56-.89-2.22-1.5-.7-.64-1.35-1.31-1.8-2.15-.28-.52-.48-1.06-.52-1.66-.06-.92.27-1.7.89-2.37.64-.69,1.44-1.16,2.31-1.47.8-.28,1.62-.5,2.32-.72Z"/>
    </g>
  </g>
</svg>