<svg width="40" height="41" viewBox="0 0 40 41" fill="none" xmlns="http://www.w3.org/2000/svg">
<path d="M1.66699 32.168C27.6955 42.2705 35.0638 23.7915 34.8417 14.6679C36.9558 14.0911 38.3337 12.6521 38.3337 11.1758C36.5877 12.0933 35.675 11.8325 34.802 11.1758C36.682 9.89543 36.5877 8.07006 36.5877 6.81076C35.7087 7.27153 34.0817 8.4106 32.2225 8.55681C30.9795 6.61315 27.8575 5.06476 23.4923 6.81078C19.1273 8.5568 18.2543 13.2129 19.1273 15.5409C13.54 15.5409 6.90509 9.72083 4.28604 6.81078C1.14722 11.2896 5.11821 15.7321 6.90509 17.287C5.71386 17.6432 4.28604 17.287 3.41303 16.414C3.41303 21.399 7.77811 23.398 9.52414 24.2712H6.03208C6.03208 27.7632 10.1061 29.2182 12.1432 29.5092C10.7464 30.906 5.11873 32.168 1.66699 32.168Z" fill="#DE3423"/>
</svg>
