<svg width="623" height="140" viewBox="0 0 623 140" fill="none" xmlns="http://www.w3.org/2000/svg">
<path fill-rule="evenodd" clip-rule="evenodd" d="M11.2696 94.3066C12.9199 97.5714 15.3346 100.389 18.3081 102.52C21.458 104.616 24.9913 106.068 28.7047 106.793C32.9255 107.679 37.2322 108.091 41.5444 108.02C44.4127 107.994 47.2715 107.688 50.08 107.105C53.1262 106.2 56.2036 105.285 58.6156 103.435C61.2657 101.905 63.5533 99.8193 65.3214 97.3216C67.218 94.6599 68.1894 91.4497 68.0868 88.1831C68.1805 85.7129 67.548 83.2694 66.2674 81.155C64.8903 79.1985 63.2415 77.4481 61.3707 75.9567C59.2328 74.646 56.9857 73.5225 54.6545 72.5986C52.6082 71.8324 50.5547 71.2703 48.6893 70.7597L48.6892 70.7597L48.6892 70.7597C48.3274 70.6607 47.9726 70.5636 47.6264 70.4673L25.6481 64.9883C22.6123 64.0838 19.8468 63.1689 17.3932 62.2228C14.7346 61.2493 12.3316 59.6852 10.3651 57.6484C8.23652 55.8175 6.56053 53.5187 5.46835 50.9322C4.18968 47.843 3.56319 44.5229 3.62816 41.1802C3.65349 38.2881 4.07323 35.4129 4.87575 32.6342C5.95273 29.2497 7.72311 26.1268 10.074 23.4645C12.5172 20.4183 16.1976 18.2662 20.4706 16.1869C25.0243 14.014 30.5137 13.1095 37.5521 13.1095C42.313 13.0368 47.0527 13.7571 51.5771 15.2408C55.8312 16.2929 59.7979 18.278 63.1901 21.0525C66.5538 23.6391 69.2726 26.9699 71.133 30.7836C73.2932 34.9521 74.3424 39.6071 74.1792 44.2992H64.6976C64.7236 40.7901 63.8807 37.329 62.244 34.2249C60.708 31.483 58.6235 29.087 56.1204 27.1864C53.5759 25.2298 50.6777 23.7825 47.5848 22.9238C44.3207 21.918 40.9261 21.3995 37.5106 21.3852C34.3289 21.3939 31.1548 21.6966 28.0289 22.2897C25.1782 22.815 22.4711 23.9382 20.0859 25.5854C17.8835 27.2591 16.0205 29.3374 14.5965 31.7089C13.1761 34.5558 12.4459 37.6972 12.4652 40.8787C12.4029 42.9866 12.8225 45.081 13.692 47.0023C14.4556 48.6705 15.607 50.132 17.0501 51.2649C18.5093 52.5351 20.1625 53.5636 21.9469 54.3111C23.8176 55.1027 25.7604 55.712 27.7482 56.1305L51.8578 62.254C55.2913 63.1331 58.6579 64.2553 61.9321 65.6121C64.8804 66.879 67.649 68.5289 70.1661 70.5193C72.5754 72.4483 74.4627 74.9504 75.6555 77.7969C77.0459 81.0879 77.7736 84.6208 77.7972 88.1935C77.8214 89.7282 77.7136 91.2621 77.4749 92.7783C77.1013 94.8782 76.4909 96.929 75.6555 98.8915C74.6773 101.158 73.4462 103.306 71.9855 105.296C70.094 107.601 67.8227 109.567 65.2694 111.107C62.06 113.019 58.5417 114.356 54.8728 115.058C49.9508 116.12 44.9266 116.636 39.8914 116.597C34.4182 116.722 28.9575 116.021 23.6935 114.518C19.0619 113.348 14.713 111.258 10.9058 108.373C7.36255 105.581 4.64267 101.88 3.03556 97.6647C1.04053 92.7213 0.204746 87.3865 0.592366 82.0699H10.074C9.03524 86.1636 9.4581 90.4914 11.2696 94.3066ZM129.105 52.5011C126.059 49.455 121.162 47.9163 115.361 47.9163C111.517 47.8424 107.723 48.7971 104.372 50.6818C101.243 52.4165 98.5315 54.8154 96.4286 57.7098C94.3251 60.7054 92.6751 63.9949 91.5319 67.4722C90.578 71.0599 90.0613 74.7497 89.9932 78.4614C89.9985 82.1743 90.5163 85.8688 91.5319 89.4401C92.4686 92.9989 94.1363 96.3237 96.4286 99.2025C98.5523 102.081 101.259 104.479 104.372 106.241C107.728 108.112 111.518 109.065 115.361 109.006C117.976 108.979 120.563 108.454 122.981 107.457C125.399 106.516 127.584 105.062 129.386 103.195C131.25 101.322 132.798 99.159 133.971 96.7905C135.305 94.2414 136.018 91.4128 136.05 88.5356H144.897C143.681 97.3831 140.635 104.13 135.426 109.006C130.217 113.882 123.522 116.284 115.267 116.284C110.21 116.427 105.19 115.384 100.608 113.238C96.5571 111.384 92.9487 108.687 90.0244 105.326C87.0833 101.861 84.9206 97.8053 83.6825 93.4324C82.1768 88.6948 81.4534 83.7436 81.5408 78.7733C81.6084 73.8141 82.3284 68.8853 83.6825 64.1141C85.0643 59.8006 87.2127 55.7716 90.0244 52.2204C93.0245 48.8131 96.6487 46.0112 100.702 43.9656C105.283 41.8176 110.303 40.7743 115.361 40.9194C122.371 40.7893 129.233 42.9381 134.917 47.043C140.406 50.9936 143.452 57.1172 144.398 65.3721H135.509C134.626 59.5292 132.463 55.5473 129.105 52.5011ZM154.556 53.416C156.02 50.3929 158.16 47.7469 160.81 45.6828C163.46 43.6187 166.549 42.1916 169.839 41.512C173.536 40.6117 177.336 40.2027 181.14 40.2956C184.321 40.3043 187.496 40.6071 190.621 41.2001C193.647 41.7924 196.539 42.9303 199.157 44.5582C201.755 46.3581 203.872 48.7677 205.322 51.5759C207.056 55.2951 207.896 59.368 207.776 63.4695V101.656C207.776 105.326 209.595 106.854 212.974 106.854C213.936 106.974 214.911 106.765 215.74 106.262V113.539C215.238 113.539 214.644 113.633 214.106 113.718C213.662 113.787 213.256 113.851 212.974 113.851H209.928C208.15 113.924 206.378 113.615 204.73 112.947C203.47 112.376 202.382 111.486 201.574 110.364C200.766 109.242 200.266 107.928 200.124 106.553C199.854 104.935 199.749 103.295 199.812 101.656H199.5C198.031 103.826 196.39 105.873 194.593 107.78C193.045 109.617 191.187 111.168 189.104 112.365C187.003 113.589 184.743 114.516 182.387 115.12C179.378 115.786 176.3 116.094 173.218 116.035C170.014 116.097 166.818 115.683 163.736 114.808C161.001 114.031 158.42 112.789 156.105 111.138C153.96 109.373 152.193 107.195 150.907 104.733C149.632 101.735 149.015 98.4984 149.098 95.2414C149.098 90.3446 150.002 86.3939 152.456 83.3477C154.789 80.4711 157.842 78.2619 161.303 76.9435C165.232 75.4218 169.336 74.3984 173.519 73.8973C175.147 73.6869 176.773 73.4725 178.412 73.2566L178.412 73.2566C181.389 72.8643 184.406 72.4668 187.544 72.0779C189.191 72.036 190.831 71.8376 192.441 71.4853C193.641 71.1706 194.777 70.6499 195.799 69.9466C196.753 69.2342 197.494 68.2742 197.941 67.1707C198.612 65.6288 198.921 63.9538 198.845 62.2739C198.917 59.7603 198.39 57.2657 197.306 54.9963C196.419 53.1449 195.056 51.5626 193.356 50.4114C191.453 49.3629 189.38 48.659 187.232 48.3321C184.824 47.9571 182.392 47.7591 179.955 47.7395C174.455 47.7395 169.87 48.9559 166.2 51.6902C162.53 54.4245 160.711 58.7183 160.711 64.53H151.853C151.989 60.6802 152.909 56.8986 154.556 53.416ZM198.221 75.1033C197.88 75.6351 197.435 76.0931 196.914 76.4502C196.393 76.8073 195.805 77.0564 195.186 77.1826C193.885 77.5682 192.562 77.8737 191.224 78.0975C189.893 78.3125 188.524 78.5317 187.145 78.7524C184.724 79.1401 182.272 79.5327 179.934 79.9169C176.331 80.3658 172.764 81.0605 169.257 81.9962C166.316 82.7859 163.597 84.2447 161.314 86.2588C159.234 88.0782 158.278 90.8437 158.278 94.2017C158.195 96.3461 158.608 98.4806 159.484 100.44C160.444 102.164 161.688 103.715 163.164 105.025C164.687 106.295 166.457 107.237 168.362 107.79C170.35 108.383 172.412 108.688 174.486 108.695C177.706 108.667 180.904 108.148 183.968 107.156C186.95 106.293 189.669 104.699 191.879 102.519C194.044 100.455 195.897 98.088 197.379 95.4909C198.857 92.5547 199.572 89.2942 199.459 86.0093V74.7498L198.159 75.1033H198.221ZM229.318 114.144V14.9295H220.471V114.144H229.318ZM246.904 45.6636C244.254 47.7277 242.114 50.3736 240.65 53.3968L240.671 53.4176C239.038 57.0455 238.026 60.9219 237.677 64.885H246.524C246.524 59.0733 248.333 54.7795 252.014 52.0452C255.694 49.311 260.269 48.0946 265.768 48.0946C268.206 48.1088 270.638 48.3069 273.046 48.6872C275.194 49.0123 277.268 49.7163 279.17 50.7665C280.872 51.9149 282.236 53.498 283.12 55.3514C284.203 57.6207 284.731 60.1154 284.659 62.6289C284.734 64.3088 284.425 65.9835 283.754 67.5257C283.306 68.6255 282.565 69.5817 281.613 70.2912C280.603 70.9709 279.485 71.4736 278.307 71.7779C276.697 72.1302 275.057 72.3287 273.41 72.3705C270.284 72.7587 267.27 73.1556 264.296 73.5472C262.651 73.7638 261.018 73.9788 259.385 74.1899C255.177 74.6817 251.049 75.7017 247.096 77.2257C243.634 78.5441 240.582 80.7534 238.249 83.63C235.805 86.6762 234.891 90.6269 234.891 95.5237C234.813 98.7779 235.433 102.011 236.71 105.005C237.998 107.466 239.765 109.643 241.908 111.41C244.223 113.061 246.804 114.302 249.539 115.08C252.622 115.954 255.817 116.368 259.021 116.306C262.1 116.365 265.174 116.058 268.18 115.391C270.536 114.788 272.796 113.861 274.897 112.636C276.933 111.369 278.783 109.826 280.396 108.052C282.187 106.142 283.824 104.095 285.293 101.928H285.605C285.543 103.567 285.648 105.207 285.917 106.825C286.238 108.136 286.839 109.362 287.679 110.419C288.519 111.476 289.578 112.339 290.783 112.948C292.431 113.617 294.203 113.925 295.981 113.853H299.027C299.309 113.853 299.715 113.789 300.159 113.719C300.697 113.634 301.291 113.541 301.792 113.541V106.263C300.964 106.767 299.989 106.976 299.027 106.856C295.648 106.856 293.829 105.328 293.829 101.658V63.4711C293.949 59.3695 293.108 55.2967 291.375 51.5774C289.939 48.7664 287.837 46.3498 285.252 44.5389C282.634 42.911 279.741 41.7731 276.716 41.1808C273.59 40.5878 270.416 40.285 267.234 40.2763C263.43 40.1841 259.631 40.5931 255.933 41.4927C252.644 42.1724 249.554 43.5994 246.904 45.6636ZM283.002 76.4299C283.525 76.0729 283.971 75.6154 284.316 75.084V75.1048L285.293 74.7513V86.0108C285.392 89.3016 284.655 92.5636 283.151 95.4925C281.669 98.0869 279.82 100.454 277.662 102.521C275.46 104.693 272.752 106.283 269.781 107.147C266.718 108.14 263.52 108.659 260.3 108.686C258.229 108.678 256.171 108.373 254.187 107.781C252.284 107.223 250.515 106.282 248.988 105.016C247.498 103.713 246.239 102.166 245.266 100.441C244.38 98.4775 243.961 96.3354 244.04 94.1825C244.04 90.8244 245.006 88.0589 247.086 86.2395C249.369 84.2255 252.088 82.7666 255.029 81.9769C258.635 81.0135 262.309 80.3185 266.018 79.8976C268.465 79.4955 271.037 79.0842 273.571 78.679C274.837 78.4766 276.093 78.2757 277.319 78.0782C278.677 77.9908 280.011 77.6817 281.27 77.1633C281.89 77.0362 282.479 76.7868 283.002 76.4299Z" fill="white"/>
<path fill-rule="evenodd" clip-rule="evenodd" d="M367.685 14.9298C373.826 14.8478 379.93 15.8799 385.703 17.976C391.192 20.1073 396.099 22.8728 400.039 27.1354C404.191 31.5355 407.416 36.7258 409.521 42.3975C411.842 49.2813 412.977 56.5091 412.879 63.7729C412.937 70.5875 412.005 77.3744 410.114 83.9214C408.437 89.7094 405.632 95.1085 401.859 99.8074C398.081 104.343 393.272 107.908 387.834 110.204C381.571 112.895 374.813 114.241 367.997 114.155H325.247V14.9298H367.685ZM366.178 95.8463C369.294 95.7964 372.386 95.2777 375.348 94.3076C378.316 93.2714 381.023 91.6004 383.28 89.4108C385.597 86.6718 387.455 83.575 388.78 80.241C390.199 75.7015 390.918 70.9722 390.911 66.2161C390.922 61.6941 390.405 57.1862 389.373 52.7837C388.557 48.9893 386.882 45.4326 384.476 42.3871C382.344 39.341 379.277 37.48 375.618 35.6606C371.958 33.8412 367.685 33.2174 362.186 33.2174H346.591V95.8047C346.975 95.8463 366.178 95.8463 366.178 95.8463ZM420.573 52.8139C422.598 49.7894 425.318 47.2939 428.506 45.5363C431.839 43.6754 435.441 42.3427 439.183 41.5856C443.088 40.7254 447.078 40.3138 451.077 40.3589C454.754 40.3656 458.426 40.6681 462.055 41.2634C465.549 41.7754 468.947 42.8019 472.14 44.3095C475.061 45.8255 477.651 47.907 479.761 50.4331C481.84 53.1986 482.807 56.5567 482.807 60.8297V97.987C482.7 101.052 482.898 104.12 483.399 107.146C483.711 110.193 484.314 112.345 485.479 113.863H465.382C465.088 113.009 464.821 111.915 464.53 110.721L464.478 110.504C464.315 109.836 464.234 109.2 464.154 108.569V108.569C464.081 107.992 464.009 107.42 463.875 106.834C460.796 109.908 457.034 112.209 452.896 113.551C448.643 114.862 444.225 115.562 439.775 115.63C436.571 115.712 433.372 115.298 430.294 114.403C427.427 113.582 424.735 112.243 422.351 110.452C420.126 108.642 418.348 106.344 417.153 103.736C415.875 100.742 415.254 97.5089 415.333 94.2546C415.172 90.7697 415.906 87.3015 417.464 84.1804C418.788 81.6562 420.669 79.4662 422.964 77.7761C425.392 76.1246 428.076 74.8846 430.907 74.1061C433.795 73.2228 436.767 72.6409 439.775 72.3699C442.707 71.9148 445.66 71.6129 448.623 71.4654C451.197 71.2775 453.75 70.867 456.254 70.2386C458.166 69.8731 459.955 69.029 461.452 67.785C462.077 67.2036 462.564 66.4906 462.879 65.6976C463.193 64.9046 463.328 64.0514 463.272 63.2001C463.38 61.5171 463.066 59.8337 462.357 58.3033C461.702 57.0776 460.756 56.0315 459.602 55.2571C458.395 54.5471 457.038 54.1304 455.641 54.0407C454.024 53.7622 452.383 53.6542 450.744 53.7184C446.793 53.7184 443.716 54.6333 441.584 56.172C440.402 57.2105 439.442 58.4769 438.762 59.8954C438.081 61.3138 437.694 62.8551 437.623 64.4269H417.87C417.239 60.3521 418.207 56.1912 420.573 52.8139ZM459.331 80.5935C458.052 81.0407 456.727 81.3475 455.381 81.5084C453.876 81.8589 452.34 82.0574 450.796 82.101C449.151 82.1783 447.515 82.3763 445.899 82.6936C445.586 82.7572 445.274 82.8194 444.965 82.8809L444.964 82.8811C443.758 83.1217 442.603 83.3519 441.626 83.6085C441.337 83.72 441.058 83.8215 440.791 83.919L440.791 83.9191C439.637 84.3398 438.69 84.6852 437.956 85.4279C437.762 85.6244 437.553 85.8198 437.341 86.0178L437.341 86.0178C436.566 86.7421 435.756 87.5003 435.502 88.4637C434.861 89.905 434.552 91.4719 434.598 93.0486C434.584 94.6226 434.892 96.1827 435.502 97.6335C436.088 98.8497 437.061 99.8371 438.268 100.441C439.489 101.171 440.825 101.692 442.219 101.979C443.732 102.239 445.269 102.344 446.804 102.291C450.765 102.291 453.842 101.699 455.973 100.212C457.942 99.0885 459.62 97.5179 460.87 95.627C461.768 93.8739 462.382 91.9895 462.689 90.044C462.93 88.5281 463.034 86.9937 463.001 85.4591V78.1815C462.099 79.3916 460.8 80.2456 459.331 80.5935ZM520.505 135.56C516.554 138.003 511.335 139.23 504.619 139.23C502.573 139.281 500.526 139.177 498.495 138.918C496.443 138.854 494.397 138.653 492.372 138.315V122.117C494.32 122.195 496.261 122.397 498.183 122.72C500.117 122.877 502.061 122.877 503.995 122.72C506.75 122.398 508.569 121.494 509.796 119.674C510.993 117.974 511.629 115.942 511.616 113.863C511.601 112.291 511.294 110.737 510.711 109.278L485.655 42.1159H506.449L522.646 91.2604H522.958L538.844 42.3966H559.305L529.394 123.001C527.221 128.844 524.144 133.107 520.505 135.56ZM580.326 99.8386C578.977 98.8473 577.836 97.6003 576.968 96.1686C576.447 95.2817 576.105 94.3016 575.756 93.2999C575.499 92.5637 575.239 91.8158 574.899 91.0847H556.29C556.601 95.9399 557.568 99.9321 559.648 102.978C561.631 106.024 564.23 108.62 567.279 110.599C570.609 112.46 574.207 113.793 577.946 114.55C581.956 115.41 586.05 115.822 590.151 115.776C594.15 115.822 598.14 115.41 602.045 114.55C605.777 114.086 609.343 112.731 612.441 110.599C615.453 108.691 617.952 106.075 619.719 102.978C621.681 99.33 622.636 95.2245 622.484 91.0847C622.538 88.1773 621.82 85.3076 620.405 82.7674C619.16 80.4157 617.348 78.4112 615.134 76.9349C612.91 75.3448 610.456 74.1037 607.857 73.2546C605.176 72.2157 602.415 71.3986 599.602 70.8114C598.219 70.515 596.846 70.2083 595.474 69.9016C594.102 69.5949 592.729 69.2883 591.347 68.992C588.904 68.3994 586.45 67.7652 584.319 67.1726C582.575 66.4932 580.942 65.5576 579.474 64.3967C578.785 63.9256 578.228 63.2874 577.853 62.5418C577.478 61.7963 577.299 60.9678 577.332 60.1341C577.332 58.5954 577.332 57.3686 578.247 56.4537C578.96 55.5196 579.917 54.8002 581.013 54.3744C582.15 53.7952 583.406 53.4858 584.683 53.4699C585.89 53.2281 587.121 53.12 588.353 53.1476C591.521 53.1912 594.645 53.8996 597.522 55.2269C599.976 56.4537 601.473 58.9073 601.795 62.858H620.405C620.156 58.9836 619.006 55.2207 617.047 51.8688C615.351 48.9546 612.925 46.5324 610.009 44.8408C606.916 43.1858 603.615 41.9549 600.194 41.1812C596.462 40.571 592.686 40.265 588.904 40.2663C585.118 40.276 581.34 40.5819 577.603 41.1812C574.048 41.7602 570.635 43.0015 567.539 44.8408C564.69 46.6197 562.283 49.023 560.5 51.8688C558.65 54.6343 557.735 58.5954 557.735 63.1699C557.748 65.9585 558.486 68.6956 559.876 71.1129C561.017 73.4271 562.828 75.3438 565.075 76.6127C567.382 77.9725 569.82 79.0975 572.352 79.9707C573.387 80.1996 574.479 80.5012 575.626 80.8179C577.188 81.2491 578.851 81.7084 580.607 82.05C586.204 83.1764 591.711 84.7087 597.086 86.6349C601.078 88.1528 603.209 90.3049 603.209 93.3511C603.27 94.867 602.839 96.3619 601.982 97.6137C601.215 98.7761 600.167 99.727 598.936 100.379C596.403 101.722 593.59 102.451 590.723 102.51C588.87 102.607 587.013 102.407 585.223 101.918C583.457 101.596 581.785 100.886 580.326 99.8386Z" fill="white"/>
<path d="M482.12 0.90918H485.981L492.696 17.3041H492.943L499.658 0.90918H503.519V22.0001H500.492V6.73802H500.296L494.076 21.9692H491.563L485.343 6.72772H485.147V22.0001H482.12V0.90918Z" fill="white"/>
<path d="M515.728 22.0001H512.35L519.94 0.90918H523.616L531.206 22.0001H527.828L521.865 4.74014H521.701L515.728 22.0001ZM516.294 13.7409H527.251V16.4184H516.294V13.7409Z" fill="white"/>
<path d="M546.879 22.0001H540.052V0.90918H547.096C549.162 0.90918 550.937 1.33141 552.42 2.17587C553.903 3.01346 555.039 4.21836 555.829 5.79057C556.625 7.35591 557.023 9.23364 557.023 11.4237C557.023 13.6207 556.622 15.5087 555.818 17.0878C555.022 18.6669 553.869 19.8821 552.358 20.7334C550.848 21.5779 549.021 22.0001 546.879 22.0001ZM543.234 19.2195H546.704C548.311 19.2195 549.646 18.9175 550.71 18.3133C551.775 17.7023 552.571 16.82 553.1 15.6666C553.628 14.5064 553.893 13.0921 553.893 11.4237C553.893 9.76915 553.628 8.36515 553.1 7.21174C552.578 6.05833 551.799 5.18297 550.762 4.58567C549.725 3.98837 548.438 3.68972 546.9 3.68972H543.234V19.2195Z" fill="white"/>
<path d="M566.78 22.0001V0.90918H574.298C575.932 0.90918 577.288 1.19067 578.366 1.75364C579.451 2.31661 580.261 3.09585 580.796 4.09135C581.332 5.07999 581.6 6.2231 581.6 7.52069C581.6 8.81141 581.328 9.94765 580.786 10.9294C580.251 11.9043 579.44 12.663 578.356 13.2053C577.278 13.7477 575.922 14.0189 574.288 14.0189H568.593V11.2796H573.999C575.029 11.2796 575.867 11.132 576.512 10.8367C577.164 10.5415 577.642 10.1124 577.944 9.54945C578.246 8.98648 578.397 8.31022 578.397 7.52069C578.397 6.72428 578.242 6.0343 577.933 5.45073C577.631 4.86716 577.154 4.4209 576.502 4.11195C575.857 3.79614 575.009 3.63823 573.958 3.63823H569.963V22.0001H566.78ZM577.192 12.4845L582.403 22.0001H578.778L573.67 12.4845H577.192Z" fill="white"/>
<path d="M594.454 0.90918V22.0001H591.272V0.90918H594.454Z" fill="white"/>
<path d="M611.716 22.0001H604.888V0.90918H611.932C613.999 0.90918 615.773 1.33141 617.256 2.17587C618.739 3.01346 619.876 4.21836 620.665 5.79057C621.462 7.35591 621.86 9.23364 621.86 11.4237C621.86 13.6207 621.458 15.5087 620.655 17.0878C619.858 18.6669 618.705 19.8821 617.195 20.7334C615.684 21.5779 613.858 22.0001 611.716 22.0001ZM608.07 19.2195H611.541C613.147 19.2195 614.483 18.9175 615.547 18.3133C616.611 17.7023 617.407 16.82 617.936 15.6666C618.465 14.5064 618.729 13.0921 618.729 11.4237C618.729 9.76915 618.465 8.36515 617.936 7.21174C617.414 6.05833 616.635 5.18297 615.598 4.58567C614.562 3.98837 613.274 3.68972 611.737 3.68972H608.07V19.2195Z" fill="white"/>
</svg>
