<svg width="239" height="134" viewBox="0 0 239 134" fill="none" xmlns="http://www.w3.org/2000/svg">
<path d="M74.1266 98.1737V80.4307H71.3869V87.0671C71.3869 87.1656 71.3278 87.2443 71.2293 87.2837C71.1307 87.3231 71.0322 87.2837 70.973 87.2246C70.0467 86.1415 68.6079 85.5114 67.0114 85.5114C63.6411 85.5114 61 88.3471 61 91.9902C61 93.7626 61.611 95.4167 62.7344 96.618C63.8579 97.8192 65.3755 98.4691 67.0311 98.4691C68.5882 98.4691 70.027 97.8192 70.9927 96.6967C71.0519 96.618 71.1701 96.5983 71.249 96.618C71.3475 96.6574 71.4066 96.7361 71.4066 96.8346V98.154H74.1266V98.1737ZM67.6421 95.9878C65.4741 95.9878 63.7593 94.2352 63.7593 91.9902C63.7593 89.7453 65.4741 87.9926 67.6421 87.9926C69.8102 87.9926 71.5249 89.7453 71.5249 91.9902C71.5249 94.2352 69.8102 95.9878 67.6421 95.9878ZM88.7313 98.1737V85.8068H86.0311V87.0474C86.0311 87.1459 85.972 87.2246 85.8734 87.264C85.7749 87.3034 85.6763 87.264 85.6172 87.1852C84.6909 86.0825 83.2915 85.4917 81.6556 85.4917C78.2853 85.4917 75.6245 88.3471 75.6245 91.9705C75.6245 95.594 78.2656 98.4494 81.6556 98.4494C83.2127 98.4494 84.6712 97.7995 85.6172 96.6574C85.6763 96.5786 85.7946 96.5589 85.8734 96.5786C85.972 96.618 86.0311 96.6967 86.0311 96.7952V98.1343H88.7313V98.1737ZM82.2666 95.9878C80.0985 95.9878 78.3838 94.2352 78.3838 91.9902C78.3838 89.7453 80.0985 87.9926 82.2666 87.9926C84.4346 87.9926 86.1494 89.7453 86.1494 91.9902C86.1494 94.2352 84.4346 95.9878 82.2666 95.9878ZM111.89 98.1737V85.8068H109.19V87.0474C109.19 87.1459 109.131 87.2246 109.032 87.264C108.934 87.3034 108.835 87.264 108.776 87.1852C107.85 86.0825 106.45 85.4917 104.814 85.4917C101.444 85.4917 98.7832 88.3471 98.7832 91.9705C98.7832 95.594 101.424 98.4494 104.814 98.4494C106.371 98.4494 107.83 97.7995 108.776 96.6574C108.835 96.5786 108.953 96.5589 109.032 96.5786C109.131 96.618 109.19 96.6967 109.19 96.7952V98.1343H111.89V98.1737ZM105.425 95.9878C103.257 95.9878 101.543 94.2352 101.543 91.9902C101.543 89.7453 103.257 87.9926 105.425 87.9926C107.593 87.9926 109.308 89.7453 109.308 91.9902C109.308 94.2352 107.593 95.9878 105.425 95.9878ZM116.857 96.6967C116.877 96.6967 116.916 96.6771 116.936 96.6771C116.995 96.6771 117.074 96.7164 117.113 96.7558C118.039 97.8389 119.478 98.4691 121.075 98.4691C124.445 98.4691 127.106 95.6137 127.106 91.9902C127.106 90.2179 126.495 88.5637 125.371 87.3625C124.248 86.1612 122.73 85.5114 121.075 85.5114C119.518 85.5114 118.079 86.1612 117.113 87.2837C117.054 87.3625 116.955 87.3822 116.857 87.3625C116.758 87.3231 116.699 87.2443 116.699 87.1459V80.4504H113.96V98.1934H116.699V96.9528C116.699 96.8149 116.758 96.7361 116.857 96.6967ZM116.581 91.9902C116.581 89.7453 118.296 87.9926 120.464 87.9926C122.632 87.9926 124.346 89.7453 124.346 91.9902C124.346 94.2352 122.632 95.9878 120.464 95.9878C118.276 95.9878 116.581 94.2352 116.581 91.9902ZM131.343 92.7385V98.1737H128.604V85.8068H131.304V87.3231C131.304 87.4216 131.383 87.52 131.481 87.5397C131.58 87.5594 131.698 87.52 131.738 87.4412C132.427 86.2794 133.748 85.5508 135.147 85.5508C135.325 85.5508 135.522 85.5705 135.601 85.5901V88.3865C135.443 88.3471 135.187 88.3274 134.93 88.3274C132.723 88.3471 131.343 90.021 131.343 92.7385ZM140.094 85.8068V98.154H137.335V85.8068H140.094ZM140.351 82.1243C140.351 83.0498 139.602 83.7981 138.675 83.7981C137.749 83.7981 137 83.0498 137 82.1243C137 81.1987 137.749 80.4504 138.675 80.4504C139.602 80.4504 140.351 81.1987 140.351 82.1243ZM153.28 87.4609L151.546 89.0954C150.56 88.3668 149.535 88.0123 148.451 88.0123C146.165 88.0123 144.45 89.7256 144.45 91.9902C144.45 94.2549 146.165 95.9681 148.451 95.9681C149.456 95.9681 150.481 95.6137 151.605 94.885L153.162 96.5195C150.915 98.1737 149.713 98.4691 148.175 98.4691C146.323 98.4691 144.647 97.8192 143.484 96.6377C142.322 95.4561 141.671 93.8216 141.671 91.9902C141.671 88.229 144.43 85.5114 148.215 85.5114C149.417 85.5114 151.27 85.7083 153.28 87.4609ZM157.458 93.1718C157.419 93.2112 157.38 93.2702 157.38 93.349V98.154H154.64V80.411H157.38V90.1194C157.38 90.2179 157.439 90.2967 157.518 90.3361C157.616 90.3754 157.715 90.3558 157.774 90.277L162.248 85.7871H165.579L160.376 90.9859C160.297 91.0647 160.277 91.2025 160.356 91.301L166.012 98.1343H162.642L158.267 92.7189C158.227 92.6598 158.168 92.6401 158.089 92.6401H158.069C158.01 92.6401 157.951 92.6598 157.912 92.6992L157.458 93.1718ZM165.756 95.4167L167.964 94.2549C168.437 95.4167 169.422 96.1257 170.526 96.1257C171.354 96.1257 172.319 95.7515 172.319 94.7078C172.319 93.9989 171.886 93.5853 170.802 93.2506L169.284 92.7582C167.175 92.0887 166.15 90.9268 166.15 89.2136C166.15 87.0474 167.924 85.472 170.388 85.472C172.319 85.472 174.015 86.496 174.823 88.1699L172.635 89.3514C172.122 88.3077 171.314 87.7169 170.408 87.7169C169.462 87.7169 168.791 88.229 168.791 88.9773C168.791 89.6271 169.284 90.0997 170.27 90.4345L171.768 90.9268C173.936 91.6358 175 92.7976 175 94.4912C175 97.0709 172.733 98.4297 170.487 98.4297C168.299 98.4691 166.505 97.3072 165.756 95.4167ZM92.3382 94.0186V88.2683C92.3382 88.1305 92.2396 88.032 92.1017 88.032H90.1898V85.8068H92.1017C92.2396 85.8068 92.3382 85.7083 92.3382 85.5705V81.9864H95.0581V85.5705C95.0581 85.7083 95.1566 85.8068 95.2946 85.8068H97.9554V88.032H95.2946C95.1566 88.032 95.0581 88.1305 95.0581 88.2683V93.349C95.0581 95.7318 95.9056 95.9287 97.0093 95.9287C97.4035 95.9287 98.0145 95.8894 98.389 95.8303V98.1934C97.9554 98.2525 97.167 98.3312 96.3195 98.3312C95.2158 98.3509 92.3382 98.3509 92.3382 94.0186Z" fill="black"/>
<path d="M131.836 49.8285L116.975 58.1781L101.07 49.2377L100.321 49.671V56.1695L116.975 65.5235L131.836 57.1541V60.62L116.975 68.9697L101.07 60.0489L100.321 60.4625V61.5653L116.975 70.9192L133.63 61.5653V55.0667L132.861 54.6532L116.975 63.5739L102.094 55.2243V51.7781L116.975 60.1277L133.63 50.7737V44.3737L132.782 43.901L116.975 52.7824L102.883 44.866L116.975 36.9496L128.564 43.4678L129.609 42.8967V42.109L116.975 35L100.321 44.3737V45.378L116.975 54.7319L131.836 46.3626V49.8285Z" fill="#EE3D2C"/>
</svg>
