<svg width="239" height="134" viewBox="0 0 239 134" fill="none" xmlns="http://www.w3.org/2000/svg">
<path d="M93.6242 86.6318C93.0673 87.1888 92.5061 87.7415 91.9449 88.2985C90.6141 87.7713 89.2238 87.125 87.7952 87.7118C86.7323 88.1157 86.3921 89.7908 87.4763 90.3649C89.0069 91.0196 91.0647 90.8622 92.4636 91.7636C94.2748 93.0477 94.3598 96.2832 92.7187 97.7373C91.2816 99.0765 89.1515 99.2423 87.2935 99.034C85.8437 98.8639 84.7637 98.1454 83.5435 97.4184C84.1132 96.8444 84.683 96.2704 85.2527 95.7007C86.8768 96.4319 88.3777 97.0952 90.1889 96.483C91.3028 96.1259 91.5495 94.6675 90.7884 93.8555C89.2578 93.0264 86.7025 93.3453 85.3165 92.1165C83.4457 90.386 83.9729 86.8954 86.2858 85.7772C88.7731 84.5825 91.4091 85.1395 93.6242 86.6318Z" fill="#6F6E6E"/>
<path d="M128.96 85.2628C129.87 85.2628 130.775 85.2628 131.681 85.2628C131.685 89.8419 131.685 94.421 131.681 98.9958C130.775 98.9958 129.87 98.9958 128.964 98.9958C128.96 94.421 128.96 89.8419 128.96 85.2628Z" fill="#6F6E6E"/>
<path d="M110.622 86.3766C111.545 87.1845 111.949 88.4302 112.459 89.5144C111.571 89.5229 110.686 89.5314 109.798 89.5314C109.36 88.9532 108.913 88.2729 108.339 87.8222C107.111 87.21 105.308 87.5884 104.904 89.0424C104.513 90.8197 104.53 93.4047 104.891 95.1861C105.27 96.7125 107.136 97.0399 108.39 96.4021C109.381 95.9727 109.487 94.5569 109.81 93.6428C108.888 93.6173 107.965 93.596 107.043 93.579C107.072 92.8349 107.068 92.0994 107.043 91.3554C108.811 91.3554 110.58 91.3554 112.349 91.3597C112.276 93.1028 112.514 95.4455 111.477 96.9421C109.632 99.6844 105.163 99.8545 103.059 97.329C101.889 96.028 101.949 93.9362 101.902 92.2908C101.936 90.6538 101.847 88.4599 102.91 87.1079C104.657 84.7482 108.437 84.5187 110.622 86.3766Z" fill="#6F6E6E"/>
<path d="M115.146 85.3436C115.92 85.2543 116.711 85.2458 117.489 85.2245C119.3 88.0434 121.15 90.841 122.995 93.6386C123.008 90.8495 123.003 88.0562 123.003 85.2628C123.909 85.2628 124.815 85.2628 125.72 85.2628C125.72 89.8461 125.72 94.4294 125.72 99.0085C124.904 98.9915 124.083 98.9787 123.267 98.983C121.469 96.1684 119.628 93.3835 117.795 90.5944C117.782 93.3963 117.787 96.1939 117.787 98.9957C116.881 98.9957 115.971 98.9957 115.066 98.9915C115.134 94.455 114.938 89.8759 115.146 85.3436Z" fill="#6F6E6E"/>
<path d="M134.925 85.2628C137.982 85.2628 141.039 85.2628 144.096 85.2628C144.087 86.0578 144.087 86.8572 144.096 87.6522C141.945 87.6565 139.793 87.6522 137.642 87.6565C137.642 88.779 137.642 89.9056 137.642 91.028C139.474 91.028 141.307 91.028 143.139 91.028C143.127 91.8274 143.131 92.6224 143.144 93.4175C141.311 93.4175 139.479 93.4218 137.646 93.4218C137.646 95.2798 137.638 97.1378 137.642 98.9958C136.736 98.9958 135.831 98.9958 134.925 98.9958C134.921 94.4167 134.921 89.8376 134.925 85.2628Z" fill="#6F6E6E"/>
<path d="M96.4431 85.2628C97.3487 85.2628 98.2586 85.2628 99.1642 85.2628C99.1642 89.8419 99.1642 94.421 99.1642 98.9958C98.2543 98.9958 97.3487 98.9958 96.4431 98.9958C96.4431 94.421 96.4431 89.8419 96.4431 85.2628Z" fill="#6F6E6E"/>
<path d="M144.895 85.2671C145.877 85.2671 146.86 85.2628 147.842 85.2586C148.705 87.1038 149.576 88.9406 150.444 90.7815C151.298 88.9406 152.153 87.1038 153.003 85.2586C153.985 85.2628 154.968 85.2671 155.95 85.2671C154.853 87.4312 153.722 89.574 152.591 91.7211C151.315 93.796 151.86 96.602 151.787 98.9915C150.878 98.9915 149.968 98.9915 149.058 98.9915C148.981 96.7807 149.508 93.949 148.386 91.9848C147.429 90.1225 146.422 88.2815 145.482 86.4108C145.291 86.0281 145.095 85.6497 144.895 85.2671Z" fill="#6F6E6E"/>
<path d="M102.506 21.0112C109.275 20.9985 116.043 20.9942 122.812 21.0112C119.449 26.8105 116.056 32.5928 112.659 38.3666C109.262 32.5885 105.865 26.8105 102.506 21.0112Z" fill="#FFD500" fill-opacity="0.41"/>
<path d="M101.996 21.3855C102.791 22.4739 103.429 23.6941 104.109 24.8548C106.783 29.4636 109.5 34.0427 112.166 38.6515C105.393 38.6685 98.6242 38.6643 91.8555 38.6558C95.2271 32.9032 98.5306 27.0785 101.996 21.3855Z" fill="#FFD500" fill-opacity="0.41"/>
<path d="M91.8428 39.2084C98.62 39.2084 105.397 39.2042 112.17 39.2084C108.782 45.0034 105.397 50.7985 102.004 56.5851C98.62 50.79 95.2229 45.0034 91.8428 39.2084Z" fill="#FED501"/>
<path d="M116.796 38.9492C123.56 38.9322 130.321 38.9194 137.085 38.945C133.73 44.7442 130.338 50.5265 126.941 56.2961C123.756 50.8922 120.593 45.4712 117.429 40.0546C117.221 39.6847 117.009 39.3148 116.796 38.9492Z" fill="#FFD500" fill-opacity="0.41"/>
<path d="M112.659 39.5272C116.09 45.2755 119.432 51.0876 122.825 56.8614C116.048 56.8656 109.27 56.8656 102.493 56.8614C105.882 51.0876 109.232 45.2798 112.659 39.5272Z" fill="#FED501"/>
<path d="M137.591 39.2211C140.992 44.995 144.377 50.7815 147.744 56.5765C140.975 56.5978 134.207 56.5978 127.438 56.5765C130.584 51.1598 133.76 45.756 136.923 40.3478C137.145 39.9737 137.37 39.5953 137.591 39.2211Z" fill="#FFD500" fill-opacity="0.41"/>
<path d="M127.425 57.1421C134.202 57.1378 140.98 57.1379 147.757 57.1379C144.372 62.9329 140.98 68.7237 137.591 74.5145C134.198 68.7237 130.814 62.9329 127.425 57.1421Z" fill="#FED501"/>
<path d="M126.945 57.4568C130.363 63.2135 133.718 69.0128 137.106 74.7909C130.329 74.7909 123.552 74.7952 116.775 74.7909C120.172 69.0171 123.509 63.2051 126.945 57.4568Z" fill="#FED501"/>
<path d="M126.499 105.624C126.92 105.896 127.298 106.257 127.485 106.73C127.654 107.16 127.682 107.67 127.691 108.127C127.702 108.792 127.704 109.459 127.689 110.124C127.671 110.712 127.618 111.328 127.261 111.821C126.895 112.316 126.35 112.675 125.762 112.854C125.176 113.038 124.534 113.046 123.941 112.89C123.313 112.718 122.705 112.347 122.319 111.818C121.97 111.33 121.917 110.704 121.899 110.124L121.886 109.592L121.887 108.527C121.896 108.02 121.898 107.471 122.02 106.979C122.103 106.654 122.255 106.367 122.486 106.123C122.962 105.601 123.644 105.263 124.344 105.172C125.092 105.076 125.861 105.221 126.499 105.624ZM139.979 105.332C140.515 105.523 141.009 105.871 141.347 106.328C141.656 106.757 141.734 107.294 141.762 107.807C141.787 108.366 141.776 108.927 141.778 109.485C141.773 110.028 141.786 110.624 141.647 111.152C141.579 111.424 141.459 111.68 141.284 111.9C140.809 112.481 140.115 112.85 139.374 112.963C138.809 113.045 138.228 112.991 137.696 112.783C137.186 112.587 136.717 112.247 136.393 111.807C136.077 111.364 136.024 110.852 135.984 110.325C135.965 109.659 135.968 108.993 135.973 108.327C135.978 108.074 135.975 107.822 136.006 107.57C136.047 107.115 136.134 106.68 136.416 106.306C136.841 105.746 137.483 105.366 138.169 105.216C138.766 105.092 139.405 105.124 139.979 105.332ZM148.425 105.682C149.008 106.083 149.39 106.71 149.524 107.398C149.328 107.402 149.131 107.404 148.934 107.401C148.889 107.407 148.861 107.385 148.853 107.338C148.72 106.812 148.409 106.34 147.949 106.042C147.222 105.575 146.226 105.551 145.466 105.955C145.046 106.193 144.693 106.523 144.543 106.992C144.352 107.598 144.386 108.3 144.374 108.926C144.374 109.35 144.377 109.775 144.389 110.199C144.423 110.564 144.443 110.92 144.585 111.261C144.726 111.619 145.011 111.904 145.333 112.11C146.175 112.634 147.327 112.579 148.115 111.977C148.422 111.735 148.664 111.416 148.78 111.041C148.937 110.564 148.879 110.017 148.889 109.512C148.135 109.505 147.38 109.515 146.627 109.507C146.621 109.333 146.62 109.158 146.627 108.984C147.491 108.975 148.356 108.984 149.221 108.98C149.33 108.979 149.439 108.981 149.548 108.99C149.542 109.473 149.556 109.959 149.54 110.443C149.525 110.935 149.404 111.412 149.112 111.815C148.743 112.293 148.232 112.653 147.654 112.836C147.199 112.993 146.725 113.018 146.248 112.979C145.485 112.891 144.752 112.528 144.252 111.945C143.996 111.642 143.856 111.275 143.796 110.885C143.704 110.272 143.729 109.626 143.721 109.005C143.733 108.337 143.694 107.597 143.862 106.947C143.984 106.487 144.275 106.111 144.646 105.82C145.176 105.396 145.848 105.156 146.528 105.146C147.198 105.123 147.878 105.288 148.425 105.682ZM101.308 105.382C101.846 105.604 102.302 106.004 102.591 106.506C102.746 106.787 102.845 107.088 102.915 107.4C102.694 107.406 102.472 107.405 102.251 107.401C102.143 106.991 101.969 106.61 101.661 106.309C101.073 105.705 100.136 105.549 99.3407 105.767C98.8681 105.899 98.4128 106.193 98.1351 106.598C97.8035 107.11 97.81 107.73 97.7754 108.314C97.7706 108.806 97.7722 109.297 97.7742 109.789C97.8051 110.291 97.7947 110.763 97.9803 111.241C98.076 111.498 98.2427 111.717 98.4485 111.897C99.2599 112.611 100.592 112.662 101.461 112.023C101.886 111.708 102.15 111.247 102.275 110.74C102.488 110.734 102.702 110.734 102.915 110.741C102.816 111.182 102.655 111.607 102.366 111.961C101.819 112.65 100.945 113.006 100.072 112.993C99.1389 113.025 98.1696 112.604 97.5937 111.866C97.2216 111.384 97.169 110.789 97.1352 110.204C97.1188 109.459 97.1207 108.712 97.134 107.968C97.1557 107.549 97.1915 107.091 97.351 106.699C97.433 106.488 97.5624 106.308 97.7091 106.137C98.1941 105.606 98.8684 105.264 99.5834 105.173C100.158 105.102 100.771 105.157 101.308 105.382ZM90.3606 105.201C92.0661 105.207 93.7724 105.202 95.4783 105.203C95.4887 105.383 95.4887 105.563 95.4787 105.743C93.9858 105.743 92.4929 105.74 90.9999 105.744C91.0019 106.755 90.9939 107.767 91.004 108.778C92.2767 108.782 93.551 108.771 94.8233 108.784C94.8233 108.957 94.8233 109.129 94.8217 109.302C93.5482 109.313 92.273 109.299 90.9995 109.308V111.921C90.9991 112.083 90.9963 112.246 91.0068 112.408C92.4989 112.407 93.991 112.407 95.4836 112.408C95.4859 112.582 95.4859 112.757 95.4836 112.931C93.7752 112.94 92.0665 112.929 90.3582 112.937C90.3397 112.812 90.3389 112.686 90.3417 112.559C90.3421 110.257 90.3417 107.954 90.3421 105.652C90.3417 105.5 90.3328 105.351 90.3606 105.201ZM105.369 105.2L105.631 105.206C105.674 105.207 105.717 105.206 105.758 105.203C105.774 106.393 105.759 107.586 105.766 108.777C107.234 108.779 108.702 108.779 110.17 108.776C110.172 107.775 110.17 106.773 110.171 105.771C110.172 105.58 110.165 105.395 110.179 105.203C110.382 105.207 110.585 105.196 110.787 105.207C110.844 105.236 110.815 105.318 110.823 105.373C110.818 107.893 110.826 110.413 110.819 112.933C110.605 112.936 110.391 112.935 110.177 112.934C110.168 112.769 110.171 112.605 110.171 112.44V109.307C108.702 109.306 107.233 109.305 105.764 109.307C105.763 110.516 105.769 111.725 105.761 112.934C105.547 112.935 105.333 112.936 105.119 112.933C105.113 112.768 105.115 112.605 105.115 112.44C105.115 110.035 105.115 107.63 105.115 105.225C105.196 105.206 105.282 105.2 105.369 105.2ZM119.61 105.242L119.615 105.431L119.613 105.812C119.612 108.184 119.615 110.559 119.612 112.931C119.395 112.936 119.179 112.936 118.963 112.932C118.617 112.446 118.252 111.974 117.908 111.487C116.84 110.022 115.771 108.551 114.701 107.088C114.499 106.806 114.299 106.52 114.085 106.247C114.077 106.407 114.081 106.569 114.081 106.73C114.081 108.726 114.081 110.723 114.081 112.719C114.081 112.791 114.079 112.862 114.077 112.934C113.862 112.935 113.648 112.936 113.434 112.934C113.425 110.441 113.434 107.945 113.43 105.452C113.43 105.369 113.43 105.288 113.437 105.206C113.648 105.199 113.859 105.207 114.07 105.202C114.764 106.136 115.443 107.084 116.136 108.019C116.52 108.555 116.91 109.085 117.303 109.614C117.818 110.338 118.355 111.046 118.872 111.769C118.899 111.802 118.93 111.831 118.964 111.858L118.967 108.835L118.967 105.405C118.968 105.338 118.97 105.27 118.973 105.203C119.144 105.204 119.314 105.203 119.485 105.202C119.538 105.207 119.58 105.187 119.61 105.242ZM156.129 105.205C155.974 105.534 155.777 105.844 155.611 106.168C154.986 107.281 154.376 108.404 153.755 109.52C153.71 109.607 153.634 109.701 153.638 109.801C153.633 110.844 153.642 111.889 153.634 112.932C153.418 112.936 153.202 112.936 152.986 112.932C152.98 111.89 152.984 110.846 152.984 109.803C152.988 109.728 152.952 109.671 152.919 109.606C152.143 108.214 151.378 106.818 150.606 105.425C150.566 105.354 150.532 105.28 150.502 105.204C150.705 105.204 150.907 105.202 151.11 105.203C151.174 105.197 151.199 105.243 151.23 105.291C151.928 106.564 152.633 107.824 153.328 109.098C153.687 108.475 154.014 107.833 154.363 107.205C154.693 106.568 155.049 105.944 155.382 105.308C155.405 105.276 155.428 105.215 155.472 105.207C155.69 105.198 155.91 105.206 156.129 105.205ZM130.627 105.22C130.63 107.615 130.622 110.013 130.631 112.408H135.109C135.112 112.583 135.112 112.759 135.108 112.934C133.397 112.935 131.686 112.936 129.976 112.933C129.972 112.862 129.969 112.79 129.968 112.719C129.968 110.22 129.968 107.72 129.968 105.221C130.187 105.213 130.407 105.215 130.627 105.22ZM88.6808 105.202C88.6944 105.381 88.692 105.563 88.6848 105.743C87.8409 105.745 86.9974 105.739 86.1538 105.745L86.1542 112.28C86.153 112.498 86.1591 112.717 86.1482 112.935C85.9348 112.935 85.7214 112.935 85.5076 112.935C85.5008 112.756 85.5036 112.578 85.5036 112.399V105.744C84.8944 105.741 84.2852 105.744 83.6763 105.743C83.4489 105.741 83.2258 105.754 83 105.72V105.239L83.0285 105.222C83.1238 105.213 83.219 105.203 83.3151 105.203C85.1034 105.203 86.8921 105.205 88.6808 105.202ZM124.225 105.734C123.702 105.849 123.197 106.16 122.893 106.603C122.612 107.014 122.574 107.566 122.552 108.047C122.541 108.578 122.511 109.087 122.542 109.604C122.551 110.091 122.547 110.621 122.686 111.09C122.79 111.462 123.031 111.774 123.34 112.002C124.141 112.609 125.345 112.625 126.17 112.056C126.477 111.85 126.744 111.546 126.863 111.193C127.012 110.787 127.011 110.349 127.046 109.924C127.05 109.352 127.051 108.78 127.045 108.207C127.006 107.715 127.007 107.199 126.777 106.748C126.583 106.375 126.258 106.11 125.888 105.92C125.375 105.671 124.781 105.61 124.225 105.734ZM137.087 106.451C136.755 106.831 136.668 107.381 136.647 107.867C136.609 108.275 136.621 108.678 136.617 109.086C136.621 109.478 136.61 109.876 136.646 110.263C136.662 110.683 136.733 111.16 136.96 111.522C137.306 112.034 137.877 112.35 138.484 112.442C138.874 112.491 139.294 112.476 139.667 112.344C140.094 112.206 140.49 111.934 140.752 111.57C141.045 111.14 141.076 110.661 141.113 110.159C141.126 109.893 141.127 109.629 141.127 109.364L141.127 108.647C141.127 108.326 141.123 108.003 141.089 107.689C141.053 107.248 140.963 106.826 140.679 106.473C140.381 106.126 139.979 105.875 139.535 105.759C138.668 105.526 137.68 105.762 137.087 106.451Z" fill="#FED500"/>
</svg>
