<?xml version="1.0" encoding="utf-8"?>
<!-- Generator: Adobe Illustrator 27.5.0, SVG Export Plug-In . SVG Version: 6.00 Build 0)  -->
<svg version="1.1" id="Livello_1" xmlns="http://www.w3.org/2000/svg" xmlns:xlink="http://www.w3.org/1999/xlink" x="0px" y="0px"
	 viewBox="0 0 869 206" style="enable-background:new 0 0 869 206;" xml:space="preserve">
<style type="text/css">
	.st0{fill:none;stroke:#000000;stroke-width:1.3656;}
	.st1{fill:#58B947;}
	.st2{fill:#222446;}
</style>
<g>
	<path d="M179.1,97.3l-6.4-9.1c2.1-1.4,8.8-5.7,8.8-17.9c0-2-0.2-4.2-1-6.2c-1.7-4.2-4.7-4.9-6.6-4.9c-3.7,0-5,2.5-5.7,4.3
		c-0.5,1.3-0.6,1.5-1.8,6.7l-1.5,7c-0.9,3.7-1.3,5.5-2,7.3c-1.1,2.6-4.6,9.7-14.2,9.7c-11,0-18-9.2-18-22.8
		c0-12.4,6.1-19.2,11.7-23.2L149,57c-2.9,2-8.6,5.7-8.6,15c0,5.8,2.6,10.9,7,10.9c4.9,0,5.9-5.4,6.9-10.6l1.3-6
		c1.6-7.8,4.8-18.7,17.2-18.7c13.3,0,18.6,12.3,18.6,24.6c0,3.2-0.3,6.8-1.3,10.3C188.9,86.2,186.1,93,179.1,97.3 M183.8,44.1h-51.7
		V33.4h42.7C156.6,14.7,131.1,3,102.9,3C47.7,3.1,2.9,47.9,3,103.1c0,27.1,10.8,51.6,28.4,69.6c-1.4-2-2.4-4.2-3-6.2
		c-1-3.5-1-6-1.1-15.9v-47.5h14.9v49c0,3.4-0.1,6.7,1,9.7c3,7.7,11.4,8.6,16.1,8.6c2.4,0,8.4-0.1,12.8-4c4.4-4,4.4-8.5,4.4-15.1
		v-48.2h15v50.2c-0.1,9-0.1,16.5-8.6,23.7c-8.1,7.1-18.6,7.8-24,7.8c-4.9,0-9.6-0.6-14.1-2.1c-1.9-0.6-3.5-1.4-5.1-2.3
		C56.9,194.5,79,203,103.1,203c55.2-0.1,100-44.9,99.9-100.1C203,80.9,195.8,60.6,183.8,44.1"/>
</g>
<rect x="238.5" y="6.2" width="38.7" height="193.5"/>
<line class="st0" x1="470.7" y1="6.2" x2="470.7" y2="199.8"/>
<g>
	<path d="M309.3,25.6c0,1.8,0,2.7-0.4,3.7c-0.7,2.1-3.1,4.8-8.2,4.8c-3.3,0-6.9-1.3-8-4.7c-0.3-1.1-0.3-2-0.3-4.3V12.7h3.9v12.8
		c0,1.2,0,1.7,0.2,2.3c0.4,1.2,1.5,2.5,4.3,2.5c0.5,0,3.4,0,4.2-2.4c0.2-0.7,0.3-1.2,0.3-2.6V12.7h3.9v12.9H309.3z"/>
	<path d="M317.8,18.8v1.7c1.3-2,4-2.2,4.6-2.2c3.1,0,4.8,2,4.8,4.9v10.3h-3.5v-8.3c0-1.6-0.4-3.5-2.6-3.5c-0.4,0-1.1,0.1-1.9,0.7
		c-1.1,0.9-1.4,2.1-1.4,4.7v6.4h-3.6V18.8H317.8z"/>
	<path d="M331.4,16.5v-3.6h3.5v3.6H331.4z M331.4,33.6V18.8h3.5v14.8H331.4z"/>
	<path d="M346.4,33.6h-3.8l-4.8-14.8h3.7l3.1,10.2l3-10.2h3.7L346.4,33.6z"/>
	<path d="M356.6,26.9c0.1,0.7,0.7,3.7,4.2,3.7c2.5,0,3.6-1.5,3.9-2l3,1.7c-1.2,1.6-3.3,3.8-7.2,3.8c-4.4,0-7.6-3-7.6-7.9
		c0-5.3,3.6-7.8,7.4-7.8c5.7,0,7.3,4.5,7.3,8.6h-11V26.9z M363.6,24.3c-0.1-0.7-0.5-3.1-3.3-3.1c-2.9,0-3.5,2.5-3.6,3.1H363.6z"/>
	<path d="M374.5,18.8v2.1c1.1-2.3,3.7-2.4,4.4-2.4h0.3v3.6c-0.7,0-3.6,0-4.4,2.7c-0.3,0.8-0.3,1.6-0.3,2.4v6.3H371V18.8H374.5z"/>
	<path d="M391.9,23.4c-0.8-1.6-2.3-2.2-4-2.2c-0.7,0-2.5,0.2-2.5,1.5c0,1,0.9,1.3,3,1.7l2.4,0.4c2.2,0.4,4,1.7,4,4.1
		c0,2.7-2.6,5.1-6.7,5.1s-6.3-1.8-7.1-2.7l2.7-2.2c0.7,0.9,2,1.9,4.3,1.9c2.1,0,2.9-1.1,2.9-1.7c0-0.9-0.8-1.2-2.2-1.4l-1.8-0.3
		c-1.2-0.2-5.1-0.9-5.1-4.4c0-2.9,2.8-4.8,6.4-4.8c1.2,0,4.1,0.2,6.4,2.8L391.9,23.4z"/>
	<path d="M398.3,16.5v-3.6h3.5v3.6H398.3z M398.3,33.6V18.8h3.5v14.8H398.3z"/>
	<path d="M404.5,18.8h2.2v-5.3h3.6v5.3h3.2v2.5h-3.2v7.3c0,0.6,0,1.2,0.4,1.6s1.2,0.4,1.3,0.4c0.5,0,1-0.1,1.5-0.2v3
		c-0.5,0.1-1.3,0.2-2.5,0.2c-3.2,0-4.2-1.2-4.2-3.6v-8.8h-2.2L404.5,18.8L404.5,18.8z"/>
	<path d="M425.4,33.6l-0.1-1.2c-1,0.8-2.5,1.5-4.3,1.5c-3.4,0-5.4-2-5.4-4.5c0-3.2,2.5-4.5,5.3-5c2.2-0.4,3.6-0.8,4.6-1.1
		c0-1.1-0.3-2.2-2.5-2.2c-2.7,0-3,1.5-3,2.2l-3.6-0.2c0.1-1,0.3-4.8,6.5-4.8c4.3,0,6.2,1.6,6.2,4.2v8.6c0,1.1,0.1,1.4,0.7,2.4h-4.4
		V33.6z M422.2,16.6l-3.3-3.9h4.4l1.5,3.9H422.2z M425.4,26.2c-0.6,0.3-1.5,0.6-2.8,0.8c-1.6,0.2-3.3,0.6-3.3,2c0,1,0.7,1.8,2.4,1.8
		c1.6,0,3.6-0.8,3.6-2.7L425.4,26.2L425.4,26.2z"/>
</g>
<g>
	<path d="M301.8,65.4V64c-0.3,0.4-1.5,1.9-4.1,1.9c-3.1,0-6.6-2.2-6.6-7.5s3.2-8.1,6.7-8.1c1.2,0,3,0.4,4,1.7v-7.3h3.5v20.9h-3.5
		V65.4z M298.4,62.7c1.9,0,3.4-1.6,3.4-4.3c0-2.2-0.7-4.8-3.4-4.8c-2.2,0-3.6,2-3.6,4.5C294.9,60.1,295.8,62.7,298.4,62.7z"/>
	<path d="M312.7,58.7c0.1,0.7,0.7,3.7,4.2,3.7c2.5,0,3.6-1.5,3.9-2l3,1.7c-1.2,1.6-3.3,3.8-7.2,3.8c-4.4,0-7.6-3-7.6-7.9
		c0-5.3,3.6-7.8,7.4-7.8c5.7,0,7.3,4.5,7.3,8.6h-11V58.7z M319.8,56.1c-0.1-0.7-0.5-3.1-3.3-3.1c-2.9,0-3.5,2.5-3.6,3.1H319.8z"/>
	<path d="M327.2,65.4V44.5h3.6v20.9H327.2z"/>
	<path d="M335.2,65.4V44.5h3.6v20.9H335.2z"/>
	<path d="M352,65.4l-0.1-1.2c-1,0.8-2.5,1.5-4.3,1.5c-3.4,0-5.4-2-5.4-4.5c0-3.2,2.5-4.5,5.3-5c2.2-0.4,3.6-0.8,4.6-1.1
		c0-1.1-0.3-2.2-2.5-2.2c-2.7,0-3,1.5-3,2.2l-3.6-0.2c0.1-1,0.3-4.8,6.5-4.8c4.3,0,6.2,1.6,6.2,4.2V63c0,1.1,0.1,1.4,0.7,2.4H352z
		 M352,58.1c-0.6,0.3-1.5,0.6-2.8,0.8c-1.6,0.2-3.3,0.6-3.3,2c0,1,0.7,1.8,2.4,1.8c1.6,0,3.6-0.8,3.6-2.7L352,58.1L352,58.1z"/>
</g>
<g>
	<path d="M305.4,82.5c-0.7-1.1-2.2-3.1-5.4-3.1c-0.9,0-3.9,0.3-3.9,2.5c0,1.6,1.6,2,3.8,2.5l2.2,0.5c3.3,0.7,6.8,2,6.8,6.2
		c0,5.2-5.1,6.7-8.9,6.7c-3.5,0-7.3-1.2-9.1-4.5l3.3-2.3c0.9,1.4,2.6,3.1,6.5,3.1c2.3,0,4-0.9,4-2.8c0-1.7-1.4-2.1-4-2.7L298,88
		c-2.7-0.6-6-1.7-6-5.8c0-3.7,3-6.5,8.3-6.5c1.9,0,5.5,0.3,8.4,4.2L305.4,82.5z"/>
	<path d="M319.2,97.3h-3.8l-4.8-14.8h3.7l3.1,10.2l3-10.2h3.7L319.2,97.3z"/>
	<path d="M326.8,80.2v-3.6h3.5v3.6H326.8z M326.8,97.3V82.5h3.5v14.8H326.8z"/>
	<path d="M333.6,97.3v-2.7l8-8.9h-7.2v-3.2h11.9v2.8l-7.8,8.9h7.8v3.1C346.3,97.3,333.6,97.3,333.6,97.3z"/>
	<path d="M349,97.3v-2.7l8-8.9h-7.2v-3.2h11.9v2.8l-7.8,8.9h7.8v3.1C361.7,97.3,349,97.3,349,97.3z"/>
	<path d="M367.9,90.6c0.1,0.7,0.7,3.7,4.2,3.7c2.5,0,3.6-1.5,3.9-2l3,1.7c-1.2,1.6-3.3,3.8-7.2,3.8c-4.4,0-7.6-3-7.6-7.9
		c0-5.3,3.6-7.8,7.4-7.8c5.7,0,7.3,4.5,7.3,8.6L367.9,90.6L367.9,90.6z M374.9,88c-0.1-0.7-0.5-3.1-3.3-3.1c-2.9,0-3.5,2.5-3.6,3.1
		H374.9z"/>
	<path d="M385.8,82.5v2.1c1.1-2.3,3.7-2.4,4.4-2.4h0.3v3.6c-0.7,0-3.6,0-4.4,2.7c-0.3,0.8-0.3,1.6-0.3,2.4v6.3h-3.4V82.5H385.8z"/>
	<path d="M402.2,97.3l-0.1-1.2c-1,0.8-2.5,1.5-4.3,1.5c-3.4,0-5.4-2-5.4-4.5c0-3.2,2.5-4.5,5.3-5c2.2-0.4,3.6-0.8,4.6-1.1
		c0-1.1-0.3-2.2-2.5-2.2c-2.7,0-3,1.5-3,2.2l-3.6-0.2c0.1-1,0.3-4.8,6.5-4.8c4.3,0,6.2,1.6,6.2,4.2v8.6c0,1.1,0.1,1.4,0.7,2.4
		L402.2,97.3L402.2,97.3z M402.2,89.9c-0.6,0.3-1.5,0.6-2.8,0.8c-1.6,0.2-3.3,0.6-3.3,2c0,1,0.7,1.8,2.4,1.8c1.6,0,3.6-0.8,3.6-2.7
		L402.2,89.9L402.2,89.9z"/>
</g>
<g>
	<path d="M292,112.1v-3.6h3.5v3.6H292z M292,129.2v-14.8h3.5v14.8H292z"/>
	<path d="M298.3,114.4h2.2v-5.3h3.6v5.3h3.2v2.5H304v7.3c0,0.6,0,1.2,0.4,1.6s1.2,0.4,1.3,0.4c0.5,0,1-0.1,1.5-0.2v3
		c-0.5,0.1-1.3,0.2-2.5,0.2c-3.2,0-4.2-1.2-4.2-3.6v-8.8h-2.2L298.3,114.4L298.3,114.4z"/>
	<path d="M319.1,129.2L319,128c-1,0.8-2.5,1.5-4.3,1.5c-3.4,0-5.4-2-5.4-4.5c0-3.2,2.5-4.5,5.3-5c2.2-0.4,3.6-0.8,4.6-1.1
		c0-1.1-0.3-2.2-2.5-2.2c-2.7,0-3,1.5-3,2.2l-3.6-0.2c0.1-1,0.3-4.8,6.5-4.8c4.3,0,6.2,1.6,6.2,4.2v8.6c0,1.1,0.1,1.4,0.7,2.4h-4.4
		V129.2z M319.1,121.8c-0.6,0.3-1.5,0.6-2.8,0.8c-1.6,0.2-3.3,0.6-3.3,2c0,1,0.7,1.8,2.4,1.8c1.6,0,3.6-0.8,3.6-2.7L319.1,121.8
		L319.1,121.8z"/>
	<path d="M327.1,129.2v-20.9h3.6v20.9H327.1z"/>
	<path d="M335,112.1v-3.6h3.5v3.6H335z M335,129.2v-14.8h3.5v14.8H335z"/>
	<path d="M351.8,129.2l-0.1-1.2c-1,0.8-2.5,1.5-4.3,1.5c-3.4,0-5.4-2-5.4-4.5c0-3.2,2.5-4.5,5.3-5c2.2-0.4,3.6-0.8,4.6-1.1
		c0-1.1-0.3-2.2-2.5-2.2c-2.7,0-3,1.5-3,2.2l-3.6-0.2c0.1-1,0.3-4.8,6.5-4.8c4.3,0,6.2,1.6,6.2,4.2v8.6c0,1.1,0.1,1.4,0.7,2.4h-4.4
		V129.2z M351.8,121.8c-0.6,0.3-1.5,0.6-2.8,0.8c-1.6,0.2-3.3,0.6-3.3,2c0,1,0.7,1.8,2.4,1.8c1.6,0,3.6-0.8,3.6-2.7L351.8,121.8
		L351.8,121.8z"/>
	<path d="M363.2,114.4v1.7c1.3-2,4-2.2,4.6-2.2c3.1,0,4.8,2,4.8,4.9v10.3h-3.5v-8.3c0-1.6-0.4-3.5-2.6-3.5c-0.4,0-1.1,0.1-1.9,0.7
		c-1.1,0.9-1.4,2.1-1.4,4.7v6.4h-3.6v-14.8h3.6V114.4z"/>
	<path d="M385.7,129.2l-0.1-1.2c-1,0.8-2.5,1.5-4.3,1.5c-3.4,0-5.4-2-5.4-4.5c0-3.2,2.5-4.5,5.3-5c2.2-0.4,3.6-0.8,4.6-1.1
		c0-1.1-0.3-2.2-2.5-2.2c-2.7,0-3,1.5-3,2.2l-3.6-0.2c0.1-1,0.3-4.8,6.5-4.8c4.3,0,6.2,1.6,6.2,4.2v8.6c0,1.1,0.1,1.4,0.7,2.4h-4.4
		V129.2z M385.7,121.8c-0.6,0.3-1.5,0.6-2.8,0.8c-1.6,0.2-3.3,0.6-3.3,2c0,1,0.7,1.8,2.4,1.8c1.6,0,3.6-0.8,3.6-2.7L385.7,121.8
		L385.7,121.8z"/>
</g>
<g id="Typography">
	<g id="lounge">
		<path id="e_1_" class="st1" d="M821.5,137.7c2.4,2.8,3.7,6.7,3.7,11.7c0,0.3,0,0.7,0,0.9c0,0.5-0.4,0.8-0.9,0.8h-23.5
			c0.4,2.8,1.6,4.9,3.5,6.6c1.9,1.6,4.2,2.4,7,2.4c1.8,0,3.5-0.3,5.1-1c1.3-0.5,2.4-1.2,3.4-2.1c0.4-0.4,1-0.3,1.4,0.1l1.6,1.6
			c0.4,0.4,0.4,1.1-0.1,1.5c-1.4,1.3-2.9,2.3-4.7,3c-2.1,0.9-4.5,1.3-7.1,1.3c-3,0-5.7-0.6-8.1-1.9c-2.3-1.3-4.2-3.1-5.5-5.5
			c-1.3-2.4-1.9-5.1-1.9-8.1c0-3,0.6-5.7,1.9-8.1c1.3-2.3,3.1-4.2,5.4-5.5c2.3-1.3,5-2,8-2C815.4,133.5,819,134.9,821.5,137.7z
			 M820.2,147c-0.2-2.8-1.1-5-2.8-6.6c-1.7-1.6-4-2.4-6.8-2.4c-2.7,0-5,0.8-6.8,2.4c-1.8,1.6-2.9,3.8-3.2,6.6H820.2z"/>
		<path id="g" class="st1" d="M791.4,133.6c0.6,0,1,0.5,1,1v26.6c0,2.9-0.6,5.5-1.9,7.7c-1.3,2.2-3.1,3.9-5.5,5.1
			c-2.4,1.2-5.1,1.8-8.3,1.8c-4.2,0-8.2-1.3-11.9-3.7c-0.4-0.3-0.6-0.9-0.3-1.4l1.3-2.2c0.3-0.5,1-0.6,1.5-0.3
			c1.2,0.9,2.5,1.6,3.8,2.1c1.6,0.6,3.4,0.9,5.4,0.9c3.2,0,5.7-0.9,7.6-2.7c1.9-1.8,2.9-4.2,2.9-7.2v-4.3c-1.1,1.9-2.6,3.3-4.4,4.3
			c-1.9,1-4,1.5-6.4,1.5c-2.8,0-5.2-0.6-7.3-1.9c-2.1-1.3-3.8-3-4.9-5.3c-1.2-2.2-1.7-4.8-1.7-7.7c0-2.9,0.6-5.4,1.7-7.6
			c1.2-2.2,2.8-3.9,4.9-5.2c2.1-1.2,4.5-1.9,7.3-1.9c2.4,0,4.6,0.5,6.4,1.5c1.8,1,3.3,2.4,4.4,4.3v-4.6c0-0.6,0.5-1,1-1H791.4z
			 M782.2,157.3c1.5-0.9,2.6-2.1,3.5-3.7s1.3-3.3,1.3-5.3c0-2-0.4-3.8-1.3-5.4c-0.8-1.6-2-2.8-3.5-3.7c-1.5-0.9-3.2-1.3-5.1-1.3
			s-3.6,0.4-5.1,1.3c-1.5,0.9-2.7,2.1-3.5,3.7c-0.9,1.6-1.3,3.4-1.3,5.4c0,3,1,5.5,2.8,7.4c1.8,1.9,4.2,2.9,7.1,2.9
			C779,158.7,780.7,158.2,782.2,157.3z"/>
		<path id="n" class="st1" d="M755.9,136.6c2.1,2.1,3.1,5,3.1,8.8v18c0,0.6-0.5,1-1,1h-3.4c-0.6,0-1-0.5-1-1v-16.6
			c0-2.6-0.7-4.6-2.2-6.1c-1.5-1.5-3.5-2.2-6-2.2c-2.8,0-5,0.9-6.7,2.6c-1.7,1.7-2.7,4-2.9,6.7v15.4c0,0.6-0.5,1-1,1h-3.4
			c-0.6,0-1-0.5-1-1v-28.7c0-0.6,0.5-1,1-1h3.4c0.6,0,1,0.5,1,1v5.5c2.1-4.4,6-6.6,11.7-6.7C751,133.5,753.9,134.5,755.9,136.6z"/>
		<path id="u" class="st1" d="M724.9,134.7v28.7c0,0.6-0.5,1-1,1h-3.4c-0.6,0-1-0.5-1-1v-5.5c-2,4.4-5.8,6.6-11.4,6.7
			c-3.6,0-6.4-1.1-8.4-3.2c-2-2.1-3-5-3-8.8v-18c0-0.6,0.5-1,1-1h3.4c0.6,0,1,0.5,1,1v16.6c0,2.6,0.7,4.6,2.1,6.1
			c1.4,1.5,3.4,2.2,5.8,2.2c2.9,0,5.2-1.1,6.8-3.1c1.7-2,2.5-4.5,2.5-7.7v-14.1c0-0.6,0.5-1,1-1h3.4
			C724.4,133.6,724.9,134.1,724.9,134.7z"/>
		<path id="o_1_" class="st1" d="M685.5,135.4c2.4,1.3,4.2,3.2,5.6,5.5c1.3,2.3,2,5,2,8.1s-0.7,5.7-2,8.1c-1.3,2.4-3.2,4.2-5.6,5.5
			c-2.4,1.3-5.1,2-8.2,2c-3.1,0-5.8-0.7-8.2-2c-2.4-1.3-4.2-3.2-5.6-5.5c-1.3-2.3-2-5.1-2-8.1c0-3,0.7-5.7,2-8.1
			c1.3-2.3,3.2-4.2,5.6-5.5c2.4-1.3,5.1-2,8.2-2C680.4,133.5,683.1,134.1,685.5,135.4z M672,139.6c-1.6,0.9-2.8,2.2-3.7,3.9
			c-0.9,1.6-1.3,3.5-1.3,5.6c0,2.1,0.4,4,1.3,5.7c0.9,1.7,2.1,3,3.7,3.9c1.6,0.9,3.4,1.4,5.4,1.4c2,0,3.8-0.5,5.3-1.4
			c1.6-0.9,2.8-2.2,3.7-3.9c0.9-1.7,1.3-3.6,1.3-5.7c0-2.1-0.4-4-1.3-5.6c-0.9-1.6-2.1-2.9-3.7-3.9c-1.6-0.9-3.3-1.4-5.3-1.4
			C675.3,138.2,673.5,138.6,672,139.6z"/>
		<path id="l" class="st1" d="M652.5,121.2h3.4c0.6,0,1,0.5,1,1v41.1c0,0.6-0.5,1-1,1h-3.4c-0.6,0-1-0.5-1-1v-41.1
			C651.4,121.7,651.9,121.2,652.5,121.2z"/>
	</g>
	<g id="code">
		<path id="e" class="st2" d="M646.5,149.2c0-5.1-1.2-9-3.7-11.8c-2.5-2.8-6.2-4.2-11.1-4.2c-3,0-5.8,0.7-8.1,2
			c-2.4,1.3-4.2,3.2-5.6,5.6c-1.3,2.4-2,5.1-2,8.2c0,3.1,0.7,5.8,2,8.2c1.3,2.3,3.2,4.2,5.5,5.5c2.4,1.3,5.2,2,8.3,2
			c2.7,0,5.2-0.5,7.4-1.4c1.9-0.8,3.6-1.9,5-3.2c0.3-0.3,0.3-0.8,0-1.1l-2.8-2.9c-0.3-0.3-0.8-0.3-1.1,0c-0.9,0.8-2,1.5-3.2,2
			c-1.5,0.6-3,0.9-4.6,0.9c-2.3,0-4.3-0.6-5.9-1.9c-1.6-1.3-2.7-3.1-3.2-5.3l0-0.2h21.9c0.7,0,1.2-0.5,1.2-1.2
			C646.5,149.9,646.5,149.6,646.5,149.2z M623.3,146.6l0-0.2c0.4-2.4,1.3-4.2,2.8-5.6c1.5-1.4,3.4-2.1,5.7-2.1
			c2.4,0,4.4,0.7,5.8,2.1c1.5,1.4,2.2,3.3,2.3,5.6l0,0.2H623.3z"/>
		<path id="d" class="st2" d="M606.1,164.3h5.6c0.4,0,0.8-0.4,0.8-0.8v-41.3c0-0.4-0.4-0.8-0.8-0.8h-5.6c-0.4,0-0.8,0.4-0.8,0.8V138
			c0,0-2.4-4.9-10.8-4.9c-2.8,0-5.4,0.7-7.6,2c-2.2,1.3-3.9,3.1-5.1,5.5c-1.2,2.4-1.8,5.1-1.8,8.2c0,3.1,0.6,5.9,1.8,8.3
			c1.2,2.4,3,4.3,5.1,5.6c2.2,1.3,4.8,2,7.7,2c2.3,0,4.3-0.5,6.1-1.3c1.7-0.9,3.2-2.2,4.3-3.9l0.3-0.5v4.6
			C605.3,163.9,605.6,164.3,606.1,164.3z M602.8,155.9c-1.7,1.8-3.9,2.7-6.5,2.7c-2.6,0-4.8-0.9-6.5-2.7c-1.7-1.8-2.5-4.1-2.5-7
			c0-2.8,0.9-5.2,2.5-7c1.7-1.8,3.8-2.7,6.5-2.7c2.6,0,4.8,0.9,6.5,2.7c1.7,1.8,2.5,4.1,2.5,7C605.3,151.8,604.4,154.1,602.8,155.9z
			"/>
		<path id="o" class="st2" d="M575,157.1c1.4-2.4,2-5.1,2-8.2c0-3.1-0.7-5.8-2-8.1c-1.4-2.3-3.3-4.2-5.7-5.5c-2.4-1.3-5.3-2-8.4-2
			c-3.2,0-6.1,0.7-8.5,2c-2.4,1.3-4.4,3.1-5.7,5.5c-1.4,2.3-2,5.1-2,8.1c0,3.1,0.7,5.9,2,8.2c1.4,2.4,3.3,4.2,5.7,5.5
			c2.4,1.3,5.3,2,8.5,2c3.2,0,6-0.7,8.4-2C571.7,161.3,573.7,159.4,575,157.1z M567.3,155.9c-1.7,1.8-3.8,2.7-6.4,2.7
			c-2.7,0-4.9-0.9-6.5-2.7c-1.7-1.8-2.5-4.1-2.5-6.9c0-2.8,0.8-5.2,2.5-6.9c1.7-1.8,3.9-2.7,6.5-2.7c2.6,0,4.8,0.9,6.4,2.7
			c1.7,1.8,2.5,4.1,2.5,6.9C569.8,151.8,568.9,154.1,567.3,155.9z"/>
		<path id="c" class="st2" d="M542.8,159.1c0.3-0.3,0.2-0.8-0.1-1.1l-3.3-2.7c-0.3-0.3-0.8-0.2-1.1,0.1c-1.9,2-4.5,3-7.9,3
			c-2.6,0-4.7-0.9-6.3-2.6c-1.6-1.7-2.4-4-2.4-6.9c0-2.7,0.8-5,2.4-6.7c1.6-1.7,3.7-2.6,6.3-2.6c3,0,5.6,0.9,7.6,2.8
			c0.3,0.3,0.8,0.3,1.1,0l3.3-3.1c0.3-0.3,0.3-0.8,0.1-1.1c-1.3-1.5-2.9-2.6-4.8-3.5c-2.2-1-4.7-1.5-7.5-1.5c-3.1,0-5.8,0.7-8.2,2
			c-2.3,1.3-4.2,3.2-5.5,5.5c-1.3,2.4-2,5.1-2,8.2c0,3.1,0.7,5.8,2,8.2c1.3,2.3,3.1,4.2,5.5,5.5c2.3,1.3,5.1,2,8.1,2
			c3,0,5.6-0.5,7.9-1.6C539.9,162,541.5,160.7,542.8,159.1z"/>
	</g>
</g>
<g id="Icon">
	<g id="brackets">
		<path id="XMLID_842_" class="st2" d="M736.7,53.3V42.6c0-7-5.7-12.6-12.6-12.6v6.7c3.3,0,5.9,2.7,5.9,5.9v10.6
			c0,4.2,1.9,7.9,4.8,10.4c-2.9,2.5-4.8,6.3-4.8,10.4v13.7c0,3.3-2.7,5.9-5.9,5.9v6.7c7,0,12.6-5.7,12.6-12.6V74.2
			c0-3.9,3.2-7.1,7.1-7.1v-6.7C739.9,60.4,736.7,57.2,736.7,53.3z"/>
		<path id="XMLID_843_" class="st2" d="M602.9,42.6v10.6c0,3.9-3.2,7.1-7.1,7.1v6.7c3.9,0,7.1,3.2,7.1,7.1v13.7
			c0,7,5.7,12.6,12.6,12.6v-6.7c-3.3,0-5.9-2.7-5.9-5.9V74.2c0-4.2-1.9-7.9-4.8-10.4c2.9-2.5,4.8-6.3,4.8-10.4V42.6
			c0-3.3,2.7-5.9,5.9-5.9V30C608.5,30,602.9,35.7,602.9,42.6z"/>
	</g>
	<path id="sofa" class="st1" d="M715.4,53.3V42.6c0-7-5.7-12.6-12.6-12.6h-66c-7,0-12.6,5.7-12.6,12.6v10.6c0,3.9-3.2,7.1-7.1,7.1
		v6.7c3.9,0,7.1,3.2,7.1,7.1v13.7c0,7,5.7,12.6,12.6,12.6h66c7,0,12.6-5.7,12.6-12.6V74.2c0-3.9,3.2-7.1,7.1-7.1v-6.7
		C718.6,60.4,715.4,57.2,715.4,53.3z M630.9,87.9V74.2c0-2.6-0.7-5-2-7.1h3.7c3.9,0,7.1,3.2,7.1,7.1v19.7h-2.8
		C633.5,93.8,630.9,91.2,630.9,87.9z M646.3,84.2h46.9v9.6h-46.9V84.2z M708.7,74.2v13.7c0,3.3-2.7,5.9-5.9,5.9H700V74.2
		c0-3.9,3.2-7.1,7.1-7.1h3.7C709.4,69.1,708.7,71.6,708.7,74.2z M707,60.4c-7.6,0-13.8,6.2-13.8,13.8v3.4h-46.9v-3.4
		c0-7.6-6.2-13.8-13.8-13.8h-3.7c1.3-2.1,2-4.5,2-7.1V42.6c0-3.3,2.7-5.9,5.9-5.9h66c3.3,0,5.9,2.7,5.9,5.9v10.6c0,2.6,0.7,5,2,7.1
		H707z"/>
</g>
</svg>
