<svg width="654" height="554" viewBox="0 0 654 554" fill="none" xmlns="http://www.w3.org/2000/svg">
<path d="M134.789 272.227L129.972 265.378C131.553 264.325 136.595 261.089 136.595 251.907C136.595 250.402 136.445 248.746 135.843 247.241C134.563 244.08 132.305 243.553 130.875 243.553C128.091 243.553 127.112 245.435 126.586 246.789C126.209 247.768 126.134 247.918 125.231 251.832L124.102 257.1C123.425 259.885 123.124 261.239 122.597 262.594C121.769 264.551 119.135 269.894 111.91 269.894C103.632 269.894 98.3636 262.97 98.3636 252.735C98.3636 243.403 102.954 238.285 107.169 235.275L112.136 241.898C109.953 243.403 105.664 246.187 105.664 253.186C105.664 257.551 107.62 261.39 110.932 261.39C114.619 261.39 115.372 257.326 116.125 253.412L117.103 248.897C118.307 243.027 120.715 234.823 130.048 234.823C140.057 234.823 144.046 244.08 144.046 253.337C144.046 255.745 143.82 258.455 143.067 261.089C142.164 263.873 140.057 268.991 134.789 272.227ZM138.326 232.189H99.4172V224.137H131.553C117.856 210.063 98.6646 201.258 77.4416 201.258C35.8987 201.333 2.18268 235.049 2.25794 276.592C2.25794 296.987 10.3859 315.426 23.6315 328.972C22.5778 327.467 21.8253 325.811 21.3737 324.306C20.6211 321.672 20.6211 319.791 20.5459 312.34V276.592H31.7594V313.469C31.7594 316.028 31.6842 318.511 32.512 320.769C34.7698 326.564 41.0915 327.241 44.6287 327.241C46.4349 327.241 50.9505 327.166 54.2618 324.231C57.5732 321.221 57.5732 317.834 57.5732 312.867V276.592H68.8621V314.372C68.7868 321.145 68.7868 326.79 62.3898 332.208C56.2938 337.552 48.3917 338.079 44.3277 338.079C40.64 338.079 37.1028 337.627 33.7162 336.498C32.2862 336.047 31.0821 335.444 29.878 334.767C42.8225 345.379 59.4547 351.776 77.5921 351.776C119.135 351.7 152.851 317.984 152.776 276.441C152.776 259.885 147.357 244.607 138.326 232.189Z" fill="black"/>
<path d="M208.618 203.666H179.493V349.292H208.618V203.666Z" fill="black"/>
<path d="M354.244 203.666V349.367" stroke="black" stroke-width="1.3656"/>
<path d="M232.776 218.267C232.776 219.621 232.776 220.298 232.475 221.051C231.948 222.632 230.142 224.664 226.304 224.664C223.82 224.664 221.111 223.685 220.283 221.126C220.057 220.298 220.057 219.621 220.057 217.89V208.558H222.992V218.191C222.992 219.094 222.992 219.471 223.143 219.922C223.444 220.825 224.272 221.804 226.379 221.804C226.755 221.804 228.938 221.804 229.54 219.997C229.69 219.471 229.766 219.094 229.766 218.041V208.558H232.701V218.267H232.776Z" fill="black"/>
<path d="M239.173 213.149V214.428C240.151 212.923 242.183 212.772 242.635 212.772C244.968 212.772 246.247 214.278 246.247 216.46V224.212H243.613V217.965C243.613 216.761 243.312 215.331 241.656 215.331C241.355 215.331 240.828 215.407 240.226 215.858C239.398 216.535 239.173 217.439 239.173 219.395V224.212H236.463V213.149H239.173Z" fill="black"/>
<path d="M249.408 211.418V208.708H252.042V211.418H249.408ZM249.408 224.287V213.149H252.042V224.287H249.408Z" fill="black"/>
<path d="M260.697 224.287H257.837L254.225 213.149H257.009L259.342 220.825L261.6 213.149H264.385L260.697 224.287Z" fill="black"/>
<path d="M268.373 219.245C268.449 219.771 268.9 222.029 271.534 222.029C273.416 222.029 274.244 220.9 274.469 220.524L276.727 221.803C275.824 223.008 274.244 224.663 271.309 224.663C267.997 224.663 265.589 222.406 265.589 218.718C265.589 214.729 268.298 212.848 271.158 212.848C275.448 212.848 276.652 216.234 276.652 219.32H268.373V219.245ZM273.642 217.288C273.566 216.761 273.265 214.955 271.158 214.955C268.976 214.955 268.524 216.836 268.449 217.288H273.642Z" fill="black"/>
<path d="M281.845 213.149V214.73C282.672 212.999 284.629 212.923 285.156 212.923H285.382V215.633C284.855 215.633 282.672 215.633 282.07 217.665C281.845 218.267 281.845 218.869 281.845 219.471V224.212H279.21V213.149H281.845Z" fill="black"/>
<path d="M294.94 216.611C294.337 215.406 293.209 214.955 291.929 214.955C291.402 214.955 290.048 215.105 290.048 216.084C290.048 216.836 290.725 217.062 292.305 217.363L294.112 217.664C295.767 217.965 297.122 218.944 297.122 220.75C297.122 222.782 295.165 224.588 292.08 224.588C288.994 224.588 287.338 223.233 286.736 222.556L288.768 220.9C289.295 221.578 290.273 222.33 292.004 222.33C293.585 222.33 294.187 221.502 294.187 221.051C294.187 220.374 293.585 220.148 292.531 219.997L291.177 219.771C290.273 219.621 287.338 219.094 287.338 216.46C287.338 214.278 289.446 212.848 292.155 212.848C293.058 212.848 295.241 212.998 296.972 214.955L294.94 216.611Z" fill="black"/>
<path d="M299.756 211.418V208.708H302.39V211.418H299.756ZM299.756 224.287V213.149H302.39V224.287H299.756Z" fill="black"/>
<path d="M304.422 213.149H306.078V209.16H308.787V213.149H311.196V215.03H308.787V220.524C308.787 220.976 308.787 221.427 309.088 221.728C309.389 222.029 309.992 222.029 310.067 222.029C310.443 222.029 310.819 221.954 311.196 221.879V224.137C310.819 224.212 310.217 224.287 309.314 224.287C306.906 224.287 306.153 223.384 306.153 221.578V214.955H304.498L304.422 213.149Z" fill="black"/>
<path d="M320.152 224.287L320.076 223.384C319.324 223.986 318.195 224.513 316.84 224.513C314.282 224.513 312.776 223.008 312.776 221.126C312.776 218.718 314.658 217.74 316.765 217.363C318.421 217.062 319.474 216.761 320.227 216.536C320.227 215.708 320.001 214.88 318.346 214.88C316.314 214.88 316.088 216.009 316.088 216.536L313.378 216.385C313.454 215.632 313.604 212.773 318.27 212.773C321.506 212.773 322.936 213.977 322.936 215.933V222.406C322.936 223.234 323.012 223.459 323.463 224.212H320.152V224.287ZM317.743 211.493L315.26 208.558H318.571L319.7 211.493H317.743ZM320.152 218.718C319.7 218.944 319.023 219.17 318.044 219.32C316.84 219.471 315.561 219.772 315.561 220.825C315.561 221.578 316.088 222.18 317.367 222.18C318.571 222.18 320.076 221.578 320.076 220.148L320.152 218.718Z" fill="black"/>
<path d="M227.131 248.219V247.166C226.906 247.467 226.002 248.596 224.046 248.596C221.713 248.596 219.079 246.94 219.079 242.951C219.079 238.962 221.487 236.855 224.121 236.855C225.024 236.855 226.379 237.156 227.131 238.135V232.641H229.765V248.37H227.131V248.219ZM224.573 246.187C226.002 246.187 227.131 244.983 227.131 242.951C227.131 241.295 226.604 239.339 224.573 239.339C222.917 239.339 221.863 240.844 221.863 242.725C221.938 244.23 222.616 246.187 224.573 246.187Z" fill="black"/>
<path d="M235.334 243.177C235.41 243.704 235.861 245.961 238.495 245.961C240.377 245.961 241.205 244.832 241.43 244.456L243.688 245.736C242.785 246.94 241.205 248.595 238.269 248.595C234.958 248.595 232.55 246.338 232.55 242.65C232.55 238.661 235.259 236.78 238.119 236.78C242.409 236.78 243.613 240.166 243.613 243.252H235.334V243.177ZM240.678 241.22C240.602 240.693 240.301 238.887 238.194 238.887C236.012 238.887 235.56 240.769 235.485 241.22H240.678Z" fill="black"/>
<path d="M246.247 248.219V232.49H248.956V248.219H246.247Z" fill="black"/>
<path d="M252.268 248.219V232.49H254.977V248.219H252.268Z" fill="black"/>
<path d="M264.911 248.219L264.836 247.316C264.084 247.918 262.955 248.445 261.6 248.445C259.041 248.445 257.536 246.94 257.536 245.058C257.536 242.65 259.418 241.672 261.525 241.295C263.181 240.994 264.234 240.693 264.987 240.468C264.987 239.64 264.761 238.812 263.105 238.812C261.073 238.812 260.848 239.941 260.848 240.468L258.138 240.317C258.213 239.564 258.364 236.705 263.03 236.705C266.266 236.705 267.696 237.909 267.696 239.865V246.413C267.696 247.241 267.771 247.467 268.223 248.219H264.911ZM264.911 242.725C264.46 242.951 263.783 243.177 262.804 243.327C261.6 243.478 260.321 243.779 260.321 244.833C260.321 245.585 260.848 246.187 262.127 246.187C263.331 246.187 264.836 245.585 264.836 244.155L264.911 242.725Z" fill="black"/>
<path d="M229.841 261.089C229.314 260.261 228.185 258.756 225.777 258.756C225.099 258.756 222.842 258.982 222.842 260.637C222.842 261.841 224.046 262.142 225.702 262.519L227.357 262.895C229.841 263.422 232.475 264.4 232.475 267.561C232.475 271.475 228.637 272.603 225.777 272.603C223.143 272.603 220.283 271.7 218.928 269.217L221.412 267.486C222.089 268.539 223.369 269.819 226.304 269.819C228.035 269.819 229.314 269.142 229.314 267.712C229.314 266.432 228.26 266.131 226.304 265.68L224.272 265.228C222.24 264.776 219.756 263.949 219.756 260.863C219.756 258.078 222.014 255.971 226.003 255.971C227.432 255.971 230.142 256.197 232.324 259.132L229.841 261.089Z" fill="black"/>
<path d="M240.227 272.227H237.367L233.754 261.089H236.539L238.872 268.765L241.13 261.089H243.914L240.227 272.227Z" fill="black"/>
<path d="M245.946 259.358V256.648H248.58V259.358H245.946ZM245.946 272.227V261.089H248.58V272.227H245.946Z" fill="black"/>
<path d="M251.064 272.227V270.195L257.085 263.497H251.666V261.089H260.622V263.196L254.752 269.894H260.622V272.227H251.064Z" fill="black"/>
<path d="M262.654 272.227V270.195L268.675 263.497H263.256V261.089H272.212V263.196L266.341 269.894H272.212V272.227H262.654Z" fill="black"/>
<path d="M276.878 267.185C276.953 267.711 277.405 269.969 280.039 269.969C281.92 269.969 282.748 268.84 282.974 268.464L285.232 269.743C284.328 270.948 282.748 272.603 279.813 272.603C276.502 272.603 274.093 270.345 274.093 266.658C274.093 262.669 276.803 260.788 279.662 260.788C283.952 260.788 285.156 264.174 285.156 267.26L276.878 267.185ZM282.146 265.228C282.071 264.701 281.77 262.895 279.662 262.895C277.48 262.895 277.028 264.776 276.953 265.228H282.146Z" fill="black"/>
<path d="M290.349 261.089V262.669C291.177 260.938 293.133 260.863 293.66 260.863H293.886V263.572C293.359 263.572 291.177 263.572 290.575 265.604C290.349 266.206 290.349 266.808 290.349 267.41V272.152H287.79V261.089H290.349Z" fill="black"/>
<path d="M302.691 272.227L302.616 271.324C301.863 271.926 300.735 272.453 299.38 272.453C296.821 272.453 295.316 270.948 295.316 269.066C295.316 266.658 297.197 265.679 299.305 265.303C300.96 265.002 302.014 264.701 302.767 264.475C302.767 263.648 302.541 262.82 300.885 262.82C298.853 262.82 298.627 263.949 298.627 264.475L295.918 264.325C295.993 263.572 296.144 260.712 300.81 260.712C304.046 260.712 305.476 261.917 305.476 263.873V270.346C305.476 271.173 305.551 271.399 306.003 272.152L302.691 272.227ZM302.691 266.658C302.24 266.884 301.562 267.109 300.584 267.26C299.38 267.41 298.101 267.711 298.101 268.765C298.101 269.518 298.627 270.12 299.907 270.12C301.111 270.12 302.616 269.518 302.616 268.088L302.691 266.658Z" fill="black"/>
<path d="M219.756 283.365V280.656H222.39V283.365H219.756ZM219.756 296.234V285.096H222.39V296.234H219.756Z" fill="black"/>
<path d="M224.497 285.096H226.153V281.107H228.862V285.096H231.27V286.978H228.787V292.472C228.787 292.923 228.787 293.375 229.088 293.676C229.389 293.977 229.991 293.977 230.066 293.977C230.443 293.977 230.819 293.901 231.195 293.826V296.084C230.819 296.159 230.217 296.234 229.314 296.234C226.905 296.234 226.153 295.331 226.153 293.525V286.902H224.497V285.096Z" fill="black"/>
<path d="M240.151 296.234L240.076 295.331C239.323 295.933 238.195 296.46 236.84 296.46C234.281 296.46 232.776 294.955 232.776 293.073C232.776 290.665 234.657 289.687 236.765 289.311C238.42 289.009 239.474 288.708 240.227 288.483C240.227 287.655 240.001 286.827 238.345 286.827C236.313 286.827 236.087 287.956 236.087 288.483L233.378 288.332C233.453 287.58 233.604 284.72 238.27 284.72C241.506 284.72 242.936 285.924 242.936 287.881V294.353C242.936 295.181 243.011 295.406 243.463 296.159H240.151V296.234ZM240.151 290.665C239.7 290.891 239.022 291.117 238.044 291.267C236.84 291.418 235.56 291.719 235.56 292.772C235.56 293.525 236.087 294.127 237.367 294.127C238.571 294.127 240.076 293.525 240.076 292.095L240.151 290.665Z" fill="black"/>
<path d="M246.172 296.234V280.505H248.881V296.234H246.172Z" fill="black"/>
<path d="M252.117 283.365V280.656H254.751V283.365H252.117ZM252.117 296.234V285.096H254.751V296.234H252.117Z" fill="black"/>
<path d="M264.761 296.234L264.685 295.331C263.933 295.933 262.804 296.46 261.449 296.46C258.89 296.46 257.385 294.955 257.385 293.073C257.385 290.665 259.267 289.687 261.374 289.311C263.03 289.009 264.083 288.708 264.836 288.483C264.836 287.655 264.61 286.827 262.954 286.827C260.922 286.827 260.697 287.956 260.697 288.483L257.987 288.332C258.063 287.58 258.213 284.72 262.879 284.72C266.115 284.72 267.545 285.924 267.545 287.881V294.353C267.545 295.181 267.62 295.406 268.072 296.159H264.761V296.234ZM264.761 290.665C264.309 290.891 263.632 291.117 262.653 291.267C261.449 291.418 260.17 291.719 260.17 292.772C260.17 293.525 260.697 294.127 261.976 294.127C263.18 294.127 264.685 293.525 264.685 292.095L264.761 290.665Z" fill="black"/>
<path d="M273.34 285.096V286.375C274.319 284.87 276.351 284.72 276.802 284.72C279.135 284.72 280.415 286.225 280.415 288.407V296.159H277.78V289.913C277.78 288.708 277.479 287.279 275.824 287.279C275.523 287.279 274.996 287.354 274.394 287.805C273.566 288.483 273.34 289.386 273.34 291.343V296.159H270.631V285.021H273.34V285.096Z" fill="black"/>
<path d="M290.273 296.234L290.198 295.331C289.445 295.933 288.317 296.46 286.962 296.46C284.403 296.46 282.898 294.955 282.898 293.073C282.898 290.665 284.779 289.687 286.887 289.311C288.542 289.009 289.596 288.708 290.349 288.483C290.349 287.655 290.123 286.827 288.467 286.827C286.435 286.827 286.209 287.956 286.209 288.483L283.5 288.332C283.575 287.58 283.726 284.72 288.392 284.72C291.628 284.72 293.058 285.924 293.058 287.881V294.353C293.058 295.181 293.133 295.406 293.585 296.159H290.273V296.234ZM290.273 290.665C289.822 290.891 289.144 291.117 288.166 291.267C286.962 291.418 285.683 291.719 285.683 292.772C285.683 293.525 286.209 294.127 287.489 294.127C288.693 294.127 290.198 293.525 290.198 292.095L290.273 290.665Z" fill="black"/>
<path d="M618.252 302.632C620.058 304.739 621.037 307.674 621.037 311.437C621.037 311.663 621.037 311.964 621.037 312.114C621.037 312.491 620.735 312.716 620.359 312.716H602.673C602.974 314.824 603.877 316.404 605.307 317.683C606.737 318.888 608.468 319.49 610.576 319.49C611.93 319.49 613.21 319.264 614.414 318.737C615.392 318.361 616.22 317.834 616.973 317.157C617.274 316.856 617.725 316.931 618.026 317.232L619.23 318.436C619.531 318.737 619.531 319.264 619.155 319.565C618.101 320.543 616.973 321.296 615.618 321.823C614.037 322.5 612.231 322.801 610.275 322.801C608.017 322.801 605.985 322.349 604.179 321.371C602.448 320.393 601.018 319.038 600.039 317.232C599.061 315.426 598.609 313.394 598.609 311.136C598.609 308.878 599.061 306.846 600.039 305.04C601.018 303.309 602.372 301.879 604.103 300.901C605.834 299.922 607.866 299.396 610.124 299.396C613.661 299.471 616.37 300.524 618.252 302.632ZM617.274 309.631C617.123 307.523 616.446 305.868 615.166 304.664C613.887 303.459 612.156 302.857 610.049 302.857C608.017 302.857 606.286 303.459 604.931 304.664C603.576 305.868 602.749 307.523 602.523 309.631H617.274Z" fill="#58B947"/>
<path d="M595.599 299.546C596.051 299.546 596.352 299.922 596.352 300.299V320.318C596.352 322.5 595.9 324.457 594.922 326.113C593.943 327.768 592.589 329.048 590.783 329.951C588.976 330.854 586.944 331.305 584.536 331.305C581.375 331.305 578.365 330.327 575.58 328.521C575.279 328.295 575.129 327.844 575.354 327.467L576.333 325.812C576.559 325.435 577.085 325.36 577.462 325.586C578.365 326.263 579.343 326.79 580.322 327.166C581.526 327.618 582.88 327.844 584.386 327.844C586.794 327.844 588.675 327.166 590.105 325.812C591.535 324.457 592.288 322.651 592.288 320.393V317.157C591.46 318.587 590.331 319.64 588.976 320.393C587.546 321.145 585.966 321.522 584.16 321.522C582.052 321.522 580.246 321.07 578.666 320.092C577.085 319.113 575.806 317.834 574.978 316.103C574.075 314.447 573.699 312.491 573.699 310.308C573.699 308.126 574.15 306.244 574.978 304.589C575.881 302.933 577.085 301.653 578.666 300.675C580.246 299.772 582.052 299.245 584.16 299.245C585.966 299.245 587.622 299.621 588.976 300.374C590.331 301.127 591.46 302.18 592.288 303.61V300.148C592.288 299.697 592.664 299.396 593.04 299.396H595.599V299.546ZM588.675 317.383C589.804 316.705 590.632 315.802 591.309 314.598C591.987 313.394 592.288 312.114 592.288 310.609C592.288 309.104 591.987 307.749 591.309 306.545C590.707 305.341 589.804 304.438 588.675 303.761C587.546 303.083 586.267 302.782 584.837 302.782C583.407 302.782 582.128 303.083 580.999 303.761C579.87 304.438 578.967 305.341 578.365 306.545C577.687 307.749 577.386 309.104 577.386 310.609C577.386 312.867 578.139 314.748 579.494 316.178C580.848 317.608 582.655 318.361 584.837 318.361C586.267 318.436 587.546 318.06 588.675 317.383Z" fill="#58B947"/>
<path d="M568.882 301.804C570.463 303.384 571.215 305.567 571.215 308.427V321.973C571.215 322.425 570.839 322.726 570.463 322.726H567.904C567.452 322.726 567.151 322.35 567.151 321.973V309.48C567.151 307.524 566.625 306.018 565.496 304.889C564.367 303.761 562.862 303.234 560.98 303.234C558.873 303.234 557.217 303.911 555.938 305.191C554.658 306.47 553.906 308.201 553.755 310.233V321.823C553.755 322.274 553.379 322.575 553.003 322.575H550.444C549.992 322.575 549.691 322.199 549.691 321.823V300.223C549.691 299.772 550.068 299.471 550.444 299.471H553.003C553.454 299.471 553.755 299.847 553.755 300.223V304.363C555.336 301.051 558.271 299.396 562.561 299.32C565.195 299.471 567.377 300.223 568.882 301.804Z" fill="#58B947"/>
<path d="M545.552 300.374V321.973C545.552 322.425 545.176 322.726 544.8 322.726H542.241C541.789 322.726 541.488 322.349 541.488 321.973V317.834C539.983 321.145 537.123 322.801 532.909 322.876C530.199 322.876 528.092 322.048 526.587 320.468C525.082 318.887 524.329 316.705 524.329 313.845V300.298C524.329 299.847 524.705 299.546 525.082 299.546H527.64C528.092 299.546 528.393 299.922 528.393 300.298V312.791C528.393 314.748 528.92 316.253 529.974 317.382C531.027 318.511 532.532 319.038 534.339 319.038C536.521 319.038 538.252 318.21 539.456 316.705C540.736 315.2 541.338 313.318 541.338 310.91V300.298C541.338 299.847 541.714 299.546 542.09 299.546H544.649C545.176 299.546 545.552 299.922 545.552 300.374Z" fill="#58B947"/>
<path d="M515.9 300.901C517.706 301.879 519.061 303.309 520.115 305.04C521.093 306.771 521.62 308.803 521.62 311.136C521.62 313.469 521.093 315.426 520.115 317.232C519.136 319.038 517.706 320.393 515.9 321.371C514.094 322.349 512.062 322.876 509.729 322.876C507.396 322.876 505.364 322.349 503.558 321.371C501.751 320.393 500.397 318.963 499.343 317.232C498.365 315.501 497.838 313.394 497.838 311.136C497.838 308.878 498.365 306.846 499.343 305.04C500.321 303.309 501.751 301.879 503.558 300.901C505.364 299.922 507.396 299.396 509.729 299.396C512.062 299.471 514.094 299.922 515.9 300.901ZM505.74 304.062C504.536 304.739 503.633 305.717 502.955 306.997C502.278 308.201 501.977 309.631 501.977 311.211C501.977 312.792 502.278 314.222 502.955 315.501C503.633 316.78 504.536 317.759 505.74 318.436C506.944 319.113 508.299 319.49 509.804 319.49C511.309 319.49 512.664 319.113 513.793 318.436C514.997 317.759 515.9 316.78 516.577 315.501C517.255 314.222 517.556 312.792 517.556 311.211C517.556 309.631 517.255 308.201 516.577 306.997C515.9 305.793 514.997 304.814 513.793 304.062C512.589 303.384 511.309 303.008 509.804 303.008C508.224 303.008 506.869 303.309 505.74 304.062Z" fill="#58B947"/>
<path d="M491.064 290.214H493.623C494.075 290.214 494.376 290.59 494.376 290.966V321.898C494.376 322.349 494 322.65 493.623 322.65H491.064C490.613 322.65 490.312 322.274 490.312 321.898V290.966C490.237 290.59 490.613 290.214 491.064 290.214Z" fill="#58B947"/>
<path d="M486.549 311.286C486.549 307.448 485.646 304.513 483.764 302.406C481.883 300.298 479.098 299.245 475.41 299.245C473.153 299.245 471.045 299.771 469.314 300.75C467.508 301.728 466.154 303.158 465.1 304.964C464.122 306.771 463.595 308.803 463.595 311.136C463.595 313.469 464.122 315.501 465.1 317.307C466.078 319.038 467.508 320.468 469.239 321.446C471.045 322.424 473.153 322.951 475.486 322.951C477.518 322.951 479.399 322.575 481.055 321.898C482.485 321.295 483.764 320.468 484.818 319.489C485.044 319.264 485.044 318.887 484.818 318.661L482.711 316.479C482.485 316.253 482.108 316.253 481.883 316.479C481.205 317.081 480.377 317.608 479.474 317.984C478.345 318.436 477.217 318.661 476.012 318.661C474.281 318.661 472.776 318.21 471.572 317.232C470.368 316.253 469.54 314.898 469.164 313.243V313.092H485.646C486.172 313.092 486.549 312.716 486.549 312.189C486.549 311.813 486.549 311.587 486.549 311.286ZM469.089 309.329V309.179C469.39 307.373 470.067 306.018 471.196 304.964C472.325 303.911 473.755 303.384 475.486 303.384C477.292 303.384 478.797 303.911 479.851 304.964C480.98 306.018 481.506 307.448 481.582 309.179V309.329H469.089Z" fill="#222446"/>
<path d="M456.144 322.65H460.359C460.66 322.65 460.961 322.349 460.961 322.048V290.966C460.961 290.665 460.66 290.364 460.359 290.364H456.144C455.843 290.364 455.542 290.665 455.542 290.966V302.857C455.542 302.857 453.736 299.17 447.414 299.17C445.307 299.17 443.35 299.696 441.694 300.675C440.039 301.653 438.759 303.008 437.856 304.814C436.953 306.62 436.501 308.652 436.501 310.985C436.501 313.318 436.953 315.425 437.856 317.232C438.759 319.038 440.114 320.468 441.694 321.446C443.35 322.425 445.307 322.951 447.489 322.951C449.22 322.951 450.725 322.575 452.08 321.973C453.359 321.296 454.488 320.317 455.316 319.038L455.542 318.662V322.124C455.542 322.349 455.768 322.65 456.144 322.65ZM453.66 316.329C452.381 317.683 450.725 318.361 448.769 318.361C446.812 318.361 445.156 317.683 443.877 316.329C442.597 314.974 441.995 313.243 441.995 311.06C441.995 308.953 442.673 307.147 443.877 305.792C445.156 304.438 446.737 303.76 448.769 303.76C450.725 303.76 452.381 304.438 453.66 305.792C454.94 307.147 455.542 308.878 455.542 311.06C455.542 313.243 454.865 314.974 453.66 316.329Z" fill="#222446"/>
<path d="M432.739 317.232C433.792 315.426 434.244 313.394 434.244 311.061C434.244 308.728 433.717 306.696 432.739 304.965C431.685 303.234 430.255 301.804 428.449 300.825C426.643 299.847 424.46 299.32 422.127 299.32C419.719 299.32 417.536 299.847 415.73 300.825C413.924 301.804 412.419 303.159 411.44 304.965C410.387 306.696 409.935 308.803 409.935 311.061C409.935 313.394 410.462 315.501 411.44 317.232C412.494 319.038 413.924 320.393 415.73 321.371C417.536 322.35 419.719 322.876 422.127 322.876C424.535 322.876 426.643 322.35 428.449 321.371C430.255 320.393 431.76 318.963 432.739 317.232ZM426.944 316.329C425.664 317.683 424.084 318.361 422.127 318.361C420.095 318.361 418.439 317.683 417.235 316.329C415.956 314.974 415.354 313.243 415.354 311.136C415.354 309.029 415.956 307.223 417.235 305.943C418.515 304.588 420.17 303.911 422.127 303.911C424.084 303.911 425.739 304.588 426.944 305.943C428.223 307.298 428.825 309.029 428.825 311.136C428.825 313.243 428.148 314.974 426.944 316.329Z" fill="#222446"/>
<path d="M408.505 318.737C408.731 318.511 408.656 318.135 408.43 317.909L405.947 315.877C405.721 315.651 405.344 315.726 405.119 315.952C403.689 317.457 401.732 318.21 399.173 318.21C397.216 318.21 395.636 317.533 394.432 316.253C393.228 314.974 392.626 313.243 392.626 311.06C392.626 309.028 393.228 307.297 394.432 306.018C395.636 304.739 397.216 304.061 399.173 304.061C401.431 304.061 403.388 304.739 404.893 306.168C405.119 306.394 405.495 306.394 405.721 306.168L408.204 303.835C408.43 303.61 408.43 303.233 408.28 303.008C407.301 301.879 406.097 301.051 404.667 300.374C403.011 299.621 401.13 299.245 399.023 299.245C396.69 299.245 394.658 299.771 392.851 300.75C391.12 301.728 389.691 303.158 388.712 304.889C387.734 306.695 387.207 308.727 387.207 311.06C387.207 313.393 387.734 315.425 388.712 317.232C389.691 318.962 391.045 320.392 392.851 321.371C394.582 322.349 396.69 322.876 398.947 322.876C401.205 322.876 403.162 322.5 404.893 321.672C406.323 320.919 407.527 319.941 408.505 318.737Z" fill="#222446"/>
<path d="M554.432 239.113V231.06C554.432 225.792 550.143 221.578 544.95 221.578V226.62C547.433 226.62 549.39 228.652 549.39 231.06V239.038C549.39 242.199 550.82 244.983 553.002 246.865C550.82 248.746 549.39 251.606 549.39 254.692V265.002C549.39 267.486 547.358 269.442 544.95 269.442V274.485C550.218 274.485 554.432 270.195 554.432 265.002V254.842C554.432 251.907 556.841 249.499 559.776 249.499V244.456C556.841 244.456 554.432 242.048 554.432 239.113Z" fill="#222446"/>
<path d="M453.736 231.06V239.038C453.736 241.973 451.328 244.381 448.393 244.381V249.423C451.328 249.423 453.736 251.832 453.736 254.767V265.077C453.736 270.345 458.026 274.56 463.219 274.56V269.518C460.735 269.518 458.778 267.486 458.778 265.077V254.842C458.778 251.681 457.348 248.897 455.166 247.015C457.348 245.134 458.778 242.274 458.778 239.188V231.06C458.778 228.577 460.81 226.62 463.219 226.62V221.578C457.95 221.578 453.736 225.867 453.736 231.06Z" fill="#222446"/>
<path d="M538.402 239.113V231.06C538.402 225.792 534.113 221.578 528.92 221.578H479.249C473.981 221.578 469.766 225.867 469.766 231.06V239.038C469.766 241.973 467.358 244.381 464.423 244.381V249.423C467.358 249.423 469.766 251.832 469.766 254.767V265.077C469.766 270.345 474.056 274.56 479.249 274.56H528.92C534.188 274.56 538.402 270.27 538.402 265.077V254.842C538.402 251.907 540.811 249.499 543.746 249.499V244.456C540.811 244.456 538.402 242.048 538.402 239.113ZM474.809 265.153V254.842C474.809 252.885 474.282 251.079 473.303 249.499H476.088C479.023 249.499 481.431 251.907 481.431 254.842V269.668H479.324C476.765 269.593 474.809 267.636 474.809 265.153ZM486.398 262.368H521.695V269.593H486.398V262.368ZM533.36 254.842V265.153C533.36 267.636 531.328 269.593 528.92 269.593H526.813V254.842C526.813 251.907 529.221 249.499 532.156 249.499H534.94C533.887 251.004 533.36 252.885 533.36 254.842ZM532.081 244.456C526.361 244.456 521.695 249.122 521.695 254.842V257.401H486.398V254.842C486.398 249.122 481.732 244.456 476.013 244.456H473.228C474.207 242.876 474.733 241.07 474.733 239.113V231.06C474.733 228.577 476.765 226.62 479.174 226.62H528.845C531.328 226.62 533.285 228.652 533.285 231.06V239.038C533.285 240.994 533.812 242.801 534.79 244.381H532.081V244.456Z" fill="#58B947"/>
</svg>
