<svg width="252" height="28" viewBox="0 0 252 28" fill="none" xmlns="http://www.w3.org/2000/svg">
<path fill-rule="evenodd" clip-rule="evenodd" d="M3.951 19.8382C3.29128 19.3654 2.75555 18.7403 2.38941 18.0159C1.98749 17.1695 1.89367 16.2093 2.12415 15.301H0.0204928C-0.0655066 16.4806 0.119925 17.6642 0.562553 18.761C0.919116 19.6962 1.52256 20.5173 2.30868 21.1368C3.15338 21.7769 4.11825 22.2406 5.14584 22.5001C6.31374 22.8337 7.52529 22.9892 8.73958 22.9614C9.85672 22.9701 10.9714 22.8557 12.0634 22.62C12.8775 22.4642 13.658 22.1676 14.3701 21.7435C14.9366 21.4016 15.4405 20.9656 15.8602 20.4541C16.1842 20.0126 16.4574 19.536 16.6744 19.0332C16.8598 18.5978 16.9952 18.1428 17.0781 17.6769C17.131 17.3405 17.155 17.0001 17.1496 16.6596C17.1444 15.867 16.9829 15.0832 16.6744 14.353C16.4098 13.7215 15.991 13.1663 15.4565 12.7384C14.898 12.2968 14.2838 11.9307 13.6297 11.6496C12.9032 11.3486 12.1563 11.0996 11.3945 10.9046L6.04543 9.54598C5.60441 9.45314 5.17338 9.31796 4.75833 9.14231C4.36243 8.97647 3.99564 8.7483 3.6719 8.46647C3.35172 8.21512 3.09627 7.89087 2.92686 7.52075C2.73394 7.09448 2.64085 6.62982 2.65467 6.16214C2.65039 5.45627 2.81238 4.75931 3.12753 4.12768C3.44346 3.60152 3.85681 3.14042 4.34544 2.76907C4.87463 2.40362 5.47524 2.15442 6.10771 2.03787C6.80125 1.9063 7.50546 1.83912 8.21136 1.83719C8.96915 1.84038 9.72231 1.95541 10.4465 2.17857C11.1327 2.36907 11.7757 2.69018 12.3402 3.1243C12.8956 3.54596 13.3581 4.07755 13.6989 4.68589C14.062 5.37459 14.249 6.14247 14.2432 6.92102H16.3469C16.3831 5.88 16.1503 4.84723 15.671 3.92239C15.2583 3.07626 14.6551 2.33727 13.9088 1.76338C13.1562 1.14783 12.2761 0.707389 11.3322 0.47397C10.3284 0.144789 9.27686 -0.0150152 8.22059 0.001109C6.659 0.001109 5.44109 0.201787 4.43078 0.683874C3.48276 1.1452 2.66621 1.62268 2.12415 2.29852C1.60256 2.88919 1.20977 3.58207 0.970828 4.33297C0.792775 4.94947 0.699651 5.58737 0.694031 6.22903C0.679615 6.97066 0.818614 7.70728 1.10231 8.39266C1.34462 8.96653 1.71647 9.47653 2.18873 9.88274C2.62503 10.3346 3.15817 10.6817 3.74802 10.8977C4.29239 11.1076 4.90595 11.3106 5.57949 11.5112L10.4557 12.7268C10.5323 12.7481 10.6108 12.7696 10.6909 12.7915L10.6914 12.7917L10.6915 12.7917L10.6915 12.7917C11.1054 12.905 11.561 13.0297 12.015 13.1997C12.5322 13.4047 13.0308 13.6539 13.5051 13.9447C13.9202 14.2756 14.286 14.664 14.5915 15.0981C14.8756 15.5672 15.016 16.1093 14.9952 16.6573C15.0179 17.3821 14.8024 18.0943 14.3816 18.6849C13.9893 19.239 13.4818 19.7017 12.8938 20.0412C12.3587 20.4518 11.6759 20.6547 11.0001 20.8554C10.377 20.9848 9.7427 21.0528 9.10634 21.0584C8.1496 21.0742 7.19409 20.9829 6.25764 20.7862C5.43378 20.6254 4.64986 20.3032 3.951 19.8382ZM25.4837 7.72343C26.7708 7.72343 27.8572 8.06482 28.533 8.74066C29.2781 9.41651 29.7579 10.2999 29.9539 11.5963H31.9261C31.7162 9.76481 31.0403 8.4062 29.8224 7.52968C28.5614 6.61896 27.0389 6.1422 25.4837 6.17107C24.3616 6.13887 23.2476 6.37035 22.2313 6.84691C21.3321 7.30076 20.528 7.92242 19.8624 8.67838C19.2386 9.46625 18.7619 10.3602 18.4553 11.3172C18.1549 12.3758 17.9952 13.4693 17.9802 14.5695C17.9608 15.6723 18.1213 16.7708 18.4553 17.8219C18.73 18.7921 19.2099 19.692 19.8624 20.4607C20.5112 21.2063 21.3118 21.8048 22.2105 22.216C23.227 22.6921 24.3409 22.9236 25.4629 22.8919C27.2944 22.8919 28.7798 22.3591 29.9355 21.2772C31.0911 20.1954 31.7669 18.6984 32.0368 16.7355H30.0739C30.0667 17.3738 29.9086 18.0014 29.6125 18.5669C29.3525 19.0924 29.0089 19.5723 28.5953 19.9878C28.1957 20.4021 27.7109 20.7248 27.1744 20.9335C26.6378 21.1546 26.064 21.2712 25.4837 21.2772C24.6312 21.2903 23.7903 21.0787 23.0455 20.6637C22.3549 20.2728 21.7544 19.7407 21.2833 19.1021C20.7747 18.4634 20.4047 17.7257 20.1968 16.9361C19.9715 16.1438 19.8566 15.3241 19.8555 14.5003C19.8706 13.6768 19.9852 12.8582 20.1968 12.0622C20.4505 11.2907 20.8166 10.5609 21.2833 9.89629C21.7498 9.25411 22.3513 8.72188 23.0455 8.337C23.789 7.91887 24.6308 7.70704 25.4837 7.72343ZM35.5672 7.22791C34.9793 7.68587 34.5045 8.27291 34.1797 8.94365C33.8143 9.7163 33.6103 10.5553 33.58 11.4094H35.5452C35.5452 10.12 35.9489 9.16739 36.7631 8.56074C37.5774 7.9541 38.5946 7.68422 39.8148 7.68422C40.3555 7.68856 40.8952 7.73251 41.4294 7.8157C41.906 7.88821 42.3659 8.04439 42.7881 8.27703C43.1652 8.53242 43.4677 8.88348 43.6646 9.29426C43.9049 9.79776 44.0219 10.3512 44.006 10.9089C44.0228 11.2816 43.9542 11.6532 43.8053 11.9953C43.7061 12.2402 43.5418 12.4532 43.3301 12.6112C43.1034 12.7673 42.8513 12.8828 42.5851 12.9526C42.2279 13.0308 41.8641 13.0748 41.4986 13.0841C40.8025 13.1703 40.1332 13.2585 39.4728 13.3456L39.4725 13.3456C39.109 13.3935 38.7481 13.441 38.387 13.4877C37.4589 13.5989 36.5483 13.826 35.6767 14.1636C34.9087 14.4561 34.2315 14.9462 33.7137 15.5845C33.1694 16.2603 32.9687 17.1368 32.9687 18.2232C32.9504 18.9459 33.0873 19.664 33.37 20.3292C33.6554 20.8753 34.0476 21.3585 34.5234 21.7501C35.0369 22.1165 35.6096 22.3919 36.2164 22.5643C36.9003 22.7586 37.6093 22.8503 38.3201 22.8365C39.0039 22.8496 39.6868 22.7815 40.3545 22.6335C40.8771 22.4996 41.3786 22.2939 41.8446 22.0223C42.3069 21.7569 42.719 21.4126 43.0625 21.0051C43.4613 20.5821 43.8254 20.1278 44.1513 19.6464H44.2205C44.2065 20.01 44.2297 20.374 44.2897 20.7329C44.3212 21.038 44.4321 21.3295 44.6114 21.5784C44.7907 21.8273 45.0321 22.0249 45.3115 22.1515C45.6772 22.2998 46.0705 22.3682 46.4648 22.3521H47.1407C47.2033 22.3521 47.2932 22.338 47.3918 22.3225C47.5111 22.3037 47.6431 22.2829 47.7542 22.2829V20.6683C47.5704 20.78 47.3542 20.8263 47.1407 20.7998C46.391 20.7998 45.9874 20.4607 45.9874 19.6464V11.1742C46.014 10.2642 45.8275 9.36055 45.443 8.53537C45.1212 7.91234 44.6516 7.37774 44.0752 6.97839C43.4943 6.61722 42.8526 6.36476 42.1814 6.23335C41.4879 6.10178 40.7837 6.0346 40.0778 6.03267C39.2338 6.01207 38.3907 6.10281 37.5704 6.30255C36.8406 6.45333 36.1552 6.76994 35.5672 7.22791ZM43.5775 14.0541C43.6932 13.9749 43.7918 13.8733 43.8676 13.7553H43.8537L44.142 13.6769V16.175C44.1671 16.9038 44.0085 17.6272 43.6807 18.2786C43.3518 18.8548 42.9407 19.3801 42.4605 19.8379C41.9701 20.3216 41.3668 20.6752 40.7052 20.8667C40.0254 21.0868 39.316 21.2019 38.6015 21.208C38.1414 21.2065 37.6838 21.1389 37.2429 21.0074C36.8202 20.8847 36.4275 20.6757 36.0896 20.3938C35.762 20.1031 35.486 19.7592 35.273 19.3766C35.0787 18.9419 34.9872 18.4683 35.0055 17.9926C35.0055 17.2475 35.2177 16.634 35.679 16.2303C36.1857 15.7835 36.7888 15.4598 37.4413 15.2846C38.2195 15.077 39.011 14.9229 39.8102 14.8233C40.3285 14.7381 40.8721 14.6511 41.4088 14.5651L41.4096 14.565L41.4103 14.5649L41.4119 14.5646L41.4165 14.5639C41.7203 14.5153 42.0218 14.467 42.3152 14.4196C42.612 14.37 42.9055 14.3022 43.194 14.2166C43.3314 14.1886 43.4618 14.1334 43.5775 14.0541ZM50.7667 0.404868V22.4171H48.8038V0.404868H50.7667ZM53.281 8.93943C53.6058 8.26869 54.0806 7.68165 54.6685 7.22369C55.2565 6.76572 55.9419 6.44911 56.6717 6.29833C57.492 6.09872 58.3351 6.00798 59.1791 6.02845C59.885 6.03038 60.5892 6.09756 61.2827 6.22913C61.9539 6.36054 62.5956 6.613 63.1765 6.97417C63.75 7.37595 64.2165 7.9121 64.5351 8.53576C64.9196 9.36094 65.106 10.2646 65.0794 11.1746V19.6468C65.0794 20.4611 65.4831 20.8002 66.2327 20.8002C66.4462 20.8267 66.6624 20.7804 66.8463 20.6687V22.2833C66.7351 22.2833 66.6032 22.3041 66.4839 22.3229C66.3853 22.3384 66.2953 22.3525 66.2327 22.3525H65.5569C65.1626 22.3686 64.7693 22.3002 64.4036 22.1518C64.1363 22.0167 63.9014 21.8253 63.7151 21.5907C63.5287 21.3562 63.3953 21.0842 63.3241 20.7932C63.2643 20.4344 63.2412 20.0704 63.2549 19.7068H63.1857C62.8598 20.1875 62.4966 20.6418 62.0993 21.0654C61.7414 21.4592 61.3308 21.8015 60.879 22.0826C60.413 22.3542 59.9115 22.5599 59.389 22.6939C58.722 22.8417 58.0398 22.9099 57.3568 22.8969C56.646 22.9105 55.9371 22.8187 55.2532 22.6247C54.6463 22.4523 54.0736 22.1769 53.5601 21.8105C53.0846 21.4186 52.6925 20.9355 52.4068 20.3896C52.1235 19.7252 51.9859 19.0079 52.0031 18.2859C52.0031 17.1995 52.2061 16.323 52.7481 15.6471C53.2659 15.0089 53.9431 14.5187 54.7111 14.2262C55.588 13.8881 56.504 13.6618 57.4375 13.5527C57.7996 13.5059 58.1617 13.4582 58.5265 13.4102L58.5271 13.4101C59.1869 13.3232 59.8556 13.2352 60.5492 13.149C60.9147 13.1398 61.2785 13.0957 61.6356 13.0176C61.8971 12.9501 62.1451 12.8385 62.3691 12.6877C62.5805 12.5303 62.7448 12.3181 62.8443 12.0741C62.993 11.732 63.0616 11.3604 63.045 10.9877C63.0609 10.43 62.9439 9.87657 62.7036 9.37307C62.5074 8.96187 62.2048 8.61065 61.8271 8.35585C61.4051 8.12285 60.9451 7.96665 60.4685 7.89452C59.9343 7.81015 59.3946 7.7662 58.8538 7.76304C57.6336 7.76304 56.6187 8.03292 55.8021 8.63956C54.9856 9.24621 54.5842 10.1989 54.5842 11.4883H52.6213C52.6987 10.609 52.9233 9.74895 53.2856 8.94404L53.281 8.93943ZM62.9689 13.7511C62.8925 13.869 62.7933 13.9705 62.6773 14.0497C62.5613 14.1289 62.4306 14.1842 62.293 14.2124C62.0139 14.3274 61.7178 14.396 61.4165 14.4154C61.1445 14.4592 60.8658 14.5038 60.585 14.5487L60.5844 14.5488C60.0225 14.6386 59.452 14.7299 58.9092 14.819C58.0862 14.9124 57.2713 15.0666 56.4711 15.2804C55.8186 15.4556 55.2155 15.7792 54.7088 16.2261C54.2475 16.6298 54.0329 17.2433 54.0329 17.9884C54.0154 18.466 54.1086 18.9413 54.3051 19.377C54.5209 19.7596 54.8001 20.1028 55.1309 20.3919C55.4695 20.6728 55.862 20.8816 56.2842 21.0054C56.7244 21.1368 57.1812 21.2044 57.6405 21.2061C58.355 21.2002 59.0644 21.0851 59.7442 20.8647C60.4032 20.6731 61.0041 20.3204 61.4926 19.8383C61.9714 19.3798 62.3816 18.8546 62.7105 18.279C63.0441 17.6292 63.2076 16.9055 63.1857 16.1753V13.6773L62.9689 13.7557V13.7511ZM85.463 1.08066C84.1824 0.615601 82.828 0.386615 81.4656 0.404814H72.0499V22.4194H81.5348C83.047 22.4386 84.5464 22.1399 85.9359 21.5428C87.1425 21.0336 88.2095 20.2426 89.0475 19.2362C89.8846 18.1937 90.507 16.9958 90.879 15.7117C91.2987 14.2591 91.5054 12.7533 91.4926 11.2414C91.5144 9.62981 91.2625 8.02622 90.7475 6.49895C90.2805 5.24059 89.5651 4.08904 88.6439 3.11281C87.7697 2.16709 86.6809 1.55352 85.463 1.08066ZM83.1656 18.016C82.5084 18.2312 81.8226 18.3463 81.1312 18.3574C81.1312 18.3574 76.8708 18.3574 76.7855 18.3481V4.46219H80.2454C81.4656 4.46219 82.4136 4.60059 83.2256 5.00425C84.0375 5.40791 84.718 5.8208 85.1908 6.49664C85.7246 7.17233 86.0963 7.96144 86.2773 8.80328C86.5064 9.78005 86.621 10.7802 86.6187 11.7835C86.6201 12.8387 86.4607 13.888 86.1458 14.8951C85.8518 15.6348 85.4397 16.3219 84.9256 16.9296C84.4249 17.4154 83.8243 17.7861 83.1656 18.016ZM94.9596 7.19543C94.2524 7.58538 93.6489 8.13904 93.1996 8.81008C92.6748 9.55938 92.4599 10.4825 92.5999 11.3866H96.9825C96.9982 11.0379 97.0841 10.6959 97.2351 10.3812C97.3861 10.0665 97.5991 9.78552 97.8613 9.55512C98.3342 9.21374 99.017 9.01076 99.8935 9.01076C100.257 8.9965 100.621 9.02047 100.98 9.08226C101.29 9.10216 101.591 9.1946 101.859 9.35214C102.115 9.52395 102.325 9.75604 102.47 10.028C102.627 10.3675 102.697 10.741 102.673 11.1144C102.685 11.3033 102.656 11.4926 102.586 11.6685C102.516 11.8445 102.408 12.0027 102.269 12.1316C101.937 12.4076 101.54 12.5949 101.116 12.676C100.561 12.8154 99.9941 12.9065 99.4229 12.9482C98.7656 12.9809 98.1104 13.0479 97.46 13.1489C96.7926 13.209 96.1332 13.3381 95.4924 13.5341C94.8642 13.7068 94.2688 13.9819 93.7301 14.3483C93.2209 14.7233 92.8037 15.2092 92.5099 15.7692C92.1641 16.4617 92.0014 17.2312 92.0371 18.0043C92.0196 18.7264 92.1573 19.4437 92.4407 20.108C92.7059 20.6865 93.1005 21.1963 93.594 21.5981C94.123 21.9954 94.7203 22.2925 95.3563 22.4746C96.0393 22.6731 96.7489 22.7649 97.46 22.7468C98.4473 22.7318 99.4274 22.5765 100.371 22.2855C101.289 21.9878 102.124 21.4772 102.807 20.7954C102.837 20.9254 102.853 21.0522 102.869 21.1802C102.886 21.3201 102.904 21.4614 102.941 21.6096L102.952 21.6577C103.017 21.9227 103.076 22.1654 103.141 22.3547H107.6C107.342 22.0179 107.208 21.5404 107.139 20.8646C107.027 20.1932 106.983 19.5125 107.007 18.8324V10.5885C107.007 9.64047 106.793 8.89543 106.331 8.28186C105.863 7.72141 105.289 7.25959 104.641 6.92325C103.932 6.58876 103.178 6.36101 102.403 6.24741C101.598 6.11534 100.783 6.04823 99.9673 6.04673C99.0802 6.03673 98.1949 6.12805 97.3285 6.31891C96.4983 6.48688 95.6992 6.78256 94.9596 7.19543ZM100.922 15.1764C101.221 15.1407 101.515 15.0726 101.799 14.9734C102.125 14.8962 102.413 14.7068 102.613 14.4383V16.0529C102.62 16.3934 102.597 16.7338 102.544 17.0702C102.476 17.5018 102.339 17.9199 102.14 18.3088C101.863 18.7284 101.491 19.0768 101.054 19.326C100.581 19.6559 99.8981 19.7874 99.0193 19.7874C98.6787 19.799 98.3379 19.7759 98.002 19.7182C97.6928 19.6544 97.3965 19.539 97.1255 19.3768C96.8577 19.2429 96.6418 19.0238 96.5119 18.754C96.3765 18.4321 96.3082 18.086 96.3113 17.7368C96.3011 17.3869 96.3697 17.0393 96.5119 16.7195C96.5681 16.5058 96.748 16.3376 96.9199 16.1769C96.9669 16.1329 97.0132 16.0896 97.0563 16.046C97.2192 15.8812 97.4293 15.8046 97.6853 15.7112C97.7446 15.6896 97.8063 15.6671 97.8706 15.6423C98.0873 15.5854 98.3435 15.5343 98.6112 15.4809C98.6797 15.4673 98.749 15.4535 98.8186 15.4394C99.177 15.369 99.5401 15.325 99.905 15.3079C100.248 15.2982 100.588 15.2541 100.922 15.1764ZM111.846 27.9829C113.337 27.9829 114.494 27.7107 115.371 27.1686C116.178 26.6242 116.861 25.6785 117.343 24.3822L123.979 6.49883H119.44L115.915 17.34H115.846L112.252 6.43655H107.639L113.198 21.3374C113.328 21.6611 113.396 22.0061 113.399 22.3547C113.402 22.816 113.261 23.2667 112.995 23.6441C112.723 24.0477 112.319 24.2484 111.708 24.3199C111.279 24.3546 110.848 24.3546 110.419 24.3199C109.992 24.2481 109.561 24.2034 109.129 24.1861V27.7799C109.579 27.8548 110.033 27.8995 110.488 27.9137C110.938 27.971 111.393 27.9941 111.846 27.9829ZM127.898 18.429C128.091 18.7466 128.344 19.0233 128.643 19.2432C128.967 19.4755 129.338 19.6331 129.73 19.7046C130.127 19.8131 130.539 19.8575 130.95 19.836C131.586 19.8229 132.21 19.661 132.772 19.3632C133.045 19.2185 133.278 19.0075 133.448 18.7496C133.638 18.4719 133.733 18.1402 133.72 17.8039C133.72 17.128 133.247 16.6506 132.361 16.3138C131.169 15.8864 129.947 15.5465 128.705 15.2966C128.316 15.2208 127.947 15.1189 127.6 15.0232L127.6 15.0232C127.346 14.9529 127.103 14.886 126.874 14.8352C126.312 14.6415 125.771 14.3919 125.259 14.0902C124.761 13.8087 124.359 13.3834 124.106 12.87C123.797 12.3337 123.634 11.7264 123.631 11.1077C123.631 10.0928 123.834 9.21397 124.244 8.6004C124.64 7.969 125.174 7.4358 125.806 7.04111C126.493 6.63305 127.25 6.35763 128.039 6.22918C128.868 6.09622 129.706 6.02835 130.546 6.02619C131.385 6.02591 132.223 6.09379 133.051 6.22918C133.81 6.40083 134.542 6.67393 135.229 7.04111C135.876 7.41642 136.414 7.95383 136.79 8.6004C137.225 9.34407 137.48 10.1789 137.535 11.0385H133.406C133.335 10.162 133.003 9.61763 132.458 9.34544C131.82 9.05095 131.127 8.89378 130.424 8.88412C130.151 8.87799 129.878 8.90197 129.61 8.95562C129.326 8.95914 129.048 9.0278 128.795 9.1563C128.552 9.25076 128.34 9.41038 128.182 9.61763C127.979 9.82061 127.979 10.0928 127.979 10.4342C127.971 10.6191 128.011 10.803 128.094 10.9684C128.177 11.1338 128.301 11.2754 128.454 11.3799C128.78 11.6375 129.142 11.845 129.529 11.9958C130.002 12.1272 130.546 12.268 131.088 12.3994C131.395 12.4652 131.699 12.5332 132.004 12.6013C132.308 12.6693 132.613 12.7374 132.92 12.8031C133.544 12.9334 134.156 13.1147 134.751 13.3452C135.328 13.5335 135.872 13.8089 136.366 14.1617C136.857 14.4892 137.259 14.934 137.535 15.4557C137.849 16.0193 138.008 16.656 137.997 17.301C138.03 18.2195 137.818 19.1304 137.383 19.9398C136.991 20.6268 136.437 21.2073 135.768 21.6306C135.081 22.1036 134.29 22.4043 133.462 22.5071C132.595 22.6981 131.71 22.7894 130.823 22.7793C129.913 22.7893 129.005 22.6981 128.115 22.5071C127.285 22.3392 126.487 22.0435 125.748 21.6306C125.072 21.1916 124.495 20.6156 124.055 19.9398C123.594 19.264 123.379 18.3782 123.31 17.301H127.439C127.514 17.4631 127.572 17.6289 127.629 17.7921L127.629 17.7925C127.707 18.0148 127.782 18.2322 127.898 18.429Z" fill="white"/>
<line x1="149.5" y1="1" x2="149.5" y2="26" stroke="white"/>
<path d="M170.716 10.0911C170.631 9.37139 170.285 8.81268 169.679 8.41495C169.073 8.01722 168.33 7.81836 167.449 7.81836C166.805 7.81836 166.242 7.92253 165.759 8.13086C165.281 8.33919 164.907 8.62565 164.637 8.99023C164.372 9.35482 164.239 9.76912 164.239 10.2331C164.239 10.6214 164.331 10.9552 164.516 11.2346C164.705 11.5092 164.947 11.7388 165.24 11.9235C165.534 12.1034 165.842 12.2525 166.164 12.3709C166.486 12.4846 166.782 12.5769 167.051 12.6479L168.529 13.0456C168.908 13.1451 169.329 13.2824 169.793 13.4576C170.262 13.6328 170.709 13.8719 171.135 14.1749C171.566 14.4732 171.921 14.8567 172.201 15.3255C172.48 15.7942 172.62 16.3695 172.62 17.0513C172.62 17.8373 172.414 18.5475 172.002 19.182C171.595 19.8165 170.998 20.3207 170.212 20.6948C169.431 21.0688 168.481 21.2559 167.364 21.2559C166.322 21.2559 165.42 21.0878 164.658 20.7516C163.9 20.4154 163.304 19.9467 162.868 19.3453C162.437 18.744 162.194 18.0456 162.137 17.2502H163.955C164.002 17.7994 164.187 18.254 164.509 18.6138C164.836 18.9689 165.248 19.2341 165.745 19.4093C166.247 19.5797 166.786 19.665 167.364 19.665C168.036 19.665 168.64 19.556 169.175 19.3382C169.71 19.1157 170.134 18.8079 170.446 18.415C170.759 18.0172 170.915 17.5532 170.915 17.0229C170.915 16.54 170.78 16.147 170.51 15.8439C170.24 15.5409 169.885 15.2947 169.445 15.1053C169.005 14.9159 168.529 14.7502 168.017 14.6081L166.228 14.0968C165.091 13.7701 164.192 13.3037 163.529 12.6976C162.866 12.0916 162.534 11.2985 162.534 10.3184C162.534 9.50397 162.755 8.79374 163.195 8.18768C163.64 7.57688 164.237 7.1034 164.985 6.76722C165.738 6.42631 166.578 6.25586 167.506 6.25586C168.444 6.25586 169.277 6.42395 170.006 6.76012C170.735 7.09156 171.313 7.54611 171.739 8.12376C172.17 8.70141 172.397 9.35719 172.421 10.0911H170.716Z" fill="white"/>
<path d="M176.516 21.0002V6.45472H185.294V8.01722H178.277V12.932H184.839V14.4945H178.277V19.4377H185.408V21.0002H176.516Z" fill="white"/>
<path d="M190.065 21.0002H188.219L193.56 6.45472H195.378L200.719 21.0002H198.872L194.526 8.75586H194.412L190.065 21.0002ZM190.747 15.3184H198.19V16.8809H190.747V15.3184Z" fill="white"/>
<path d="M201.49 8.01722V6.45472H212.399V8.01722H207.825V21.0002H206.064V8.01722H201.49Z" fill="white"/>
<path d="M215.322 8.01722V6.45472H226.231V8.01722H221.657V21.0002H219.896V8.01722H215.322Z" fill="white"/>
<path d="M229.949 21.0002V6.45472H231.711V19.4377H238.472V21.0002H229.949Z" fill="white"/>
<path d="M242.199 21.0002V6.45472H250.978V8.01722H243.961V12.932H250.523V14.4945H243.961V19.4377H251.091V21.0002H242.199Z" fill="white"/>
</svg>
