<svg width="622" height="140" viewBox="0 0 622 140" fill="none" xmlns="http://www.w3.org/2000/svg">
<path fill-rule="evenodd" clip-rule="evenodd" d="M10.7696 94.3066C12.4199 97.5714 14.8346 100.389 17.8081 102.52C20.958 104.616 24.4913 106.068 28.2047 106.793C32.4255 107.679 36.7322 108.091 41.0444 108.02C43.9127 107.994 46.7715 107.688 49.58 107.105C52.6262 106.2 55.7036 105.285 58.1156 103.435C60.7657 101.905 63.0533 99.8193 64.8214 97.3216C66.718 94.6599 67.6894 91.4497 67.5868 88.1831C67.6805 85.7129 67.048 83.2694 65.7674 81.155C64.3903 79.1985 62.7415 77.4481 60.8707 75.9567C58.7328 74.646 56.4857 73.5225 54.1545 72.5986C52.1082 71.8324 50.0547 71.2703 48.1893 70.7597L48.1892 70.7597L48.1892 70.7597C47.8274 70.6607 47.4726 70.5636 47.1264 70.4673L25.1481 64.9883C22.1123 64.0838 19.3468 63.1689 16.8932 62.2228C14.2346 61.2493 11.8316 59.6852 9.86513 57.6484C7.73652 55.8175 6.06053 53.5187 4.96835 50.9322C3.68968 47.843 3.06319 44.5229 3.12816 41.1802C3.15349 38.2881 3.57323 35.4129 4.37575 32.6342C5.45273 29.2497 7.22311 26.1268 9.57403 23.4645C12.0172 20.4183 15.6976 18.2662 19.9706 16.1869C24.5243 14.014 30.0137 13.1095 37.0521 13.1095C41.813 13.0368 46.5527 13.7571 51.0771 15.2408C55.3312 16.2929 59.2979 18.278 62.6901 21.0525C66.0538 23.6391 68.7726 26.9699 70.633 30.7836C72.7932 34.9521 73.8424 39.6071 73.6792 44.2992H64.1976C64.2236 40.7901 63.3807 37.329 61.744 34.2249C60.208 31.483 58.1235 29.087 55.6204 27.1864C53.0759 25.2298 50.1777 23.7825 47.0848 22.9238C43.8207 21.918 40.4261 21.3995 37.0106 21.3852C33.8289 21.3939 30.6548 21.6966 27.5289 22.2897C24.6782 22.815 21.9711 23.9382 19.5859 25.5854C17.3835 27.2591 15.5205 29.3374 14.0965 31.7089C12.6761 34.5558 11.9459 37.6972 11.9652 40.8787C11.9029 42.9866 12.3225 45.081 13.192 47.0023C13.9556 48.6705 15.107 50.132 16.5501 51.2649C18.0093 52.5351 19.6625 53.5636 21.4469 54.3111C23.3176 55.1027 25.2604 55.712 27.2482 56.1305L51.3578 62.254C54.7913 63.1331 58.1579 64.2553 61.4321 65.6121C64.3804 66.879 67.149 68.5289 69.6661 70.5193C72.0754 72.4483 73.9627 74.9504 75.1555 77.7969C76.5459 81.0879 77.2736 84.6208 77.2972 88.1935C77.3214 89.7282 77.2136 91.2621 76.9749 92.7783C76.6013 94.8782 75.9909 96.929 75.1555 98.8915C74.1773 101.158 72.9462 103.306 71.4855 105.296C69.594 107.601 67.3227 109.567 64.7694 111.107C61.56 113.019 58.0417 114.356 54.3728 115.058C49.4508 116.12 44.4266 116.636 39.3914 116.597C33.9182 116.722 28.4575 116.021 23.1935 114.518C18.5619 113.348 14.213 111.258 10.4058 108.373C6.86255 105.581 4.14267 101.88 2.53556 97.6647C0.54053 92.7213 -0.295254 87.3865 0.092366 82.0699H9.57403C8.53524 86.1636 8.9581 90.4914 10.7696 94.3066ZM128.605 52.5011C125.559 49.455 120.662 47.9163 114.861 47.9163C111.017 47.8424 107.223 48.7971 103.872 50.6818C100.743 52.4165 98.0315 54.8154 95.9286 57.7098C93.8251 60.7054 92.1751 63.9949 91.0319 67.4722C90.078 71.0599 89.5613 74.7497 89.4932 78.4614C89.4985 82.1743 90.0163 85.8688 91.0319 89.4401C91.9686 92.9989 93.6363 96.3237 95.9286 99.2025C98.0523 102.081 100.759 104.479 103.872 106.241C107.228 108.112 111.018 109.065 114.861 109.006C117.476 108.979 120.063 108.454 122.481 107.457C124.899 106.516 127.084 105.062 128.886 103.195C130.75 101.322 132.298 99.159 133.471 96.7905C134.805 94.2414 135.518 91.4128 135.55 88.5356H144.397C143.181 97.3831 140.135 104.13 134.926 109.006C129.717 113.882 123.022 116.284 114.767 116.284C109.71 116.427 104.69 115.384 100.108 113.238C96.0571 111.384 92.4487 108.687 89.5244 105.326C86.5833 101.861 84.4206 97.8053 83.1825 93.4324C81.6768 88.6948 80.9534 83.7436 81.0408 78.7733C81.1084 73.8141 81.8284 68.8853 83.1825 64.1141C84.5643 59.8006 86.7127 55.7716 89.5244 52.2204C92.5245 48.8131 96.1487 46.0112 100.202 43.9656C104.783 41.8176 109.803 40.7743 114.861 40.9194C121.871 40.7893 128.733 42.9381 134.417 47.043C139.906 50.9936 142.952 57.1172 143.898 65.3721H135.009C134.126 59.5292 131.963 55.5473 128.605 52.5011ZM154.056 53.416C155.52 50.3929 157.66 47.7469 160.31 45.6828C162.96 43.6187 166.049 42.1916 169.339 41.512C173.036 40.6117 176.836 40.2027 180.64 40.2956C183.821 40.3043 186.996 40.6071 190.121 41.2001C193.147 41.7924 196.039 42.9303 198.657 44.5582C201.255 46.3581 203.372 48.7677 204.822 51.5759C206.556 55.2951 207.396 59.368 207.276 63.4695V101.656C207.276 105.326 209.095 106.854 212.474 106.854C213.436 106.974 214.411 106.765 215.24 106.262V113.539C214.738 113.539 214.144 113.633 213.606 113.718C213.162 113.787 212.756 113.851 212.474 113.851H209.428C207.65 113.924 205.878 113.615 204.23 112.947C202.97 112.376 201.882 111.486 201.074 110.364C200.266 109.242 199.766 107.928 199.624 106.553C199.354 104.935 199.249 103.295 199.312 101.656H199C197.531 103.826 195.89 105.873 194.093 107.78C192.545 109.617 190.687 111.168 188.604 112.365C186.503 113.589 184.243 114.516 181.887 115.12C178.878 115.786 175.8 116.094 172.718 116.035C169.514 116.097 166.318 115.683 163.236 114.808C160.501 114.031 157.92 112.789 155.605 111.138C153.46 109.373 151.693 107.195 150.407 104.733C149.132 101.735 148.515 98.4984 148.598 95.2414C148.598 90.3446 149.502 86.3939 151.956 83.3477C154.289 80.4711 157.342 78.2619 160.803 76.9435C164.732 75.4218 168.836 74.3984 173.019 73.8973C174.647 73.6869 176.273 73.4725 177.912 73.2566L177.912 73.2566C180.889 72.8643 183.906 72.4668 187.044 72.0779C188.691 72.036 190.331 71.8376 191.941 71.4853C193.141 71.1706 194.277 70.6499 195.299 69.9466C196.253 69.2342 196.994 68.2742 197.441 67.1707C198.112 65.6288 198.421 63.9538 198.345 62.2739C198.417 59.7603 197.89 57.2657 196.806 54.9963C195.919 53.1449 194.556 51.5626 192.856 50.4114C190.953 49.3629 188.88 48.659 186.732 48.3321C184.324 47.9571 181.892 47.7591 179.455 47.7395C173.955 47.7395 169.37 48.9559 165.7 51.6902C162.03 54.4245 160.211 58.7183 160.211 64.53H151.353C151.489 60.6802 152.409 56.8986 154.056 53.416ZM197.721 75.1033C197.38 75.6351 196.935 76.0931 196.414 76.4502C195.893 76.8073 195.305 77.0564 194.686 77.1826C193.385 77.5682 192.062 77.8737 190.724 78.0975C189.393 78.3125 188.024 78.5317 186.645 78.7524C184.224 79.1401 181.772 79.5327 179.434 79.9169C175.831 80.3658 172.264 81.0605 168.757 81.9962C165.816 82.7859 163.097 84.2447 160.814 86.2588C158.734 88.0782 157.778 90.8437 157.778 94.2017C157.695 96.3461 158.108 98.4806 158.984 100.44C159.944 102.164 161.188 103.715 162.664 105.025C164.187 106.295 165.957 107.237 167.862 107.79C169.85 108.383 171.912 108.688 173.986 108.695C177.206 108.667 180.404 108.148 183.468 107.156C186.45 106.293 189.169 104.699 191.379 102.519C193.544 100.455 195.397 98.088 196.879 95.4909C198.357 92.5547 199.072 89.2942 198.959 86.0093V74.7498L197.659 75.1033H197.721ZM228.818 114.144V14.9295H219.971V114.144H228.818ZM246.404 45.6636C243.754 47.7277 241.614 50.3736 240.15 53.3968L240.171 53.4176C238.538 57.0455 237.526 60.9219 237.177 64.885H246.024C246.024 59.0733 247.833 54.7795 251.514 52.0452C255.194 49.311 259.769 48.0946 265.268 48.0946C267.706 48.1088 270.138 48.3069 272.546 48.6872C274.694 49.0123 276.768 49.7163 278.67 50.7665C280.372 51.9149 281.736 53.498 282.62 55.3514C283.703 57.6207 284.231 60.1154 284.159 62.6289C284.234 64.3088 283.925 65.9835 283.254 67.5257C282.806 68.6255 282.065 69.5817 281.113 70.2912C280.103 70.9709 278.985 71.4736 277.807 71.7779C276.197 72.1302 274.557 72.3287 272.91 72.3705C269.784 72.7587 266.77 73.1556 263.796 73.5472C262.151 73.7638 260.518 73.9788 258.885 74.1899C254.677 74.6817 250.549 75.7017 246.596 77.2257C243.134 78.5441 240.082 80.7534 237.749 83.63C235.305 86.6762 234.391 90.6269 234.391 95.5237C234.313 98.7779 234.933 102.011 236.21 105.005C237.498 107.466 239.265 109.643 241.408 111.41C243.723 113.061 246.304 114.302 249.039 115.08C252.122 115.954 255.317 116.368 258.521 116.306C261.6 116.365 264.674 116.058 267.68 115.391C270.036 114.788 272.296 113.861 274.397 112.636C276.433 111.369 278.283 109.826 279.896 108.052C281.687 106.142 283.324 104.095 284.793 101.928H285.105C285.043 103.567 285.148 105.207 285.417 106.825C285.738 108.136 286.339 109.362 287.179 110.419C288.019 111.476 289.078 112.339 290.283 112.948C291.931 113.617 293.703 113.925 295.481 113.853H298.527C298.809 113.853 299.215 113.789 299.659 113.719C300.197 113.634 300.791 113.541 301.292 113.541V106.263C300.464 106.767 299.489 106.976 298.527 106.856C295.148 106.856 293.329 105.328 293.329 101.658V63.4711C293.449 59.3695 292.608 55.2967 290.875 51.5774C289.439 48.7664 287.337 46.3498 284.752 44.5389C282.134 42.911 279.241 41.7731 276.216 41.1808C273.09 40.5878 269.916 40.285 266.734 40.2763C262.93 40.1841 259.131 40.5931 255.433 41.4927C252.144 42.1724 249.054 43.5994 246.404 45.6636ZM282.502 76.4299C283.025 76.0729 283.471 75.6154 283.816 75.084V75.1048L284.793 74.7513V86.0108C284.892 89.3016 284.155 92.5636 282.651 95.4925C281.169 98.0869 279.32 100.454 277.162 102.521C274.96 104.693 272.252 106.283 269.281 107.147C266.218 108.14 263.02 108.659 259.8 108.686C257.729 108.678 255.671 108.373 253.687 107.781C251.784 107.223 250.015 106.282 248.488 105.016C246.998 103.713 245.739 102.166 244.766 100.441C243.88 98.4775 243.461 96.3354 243.54 94.1825C243.54 90.8244 244.506 88.0589 246.586 86.2395C248.869 84.2255 251.588 82.7666 254.529 81.9769C258.135 81.0135 261.809 80.3185 265.518 79.8976C267.965 79.4955 270.537 79.0842 273.071 78.679C274.337 78.4766 275.593 78.2757 276.819 78.0782C278.177 77.9908 279.511 77.6817 280.77 77.1633C281.39 77.0362 281.979 76.7868 282.502 76.4299Z" fill="white"/>
<path fill-rule="evenodd" clip-rule="evenodd" d="M367.185 14.9298C373.326 14.8478 379.43 15.8799 385.203 17.976C390.692 20.1073 395.599 22.8728 399.539 27.1354C403.691 31.5355 406.916 36.7258 409.021 42.3975C411.342 49.2813 412.477 56.5091 412.379 63.7729C412.437 70.5875 411.505 77.3744 409.614 83.9214C407.937 89.7094 405.132 95.1085 401.359 99.8074C397.581 104.343 392.772 107.908 387.334 110.204C381.071 112.895 374.313 114.241 367.497 114.155H324.747V14.9298H367.185ZM365.678 95.8463C368.794 95.7964 371.886 95.2777 374.848 94.3076C377.816 93.2714 380.523 91.6004 382.78 89.4108C385.097 86.6718 386.955 83.575 388.28 80.241C389.699 75.7015 390.418 70.9722 390.411 66.2161C390.422 61.6941 389.905 57.1862 388.873 52.7837C388.057 48.9893 386.382 45.4326 383.976 42.3871C381.844 39.341 378.777 37.48 375.118 35.6606C371.458 33.8412 367.185 33.2174 361.686 33.2174H346.091V95.8047C346.475 95.8463 365.678 95.8463 365.678 95.8463ZM420.073 52.8139C422.098 49.7894 424.818 47.2939 428.006 45.5363C431.339 43.6754 434.941 42.3427 438.683 41.5856C442.588 40.7254 446.578 40.3138 450.577 40.3589C454.254 40.3656 457.926 40.6681 461.555 41.2634C465.049 41.7754 468.447 42.8019 471.64 44.3095C474.561 45.8255 477.151 47.907 479.261 50.4331C481.34 53.1986 482.307 56.5567 482.307 60.8297V97.987C482.2 101.052 482.398 104.12 482.899 107.146C483.211 110.193 483.814 112.345 484.979 113.863H464.882C464.588 113.009 464.321 111.915 464.03 110.721L463.978 110.504C463.815 109.836 463.734 109.2 463.654 108.569V108.569C463.581 107.992 463.509 107.42 463.375 106.834C460.296 109.908 456.534 112.209 452.396 113.551C448.143 114.862 443.725 115.562 439.275 115.63C436.071 115.712 432.872 115.298 429.794 114.403C426.927 113.582 424.235 112.243 421.851 110.452C419.626 108.642 417.848 106.344 416.653 103.736C415.375 100.742 414.754 97.5089 414.833 94.2546C414.672 90.7697 415.406 87.3015 416.964 84.1804C418.288 81.6562 420.169 79.4662 422.464 77.7761C424.892 76.1246 427.576 74.8846 430.407 74.1061C433.295 73.2228 436.267 72.6409 439.275 72.3699C442.207 71.9148 445.16 71.6129 448.123 71.4654C450.697 71.2775 453.25 70.867 455.754 70.2386C457.666 69.8731 459.455 69.029 460.952 67.785C461.577 67.2036 462.064 66.4906 462.379 65.6976C462.693 64.9046 462.828 64.0514 462.772 63.2001C462.88 61.5171 462.566 59.8337 461.857 58.3033C461.202 57.0776 460.256 56.0315 459.102 55.2571C457.895 54.5471 456.538 54.1304 455.141 54.0407C453.524 53.7622 451.883 53.6542 450.244 53.7184C446.293 53.7184 443.216 54.6333 441.084 56.172C439.902 57.2105 438.942 58.4769 438.262 59.8954C437.581 61.3138 437.194 62.8551 437.123 64.4269H417.37C416.739 60.3521 417.707 56.1912 420.073 52.8139ZM458.831 80.5935C457.552 81.0407 456.227 81.3475 454.881 81.5084C453.376 81.8589 451.84 82.0574 450.296 82.101C448.651 82.1783 447.015 82.3763 445.399 82.6936C445.086 82.7572 444.774 82.8194 444.465 82.8809L444.464 82.8811C443.258 83.1217 442.103 83.3519 441.126 83.6085C440.837 83.72 440.558 83.8215 440.291 83.919L440.291 83.9191C439.137 84.3398 438.19 84.6852 437.456 85.4279C437.262 85.6244 437.053 85.8198 436.841 86.0178L436.841 86.0178C436.066 86.7421 435.256 87.5003 435.002 88.4637C434.361 89.905 434.052 91.4719 434.098 93.0486C434.084 94.6226 434.392 96.1827 435.002 97.6335C435.588 98.8497 436.561 99.8371 437.768 100.441C438.989 101.171 440.325 101.692 441.719 101.979C443.232 102.239 444.769 102.344 446.304 102.291C450.265 102.291 453.342 101.699 455.473 100.212C457.442 99.0885 459.12 97.5179 460.37 95.627C461.268 93.8739 461.882 91.9895 462.189 90.044C462.43 88.5281 462.534 86.9937 462.501 85.4591V78.1815C461.599 79.3916 460.3 80.2456 458.831 80.5935ZM520.005 135.56C516.054 138.003 510.835 139.23 504.119 139.23C502.073 139.281 500.026 139.177 497.995 138.918C495.943 138.854 493.897 138.653 491.872 138.315V122.117C493.82 122.195 495.761 122.397 497.683 122.72C499.617 122.877 501.561 122.877 503.495 122.72C506.25 122.398 508.069 121.494 509.296 119.674C510.493 117.974 511.129 115.942 511.116 113.863C511.101 112.291 510.794 110.737 510.211 109.278L485.155 42.1159H505.949L522.146 91.2604H522.458L538.344 42.3966H558.805L528.894 123.001C526.721 128.844 523.644 133.107 520.005 135.56ZM579.826 99.8386C578.477 98.8473 577.336 97.6003 576.468 96.1686C575.947 95.2817 575.605 94.3016 575.256 93.2999C574.999 92.5637 574.739 91.8158 574.399 91.0847H555.79C556.101 95.9399 557.068 99.9321 559.148 102.978C561.131 106.024 563.73 108.62 566.779 110.599C570.109 112.46 573.707 113.793 577.446 114.55C581.456 115.41 585.55 115.822 589.651 115.776C593.65 115.822 597.64 115.41 601.545 114.55C605.277 114.086 608.843 112.731 611.941 110.599C614.953 108.691 617.452 106.075 619.219 102.978C621.181 99.33 622.136 95.2245 621.984 91.0847C622.038 88.1773 621.32 85.3076 619.905 82.7674C618.66 80.4157 616.848 78.4112 614.634 76.9349C612.41 75.3448 609.956 74.1037 607.357 73.2546C604.676 72.2157 601.915 71.3986 599.102 70.8114C597.719 70.515 596.346 70.2083 594.974 69.9016C593.602 69.5949 592.229 69.2883 590.847 68.992C588.404 68.3994 585.95 67.7652 583.819 67.1726C582.075 66.4932 580.442 65.5576 578.974 64.3967C578.285 63.9256 577.728 63.2874 577.353 62.5418C576.978 61.7963 576.799 60.9678 576.832 60.1341C576.832 58.5954 576.832 57.3686 577.747 56.4537C578.46 55.5196 579.417 54.8002 580.513 54.3744C581.65 53.7952 582.906 53.4858 584.183 53.4699C585.39 53.2281 586.621 53.12 587.853 53.1476C591.021 53.1912 594.145 53.8996 597.022 55.2269C599.476 56.4537 600.973 58.9073 601.295 62.858H619.905C619.656 58.9836 618.506 55.2207 616.547 51.8688C614.851 48.9546 612.425 46.5324 609.509 44.8408C606.416 43.1858 603.115 41.9549 599.694 41.1812C595.962 40.571 592.186 40.265 588.404 40.2663C584.618 40.276 580.84 40.5819 577.103 41.1812C573.548 41.7602 570.135 43.0015 567.039 44.8408C564.19 46.6197 561.783 49.023 560 51.8688C558.15 54.6343 557.235 58.5954 557.235 63.1699C557.248 65.9585 557.986 68.6956 559.376 71.1129C560.517 73.4271 562.328 75.3438 564.575 76.6127C566.882 77.9725 569.32 79.0975 571.852 79.9707C572.887 80.1996 573.979 80.5012 575.126 80.8179C576.688 81.2491 578.351 81.7084 580.107 82.05C585.704 83.1764 591.211 84.7087 596.586 86.6349C600.578 88.1528 602.709 90.3049 602.709 93.3511C602.77 94.867 602.339 96.3619 601.482 97.6137C600.715 98.7761 599.667 99.727 598.436 100.379C595.903 101.722 593.09 102.451 590.223 102.51C588.37 102.607 586.513 102.407 584.723 101.918C582.957 101.596 581.285 100.886 579.826 99.8386Z" fill="white"/>
<path d="M479.928 6.44944C479.818 5.47453 479.365 4.71933 478.569 4.18382C477.772 3.64144 476.77 3.37025 475.562 3.37025C474.697 3.37025 473.948 3.50756 473.317 3.78218C472.685 4.04994 472.194 4.42068 471.844 4.8944C471.501 5.36125 471.329 5.89333 471.329 6.49063C471.329 6.99182 471.446 7.42435 471.679 7.78822C471.92 8.15209 472.232 8.45761 472.616 8.70477C473.008 8.94506 473.427 9.14759 473.873 9.31237C474.319 9.47027 474.748 9.60072 475.16 9.7037L477.22 10.2392C477.893 10.404 478.583 10.6271 479.29 10.9086C479.997 11.1901 480.652 11.5608 481.257 12.0208C481.861 12.4808 482.348 13.0506 482.719 13.7303C483.097 14.41 483.285 15.2236 483.285 16.171C483.285 17.3656 482.976 18.4264 482.359 19.3532C481.748 20.2801 480.858 21.0112 479.691 21.5467C478.531 22.0823 477.127 22.35 475.479 22.35C473.9 22.35 472.534 22.0994 471.381 21.5982C470.227 21.097 469.324 20.3865 468.672 19.4665C468.02 18.5396 467.659 17.4412 467.591 16.171H470.783C470.845 16.9331 471.092 17.5682 471.525 18.0762C471.964 18.5774 472.524 18.9516 473.203 19.1987C473.89 19.439 474.642 19.5592 475.459 19.5592C476.358 19.5592 477.158 19.4184 477.858 19.1369C478.565 18.8486 479.121 18.4504 479.527 17.9423C479.932 17.4274 480.134 16.8267 480.134 16.1401C480.134 15.5154 479.956 15.0039 479.599 14.6057C479.248 14.2075 478.771 13.8779 478.167 13.6171C477.57 13.3562 476.894 13.1262 476.138 12.9271L473.646 12.2474C471.957 11.7874 470.619 11.1111 469.63 10.2186C468.648 9.3261 468.157 8.14523 468.157 6.676C468.157 5.4608 468.487 4.40008 469.146 3.49383C469.805 2.58758 470.697 1.88386 471.823 1.38268C472.949 0.87463 474.219 0.620605 475.634 0.620605C477.062 0.620605 478.322 0.871197 479.413 1.37238C480.512 1.87357 481.377 2.56355 482.008 3.44234C482.64 4.31426 482.97 5.31663 482.997 6.44944H479.928Z" fill="white"/>
<path d="M492.308 21.9999V0.908957H505.531V3.6483H495.49V10.0744H504.841V12.8035H495.49V19.2605H505.655V21.9999H492.308Z" fill="white"/>
<path d="M516.783 21.9999H513.405L520.995 0.908957H524.672L532.262 21.9999H528.884L522.921 4.73992H522.756L516.783 21.9999ZM517.35 13.7406H528.307V16.4182H517.35V13.7406Z" fill="white"/>
<path d="M536.995 3.6483V0.908957H553.318V3.6483H546.737V21.9999H543.565V3.6483H536.995Z" fill="white"/>
<path d="M561.105 3.6483V0.908957H577.427V3.6483H570.847V21.9999H567.675V3.6483H561.105Z" fill="white"/>
<path d="M586.254 21.9999V0.908957H589.437V19.2605H598.993V21.9999H586.254Z" fill="white"/>
<path d="M607.844 21.9999V0.908957H621.067V3.6483H611.026V10.0744H620.377V12.8035H611.026V19.2605H621.19V21.9999H607.844Z" fill="white"/>
</svg>
