<svg width="239" height="134" viewBox="0 0 239 134" fill="none" xmlns="http://www.w3.org/2000/svg">
<path d="M76.9358 71.2972V77.1298C76.2328 77.6523 75.445 78.0498 74.6069 78.3046C73.747 78.5596 72.8541 78.686 71.9572 78.6796C70.8714 78.6946 69.7922 78.5082 68.7743 78.1297C67.8659 77.7867 67.0378 77.2606 66.3413 76.584C65.6618 75.9293 65.1305 75.1366 64.7831 74.2593C64.4127 73.3205 64.2274 72.3189 64.2374 71.3097C64.2249 70.295 64.4045 69.2872 64.7665 68.3392C65.0959 67.4687 65.604 66.6768 66.258 66.0145C66.928 65.3511 67.73 64.8359 68.6118 64.5022C69.6025 64.1314 70.6538 63.9492 71.7114 63.9648C72.2591 63.9608 72.8058 64.0082 73.3446 64.1064C73.8254 64.192 74.2979 64.3189 74.7569 64.4855C75.1724 64.6405 75.5703 64.8388 75.9443 65.0771C76.2935 65.3038 76.6225 65.5602 76.9275 65.8437L76.1609 67.056C76.1114 67.1438 76.0445 67.2205 75.9643 67.2814C75.884 67.3423 75.7921 67.3861 75.6943 67.4102C75.5857 67.4284 75.4745 67.4249 75.3672 67.3998C75.26 67.3748 75.1587 67.3287 75.0694 67.2643L74.4153 66.8852C74.1875 66.7637 73.949 66.6633 73.7029 66.5853C73.4081 66.4849 73.1058 66.4082 72.7988 66.3561C72.4161 66.2924 72.0286 66.2618 71.6406 66.2645C70.983 66.2554 70.3302 66.3772 69.72 66.6228C69.1613 66.8515 68.6604 67.2016 68.2535 67.6476C67.8376 68.1124 67.5201 68.6566 67.3203 69.2474C67.0928 69.918 66.9815 70.6225 66.9912 71.3305C66.9786 72.0789 67.0985 72.8236 67.3453 73.5302C67.5586 74.1401 67.8963 74.6991 68.3369 75.1717C68.7668 75.6104 69.2871 75.9502 69.8617 76.1674C70.9646 76.5638 72.1593 76.629 73.2987 76.3549C73.7204 76.2406 74.1305 76.0872 74.5236 75.8966V73.3053H72.7155C72.6397 73.3113 72.5635 73.3015 72.4918 73.2763C72.42 73.2512 72.3543 73.2114 72.2989 73.1594C72.2526 73.1139 72.2161 73.0593 72.1918 72.9991C72.1674 72.9389 72.1557 72.8744 72.1572 72.8095V71.2972H76.9358ZM81.3019 70.0765C81.5787 69.5211 81.9707 69.0311 82.4518 68.6392C82.8938 68.2908 83.4431 68.1067 84.0057 68.1184C84.4052 68.0995 84.8004 68.2074 85.1348 68.4267L84.9515 70.264C84.932 70.3614 84.8824 70.4503 84.8098 70.5181C84.7355 70.5701 84.6463 70.5964 84.5557 70.5931C84.4088 70.5877 84.2625 70.5709 84.1182 70.5431C83.9297 70.5105 83.7388 70.4937 83.5475 70.4931C83.2992 70.4896 83.0523 70.5305 82.8184 70.6139C82.6091 70.6925 82.4158 70.8083 82.2476 70.9555C82.0733 71.1133 81.9231 71.2958 81.8019 71.4971C81.6628 71.7293 81.5417 71.9716 81.4394 72.2221V78.5004H78.9855V68.3059H80.427C80.6122 68.2883 80.7977 68.3354 80.952 68.4392C81.0714 68.573 81.142 68.7434 81.1519 68.9225L81.3019 70.0765ZM86.0305 69.7265C87.1803 68.6631 88.6975 68.0867 90.2633 68.1184C90.8106 68.1087 91.3544 68.2078 91.8631 68.41C92.3163 68.5974 92.7231 68.8818 93.0546 69.2433C93.3867 69.6032 93.6394 70.0291 93.7962 70.4931C93.9708 71.0053 94.0567 71.5435 94.0503 72.0846V78.5004H92.938C92.7529 78.5112 92.5681 78.4754 92.4005 78.3963C92.2528 78.2989 92.146 78.1507 92.1006 77.9797L91.8839 77.2423C91.6432 77.4527 91.3915 77.6501 91.1299 77.8339C90.8917 78.0117 90.6363 78.1653 90.3674 78.2921C90.1005 78.4136 89.8211 78.5058 89.5342 78.5671C89.2051 78.6332 88.87 78.6653 88.5343 78.6629C88.1305 78.6669 87.7285 78.6079 87.3428 78.4879C86.9958 78.3796 86.6742 78.2025 86.3971 77.9672C86.1289 77.7285 85.9181 77.4322 85.7805 77.1006C85.6287 76.7192 85.555 76.3112 85.5639 75.9008C85.5615 75.3498 85.7566 74.8162 86.1138 74.3968C86.3357 74.1437 86.5924 73.9235 86.8762 73.7427C87.2341 73.5163 87.619 73.3358 88.0219 73.2053C88.5402 73.0394 89.071 72.9154 89.6092 72.8345C90.299 72.7309 90.9949 72.6725 91.6923 72.6595V72.0637C91.7206 71.515 91.5455 70.9751 91.2007 70.5473C91.0406 70.3794 90.8459 70.2485 90.63 70.1636C90.4141 70.0787 90.1824 70.0418 89.9508 70.0557C89.6164 70.0467 89.2827 70.0932 88.9635 70.1931C88.724 70.278 88.4926 70.3839 88.2719 70.5098L87.7303 70.8222C87.5649 70.9148 87.3781 70.9622 87.1887 70.9597C87.0394 70.9592 86.8939 70.9127 86.7721 70.8264C86.6573 70.7414 86.5598 70.6353 86.4846 70.5139L86.0305 69.7265ZM91.6548 74.151C91.0556 74.1714 90.4584 74.2327 89.8675 74.3343C89.467 74.3976 89.0763 74.5125 88.7052 74.6759C88.4563 74.7804 88.2393 74.9485 88.0761 75.1634C87.9247 75.4009 87.8614 75.6839 87.8972 75.9633C87.933 76.2426 88.0656 76.5006 88.2719 76.6923C88.5649 76.8905 88.9142 76.9884 89.2676 76.9715C89.7186 76.9823 90.1661 76.8896 90.5758 76.7007C90.9813 76.488 91.3465 76.206 91.6548 75.8674V74.151ZM105.207 63.7356V78.5004H103.699C103.56 78.514 103.42 78.4762 103.307 78.3941C103.193 78.3121 103.113 78.1913 103.083 78.0547L102.874 77.0714C102.474 77.5337 101.994 77.9204 101.458 78.213C100.882 78.5071 100.241 78.6505 99.5955 78.6296C99.0658 78.6353 98.5421 78.5169 98.0665 78.2838C97.5948 78.0437 97.1844 77.6989 96.8666 77.2756C96.5088 76.7827 96.246 76.2275 96.0917 75.6383C95.9 74.9126 95.8089 74.1641 95.8209 73.4136C95.8136 72.6991 95.9176 71.9879 96.1292 71.3055C96.3243 70.6986 96.6309 70.1335 97.0333 69.639C97.4057 69.1705 97.8765 68.7893 98.4123 68.5225C98.9749 68.2421 99.596 68.0994 100.225 68.1059C100.724 68.0923 101.221 68.1831 101.683 68.3725C102.083 68.5491 102.45 68.7944 102.766 69.0974V63.7356H105.207ZM102.753 70.9097C102.512 70.6017 102.201 70.3559 101.845 70.1931C101.51 70.0535 101.15 69.9826 100.787 69.9848C100.441 69.9805 100.098 70.0515 99.7829 70.1931C99.4788 70.3374 99.2154 70.555 99.0164 70.8264C98.7856 71.1496 98.6201 71.5147 98.5289 71.9013C98.4092 72.4033 98.3532 72.9184 98.3623 73.4344C98.3532 73.9436 98.4007 74.4522 98.5039 74.9509C98.583 75.31 98.7239 75.6525 98.9205 75.9633C99.0827 76.2099 99.3107 76.4062 99.5788 76.5299C99.8505 76.6489 100.145 76.7086 100.441 76.7048C100.897 76.7188 101.348 76.6079 101.745 76.384C102.135 76.1468 102.478 75.8404 102.758 75.48L102.753 70.9097ZM110.119 63.7356V78.5004H107.661V63.7356H110.119ZM114.46 73.7344C114.489 74.1967 114.583 74.6526 114.739 75.0884C114.866 75.4389 115.061 75.7604 115.314 76.0341C115.547 76.2804 115.831 76.4712 116.148 76.5923C116.496 76.7173 116.864 76.7793 117.235 76.7757C117.583 76.7836 117.931 76.7358 118.264 76.634C118.524 76.5536 118.776 76.4504 119.018 76.3257C119.235 76.2132 119.435 76.1132 119.585 76.0174C119.728 75.931 119.892 75.8836 120.06 75.8799C120.149 75.874 120.238 75.8921 120.318 75.9324C120.398 75.9727 120.465 76.0337 120.514 76.1091L121.239 77.0006C120.974 77.3096 120.665 77.5777 120.322 77.7964C119.991 78.0111 119.636 78.1859 119.264 78.3171C118.9 78.444 118.525 78.5347 118.143 78.5879C117.775 78.6405 117.403 78.667 117.031 78.6671C116.355 78.6732 115.684 78.5545 115.052 78.3171C114.453 78.0866 113.91 77.7299 113.46 77.2714C112.991 76.7821 112.63 76.2003 112.398 75.5633C112.126 74.806 111.995 74.0055 112.011 73.2011C112.006 72.5322 112.12 71.8678 112.348 71.2388C112.562 70.6462 112.892 70.1023 113.319 69.639C113.752 69.1766 114.277 68.8092 114.86 68.56C115.507 68.2809 116.205 68.139 116.91 68.1434C117.517 68.1374 118.12 68.2418 118.689 68.4517C119.216 68.6452 119.694 68.9524 120.089 69.3516C120.493 69.7657 120.807 70.2594 121.009 70.8014C121.24 71.4294 121.353 72.0946 121.343 72.7637C121.364 73.0197 121.322 73.277 121.222 73.5136C121.171 73.5837 121.101 73.6389 121.022 73.6733C120.942 73.7078 120.854 73.7202 120.768 73.7094L114.46 73.7344ZM119.139 72.2512C119.142 71.9461 119.097 71.6425 119.006 71.3513C118.918 71.0799 118.776 70.829 118.589 70.6139C118.402 70.3968 118.168 70.2245 117.906 70.1098C117.602 69.9828 117.276 69.9204 116.947 69.9265C116.643 69.9113 116.339 69.9574 116.053 70.0618C115.766 70.1663 115.504 70.3271 115.281 70.5348C114.856 71.005 114.593 71.5994 114.531 72.2304L119.139 72.2512ZM137.324 77.6672V78.5004H128.879V64.4397H137.307V65.2729H129.904V70.968H136.062V71.8013H129.904V77.6589L137.324 77.6672ZM140.515 70.3348C140.952 69.7826 141.489 69.3176 142.098 68.9641C142.712 68.6182 143.407 68.4427 144.111 68.4559C144.602 68.4469 145.091 68.5347 145.548 68.7142C145.946 68.8759 146.299 69.1318 146.577 69.4599C146.858 69.8049 147.066 70.2031 147.19 70.6306C147.337 71.1337 147.409 71.6561 147.402 72.1804V78.5004H146.448V72.1804C146.493 71.4023 146.268 70.6324 145.811 70.0015C145.571 69.7286 145.271 69.515 144.935 69.3777C144.599 69.2403 144.235 69.1829 143.873 69.2099C143.239 69.209 142.616 69.3788 142.069 69.7015C141.484 70.052 140.975 70.5167 140.574 71.068V78.5004H139.611V68.6142H140.136C140.172 68.6107 140.208 68.6146 140.241 68.6254C140.275 68.6363 140.307 68.654 140.334 68.6774C140.361 68.7008 140.382 68.7294 140.398 68.7615C140.413 68.7936 140.422 68.8285 140.424 68.8641L140.515 70.3348ZM153.114 78.6671C152.829 78.6836 152.544 78.6426 152.276 78.5467C152.007 78.4508 151.761 78.3019 151.551 78.1088C151.348 77.874 151.193 77.6008 151.097 77.3053C151 77.0098 150.963 76.698 150.989 76.3882V69.6265H149.568C149.503 69.6312 149.439 69.6103 149.389 69.5682C149.366 69.5476 149.347 69.5219 149.335 69.493C149.323 69.4641 149.317 69.4329 149.318 69.4016V69.0308L151.01 68.9141L151.247 65.3771C151.262 65.3178 151.289 65.2623 151.326 65.2146C151.348 65.1914 151.375 65.1734 151.404 65.1619C151.434 65.1504 151.466 65.1456 151.497 65.1479H151.943V68.9225H155.064V69.6265H151.943V76.3382C151.938 76.5757 151.973 76.8125 152.047 77.0381C152.108 77.2164 152.206 77.3798 152.335 77.5172C152.45 77.6412 152.593 77.7368 152.751 77.7964C153.124 77.9296 153.532 77.9296 153.905 77.7964C154.062 77.7375 154.211 77.6621 154.351 77.5714C154.459 77.5021 154.562 77.4255 154.659 77.3422C154.709 77.2876 154.775 77.2509 154.847 77.2381C154.879 77.2413 154.91 77.2519 154.938 77.2693C154.965 77.2867 154.988 77.3102 155.005 77.3381L155.263 77.7547C154.996 78.0444 154.669 78.2732 154.305 78.4254C153.929 78.5859 153.523 78.6681 153.114 78.6671ZM157.526 73.1678V73.3552C157.515 74.0174 157.603 74.6775 157.788 75.3133C157.936 75.8296 158.185 76.3111 158.521 76.7298C158.831 77.105 159.227 77.3995 159.675 77.5881C160.153 77.7851 160.667 77.8829 161.184 77.8755C161.62 77.8838 162.055 77.8291 162.475 77.713C162.794 77.6222 163.102 77.4993 163.396 77.3464C163.602 77.2376 163.8 77.1137 163.987 76.9756C164.076 76.8939 164.186 76.8378 164.304 76.8132C164.343 76.8114 164.382 76.8196 164.417 76.8371C164.452 76.8546 164.482 76.8808 164.504 76.9131L164.762 77.2298C164.582 77.4477 164.368 77.636 164.129 77.788C163.861 77.9719 163.575 78.1269 163.275 78.2505C162.939 78.3761 162.594 78.4737 162.242 78.5421C161.876 78.6155 161.503 78.6518 161.129 78.6504C160.497 78.6587 159.869 78.5397 159.284 78.3005C158.735 78.0694 158.245 77.7177 157.851 77.2714C157.434 76.7846 157.122 76.2174 156.934 75.605C156.707 74.88 156.597 74.1233 156.609 73.3636C156.602 72.6972 156.705 72.0342 156.913 71.4013C157.097 70.8307 157.394 70.3033 157.788 69.8515C158.174 69.4126 158.652 69.0641 159.188 68.8308C159.783 68.5771 160.425 68.4522 161.071 68.4642C161.601 68.459 162.128 68.5566 162.621 68.7517C163.094 68.9339 163.521 69.2184 163.871 69.5849C164.238 69.9745 164.522 70.4353 164.704 70.9389C164.913 71.5327 165.015 72.1591 165.004 72.7887C165.015 72.8922 164.994 72.9966 164.946 73.0886C164.921 73.1166 164.89 73.1384 164.855 73.1521C164.82 73.1659 164.783 73.1712 164.746 73.1678H157.526ZM164.108 72.5595C164.115 72.0756 164.04 71.594 163.887 71.1347C163.758 70.74 163.55 70.3757 163.275 70.064C163.004 69.7745 162.674 69.5458 162.308 69.3932C161.911 69.2333 161.487 69.154 161.059 69.1599C160.589 69.1516 160.122 69.2336 159.684 69.4016C159.291 69.5529 158.934 69.7857 158.638 70.0848C158.337 70.3985 158.099 70.7659 157.934 71.168C157.748 71.6151 157.628 72.0865 157.576 72.5678L164.108 72.5595ZM168.441 71.0014C168.586 70.6235 168.767 70.2607 168.983 69.9182C169.162 69.6161 169.39 69.3458 169.658 69.1183C169.909 68.8993 170.198 68.7285 170.512 68.6142C170.848 68.4972 171.201 68.4394 171.557 68.4434C171.761 68.4424 171.965 68.4605 172.166 68.4975C172.351 68.527 172.529 68.592 172.69 68.6892L172.611 69.3474C172.603 69.3881 172.582 69.4252 172.552 69.453C172.521 69.4808 172.482 69.4978 172.441 69.5016C172.317 69.4928 172.196 69.469 172.078 69.4307C171.868 69.3785 171.653 69.3547 171.436 69.3599C171.09 69.3532 170.745 69.4126 170.42 69.5349C170.122 69.6531 169.852 69.8302 169.624 70.0557C169.374 70.3081 169.165 70.5993 169.008 70.9181C168.817 71.2967 168.655 71.6895 168.524 72.0929V78.5004H167.57V68.6142H168.079C168.164 68.6059 168.249 68.6314 168.316 68.685C168.371 68.7527 168.403 68.8357 168.408 68.9225L168.441 71.0014ZM175.478 70.3931C175.892 69.8206 176.418 69.3374 177.023 68.9725C177.621 68.6197 178.304 68.4381 178.998 68.4475C179.536 68.4194 180.073 68.5178 180.565 68.7349C181.058 68.9519 181.493 69.2816 181.835 69.6974C182.513 70.5306 182.852 71.7916 182.852 73.4802C182.858 74.1655 182.763 74.8479 182.568 75.505C182.397 76.0962 182.114 76.6491 181.735 77.1339C181.375 77.6009 180.915 77.9822 180.39 78.2505C179.815 78.5321 179.183 78.6748 178.544 78.6671C177.944 78.6827 177.349 78.5571 176.807 78.3005C176.302 78.0452 175.865 77.674 175.532 77.2173V82H174.582V68.6142H175.107C175.142 68.6107 175.178 68.6146 175.212 68.6254C175.246 68.6363 175.277 68.654 175.304 68.6774C175.331 68.7008 175.353 68.7294 175.369 68.7615C175.384 68.7936 175.393 68.8285 175.394 68.8641L175.478 70.3931ZM175.515 76.3465C175.691 76.6073 175.893 76.8489 176.119 77.0673C176.316 77.2545 176.538 77.4143 176.777 77.5422C177.01 77.6666 177.26 77.7564 177.519 77.8089C177.794 77.8616 178.073 77.8881 178.352 77.888C178.881 77.8992 179.405 77.7895 179.885 77.5672C180.317 77.3584 180.692 77.05 180.981 76.6673C181.291 76.2507 181.517 75.7782 181.648 75.2758C181.803 74.6944 181.879 74.0946 181.873 73.4927C181.873 72.0221 181.598 70.9431 181.039 70.2515C180.762 69.9036 180.404 69.6274 179.998 69.4462C179.591 69.2649 179.147 69.1839 178.702 69.2099C178.074 69.2033 177.457 69.3799 176.927 69.7182C176.363 70.0887 175.878 70.569 175.503 71.1305L175.515 76.3465ZM186.443 71.0014C186.582 70.6241 186.758 70.2613 186.968 69.9182C187.148 69.617 187.376 69.347 187.643 69.1183C187.894 68.8993 188.184 68.7285 188.497 68.6142C188.834 68.4972 189.19 68.4394 189.547 68.4434C189.749 68.4426 189.952 68.4607 190.151 68.4975C190.338 68.5276 190.517 68.5927 190.68 68.6892L190.597 69.3474C190.589 69.3916 190.566 69.4316 190.532 69.4605C190.497 69.4894 190.454 69.5054 190.409 69.5057C190.286 69.4969 190.164 69.4732 190.047 69.4349C189.837 69.3827 189.621 69.3589 189.405 69.3641C189.058 69.3574 188.713 69.4167 188.389 69.5391C188.091 69.6572 187.82 69.8344 187.593 70.0598C187.342 70.3123 187.134 70.6035 186.976 70.9222C186.785 71.3009 186.624 71.6936 186.493 72.0971V78.5004H185.539V68.6142H186.047C186.133 68.6059 186.218 68.6314 186.285 68.685C186.339 68.7527 186.371 68.8357 186.376 68.9225L186.443 71.0014ZM194.025 65.2063C194.026 65.3217 194.001 65.4357 193.95 65.5396C193.902 65.6409 193.837 65.7337 193.759 65.8145C193.678 65.8938 193.583 65.9573 193.48 66.002C193.263 66.0909 193.021 66.0909 192.805 66.002C192.7 65.9583 192.605 65.8946 192.525 65.8145C192.447 65.7347 192.384 65.6416 192.338 65.5396C192.291 65.4348 192.267 65.3211 192.267 65.2063C192.267 65.0888 192.292 64.9725 192.338 64.8646C192.382 64.759 192.445 64.6628 192.525 64.5813C192.606 64.5013 192.701 64.4364 192.805 64.3897C193.021 64.3008 193.263 64.3008 193.48 64.3897C193.583 64.4374 193.677 64.5022 193.759 64.5813C193.839 64.6637 193.904 64.7596 193.95 64.8646C194 64.9716 194.026 65.0883 194.025 65.2063ZM193.609 68.6142V78.5004H192.663V68.6142H193.609ZM202.437 69.839C202.415 69.8813 202.383 69.9166 202.342 69.941C202.302 69.9653 202.255 69.9776 202.208 69.9765C202.104 69.9642 202.007 69.9206 201.928 69.8515C201.784 69.7492 201.634 69.656 201.479 69.5724C201.254 69.457 201.018 69.3649 200.774 69.2974C200.445 69.207 200.104 69.1649 199.762 69.1724C199.429 69.1676 199.098 69.2197 198.783 69.3266C198.508 69.4168 198.252 69.5582 198.029 69.7432C197.823 69.9022 197.654 70.1041 197.533 70.3348C197.423 70.5589 197.366 70.8056 197.367 71.0555C197.357 71.333 197.441 71.6057 197.604 71.8304C197.774 72.0445 197.985 72.2229 198.225 72.3554C198.503 72.5126 198.798 72.6397 199.104 72.7345L200.112 73.0511C200.454 73.1594 200.791 73.2761 201.12 73.4052C201.442 73.5243 201.745 73.6885 202.02 73.8927C202.275 74.0808 202.486 74.3208 202.641 74.5968C202.81 74.9066 202.894 75.2562 202.883 75.6091C202.885 76.0215 202.807 76.4305 202.653 76.8132C202.504 77.1796 202.275 77.5082 201.983 77.7755C201.667 78.0611 201.297 78.2806 200.895 78.4213C200.419 78.5904 199.917 78.6723 199.412 78.6629C198.797 78.6778 198.185 78.5643 197.617 78.3296C197.122 78.112 196.666 77.8182 196.263 77.4589L196.483 77.1214C196.512 77.0741 196.551 77.033 196.596 77.0006C196.65 76.9728 196.71 76.9599 196.771 76.9631C196.89 76.9786 197 77.0345 197.083 77.1214C197.237 77.2492 197.402 77.3634 197.575 77.4631C197.816 77.6032 198.07 77.719 198.333 77.8089C198.695 77.9226 199.074 77.9761 199.454 77.9672C199.829 77.9737 200.203 77.9145 200.558 77.7922C200.85 77.689 201.119 77.529 201.349 77.3214C201.56 77.1252 201.725 76.8848 201.833 76.6173C201.94 76.3525 201.995 76.0697 201.995 75.7841C202.009 75.4879 201.926 75.1953 201.758 74.9509C201.59 74.7234 201.378 74.5333 201.133 74.3926C200.856 74.23 200.561 74.1 200.254 74.0052L199.225 73.6677C198.879 73.5594 198.541 73.4427 198.216 73.3178C197.902 73.1997 197.605 73.04 197.333 72.8428C197.08 72.6527 196.867 72.4132 196.708 72.1387C196.54 71.8241 196.458 71.4705 196.471 71.1139C196.47 70.7621 196.548 70.4146 196.7 70.0973C196.855 69.7768 197.077 69.4928 197.35 69.2641C197.653 69.0032 198.002 68.8011 198.379 68.6683C198.818 68.5197 199.278 68.4464 199.741 68.4517C200.287 68.4432 200.83 68.5306 201.345 68.71C201.819 68.8853 202.253 69.1545 202.62 69.5016L202.437 69.839ZM205.77 73.1719V73.3594C205.757 74.0214 205.844 74.6814 206.028 75.3175C206.176 75.8337 206.425 76.3153 206.761 76.734C207.072 77.1082 207.467 77.4025 207.915 77.5922C208.393 77.7892 208.906 77.887 209.423 77.8797C209.859 77.8879 210.294 77.8332 210.715 77.7172C211.033 77.6263 211.342 77.5035 211.636 77.3506C211.842 77.2418 212.039 77.1178 212.227 76.9798C212.316 76.8981 212.426 76.842 212.544 76.8173C212.583 76.8155 212.622 76.8238 212.657 76.8413C212.692 76.8588 212.722 76.8849 212.744 76.9173L213.002 77.2339C212.821 77.4518 212.608 77.6402 212.369 77.7922C212.097 77.9754 211.807 78.129 211.502 78.2505C211.167 78.3761 210.821 78.4737 210.469 78.5421C210.104 78.6153 209.733 78.6516 209.361 78.6504C208.727 78.6592 208.098 78.5401 207.511 78.3005C206.962 78.0694 206.472 77.7177 206.078 77.2714C205.661 76.7846 205.35 76.2174 205.161 75.605C204.934 74.88 204.824 74.1233 204.836 73.3636C204.829 72.6972 204.932 72.0342 205.141 71.4013C205.326 70.8314 205.623 70.3044 206.015 69.8515C206.407 69.4071 206.892 69.0555 207.436 68.8225C208.031 68.5688 208.673 68.4438 209.319 68.4559C209.85 68.4506 210.376 68.5483 210.869 68.7433C211.342 68.9255 211.769 69.2101 212.119 69.5766C212.486 69.9662 212.77 70.427 212.952 70.9306C213.162 71.5243 213.263 72.1508 213.252 72.7803C213.263 72.8839 213.243 72.9883 213.194 73.0803C213.169 73.1083 213.138 73.13 213.103 73.1438C213.068 73.1576 213.031 73.1629 212.994 73.1594L205.77 73.1719ZM212.365 72.5637C212.371 72.0797 212.297 71.5981 212.144 71.1389C212.008 70.7424 211.793 70.378 211.511 70.0682C211.24 69.7786 210.91 69.55 210.544 69.3974C210.147 69.2375 209.722 69.1582 209.294 69.1641C208.825 69.1558 208.358 69.2378 207.919 69.4057C207.527 69.559 207.171 69.7916 206.874 70.089C206.579 70.4028 206.346 70.7687 206.186 71.168C206.001 71.6151 205.88 72.0865 205.828 72.5678L212.365 72.5637ZM59.1214 53.6702C58.0704 52.6226 56.6537 52.024 55.17 52.0007C53.6863 51.9774 52.2515 52.5312 51.1682 53.5452C51.1146 53.5946 51.0717 53.6545 51.0423 53.7211C51.0129 53.7878 50.9976 53.8598 50.9974 53.9327C50.9954 54.006 51.0084 54.0789 51.0356 54.1469C51.0628 54.215 51.1037 54.2768 51.1557 54.3285L51.8764 55.0492C51.9694 55.1417 52.0925 55.1977 52.2233 55.2069C52.3541 55.2161 52.4839 55.1779 52.5888 55.0992C53.2526 54.6 54.081 54.3712 54.9069 54.4591C55.7328 54.5471 56.4945 54.9452 57.0382 55.573C57.5819 56.2008 57.8672 57.0116 57.8362 57.8415C57.8053 58.6715 57.4606 59.4588 56.8716 60.0444C52.3305 64.5855 46.2646 51.8579 32.5122 58.403C32.2777 58.5119 32.0684 58.6683 31.8976 58.8623C31.7268 59.0564 31.5981 59.2838 31.5198 59.5301C31.4414 59.7765 31.4151 60.0364 31.4425 60.2935C31.4699 60.5506 31.5504 60.7991 31.679 61.0235L34.0412 65.1063C34.2864 65.5305 34.6889 65.841 35.1615 65.9705C35.6341 66.0999 36.1387 66.0379 36.5658 65.7979L36.6242 65.752L36.5783 65.7854L37.624 65.2021C38.7901 64.4774 39.8925 63.6551 40.9195 62.7441C41.0208 62.6508 41.1522 62.597 41.2898 62.5924C41.4274 62.5878 41.5621 62.6328 41.6694 62.7191C41.7321 62.768 41.7833 62.8302 41.8193 62.9012C41.8553 62.9722 41.8752 63.0503 41.8775 63.1298C41.8799 63.2094 41.8647 63.2885 41.8331 63.3615C41.8014 63.4345 41.7541 63.4997 41.6944 63.5523C40.6173 64.5255 39.456 65.401 38.224 66.1686H38.1865L37.1408 66.7561C36.4553 67.1349 35.6488 67.2307 34.8937 67.0228C34.1385 66.815 33.4946 66.32 33.0996 65.6437L30.8666 61.7942C26.5838 64.8396 23.9882 70.6681 25.3756 78.038C25.3981 78.163 25.4638 78.2762 25.5613 78.3577C25.6588 78.4392 25.7818 78.4838 25.9088 78.4838H28.446C28.579 78.4829 28.7071 78.4338 28.8066 78.3458C28.9062 78.2577 28.9705 78.1365 28.9876 78.0047C29.1009 77.1056 29.5384 76.2787 30.218 75.6793C30.8976 75.08 31.7726 74.7492 32.6788 74.7492C33.585 74.7492 34.46 75.08 35.1397 75.6793C35.8193 76.2787 36.2568 77.1056 36.37 78.0047C36.3862 78.1362 36.4497 78.2573 36.5485 78.3454C36.6474 78.4336 36.775 78.4827 36.9075 78.4838H39.3822C39.5151 78.4829 39.6432 78.4338 39.7428 78.3458C39.8423 78.2577 39.9066 78.1365 39.9238 78.0047C40.037 77.1056 40.4745 76.2787 41.1541 75.6793C41.8337 75.08 42.7088 74.7492 43.615 74.7492C44.5211 74.7492 45.3962 75.08 46.0758 75.6793C46.7554 76.2787 47.1929 77.1056 47.3062 78.0047C47.3228 78.1412 47.3905 78.2665 47.4955 78.3553C47.6006 78.4442 47.7353 78.49 47.8728 78.4838H50.3183C50.4613 78.4827 50.5982 78.426 50.7001 78.3257C50.802 78.2254 50.8608 78.0893 50.8641 77.9463C50.9182 74.4968 51.8473 70.5389 54.5011 68.5517C63.6583 61.6859 61.2419 55.8033 59.1214 53.6702ZM49.7559 64.0481L48.0061 63.169C48.0054 62.9808 48.053 62.7956 48.1443 62.6311C48.2356 62.4666 48.3677 62.3282 48.5277 62.2293C48.6878 62.1304 48.8706 62.0742 49.0586 62.0661C49.2466 62.058 49.4336 62.0983 49.6015 62.1831C49.7695 62.2679 49.913 62.3944 50.0181 62.5504C50.1232 62.7065 50.1866 62.8869 50.2021 63.0745C50.2176 63.262 50.1847 63.4504 50.1065 63.6216C50.0284 63.7928 49.9077 63.941 49.7559 64.0522V64.0481Z" fill="url(#paint0_linear_6_87)"/>
<defs>
<linearGradient id="paint0_linear_6_87" x1="23.9758" y1="62.4108" x2="213.569" y2="82.3375" gradientUnits="userSpaceOnUse">
<stop stop-color="#06A0CE"/>
<stop offset="1" stop-color="#51CBBF"/>
</linearGradient>
</defs>
</svg>
