<svg width="239" height="134" viewBox="0 0 239 134" fill="none" xmlns="http://www.w3.org/2000/svg">
<path fill-rule="evenodd" clip-rule="evenodd" d="M108.193 53.0749L102.463 58.0543L103.739 59.7559L109.995 55.3769L108.193 53.0749Z" fill="#111111"/>
<path fill-rule="evenodd" clip-rule="evenodd" d="M65.6559 70.2905C66.4567 70.916 67.2073 71.5916 67.908 72.3173C68.6837 73.118 69.4593 73.9687 70.235 74.8695C71.0107 75.7703 71.7364 76.7462 72.412 77.6971C73.0876 78.6479 73.6631 79.5737 74.1385 80.3745H70.2601C69.7346 79.4987 69.1841 78.6479 68.5585 77.8472C67.908 76.9714 67.2073 76.1707 66.5317 75.37C65.8561 74.6193 65.1305 73.8937 64.3548 73.2181C63.7042 72.5925 63.0286 72.042 62.2779 71.5416V80.3494H59V53.5505L62.2779 53V69.7149C62.8534 69.1394 63.504 68.5139 64.1546 67.8383C64.8052 67.1627 65.5058 66.462 66.1814 65.7864C66.857 65.1108 67.4576 64.3852 68.0581 63.7346C68.6586 63.084 69.1341 62.5085 69.5845 62.0331H73.4129C72.8874 62.6336 72.2869 63.2592 71.6613 63.9598C71.0358 64.6604 70.3602 65.361 69.6595 66.0867C68.9589 66.8123 68.2833 67.538 67.6077 68.2386C66.9071 68.9893 66.2315 69.6649 65.6559 70.2905Z" fill="#111111"/>
<path fill-rule="evenodd" clip-rule="evenodd" d="M77.441 62.5834C78.1917 62.4082 79.1926 62.183 80.4437 61.9828C81.87 61.7326 83.2963 61.6325 84.7225 61.6575C85.9737 61.6325 87.2248 61.8327 88.3758 62.2581C89.2766 62.6334 90.0773 63.2339 90.7029 63.9846C91.2784 64.7853 91.7038 65.6861 91.904 66.662C92.1542 67.788 92.2793 68.939 92.2543 70.0901V80.3993H88.9763V70.8157C88.9763 69.8398 88.9013 68.889 88.7762 67.9131C88.6511 67.2125 88.3758 66.5619 88.0005 65.9364C87.6251 65.4609 87.1497 65.0856 86.5742 64.8604C85.8736 64.6352 85.1479 64.5101 84.3973 64.5351C84.0469 64.5351 83.6716 64.5351 83.2963 64.5601C82.9209 64.5852 82.5456 64.5852 82.2203 64.6602C81.895 64.7353 81.5697 64.7603 81.2945 64.7853C81.0192 64.8104 80.8191 64.8604 80.6939 64.9104V80.3993H77.416V62.5834H77.441Z" fill="#111111"/>
<path fill-rule="evenodd" clip-rule="evenodd" d="M124.083 80.8999C122.081 80.8749 120.63 80.3995 119.804 79.5988C118.979 78.7981 118.528 77.4969 118.528 75.7453V53.7006L121.806 53.1752V75.2199C121.781 75.6703 121.831 76.1207 121.956 76.5711C122.031 76.8964 122.182 77.1966 122.407 77.4218C122.657 77.647 122.957 77.7972 123.283 77.8722C123.708 77.9974 124.158 78.0974 124.584 78.1725L124.083 80.8999Z" fill="#111111"/>
<path fill-rule="evenodd" clip-rule="evenodd" d="M140.072 53.7006L143.35 53.1752V80.0242C142.399 80.2994 141.423 80.4996 140.473 80.6747C139.121 80.9 137.77 81 136.419 80.975C135.118 81 133.817 80.7748 132.616 80.3244C131.54 79.874 130.539 79.2485 129.713 78.4227C128.862 77.572 128.237 76.521 127.861 75.395C127.386 74.1189 127.161 72.7677 127.186 71.4165C127.161 70.1153 127.361 68.7891 127.761 67.538C128.086 66.437 128.637 65.3861 129.363 64.5103C130.063 63.6595 130.964 62.9589 131.99 62.5085C133.091 62.0331 134.292 61.8079 135.493 61.8329C136.444 61.8079 137.42 61.958 138.321 62.2583C138.946 62.4585 139.547 62.7337 140.097 63.059V53.7006H140.072ZM140.072 66.0617C139.522 65.6864 138.946 65.3611 138.346 65.1108C137.57 64.8106 136.719 64.6604 135.868 64.6604C135.043 64.6354 134.242 64.8106 133.491 65.1359C132.816 65.4612 132.265 65.9616 131.815 66.5621C131.364 67.2127 131.064 67.9384 130.889 68.7141C130.689 69.5898 130.589 70.4656 130.589 71.3664C130.589 73.5184 131.114 75.1448 132.19 76.3209C133.266 77.4969 134.667 78.0724 136.419 78.0724C137.17 78.0974 137.945 78.0474 138.671 77.9223C139.146 77.8973 139.597 77.8222 140.047 77.6721V66.0617H140.072Z" fill="#111111"/>
<path fill-rule="evenodd" clip-rule="evenodd" d="M163.643 79.9994C162.892 80.1746 161.916 80.3747 160.665 80.5999C159.239 80.8502 157.813 80.9502 156.361 80.9252C155.135 80.9502 153.934 80.7501 152.783 80.2997C151.882 79.9243 151.082 79.3238 150.456 78.5731C149.831 77.7974 149.405 76.8716 149.18 75.8957C148.93 74.7947 148.805 73.6437 148.805 72.4927V62.1835H152.083V71.7921C152.083 74.019 152.433 75.6455 153.159 76.5964C153.884 77.5472 155.06 78.0476 156.737 78.0476C157.062 78.0476 157.412 78.0476 157.813 78.0226C158.213 77.9976 158.563 77.9225 158.889 77.8975C159.214 77.8725 159.514 77.8475 159.815 77.7974C160.065 77.7474 160.265 77.6973 160.39 77.6723V62.1835H163.668L163.643 79.9994Z" fill="#111111"/>
<path fill-rule="evenodd" clip-rule="evenodd" d="M173.553 78.1975C174.904 78.1975 175.88 78.0223 176.556 77.672C177.181 77.3467 177.531 76.6711 177.506 75.9705C177.531 75.2198 177.181 74.4942 176.556 74.0688C175.93 73.6184 174.854 73.0929 173.403 72.4924C172.727 72.1921 172.027 71.9169 171.401 71.5916C170.775 71.3414 170.2 71.0161 169.699 70.5657C169.224 70.1653 168.824 69.6649 168.573 69.1144C168.273 68.4638 168.123 67.7382 168.148 67.0375C168.148 65.4361 168.749 64.1099 169.95 63.1591C171.151 62.2082 172.777 61.7328 174.854 61.7328C175.38 61.7328 175.855 61.7828 176.405 61.8329C176.956 61.8829 177.381 61.983 177.857 62.0331C178.307 62.1582 178.682 62.2082 179.058 62.3083C179.433 62.4084 179.658 62.4835 179.834 62.5835L179.258 65.4111C178.707 65.1609 178.157 64.9607 177.581 64.7855C176.681 64.5853 175.78 64.5103 174.879 64.5103C174.053 64.4852 173.228 64.6854 172.477 65.0608C171.826 65.3861 171.451 66.0617 171.476 66.7873C171.451 67.1626 171.551 67.513 171.726 67.8382C171.901 68.1635 172.152 68.4638 172.452 68.664C172.827 68.9392 173.203 69.1644 173.603 69.3396C174.053 69.5398 174.604 69.765 175.304 70.0152C176.105 70.2654 176.881 70.5907 177.632 70.966C178.282 71.2413 178.883 71.6166 179.408 72.092C179.884 72.5174 180.234 73.0429 180.484 73.6184C180.759 74.319 180.884 75.0697 180.859 75.8454C180.859 77.5469 180.234 78.8231 178.983 79.6988C177.732 80.5997 175.905 81 173.603 81C172.001 81 170.725 80.8749 169.8 80.5996C169.174 80.4245 168.523 80.2243 167.923 79.9741L168.523 77.1466C168.899 77.2967 169.524 77.4969 170.35 77.7721C171.176 78.0474 172.202 78.1975 173.553 78.1975Z" fill="#111111"/>
<path fill-rule="evenodd" clip-rule="evenodd" d="M110.496 71.2163C110.496 69.1395 110.021 67.513 109.095 66.2619C108.194 65.0859 106.768 64.4103 105.292 64.4603C103.715 64.4603 102.439 65.0608 101.538 66.2619C100.587 67.513 100.112 69.1145 100.112 71.2163C100.112 73.3182 100.587 74.9197 101.538 76.1207C102.439 77.3468 103.715 77.9474 105.292 77.9474C106.793 77.9974 108.219 77.3218 109.095 76.1207C110.021 74.9197 110.496 73.3182 110.496 71.2163ZM113.924 71.2163C113.949 72.5676 113.724 73.9188 113.274 75.1699C112.873 76.2709 112.298 77.3218 111.522 78.1976C109.02 80.7999 105.166 81.5756 101.838 80.1243C100.813 79.6739 99.8867 79.0233 99.1361 78.1976C98.3354 77.3218 97.7348 76.2709 97.3595 75.1699C96.9091 73.8937 96.6839 72.5676 96.7089 71.2163C96.6839 69.8651 96.9091 68.5139 97.3595 67.2628C97.7598 66.1368 98.3604 65.1109 99.1361 64.2351C99.8867 63.3843 100.813 62.7087 101.838 62.2834C104.065 61.3575 106.568 61.3575 108.77 62.2834C109.821 62.7338 110.746 63.4094 111.522 64.2351C112.298 65.1359 112.873 66.1618 113.274 67.2628C113.724 68.539 113.949 69.8651 113.924 71.2163Z" fill="#111111"/>
</svg>
