<svg width="239" height="134" viewBox="0 0 239 134" fill="none" xmlns="http://www.w3.org/2000/svg">
<path d="M48.8613 79.4557C48.8447 79.2449 48.8872 79.0337 48.9839 78.8455C49.0807 78.6572 49.228 78.4992 49.4094 78.389C49.5909 78.2789 49.7995 78.2208 50.0121 78.2212C50.2248 78.2216 50.4331 78.2805 50.6142 78.3914C50.7956 78.5012 50.9429 78.6587 51.0399 78.8465C51.1369 79.0343 51.1799 79.2452 51.164 79.4557V96.631H58.5285C58.8097 96.6385 59.0767 96.7549 59.2728 96.9553C59.469 97.1557 59.5786 97.4244 59.5785 97.704C59.5813 97.8381 59.5569 97.9714 59.5068 98.0959C59.4567 98.2205 59.3819 98.3337 59.2869 98.429C59.1031 98.6102 58.8202 98.719 58.5577 98.719H50.0265C49.7224 98.711 49.4334 98.5853 49.2212 98.3686C49.009 98.152 48.8903 97.8614 48.8904 97.559L48.8613 79.4557ZM63.8821 79.0497C63.9477 78.3682 64.5237 77.8506 65.1946 77.8506C65.8654 77.8506 66.4575 78.3697 66.5071 79.0497V79.4267C66.4415 80.1082 65.8654 80.6259 65.1946 80.6259C64.5237 80.6259 63.9317 80.1068 63.8821 79.4267V79.0497ZM64.0863 84.7337C64.0866 84.4385 64.203 84.1551 64.4106 83.944C64.6182 83.7329 64.9006 83.611 65.1975 83.6042C65.3472 83.6024 65.4957 83.6304 65.6343 83.6866C65.7729 83.7427 65.8989 83.8259 66.0047 83.9311C66.1106 84.0363 66.1942 84.1616 66.2507 84.2994C66.3071 84.4372 66.3353 84.5849 66.3335 84.7337V97.7576C66.3389 97.9051 66.3139 98.0521 66.2603 98.1897C66.2066 98.3273 66.1254 98.4526 66.0215 98.558C65.8115 98.7712 65.5227 98.8915 65.2223 98.8872C65.0726 98.8889 64.9241 98.8609 64.7855 98.8048C64.6468 98.7486 64.5209 98.6655 64.4151 98.5602C64.3092 98.455 64.2256 98.3298 64.1691 98.1919C64.1127 98.0541 64.0845 97.9064 64.0863 97.7576V84.7337ZM72.3987 101.677C72.2238 101.593 72.0764 101.461 71.9732 101.297C71.87 101.133 71.8153 100.944 71.8154 100.75C71.8548 100.214 72.2923 99.7891 72.8333 99.7644C73.0095 99.7626 73.1823 99.812 73.3306 99.9065C74.9071 100.966 76.7667 101.532 78.6696 101.531C81.9975 101.531 84.1573 99.6789 84.1573 96.1916V94.4197C82.8477 96.1597 81.0029 97.5807 78.2365 97.5807C77.3036 97.5967 76.377 97.4263 75.5116 97.0797C74.6462 96.7331 73.8596 96.2173 73.1984 95.5628C72.5372 94.9083 72.0148 94.1286 71.6623 93.2697C71.3097 92.4108 71.1342 91.4903 71.146 90.5627V90.5076C71.1536 89.0017 71.6421 87.5372 72.5412 86.3253C73.4402 85.1134 74.7033 84.2169 76.1481 83.7651C79.1129 82.84 82.3402 83.929 84.1252 86.4578V84.7468C84.1215 84.5995 84.1475 84.453 84.2017 84.3159C84.256 84.1788 84.3373 84.0539 84.4409 83.9486C84.5445 83.8433 84.6683 83.7597 84.8049 83.7028C84.9416 83.6459 85.0883 83.6168 85.2365 83.6172C85.8635 83.6201 86.3696 84.1247 86.374 84.7482V96.1496C86.374 98.4696 85.674 100.241 84.449 101.457C83.1073 102.791 81.0948 103.458 78.7002 103.458C76.4731 103.468 74.2884 102.852 72.3987 101.68V101.677ZM84.1937 90.5656V90.5105C84.1937 87.422 81.5104 85.4355 78.6492 85.4355C75.7879 85.4355 73.4283 87.4104 73.4283 90.4844V90.5395C73.4236 91.2202 73.5566 91.8948 73.8195 92.5233C74.0823 93.1517 74.4696 93.7212 74.9584 94.1978C75.4471 94.6744 76.0272 95.0484 76.6643 95.2975C77.3014 95.5466 77.9823 95.6658 78.6667 95.6479C81.5469 95.6189 84.2287 93.5555 84.2287 90.5439L84.1937 90.5656ZM91.5394 78.5596C91.5394 78.2633 91.6578 77.9791 91.8685 77.7696C92.0792 77.5601 92.365 77.4424 92.663 77.4424C92.961 77.4424 93.2468 77.5601 93.4576 77.7696C93.6683 77.9791 93.7867 78.2633 93.7867 78.5596V86.3606C94.2942 85.4477 95.0446 84.6913 95.9557 84.1741C96.8668 83.657 97.9034 83.3991 98.9521 83.4287C102.598 83.4287 104.727 85.8676 104.727 89.4346V97.762C104.727 98.0583 104.609 98.3424 104.398 98.552C104.187 98.7615 103.901 98.8792 103.603 98.8792C103.305 98.8792 103.02 98.7615 102.809 98.552C102.598 98.3424 102.48 98.0583 102.48 97.762V89.9842C102.48 87.2002 100.963 85.4602 98.309 85.4602C95.6548 85.4602 93.7881 87.3423 93.7881 90.1582V97.7562C93.7934 97.9037 93.7685 98.0507 93.7149 98.1883C93.6612 98.3259 93.58 98.4512 93.476 98.5566C93.266 98.7697 92.9773 98.8901 92.6769 98.8857C92.5272 98.8875 92.3787 98.8595 92.2401 98.8033C92.1014 98.7472 91.9755 98.664 91.8696 98.5588C91.7638 98.4535 91.6802 98.3283 91.6237 98.1905C91.5673 98.0527 91.5391 97.905 91.5408 97.7562L91.5394 78.5596ZM110.056 94.775V85.7197H108.816C108.277 85.7052 107.839 85.2847 107.825 84.7337C107.827 84.19 108.271 83.7477 108.816 83.7477H110.056V80.2097C110.051 79.9125 110.165 79.6268 110.374 79.4122C110.582 79.1976 110.87 79.0787 111.167 79.0787C111.466 79.0861 111.751 79.2076 111.963 79.4181C112.175 79.6287 112.297 79.9121 112.305 80.2097V83.7477H116.216C116.766 83.7535 117.215 84.1885 117.234 84.7337C117.23 84.9988 117.121 85.2517 116.93 85.4369C116.739 85.622 116.482 85.7243 116.216 85.7212H112.305V94.4792C112.305 96.3308 113.322 96.9485 114.842 96.9485C115.306 96.9308 115.766 96.8628 116.214 96.7455C116.744 96.7484 117.174 97.1747 117.177 97.7025C117.176 97.8935 117.116 98.0795 117.005 98.2352C116.893 98.3909 116.737 98.5087 116.556 98.5725C115.852 98.8544 115.098 98.993 114.339 98.98C111.918 99.009 110.056 97.82 110.056 94.775ZM122.043 78.5611C122.043 78.2648 122.162 77.9806 122.372 77.7711C122.583 77.5616 122.869 77.4438 123.167 77.4438C123.465 77.4438 123.751 77.5616 123.962 77.7711C124.172 77.9806 124.291 78.2648 124.291 78.5611V86.771C125.53 84.973 127.295 83.436 130.07 83.436C133.69 83.436 137.277 86.2823 137.277 91.208V91.2631C137.277 96.1641 133.719 99.0641 130.07 99.0641C127.719 99.0597 125.549 97.8548 124.291 95.8741V97.7562C124.295 98.0534 124.181 98.3391 123.973 98.5537C123.764 98.7683 123.477 98.8872 123.179 98.8872C122.552 98.8843 122.046 98.3797 122.042 97.7562L122.043 78.5611ZM134.969 91.295V91.2399C134.969 87.7019 132.516 85.437 129.66 85.437C128.921 85.4587 128.192 85.6252 127.518 85.927C126.843 86.2288 126.234 86.66 125.727 87.1958C124.703 88.2775 124.155 89.7217 124.203 91.208V91.2631C124.17 92.0025 124.285 92.7411 124.542 93.4355C124.8 94.1299 125.195 94.7661 125.703 95.3067C126.211 95.8474 126.823 96.2815 127.503 96.5836C128.183 96.8857 128.916 97.0497 129.66 97.066C132.577 97.066 134.969 94.92 134.969 91.295ZM147.719 99.096C143.577 99.096 140.194 95.935 140.194 91.295V91.2399C140.194 86.9189 143.256 83.4389 147.427 83.4389C151.89 83.4389 154.43 87.0639 154.43 91.0369C154.433 91.171 154.408 91.3043 154.358 91.4288C154.308 91.5534 154.233 91.6666 154.138 91.7619C153.955 91.9431 153.672 92.0519 153.409 92.0519H142.469C142.79 95.2999 145.094 97.1269 147.777 97.1269C149.399 97.1377 150.961 96.5125 152.123 95.3869C152.404 95.123 152.816 95.0534 153.17 95.2027C153.524 95.3521 153.753 95.7001 153.756 96.0843C153.752 96.3642 153.61 96.6281 153.409 96.8064C152.669 97.5522 151.781 98.1383 150.803 98.528C149.824 98.9176 148.775 99.1026 147.722 99.0713L147.719 99.096ZM152.181 90.425C151.945 87.6961 150.373 85.321 147.369 85.321C144.744 85.321 142.756 87.4931 142.464 90.425H152.181ZM158.163 84.741C158.164 84.4457 158.28 84.1623 158.488 83.9513C158.695 83.7402 158.978 83.6182 159.275 83.6114C159.424 83.6097 159.573 83.6377 159.711 83.6938C159.85 83.75 159.976 83.8331 160.082 83.9384C160.188 84.0436 160.271 84.1688 160.328 84.3067C160.384 84.4445 160.412 84.5922 160.411 84.741V86.365C160.918 85.4521 161.669 84.6956 162.58 84.1785C163.491 83.6614 164.527 83.4035 165.576 83.4331C169.222 83.4331 171.355 85.872 171.355 89.439V97.7663C171.355 98.0626 171.237 98.3468 171.026 98.5563C170.816 98.7658 170.53 98.8835 170.232 98.8835C169.934 98.8835 169.648 98.7658 169.437 98.5563C169.227 98.3468 169.108 98.0626 169.108 97.7663V89.99C169.108 87.206 167.591 85.466 164.937 85.466C162.283 85.466 160.416 87.3481 160.416 90.164V97.762C160.422 97.9095 160.397 98.0565 160.343 98.1941C160.29 98.3317 160.208 98.457 160.104 98.5624C159.894 98.7755 159.606 98.8959 159.305 98.8915C159.156 98.8933 159.007 98.8653 158.868 98.8091C158.73 98.753 158.604 98.6698 158.498 98.5646C158.392 98.4593 158.309 98.3341 158.252 98.1963C158.196 98.0585 158.167 97.9108 158.169 97.762L158.163 84.741ZM190.142 97.7649C190.142 98.0612 190.023 98.3454 189.813 98.5549C189.602 98.7644 189.316 98.8821 189.018 98.8821C188.72 98.8821 188.434 98.7644 188.223 98.5549C188.013 98.3454 187.894 98.0612 187.894 97.7649V95.7175C186.655 97.5155 184.89 99.0525 182.115 99.0525C178.495 99.0525 174.908 96.2061 174.908 91.2805V91.2254C174.908 86.3244 178.495 83.4244 182.115 83.4244C184.466 83.4287 186.636 84.6337 187.894 86.6144V78.5669C187.889 78.4194 187.914 78.2724 187.968 78.1348C188.021 77.9972 188.103 77.8719 188.206 77.7665C188.416 77.5533 188.705 77.433 189.006 77.4373C189.155 77.4356 189.304 77.4636 189.442 77.5197C189.581 77.5759 189.707 77.659 189.813 77.7643C189.919 77.8695 190.002 77.9947 190.059 78.1326C190.115 78.2704 190.143 78.4181 190.142 78.5669V97.7649ZM177.216 91.2109V91.266C177.216 94.804 179.7 97.0689 182.525 97.0689C183.267 97.0468 183.998 96.8789 184.675 96.5748C185.351 96.2707 185.961 95.8364 186.468 95.297C186.976 94.7576 187.371 94.1237 187.63 93.4319C187.89 92.74 188.01 92.0039 187.982 91.266V91.2109C188.011 90.4741 187.892 89.7389 187.633 89.0482C187.373 88.3575 186.978 87.7251 186.47 87.1879C185.962 86.6507 185.352 86.2195 184.674 85.9194C183.997 85.6192 183.266 85.4562 182.525 85.4399C179.588 85.4341 177.216 87.5815 177.216 91.2109ZM95.5425 60.3491V69.255C95.5444 69.6755 95.7133 70.0782 96.0123 70.3756C96.3114 70.6729 96.7164 70.8408 97.1394 70.8427H141.861C142.284 70.8408 142.689 70.6729 142.988 70.3756C143.287 70.0782 143.456 69.6755 143.457 69.255V60.3636C135.655 62.499 127.596 63.5673 119.503 63.5391C111.408 63.5678 103.347 62.4995 95.5425 60.3636V60.3491ZM141.859 29.5438H97.1394C96.7164 29.5457 96.3114 29.7136 96.0123 30.011C95.7133 30.3083 95.5444 30.7111 95.5425 31.1316V57.3331C111.201 61.7802 127.798 61.7802 143.456 57.3331V31.1316C143.454 30.7111 143.285 30.3083 142.986 30.011C142.687 29.7136 142.282 29.5457 141.859 29.5438Z" fill="#FF931E"/>
</svg>
