<svg width="239" height="134" viewBox="0 0 239 134" fill="none" xmlns="http://www.w3.org/2000/svg">
<path d="M200.093 71.0907L200.052 71.3186L200.01 71.0907L196.21 60.3854H194.033L198.992 74.1997V74.311C198.691 75.6349 197.847 77.2572 197.081 77.7646C196.403 78.2176 195.67 78.2719 195.101 78.2719C194.827 78.2719 194.251 78.1796 194.011 78.1254V79.7884C194.315 79.8644 195.04 80 195.491 80C196.55 80 197.424 79.7369 198.174 79.2079C199.07 78.5649 200.077 76.91 200.55 75.4803L205.496 60.3827H203.324L200.091 71.088L200.093 71.0907Z" fill="#111111"/>
<path d="M192.54 67.7508V66.435C192.54 64.1507 191.937 62.4687 190.789 61.4324C189.81 60.5507 188.432 60.122 186.612 60.122C185.669 60.122 184.809 60.2929 184.062 60.6185C183.329 60.944 182.654 61.4242 182.148 62.0536C181.138 63.288 180.582 65.1193 180.582 67.3412C180.582 69.8127 181.296 71.6982 182.612 72.9516C183.995 74.2755 185.768 74.5549 186.997 74.5549C190.172 74.5549 191.732 72.8512 192.388 71.3048L190.604 70.4665C190.175 71.4106 189.204 72.8295 186.997 72.8295C185.732 72.8295 184.679 72.3384 183.948 71.4052C183.24 70.5045 182.867 69.2402 182.861 67.7508H192.543H192.54ZM190.38 66.0254H182.922C183.113 63.1741 184.305 61.8447 186.67 61.8447C189.207 61.8447 190.374 63.1741 190.382 66.0254" fill="#111111"/>
<path d="M63.3189 62.2167C62.218 60.8412 60.6496 60.1141 58.777 60.1141C56.9043 60.1141 55.3387 60.8412 54.2323 62.2167C53.206 63.4999 52.6445 65.3149 52.6445 67.3252C52.6445 69.3355 53.206 71.1477 54.2323 72.4336C55.3387 73.8145 56.9043 74.5389 58.777 74.5389C60.6496 74.5389 62.218 73.8145 63.3189 72.4336C64.3451 71.1504 64.9094 69.3327 64.9094 67.3252C64.9094 65.3176 64.3451 63.5026 63.3189 62.2167M58.777 72.8162C56.3926 72.8162 54.968 70.7598 54.968 67.3252C54.968 63.8906 56.3898 61.8341 58.777 61.8341C61.1641 61.8341 62.5803 63.8878 62.5803 67.3252C62.5803 70.7625 61.1613 72.8162 58.777 72.8162Z" fill="#111111"/>
<path d="M69.8668 66.4512C70.4118 63.5863 71.9414 62.2407 74.583 62.2407V60.2032C72.3342 60.2032 71.0175 61.066 69.8641 63.0898L69.8475 63.1142L69.8668 62.9379V60.4176H67.6484V74.3187H69.8668V66.4485V66.4512Z" fill="#111111"/>
<path d="M124.164 59.9593C124.172 59.0341 124.485 58.3098 125.077 57.8079C125.68 57.2978 126.543 57.0428 127.652 57.0428C128.822 57.0428 129.851 57.3738 130.642 57.9924C131.367 58.5567 131.901 59.3787 132.142 60.3255L134.211 60.0732C133.303 57.0428 131.082 55.1953 127.708 55.1953C126.037 55.1953 124.529 55.7026 123.451 56.6305C122.41 57.5339 121.835 58.771 121.835 60.1193C121.835 61.6006 122.455 62.7672 123.73 63.6814C124.856 64.4845 126.333 64.9972 127.766 65.4937C130.255 66.3618 132.606 67.1784 132.606 69.3895C132.606 70.377 132.263 71.2017 131.622 71.7823C130.911 72.4144 129.862 72.7345 128.515 72.7345C126.145 72.7345 124.424 71.435 123.456 68.9337L121.343 69.4898C121.799 70.5072 122.576 71.9803 123.699 72.9678C124.939 74.0557 126.479 74.5848 128.405 74.5848C130.684 74.5848 132.415 73.9961 133.552 72.8431C134.731 71.6385 134.974 70.1003 134.974 69.0314C134.974 67.4877 134.324 66.2804 132.985 65.339C131.807 64.517 130.277 64.0043 128.806 63.5078C126.402 62.702 124.137 61.9397 124.159 59.9593" fill="#111111"/>
<path d="M138.489 62.0996H136.359V60.3769H138.489V55.8246H140.708V60.3769H143.092V62.0996H140.708V71.5977C140.708 72.2298 140.86 72.8185 142.348 72.8185C142.597 72.8185 142.846 72.8104 143.092 72.7941V74.3269C143.092 74.3269 142.254 74.5412 141.623 74.5412C140.622 74.5412 139.867 74.3866 139.361 74.0556C138.89 73.7409 138.489 73.2363 138.489 72.379V62.0996Z" fill="#111111"/>
<path d="M176.738 71.5978C176.738 72.2327 176.945 72.8187 178.431 72.8187C178.68 72.8187 178.926 72.8105 179.177 72.797V74.3271C179.177 74.3271 178.334 74.5414 177.703 74.5414C176.705 74.5414 175.947 74.3867 175.443 74.0558C174.97 73.7411 174.517 73.2365 174.517 72.3792V55H176.741V71.5978H176.738Z" fill="#111111"/>
<path d="M106.876 64.0044C107.632 63.2122 109.308 61.8828 110.849 61.8828C112.389 61.8828 113.072 62.6235 113.072 64.2919V74.3299H115.294V64.235C115.294 61.2263 113.108 60.1574 111.037 60.1574C109.593 60.1574 108.116 60.898 106.874 62.2816V60.4206H104.655V74.3244H106.874V64.0044H106.876Z" fill="#111111"/>
<path d="M98.742 72.6046C98.8028 73.3723 99.0794 73.82 99.699 74.1374C100.28 74.4466 101.24 74.3707 101.649 74.273V72.7999C101.157 72.7755 100.83 72.5503 100.83 71.9534V65.2362L100.825 64.349C100.825 62.9627 100.261 61.8396 99.1984 61.1071C98.3215 60.4967 97.11 60.163 95.7988 60.163C92.6538 60.163 91.149 61.9942 90.5184 63.1391L92.308 64.056C92.557 63.3995 93.4311 61.8857 95.8265 61.8857C97.713 61.8857 98.6673 62.7104 98.6673 64.3301V64.8292C98.6673 64.8292 98.6756 64.973 98.6313 65.0273C98.5594 65.1141 98.3741 65.1792 97.8955 65.2308C95.2512 65.5183 93.4947 65.9551 92.2057 66.7717C90.8033 67.6561 89.9209 68.8851 89.9209 70.5807C89.9209 71.7852 90.5211 72.8107 91.3012 73.5405C92.0287 74.2188 93.0355 74.5633 94.1337 74.5904C96.4627 74.661 97.9979 73.7223 98.7475 72.6018M98.7337 70.2768C98.6313 71.495 96.3216 72.9735 94.4296 72.8704C93.3868 72.8107 92.3578 71.9996 92.2555 70.6458C92.0812 68.3941 93.8377 67.4364 97.7047 67.0186C97.973 66.9942 98.4764 66.9019 98.7364 66.7554V70.2768H98.7337Z" fill="#111111"/>
<path d="M154.08 72.6046C154.135 73.3723 154.42 73.82 155.034 74.1374C155.618 74.4466 156.578 74.3707 156.987 74.273V72.7999C156.495 72.7755 156.168 72.5503 156.168 71.9534V65.2362L156.157 64.349C156.157 62.9627 155.598 61.8396 154.536 61.1071C153.657 60.4967 152.448 60.163 151.137 60.163C147.992 60.163 146.487 61.9942 145.851 63.1391L147.643 64.056C147.895 63.3995 148.772 61.8857 151.162 61.8857C153.051 61.8857 154.005 62.7104 154.005 64.3301V64.8292C154.005 64.8292 154.011 64.973 153.966 65.0273C153.897 65.1141 153.709 65.1792 153.231 65.2308C150.589 65.5183 148.83 65.9551 147.541 66.7717C146.141 67.6561 145.259 68.8851 145.259 70.5807C145.259 71.7852 145.853 72.8107 146.639 73.5405C147.367 74.2188 148.373 74.5633 149.469 74.5904C151.798 74.661 153.336 73.7223 154.085 72.6018M154.072 70.2768C153.969 71.495 151.66 72.9735 149.765 72.8704C148.725 72.8107 147.696 71.9996 147.591 70.6458C147.419 68.3941 149.176 67.4364 153.04 67.0186C153.311 66.9942 153.814 66.9019 154.074 66.7554V70.2768H154.072Z" fill="#111111"/>
<path d="M41.3868 70.6047L36.69 55.4529H33V74.3215H35.2184V57.0644L35.2654 57.1295L40.5376 74.3215H42.2609L47.5358 57.1295L47.5856 57.0644V74.3215H49.8012V55.4529H46.1085L41.4117 70.6047L41.4006 70.6834L41.3868 70.6047Z" fill="#111111"/>
<path d="M162.212 64.0044C162.968 63.2122 164.647 61.8828 166.187 61.8828C167.728 61.8828 168.411 62.6235 168.411 64.2919V74.3299H170.63V64.235C170.63 61.2263 168.444 60.1574 166.373 60.1574C164.929 60.1574 163.452 60.898 162.21 62.2816V60.4206H159.991V74.3244H162.21V64.0044H162.212Z" fill="#111111"/>
<path d="M85.5116 60.4096L85.0414 61.8773C84.2281 60.8355 83.1632 60.1464 81.4786 60.1464C78.9781 60.1464 75.4375 61.7959 75.4375 67.3385C75.4375 72.881 78.9781 74.5332 81.3708 74.5332C82.7649 74.5332 84.0373 73.7844 84.9058 72.6938L85.0165 72.6396V75.282C85.0165 77.1376 83.3928 78.2689 81.6418 78.2689C79.8909 78.2689 78.4359 77.9515 77.2078 77.3872V79.2673C78.2423 79.7041 79.9241 79.9889 81.3708 79.9889C85.3014 79.9889 87.174 77.8566 87.174 74.7801V60.4096H85.5116V60.4096ZM85.0165 70.2793C84.4411 71.8799 82.8119 72.8159 81.6418 72.8159C79.3598 72.8159 77.7638 71.4187 77.7638 67.2381C77.7638 63.7167 79.1994 61.8664 81.6418 61.8664C82.8949 61.8664 83.9792 62.4009 85.0165 63.6624V70.2793V70.2793Z" fill="#111111"/>
</svg>
