<svg width="239" height="134" viewBox="0 0 239 134" fill="none" xmlns="http://www.w3.org/2000/svg">
<path fill-rule="evenodd" clip-rule="evenodd" d="M145.628 85.2261H147.795L148.202 80.3815C147.856 80.3807 147.511 80.3619 147.167 80.3252C147.03 80.305 146.9 80.2559 146.784 80.1812C146.668 80.1065 146.569 80.0078 146.495 79.8918C146.283 79.5457 146.158 79.1531 146.131 78.7479C146.066 78.0145 146.039 77.2783 146.049 76.5422V49H140.376V78.9689C140.37 79.791 140.482 80.6099 140.71 81.3998C140.916 82.1142 141.248 82.7863 141.689 83.3844C142.123 83.9458 142.677 84.4033 143.31 84.7234C144.032 85.0723 144.827 85.2446 145.628 85.2261ZM88.7712 84.6675C90.1151 85.052 91.5075 85.2402 92.9052 85.2265C94.7512 85.2265 96.2028 85.0055 97.3555 84.5029C98.3101 84.1447 99.1636 83.5603 99.8428 82.7999C100.391 82.15 100.765 81.3717 100.93 80.5379C101.091 79.7666 101.175 78.9814 101.182 78.1936C101.22 77.152 101.073 76.1118 100.748 75.1213C100.48 74.3718 100.073 73.6795 99.5481 73.0804C99.0514 72.5271 98.4545 72.0727 97.7888 71.7414C97.0859 71.3989 96.3623 71.1008 95.6222 70.8487L95.4878 70.8043C94.944 70.6242 94.4053 70.4459 93.8888 70.2897C93.3715 70.1461 92.8738 69.9395 92.4069 69.6744C91.9888 69.4629 91.6254 69.1573 91.3452 68.7818C91.0492 68.378 90.8967 67.8869 90.9119 67.3865C90.8768 66.9835 90.9552 66.5788 91.1382 66.2181C91.3213 65.8574 91.6016 65.5551 91.9475 65.3455C92.607 64.9664 93.3535 64.7649 94.1142 64.7605C94.6905 64.7678 95.2633 64.8524 95.8172 65.0118C96.4034 65.1478 96.9741 65.3439 97.5201 65.5968C98.029 65.8299 98.5149 66.1099 98.9718 66.4331C99.351 66.6888 99.6986 66.9885 100.007 67.3258L100.441 62.2689C100.099 61.9916 99.7118 61.7748 99.2968 61.6275C98.7421 61.4038 98.1732 61.2171 97.5938 61.0686C96.9404 60.8889 96.2779 60.7442 95.6092 60.6352C94.9344 60.5245 94.2519 60.468 93.5682 60.4662C92.3096 60.4278 91.0588 60.6768 89.9109 61.1942C89.0003 61.6112 88.2047 62.2432 87.5926 63.0359C87.0228 63.7605 86.6136 64.598 86.3923 65.4928C86.1751 66.3323 86.0631 67.1954 86.0586 68.0625C86.0272 69.036 86.1984 70.0055 86.5613 70.9094C86.8594 71.6084 87.3025 72.2361 87.8612 72.751C88.4181 73.2254 89.0379 73.6206 89.7029 73.9254C90.4005 74.233 91.0982 74.5103 91.8262 74.7617C92.7519 75.0543 93.6349 75.4681 94.4522 75.9923C94.7878 76.2404 95.0557 76.5688 95.2314 76.9473C95.407 77.3259 95.4848 77.7425 95.4575 78.159C95.4564 78.4584 95.4289 78.7571 95.3752 79.0516C95.3303 79.367 95.2049 79.6654 95.0112 79.9183C94.7864 80.1881 94.4994 80.3993 94.1748 80.5336C93.7145 80.7204 93.2195 80.8061 92.7232 80.7849C92.1862 80.7709 91.6526 80.6953 91.1329 80.5596C90.5423 80.4156 89.963 80.2288 89.3996 80.0006C88.8358 79.7831 88.2859 79.5313 87.7529 79.2466C87.2199 78.9389 86.7736 78.6573 86.3836 78.38L85.9503 83.4369C86.8218 83.9895 87.7733 84.4045 88.7712 84.6675ZM108.073 84.221C109.4 84.9126 110.88 85.2584 112.376 85.2263C114.027 85.2263 115.283 85.0616 116.176 84.65C117.002 84.3302 117.788 83.9174 118.52 83.4193L118.087 78.3624C117.32 78.9593 116.474 79.4477 115.574 79.814C114.693 80.1574 113.754 80.3281 112.809 80.3167C111.414 80.3167 110.283 79.6494 109.485 78.2497C108.688 76.8501 108.255 75.0648 108.255 72.8288C108.255 70.5928 108.675 68.7772 109.485 67.4079C110.296 66.0386 111.414 65.3409 112.809 65.3409C113.754 65.3295 114.693 65.5002 115.574 65.8436C116.468 66.2223 117.312 66.7099 118.087 67.2952L118.52 62.2383C118.274 62.0625 118.011 61.9032 117.745 61.7413C117.65 61.6837 117.554 61.6258 117.459 61.5667C117.055 61.3481 116.635 61.1613 116.202 61.0077C115.677 60.8223 115.133 60.6916 114.581 60.6177C113.85 60.5215 113.113 60.4752 112.376 60.479C110.88 60.4502 109.401 60.7958 108.073 61.4843C106.843 62.1349 105.775 63.0512 104.944 64.1666C104.089 65.3571 103.455 66.6912 103.072 68.1056C102.643 69.6579 102.427 71.2615 102.431 72.8721C102.424 74.483 102.64 76.087 103.072 77.6387C103.445 79.045 104.08 80.3682 104.944 81.5387C105.775 82.6541 106.843 83.5704 108.073 84.221ZM138.521 85.2261H136.008C135.115 85.2182 134.244 84.9567 133.494 84.4721C132.697 84.0042 132.063 83.3022 131.679 82.4615C130.986 83.3963 130.034 84.1063 128.94 84.5025C127.795 84.9715 126.572 85.2185 125.335 85.2305C124.561 85.2296 123.796 85.0619 123.092 84.7389C122.388 84.4159 121.763 83.945 121.257 83.3585C120.689 82.7005 120.248 81.9422 119.957 81.1225C119.626 80.1462 119.465 79.1202 119.481 78.0892C119.418 76.6017 119.878 75.1392 120.781 73.9553C121.635 72.8922 122.7 72.0174 123.909 71.3857C125.079 70.7625 126.328 70.3018 127.623 70.0164C128.659 69.7772 129.715 69.6321 130.777 69.583C130.721 68.2137 130.444 67.2387 129.998 66.5931C129.551 65.9474 128.659 65.6701 127.398 65.6701C126.44 65.6667 125.489 65.8129 124.577 66.1034C123.55 66.4682 122.559 66.9265 121.617 67.4727L121.227 62.6671C122.507 62.0222 123.845 61.4985 125.222 61.1028C126.428 60.7497 127.679 60.5717 128.936 60.5742C129.971 60.5562 131.001 60.7356 131.969 61.1028C132.906 61.4437 133.739 62.0215 134.387 62.7798C135.121 63.6497 135.655 64.6705 135.951 65.7698C136.362 67.2031 136.55 68.6907 136.51 70.181V76.6073C136.502 77.3059 136.529 78.0045 136.593 78.7002C136.622 79.0915 136.707 79.4767 136.844 79.8442C136.942 80.0632 137.123 80.2345 137.347 80.3209C137.585 80.3809 137.829 80.4086 138.075 80.4032H138.829L138.521 85.2261ZM130.834 73.5523C130.329 73.6065 129.831 73.7185 129.352 73.886C128.736 74.087 128.146 74.3589 127.593 74.6963C127.031 75.0454 126.53 75.4846 126.111 75.9963C125.698 76.5203 125.481 77.1713 125.495 77.8379C125.445 78.6014 125.641 79.3609 126.054 80.0045C126.418 80.4812 127.09 80.7022 128.095 80.7022C128.511 80.6349 128.91 80.4877 129.27 80.2689C129.886 79.9537 130.428 79.5105 130.86 78.9689V73.5523H130.834ZM168.214 85.2261H165.7C164.808 85.2182 163.936 84.9567 163.187 84.4721C162.39 84.0042 161.756 83.3022 161.371 82.4615C160.679 83.3963 159.726 84.1063 158.633 84.5025C157.488 84.9715 156.264 85.2185 155.027 85.2305C154.253 85.2296 153.488 85.0619 152.785 84.7389C152.081 84.4159 151.455 83.945 150.95 83.3585C150.381 82.7005 149.94 81.9422 149.65 81.1225C149.318 80.1462 149.157 79.1202 149.173 78.0892C149.11 76.6017 149.57 75.1392 150.473 73.9553C151.328 72.8922 152.393 72.0174 153.602 71.3857C154.772 70.7625 156.021 70.3018 157.315 70.0164C158.352 69.7772 159.408 69.6321 160.47 69.583C160.414 68.2137 160.136 67.2387 159.69 66.5931C159.244 65.9474 158.351 65.6701 157.09 65.6701C156.133 65.6667 155.181 65.8129 154.269 66.1034C153.243 66.4682 152.252 66.9265 151.309 67.4727L150.919 62.6671C152.199 62.0222 153.537 61.4985 154.915 61.1028C156.121 60.7497 157.372 60.5717 158.628 60.5742C159.664 60.5562 160.693 60.7356 161.662 61.1028C162.593 61.4463 163.419 62.0239 164.062 62.7798C164.797 63.6497 165.331 64.6705 165.627 65.7698C166.037 67.2031 166.225 68.6907 166.186 70.181V76.6073C166.177 77.3059 166.204 78.0045 166.268 78.7002C166.297 79.0915 166.382 79.4767 166.519 79.8442C166.617 80.0632 166.798 80.2345 167.022 80.3209C167.26 80.3809 167.505 80.4086 167.75 80.4032H168.534L168.214 85.2261ZM160.531 73.5523C160.026 73.6065 159.528 73.7185 159.049 73.886C158.433 74.087 157.842 74.3589 157.289 74.6963C156.727 75.0454 156.227 75.4846 155.807 75.9963C155.395 76.5203 155.178 77.1713 155.192 77.8379C155.141 78.6014 155.337 79.3609 155.751 80.0045C156.115 80.4812 156.787 80.7022 157.792 80.7022C158.208 80.6349 158.607 80.4877 158.966 80.2689C159.583 79.9537 160.125 79.5105 160.557 78.9689V73.5523H160.531ZM174.553 84.221C175.88 84.9126 177.36 85.2584 178.856 85.2263C180.502 85.2263 181.759 85.0616 182.656 84.65C183.482 84.3302 184.268 83.9174 185 83.4193L184.567 78.3624C183.8 78.9593 182.954 79.4477 182.054 79.814C181.173 80.1574 180.234 80.3281 179.289 80.3167C177.894 80.3167 176.763 79.6494 175.965 78.2497C175.168 76.8501 174.735 75.0648 174.735 72.8288C174.735 70.5928 175.155 68.7772 175.965 67.4079C176.776 66.0386 177.894 65.3409 179.289 65.3409C180.234 65.3295 181.173 65.5002 182.054 65.8436C182.948 66.2223 183.792 66.7099 184.567 67.2952L185 62.2383C184.754 62.0625 184.491 61.9032 184.225 61.7413C184.13 61.6837 184.034 61.6258 183.938 61.5667C183.535 61.3481 183.115 61.1613 182.682 61.0077C182.156 60.8223 181.613 60.6916 181.061 60.6177C180.33 60.5215 179.593 60.4752 178.856 60.479C177.36 60.4502 175.881 60.7958 174.553 61.4843C173.323 62.1349 172.255 63.0512 171.424 64.1666C170.569 65.3571 169.935 66.6912 169.552 68.1056C169.123 69.6579 168.907 71.2615 168.911 72.8721C168.904 74.483 169.119 76.087 169.552 77.6387C169.925 79.045 170.56 80.3682 171.424 81.5387C172.255 82.6541 173.323 83.5704 174.553 84.221Z" fill="#111111"/>
<path d="M55 60.4784V67.156L63.5452 72.8542L55 78.5221V85.2257L73.5768 72.8542L55 60.4784Z" fill="#111111"/>
</svg>
