<svg width="239" height="134" viewBox="0 0 239 134" fill="none" xmlns="http://www.w3.org/2000/svg">
<path d="M80.9889 77.8439H77.2676V95.5132H80.9889V77.8439Z" fill="#111111"/>
<path d="M83.957 77.8437H92.4563C95.5068 77.8437 97.7671 79.1209 97.7671 83.3476C97.7671 87.5742 95.7457 88.245 94.6615 88.5665L98.3552 95.5129H94.1561L90.9402 88.8238L87.6783 88.4838V95.5038H83.957V77.8345V77.8437ZM92.1071 85.8284C93.3843 85.8284 94.0183 85.4884 94.0183 83.3476C94.0183 81.3445 93.274 80.8391 92.1071 80.8391H87.6967V85.8376H92.1071V85.8284Z" fill="#111111"/>
<path d="M99.8164 77.844H114.178V80.9588H108.793V95.5132H105.072V80.9588H99.8164V77.844Z" fill="#111111"/>
<path d="M116.53 77.844H120.242V87.7858C120.242 91.8195 121.225 92.5178 124.009 92.5178C126.481 92.5178 127.62 91.7 127.62 87.7858V77.844H131.36V87.7858C131.36 95.5775 127.216 95.6327 124.009 95.6327C120.398 95.6327 116.521 95.8256 116.521 87.7858V77.844H116.53Z" fill="#111111"/>
<path d="M133.913 82.2544C133.913 78.7536 136.201 77.7429 139.169 77.6969C141.953 77.651 145.142 77.991 146.685 78.3952V81.0507C144.985 80.9037 141.136 80.8118 140.18 80.8118C138.563 80.7842 137.635 80.8853 137.635 82.53V83.3937C137.635 84.7903 138.223 85.0844 139.702 85.0844H142.78C146.603 85.0844 147.374 87.8133 147.374 89.7612V90.9465C147.374 94.9527 144.645 95.6969 142.008 95.6969C138.691 95.6969 136.514 95.504 134.492 94.971V92.3156C135.558 92.4075 138.793 92.5821 141.264 92.5821C142.376 92.5821 143.653 92.4167 143.653 91.0568V90.1196C143.653 89.1089 143.332 88.4565 141.898 88.4565H138.921C134.226 88.4565 133.904 85.3141 133.904 83.7704V82.2544H133.913Z" fill="#111111"/>
<path d="M150.324 77.8992H154.036V91.1948C154.036 92.472 154.909 92.4536 155.68 92.4536H162.342V95.5685H154.348C152.253 95.5685 150.314 94.8426 150.314 92.1412V77.8992H150.324Z" fill="#111111"/>
<path d="M170.97 77.8992H175.188L181.509 95.5685H177.549L176.171 91.6542H169.803L168.398 95.5685H164.419L170.979 77.8992H170.97ZM175.298 88.668L173.12 82.3464L170.786 88.668H175.298Z" fill="#111111"/>
<path d="M183.771 77.8992H191.792C195.798 77.8992 197.259 80.0769 197.259 82.6312C197.259 84.2484 196.487 86.0861 194.604 86.3985C196.221 86.6649 197.581 88.1351 197.581 90.377C197.581 93.6573 195.936 95.5685 191.847 95.5685H183.78V77.8992H183.771ZM191.553 84.9008C192.904 84.9008 193.593 84.1565 193.593 82.8977C193.593 81.253 192.509 80.8946 191.553 80.8946H187.492V84.9008H191.553V84.9008ZM191.709 92.5731C192.821 92.5731 193.859 92.0861 193.859 90.23C193.859 88.9253 193.271 87.74 191.709 87.74H187.492V92.5639H191.709V92.5731Z" fill="#111111"/>
<path d="M119.176 47.5773C119.001 47.1455 118.579 46.8698 118.119 46.8698H113.415C113.167 46.8698 112.928 46.9525 112.726 47.0995L105.651 52.4012L97.2249 36.6064C97.2249 36.6064 97.1882 36.5513 97.1698 36.5237C97.1514 36.4962 97.1422 36.4686 97.133 36.4502C97.1238 36.4319 97.1055 36.4227 97.0871 36.4135C97.0411 36.3583 96.9952 36.3216 96.9493 36.2757C96.9125 36.2481 96.8849 36.2205 96.8482 36.193C96.7931 36.1562 96.7287 36.1286 96.6644 36.1011C96.6277 36.0919 96.6001 36.0735 96.5634 36.0551C96.4898 36.0276 96.4071 36.0184 96.3245 36.0092C96.2969 36.0092 96.2785 36 96.2509 36C96.2509 36 96.2509 36 96.2418 36C96.1315 36 96.0304 36.0092 95.9294 36.0368L77.6445 40.925C77.2862 41.0168 77.0013 41.2833 76.8727 41.6233L58.744 88.4564L52.9278 74.196C52.7716 73.8101 52.4224 73.5437 52.009 73.4885L42.2969 72.2205C41.8558 72.1654 41.4332 72.3584 41.1851 72.7351C40.9462 73.1026 40.937 73.5804 41.1667 73.9571L55.5832 97.8561C55.5832 97.8561 55.6016 97.8745 55.6016 97.8837C55.6016 97.8928 55.6108 97.902 55.62 97.9204C55.6476 97.9572 55.6843 97.9939 55.7119 98.0215C55.7394 98.049 55.7578 98.0766 55.7854 98.1042C55.8313 98.1409 55.8773 98.1777 55.9324 98.2144C55.96 98.2328 55.9875 98.2604 56.0151 98.2787C56.0702 98.3063 56.1345 98.3339 56.1989 98.3523C56.2264 98.3614 56.254 98.3798 56.2816 98.3798C56.3734 98.4074 56.4653 98.4166 56.5664 98.4166H61.0963C61.5005 98.4166 61.8865 98.196 62.0886 97.8469L89.2494 51.3813L99.7333 58.7412C99.7333 58.7412 99.8068 58.778 99.8344 58.7963C99.8895 58.8239 99.9355 58.8515 99.9998 58.879C100.055 58.8974 100.11 58.9066 100.165 58.925C100.202 58.925 100.239 58.9525 100.275 58.9525L107.516 59.6784C107.516 59.6784 107.589 59.6784 107.626 59.6784C107.929 59.6784 108.223 59.559 108.435 59.3476L118.946 48.8453C119.277 48.5146 119.369 48.0184 119.194 47.5957M51.0442 75.6937L57.5312 91.5896L56.3642 94.6126L56.3367 94.6769L44.3642 74.8208L51.0442 75.6937ZM60.4347 96.1287H58.2387L59.8375 92.0031L78.7747 42.9923L93.7977 38.977L89.3137 46.6493L87.862 49.1394L60.4071 96.1103L60.4347 96.1287ZM95.8467 40.0245L96.1499 39.5008L103.776 53.7979L103.354 54.1195L100.34 56.3798L90.3796 49.3874L95.8467 40.0337V40.0245ZM107.176 57.317L103.409 56.9403L105.945 55.0383L113.782 49.1577H115.335L107.167 57.317H107.176Z" fill="#111111"/>
</svg>
