<?xml version="1.0" encoding="utf-8"?>
<!-- Generator: Adobe Illustrator 27.3.1, SVG Export Plug-In . SVG Version: 6.00 Build 0)  -->
<svg version="1.1" id="Layer_1" xmlns="http://www.w3.org/2000/svg" xmlns:xlink="http://www.w3.org/1999/xlink" x="0px" y="0px"
	 viewBox="0 0 614.29 287.62" style="enable-background:new 0 0 614.29 287.62;" xml:space="preserve">
<style type="text/css">
	.st0{fill:#000099;}
	.st1{font-family:'Helvetica-Bold';}
	.st2{font-size:8.7438px;}
	.st3{font-size:8.7486px;}
</style>
<path class="st0" d="M183.22,137.97c0-14.8-13.56-36.07-39.77-36.07c-23.74,0-39.77,20.35-39.77,41.31
	c0,24.97,17.26,42.85,46.86,42.85h56.11c-13.26,20.65-36.38,33.91-62.89,33.91c-41.93,0-75.83-34.22-75.83-76.14
	s33.91-76.14,75.83-76.14s76.14,34.22,76.14,76.14c0,8.32-1.54,16.34-3.7,23.74h-84.78v-8.32l29.9-0.92
	C176.44,157.7,183.22,149.99,183.22,137.97L183.22,137.97z"/>
<text transform="matrix(1 0 0 1 195.4907 220.0747)" class="st0 st1 st2">TM</text>
<path class="st0" d="M284.2,105.48c0-4.34-3.98-10.58-11.66-10.58c-6.96,0-11.66,5.97-11.66,12.12c0,7.32,5.06,12.57,13.74,12.57
	h16.45c-3.89,6.06-10.67,9.94-18.44,9.94c-12.3,0-22.24-10.04-22.24-22.33s9.94-22.33,22.24-22.33c12.3,0,22.33,10.04,22.33,22.33
	c0,2.44-0.45,4.79-1.09,6.96h-24.86v-2.44l8.77-0.27C282.21,111.26,284.2,109,284.2,105.48L284.2,105.48z"/>
<polygon class="st0" points="313.49,98.7 321.99,86.22 333.74,86.22 319.28,106.38 334.92,128.17 322.44,128.17 313.13,114.61 
	303.73,128.17 291.98,128.17 307.35,106.92 292.43,86.22 304.9,86.22 "/>
<path class="st0" d="M347.85,94.45c3.07-6.51,8.59-9.4,14.19-9.4c10.13,0,19.35,8.59,19.35,22.15s-9.22,22.15-19.35,22.15
	c-5.61,0-11.12-2.89-14.19-9.4c-0.18-0.36-0.45-0.27-0.45,0.09v25.4h-10.85V86.22h10.85v8.14
	C347.39,94.72,347.67,94.81,347.85,94.45L347.85,94.45z M359.06,120.39c6.33,0,11.84-5.51,11.84-13.2s-5.52-13.2-11.84-13.2
	c-6.24,0-11.84,5.52-11.84,13.2S352.82,120.39,359.06,120.39L359.06,120.39z"/>
<path class="st0" d="M418.72,105.48c0-4.34-3.98-10.58-11.66-10.58c-6.96,0-11.66,5.97-11.66,12.12c0,7.32,5.06,12.57,13.74,12.57
	h16.45c-3.89,6.06-10.67,9.94-18.44,9.94c-12.29,0-22.24-10.04-22.24-22.33s9.95-22.33,22.24-22.33c12.3,0,22.33,10.04,22.33,22.33
	c0,2.44-0.45,4.79-1.08,6.96h-24.86v-2.44l8.77-0.27C416.73,111.26,418.72,109,418.72,105.48L418.72,105.48z"/>
<path class="st0" d="M466.55,119.94c-3.07,6.51-8.59,9.4-14.19,9.4c-10.13,0-19.35-8.59-19.35-22.15s9.22-22.15,19.35-22.15
	c5.61,0,11.12,2.89,14.19,9.4c0.18,0.36,0.45,0.27,0.45-0.09v-26.3h10.85v60.12H467v-8.14C467,119.67,466.73,119.58,466.55,119.94
	L466.55,119.94z M455.33,93.99c-6.33,0-11.84,5.52-11.84,13.2s5.51,13.2,11.84,13.2c6.24,0,11.84-5.51,11.84-13.2
	S461.57,93.99,455.33,93.99L455.33,93.99z"/>
<path class="st0" d="M484.71,74.01c0-3.43,2.89-6.33,6.33-6.33c3.44,0,6.33,2.89,6.33,6.33s-2.89,6.33-6.33,6.33
	C487.61,80.34,484.71,77.45,484.71,74.01L484.71,74.01z M496.47,86.22v41.95h-10.85V86.22H496.47L496.47,86.22z"/>
<path class="st0" d="M535.43,119.94c-3.07,6.51-8.59,9.4-14.19,9.4c-10.13,0-19.35-8.59-19.35-22.15s9.22-22.15,19.35-22.15
	c5.61,0,11.12,2.89,14.19,9.4c0.18,0.36,0.45,0.27,0.45-0.09v-8.14h10.85v41.95h-10.85v-8.14
	C535.88,119.67,535.61,119.58,535.43,119.94L535.43,119.94z M524.22,93.99c-6.33,0-11.84,5.52-11.84,13.2s5.51,13.2,11.84,13.2
	c6.24,0,11.84-5.51,11.84-13.2S530.46,93.99,524.22,93.99L524.22,93.99z"/>
<path class="st0" d="M287.79,194.25c0-0.36-0.27-0.45-0.45-0.09c-3.07,6.51-8.5,9.4-14.01,9.4c-10.04,0-19.17-8.5-19.17-21.97
	s9.13-21.97,19.17-21.97c5.51,0,10.94,2.89,14.01,9.4c0.18,0.36,0.45,0.27,0.45-0.09v-8.14h10.85v39.51
	c0,11.66-8.05,20.7-21.97,20.7c-7.78,0-14.56-2.71-19.53-7.32l6.51-7.05c4.34,3.44,7.78,5.24,12.84,5.24c7.96,0,11.3-5.6,11.3-12.57
	V194.25L287.79,194.25z M276.3,168.58c-6.24,0-11.66,5.42-11.66,13.02c0,7.59,5.42,13.02,11.66,13.02c6.15,0,11.66-5.42,11.66-13.02
	C287.97,174,282.45,168.58,276.3,168.58L276.3,168.58z"/>
<path class="st0" d="M317.26,160.8v9.13c0,0.18,0.18,0.27,0.27,0c1.45-7.5,4.7-10.31,10.31-10.31h0.99v11.39h-4.88
	c-4.43,0-6.69,3.44-6.69,8.32v23.41h-10.85V160.8H317.26L317.26,160.8z"/>
<path class="st0" d="M351.88,159.45c12.21,0,22.24,10.04,22.24,22.33s-10.04,22.33-22.24,22.33c-12.39,0-22.42-10.03-22.42-22.33
	S339.5,159.45,351.88,159.45L351.88,159.45z M351.79,169.3c-6.51,0-11.84,5.42-11.84,12.48c0,7.05,5.33,12.48,11.84,12.48
	s11.84-5.42,11.84-12.48C363.63,174.73,358.3,169.3,351.79,169.3L351.79,169.3z"/>
<path class="st0" d="M396.63,204.11c-10.58,0-17.36-6.42-17.36-15.82V160.8h10.85v26.67c0,4.16,2.71,6.87,6.78,6.87
	c3.71,0,6.51-2.8,6.51-6.78V160.8h10.85v27.48C414.26,197.69,406.94,204.11,396.63,204.11L396.63,204.11z"/>
<path class="st0" d="M433.06,169.03c3.07-6.51,8.59-9.4,14.19-9.4c10.13,0,19.35,8.59,19.35,22.15s-9.22,22.15-19.35,22.15
	c-5.61,0-11.12-2.89-14.19-9.4c-0.18-0.36-0.45-0.27-0.45,0.09v25.4h-10.85V160.8h10.85v8.14
	C432.61,169.3,432.88,169.39,433.06,169.03L433.06,169.03z M444.27,194.98c6.33,0,11.84-5.51,11.84-13.2s-5.51-13.2-11.84-13.2
	c-6.24,0-11.84,5.51-11.84,13.2C432.43,189.46,438.04,194.98,444.27,194.98L444.27,194.98z"/>
<text transform="matrix(1 0 0 1 472.5532 167.0512)" class="st0 st1 st3">TM</text>
</svg>
