<svg width="239" height="134" viewBox="0 0 239 134" fill="none" xmlns="http://www.w3.org/2000/svg">
<path d="M114.384 63.9035L90.7458 43.8485C89.7792 43.0408 88.6467 42.4558 87.4287 42.135C86.2106 41.8141 84.9368 41.7653 83.6978 41.9919C82.4587 42.2185 81.2847 42.7151 80.2591 43.4464C79.2335 44.1777 78.3814 45.1257 77.7633 46.2232C77.1452 47.3208 76.7763 48.5409 76.6826 49.797C76.589 51.0531 76.773 52.3145 77.2215 53.4915C77.67 54.6686 78.3721 55.7325 79.2779 56.6078C80.1838 57.483 81.2712 58.1482 82.4629 58.556L82.5487 58.5818L82.7676 58.6505L112.625 67.7359C112.843 67.8112 113.072 67.8518 113.303 67.8561C113.762 67.8446 114.206 67.686 114.568 67.4037C114.93 67.1214 115.193 66.7302 115.316 66.2877C115.44 65.8452 115.418 65.3747 115.254 64.9455C115.09 64.5163 114.793 64.1511 114.406 63.9035H114.384Z" fill="url(#paint0_linear_1422_2)"/>
<path d="M161.151 68.6588L117.307 26.4202C116.713 25.8255 116.004 25.3569 115.225 25.0426C114.445 24.7283 113.609 24.5747 112.769 24.591C111.928 24.6073 111.1 24.7933 110.333 25.1376C109.566 25.482 108.876 25.9777 108.305 26.595C107.734 27.2124 107.294 27.9386 107.011 28.7302C106.728 29.5219 106.607 30.3625 106.657 31.2018C106.706 32.0412 106.925 32.8618 107.299 33.6147C107.673 34.3675 108.196 35.037 108.835 35.5829L108.921 35.6516L155.503 74.8989C156.339 75.5988 157.413 75.9476 158.501 75.8721C159.588 75.7965 160.604 75.3025 161.335 74.4937C162.066 73.685 162.455 72.6244 162.421 71.5348C162.387 70.4452 161.931 69.4113 161.151 68.6502V68.6588Z" fill="url(#paint1_linear_1422_2)"/>
<path d="M162.417 71.6714C162.422 70.8931 162.212 70.1286 161.809 69.4628C161.406 68.797 160.826 68.2561 160.134 67.9002C159.442 67.5444 158.665 67.3875 157.889 67.4472C157.113 67.5068 156.368 67.7806 155.739 68.238L102.681 94.1683C101.613 94.6941 100.667 95.4362 99.9009 96.3475C99.1354 97.2588 98.5677 98.3193 98.2339 99.4617C97.9002 100.604 97.8077 101.804 97.9623 102.984C98.1169 104.164 98.5152 105.299 99.132 106.317C99.7488 107.335 100.571 108.213 101.545 108.896C102.519 109.58 103.625 110.053 104.793 110.286C105.96 110.519 107.163 110.507 108.325 110.25C109.487 109.993 110.583 109.497 111.543 108.794L160.61 75.139C161.168 74.7495 161.624 74.2307 161.939 73.6269C162.253 73.0231 162.417 72.3522 162.417 71.6714Z" fill="url(#paint2_linear_1422_2)"/>
<path d="M119.131 30.8362C119.131 30.0156 118.97 29.203 118.657 28.4446C118.343 27.6863 117.884 26.9971 117.304 26.4165C116.724 25.8358 116.035 25.3751 115.277 25.0605C114.52 24.746 113.707 24.5838 112.887 24.5833C111.689 24.5827 110.517 24.9301 109.513 25.5832L80.5875 43.1318C79.6091 43.7744 78.7725 44.6103 78.1291 45.5881C77.4857 46.5659 77.0491 47.665 76.8462 48.8178C76.6432 49.9705 76.6782 51.1526 76.9489 52.2914C77.2196 53.4302 77.7204 54.5015 78.4205 55.4396C79.1205 56.3777 80.005 57.1627 81.0196 57.7463C82.0342 58.33 83.1575 58.6999 84.3204 58.8334C85.4832 58.967 86.6611 58.8612 87.7816 58.5227C88.9021 58.1843 89.9415 57.6202 90.836 56.8652L116.736 35.7416L116.942 35.5742C117.628 34.9895 118.178 34.2631 118.556 33.4452C118.934 32.6273 119.13 31.7372 119.131 30.8362Z" fill="url(#paint3_linear_1422_2)"/>
<path d="M102.333 50.3333H136.667V84.6666H102.333V50.3333Z" fill="black"/>
<path d="M106.196 78.2292H119.071V80.3751H106.196V78.2292Z" fill="white"/>
<path d="M105.531 59.1828L106.488 58.2815C106.581 58.4265 106.708 58.5472 106.857 58.6337C107.006 58.7203 107.174 58.7702 107.346 58.7793C107.715 58.7793 107.951 58.5261 107.951 58.0283V54.625H109.427V58.024C109.448 58.2986 109.412 58.5746 109.322 58.8346C109.231 59.0945 109.087 59.3329 108.9 59.5347C108.703 59.7186 108.473 59.8615 108.221 59.9551C107.969 60.0487 107.7 60.091 107.432 60.0797C107.065 60.1022 106.699 60.0317 106.366 59.875C106.034 59.7182 105.747 59.4801 105.531 59.1828Z" fill="white"/>
<path d="M110.058 54.625H114.35V55.9125H111.509V56.7322H114.084V57.9038H111.509V58.7622H114.389V60.0239H110.058V54.625Z" fill="white"/>
<path d="M116.496 55.9382H114.895V54.625H119.586V55.9125H117.981V59.9681H116.496V55.9382Z" fill="white"/>
<path d="M106.127 62.1096H108.655C109.186 62.0675 109.712 62.2372 110.118 62.5817C110.342 62.8111 110.465 63.1197 110.462 63.44C110.474 63.707 110.399 63.9707 110.249 64.1919C110.099 64.413 109.882 64.5798 109.629 64.6674C110.281 64.882 110.694 65.2468 110.694 65.9549C110.694 66.8776 109.947 67.4355 108.668 67.4355H106.127V62.1096ZM108.998 63.7619C108.998 63.4657 108.762 63.3027 108.324 63.3027H107.573V64.2468H108.286C108.741 64.2468 108.998 64.0923 108.998 63.779V63.7619ZM108.488 65.2854H107.573V66.2725H108.5C108.96 66.2725 109.213 66.0965 109.213 65.7832C109.2 65.4785 108.985 65.2854 108.488 65.2854Z" fill="white"/>
<path d="M111.174 62.1096H113.547C113.862 62.0844 114.179 62.1223 114.479 62.2211C114.779 62.3198 115.056 62.4774 115.294 62.6847C115.455 62.8483 115.58 63.0433 115.662 63.2574C115.744 63.4715 115.781 63.7002 115.771 63.9293C115.781 64.285 115.68 64.6351 115.482 64.9312C115.285 65.2272 115 65.4545 114.668 65.5816L115.955 67.4527H114.238L113.157 65.8305H112.659V67.4527H111.174V62.1096ZM113.487 64.6846C113.985 64.6846 114.286 64.44 114.286 64.0494C114.286 63.6203 113.972 63.4057 113.479 63.4057H112.659V64.6932L113.487 64.6846Z" fill="white"/>
<path d="M117.835 62.071H119.268L121.547 67.47H119.955L119.573 66.5043H117.5L117.114 67.47H115.56L117.835 62.071ZM119.122 65.3499L118.526 63.8306L117.934 65.3542L119.122 65.3499Z" fill="white"/>
<path d="M121.766 62.0925H123.251V67.4528H121.766V62.0925Z" fill="white"/>
<path d="M123.83 62.0925H125.217L127.143 64.925V62.0925H128.611V67.4528H127.324L125.298 64.4959V67.4357H123.83V62.0925Z" fill="white"/>
<path d="M128.864 66.6418L129.693 65.6504C130.18 66.0596 130.794 66.2871 131.431 66.2942C131.839 66.2942 132.053 66.1568 132.053 65.9294C132.053 65.7019 131.873 65.586 131.139 65.4101C129.997 65.1483 129.118 64.8264 129.118 63.732C129.118 62.7364 129.907 62.0154 131.195 62.0154C131.991 61.9852 132.772 62.2375 133.401 62.7278L132.654 63.7749C132.221 63.4487 131.698 63.2643 131.156 63.2471C130.796 63.2471 130.62 63.393 130.62 63.5904C130.62 63.835 130.804 63.9423 131.555 64.1097C132.778 64.3801 133.542 64.7792 133.542 65.7792C133.542 66.8735 132.684 67.5259 131.397 67.5259C130.473 67.5509 129.572 67.2363 128.864 66.6418Z" fill="white"/>
<defs>
<linearGradient id="paint0_linear_1422_2" x1="86.3941" y1="50.9984" x2="115.08" y2="64.9506" gradientUnits="userSpaceOnUse">
<stop offset="0.17" stop-color="#FE2857"/>
<stop offset="1" stop-color="#293896"/>
</linearGradient>
<linearGradient id="paint1_linear_1422_2" x1="112.427" y1="30.4158" x2="156.224" y2="69.9635" gradientUnits="userSpaceOnUse">
<stop offset="0.09" stop-color="#FF318C"/>
<stop offset="0.32" stop-color="#FE2857"/>
<stop offset="1" stop-color="#FDB60D"/>
</linearGradient>
<linearGradient id="paint2_linear_1422_2" x1="159.267" y1="70.4611" x2="101.153" y2="105.048" gradientUnits="userSpaceOnUse">
<stop offset="0.01" stop-color="#FDB60D"/>
<stop offset="1" stop-color="#FCF84A"/>
</linearGradient>
<linearGradient id="paint3_linear_1422_2" x1="83.5873" y1="51.522" x2="113.775" y2="30.2611" gradientUnits="userSpaceOnUse">
<stop stop-color="#FE2857"/>
<stop offset="1" stop-color="#FF318C"/>
</linearGradient>
</defs>
</svg>
