<svg viewBox="0 10.353 68.137 40.4" version="1.1" id="svg84" width="480" height="240" xmlns="http://www.w3.org/2000/svg">
  <style id="style2">
        .style0{
        fill:	#333;
        fill-rule:	nonzero;
        }
        .style1{
        fill:	#333;
        fill-rule:	evenodd;
        }
    </style>
  <defs id="defs4"></defs>
  <g transform="matrix(0.32111252,0,0,0.32111252,4.5147474,-300.70166)" id="g82">
    <g transform="matrix(1.0016907,0,0,0.99930881,500.03637,1045.9036)" id="g80">
      <g transform="matrix(1.25,0,0,-1.25,-406.19425,6.278225)" id="g8">
        <path d="M 0,0 H -2.975 V 11.882 L -4.936,6.026 H -6.26 l -1.963,5.856 V 0 h -2.941 v 22.267 h 1.471 L -5.6,10.67 -1.473,22.267 H 0 Z" class="style0" id="path6" style="fill:#333333;fill-rule:nonzero"></path>
      </g>
      <g transform="matrix(1.25,0,0,-1.25,-395.52288,-1.7259)" id="g12">
        <path d="M 0,0 -1.213,9.315 -2.424,0 Z M 3.721,-6.403 H 0.865 l -0.549,3.95 H -2.74 l -0.52,-3.95 h -2.713 l 3.375,22.266 h 2.946 z" class="style0" id="path10" style="fill:#333333;fill-rule:nonzero"></path>
      </g>
      <g transform="matrix(1.25,0,0,-1.25,-375.8695,6.278225)" id="g16">
        <path d="m 0,0 h -1.473 l -4.99,12.689 V 0 h -2.943 v 22.267 h 1.472 L -2.973,9.489 V 22.267 H 0 Z" class="style0" id="path14" style="fill:#333333;fill-rule:nonzero"></path>
      </g>
      <g transform="matrix(1.25,0,0,-1.25,-359.28263,6.278225)" id="g20">
        <path d="m 0,0 h -1.471 l -4.99,12.689 V 0 h -2.945 v 22.267 h 1.472 L -2.973,9.489 V 22.267 H 0 Z" class="style0" id="path18" style="fill:#333333;fill-rule:nonzero"></path>
      </g>
      <path d="m -350.628,6.278 h -3.826 v -27.834 h 3.826 z" class="style0" id="path22" style="fill:#333333;fill-rule:nonzero"></path>
      <g transform="matrix(1.25,0,0,-1.25,-334.0775,6.278225)" id="g26">
        <path d="M 0,0 H -1.471 L -6.463,12.689 V 0 h -2.943 v 22.267 h 1.472 L -2.973,9.489 V 22.267 H 0 Z" class="style0" id="path24" style="fill:#333333;fill-rule:nonzero"></path>
      </g>
      <g transform="matrix(1.25,0,0,-1.25,-317.63463,5.45185)" id="g30">
        <path d="m 0,0 c -0.867,-0.538 -1.961,-0.809 -3.289,-0.809 -4.311,0 -6.463,3.772 -6.463,11.309 0,7.501 2.039,11.253 6.115,11.253 0.674,0 1.321,-0.087 1.934,-0.262 v -2.364 c -0.539,0.113 -0.992,0.17 -1.356,0.17 -2.406,0 -3.605,-2.931 -3.605,-8.797 0,-5.902 1.164,-8.856 3.49,-8.856 0.137,0 0.24,0.01 0.316,0.03 v 4.615 c 0,1.092 -0.125,1.846 -0.375,2.252 -0.191,0.325 -0.519,0.488 -0.978,0.488 -0.232,0 -0.397,-0.01 -0.492,-0.028 v 2.423 c 0.326,0.056 0.662,0.086 1.01,0.086 C -1.23,11.51 0,9.684 0,6.028 Z" class="style0" id="path28" style="fill:#333333;fill-rule:nonzero"></path>
      </g>
      <g transform="matrix(1.25,0,0,-1.25,-299.75388,-13.117525)" id="g34"></g>
      <g transform="matrix(1.25,0,0,-1.25,-281.10875,-0.567525)" id="g38"></g>
      <g transform="matrix(1.25,0,0,-1.25,-268.9555,-2.9149)" id="g42"></g>
      <g transform="matrix(1.25,0,0,-1.25,-251.973,6.278225)" id="g46"></g>
      <g transform="matrix(1.25,0,0,-1.25,-231.13075,6.20985)" id="g52"></g>
      <g transform="matrix(1.25,0,0,-1.25,-221.61175,-1.7259)" id="g56"></g>
      <g transform="matrix(1.25,0,0,-1.25,-203.97988,-18.4899)" id="g60"></g>
      <g transform="matrix(1.25,0,0,-1.25,-183.82125,-7.637775)" id="g66"></g>
      <g transform="matrix(1.25,0,0,-1.25,-164.02625,6.278225)" id="g70"></g>
      <g transform="matrix(1.25,0,0,-1.25,-149.78313,-0.71765)" id="g74"></g>
      <g transform="matrix(1.25,0,0,-1.25,-490.70113,-38.568025)" id="g78">
        <path d="M 0,0 H 20.963 V -22.049 C 22.164,-14.783 23.195,-7.35 24.311,0 H 45.275 V -36.024 H 25.492 V -5.118 C 23.877,-15.348 22.32,-25.64 20.865,-36.024 H 1.184 v 32.187 c -2.13,-10.642 -4.026,-21.507 -6.108,-32.187 h -1.869 c 2.242,11.898 4.472,23.809 6.693,35.728 C -0.109,-0.153 -0.115,-0.017 0,0" class="style1" id="path76" style="fill:#333333;fill-rule:evenodd"></path>
      </g>
    </g>
  </g>
</svg>